<svg width="453" height="140" viewBox="0 0 453 140" fill="none" xmlns="http://www.w3.org/2000/svg">
<mask id="path-1-inside-1_745_5288" fill="white">
<path d="M70.0709 23.3594V116.641C70.0709 119.818 69.4459 122.865 68.1961 125.781C66.9983 128.646 65.3318 131.12 63.1966 133.203C61.0614 135.286 58.5616 136.953 55.6974 138.203C52.8852 139.401 49.8907 140 46.7139 140H23.357C20.1802 140 17.1597 139.401 14.2954 138.203C11.4832 136.953 9.00948 135.286 6.87429 133.203C4.73909 131.12 3.04656 128.646 1.79669 125.781C0.598896 122.865 0 119.818 0 116.641V23.3594C0 20.1302 0.598896 17.1094 1.79669 14.2969C3.04656 11.4844 4.73909 9.01042 6.87429 6.875C9.00948 4.73958 11.4832 3.07292 14.2954 1.875C17.1597 0.625 20.1802 0 23.357 0H46.7139C49.8907 0 52.8852 0.625 55.6974 1.875C58.5616 3.07292 61.0614 4.73958 63.1966 6.875C65.3318 9.01042 66.9983 11.4844 68.1961 14.2969C69.4459 17.1094 70.0709 20.1302 70.0709 23.3594ZM23.357 115.703H46.7139V22.4219H23.357V115.703Z"/>
<path d="M101.318 0V93.2812H77.9607V0H101.318ZM101.318 140H77.9607V116.641H101.318V140Z"/>
<path d="M172.404 0H195.761C198.938 0 201.932 0.625 204.744 1.875C207.609 3.07292 210.108 4.73958 212.244 6.875C214.379 9.01042 216.045 11.4844 217.243 14.2969C218.493 17.1094 219.118 20.1302 219.118 23.3594V46.7188H195.761V23.3594H172.404V116.641H195.761V93.2812H219.118V116.641C219.118 119.818 218.493 122.865 217.243 125.781C216.045 128.646 214.379 131.12 212.244 133.203C210.108 135.286 207.609 136.953 204.744 138.203C201.932 139.401 198.938 140 195.761 140H172.404C169.227 140 166.207 139.401 163.342 138.203C160.53 136.953 158.057 135.286 155.921 133.203C153.786 131.12 152.094 128.646 150.844 125.781C149.646 122.865 149.047 119.818 149.047 116.641V23.3594C149.047 20.1302 149.646 17.1094 150.844 14.2969C152.094 11.4844 153.786 9.01042 155.921 6.875C158.057 4.73958 160.53 3.07292 163.342 1.875C166.207 0.625 169.227 0 172.404 0Z"/>
<path d="M297.079 0V116.641C297.079 119.818 296.454 122.839 295.204 125.703C294.006 128.516 292.34 130.99 290.204 133.125C288.069 135.26 285.569 136.953 282.705 138.203C279.893 139.401 276.898 140 273.722 140H250.365C247.188 140 244.167 139.401 241.303 138.203C238.491 136.953 236.017 135.26 233.882 133.125C231.747 130.99 230.054 128.516 228.804 125.703C227.607 122.839 227.008 119.818 227.008 116.641V0H250.365V116.641H273.722V0H297.079Z"/>
<path d="M351.682 140H304.968V0H351.682C354.859 0 357.854 0.625 360.666 1.875C363.53 3.07292 366.03 4.73958 368.165 6.875C370.3 9.01042 371.967 11.4844 373.165 14.2969C374.414 17.1094 375.039 20.1302 375.039 23.3594V50.1562C374.362 57.7083 370.483 62.7604 363.4 65.3125C370.795 66.9792 374.675 72.0573 375.039 80.5469V116.797C375.039 119.974 374.414 122.995 373.165 125.859C371.967 128.672 370.3 131.12 368.165 133.203C366.03 135.286 363.53 136.953 360.666 138.203C357.854 139.401 354.859 140 351.682 140ZM351.682 76.4844H328.325V115.859H351.682V76.4844ZM351.682 22.4219H328.325V54.0625H351.682V22.4219Z"/>
<path d="M406.286 0H429.643C432.82 0 435.814 0.625 438.626 1.875C441.491 3.07292 443.991 4.73958 446.126 6.875C448.261 9.01042 449.927 11.4844 451.125 14.2969C452.375 17.1094 453 20.1302 453 23.3594V140H429.643V88.9844H406.286V140H382.929V23.3594C382.929 20.1302 383.528 17.1094 384.726 14.2969C385.976 11.4844 387.668 9.01042 389.803 6.875C391.939 4.73958 394.412 3.07292 397.225 1.875C400.089 0.625 403.109 0 406.286 0ZM429.643 23.3594H406.286V65.7812H429.643V23.3594Z"/>
</mask>
<path d="M70.0709 23.3594V116.641C70.0709 119.818 69.4459 122.865 68.1961 125.781C66.9983 128.646 65.3318 131.12 63.1966 133.203C61.0614 135.286 58.5616 136.953 55.6974 138.203C52.8852 139.401 49.8907 140 46.7139 140H23.357C20.1802 140 17.1597 139.401 14.2954 138.203C11.4832 136.953 9.00948 135.286 6.87429 133.203C4.73909 131.12 3.04656 128.646 1.79669 125.781C0.598896 122.865 0 119.818 0 116.641V23.3594C0 20.1302 0.598896 17.1094 1.79669 14.2969C3.04656 11.4844 4.73909 9.01042 6.87429 6.875C9.00948 4.73958 11.4832 3.07292 14.2954 1.875C17.1597 0.625 20.1802 0 23.357 0H46.7139C49.8907 0 52.8852 0.625 55.6974 1.875C58.5616 3.07292 61.0614 4.73958 63.1966 6.875C65.3318 9.01042 66.9983 11.4844 68.1961 14.2969C69.4459 17.1094 70.0709 20.1302 70.0709 23.3594ZM23.357 115.703H46.7139V22.4219H23.357V115.703Z" stroke="#967877" stroke-width="6" mask="url(#path-1-inside-1_745_5288)"/>
<path d="M101.318 0V93.2812H77.9607V0H101.318ZM101.318 140H77.9607V116.641H101.318V140Z" stroke="#967877" stroke-width="6" mask="url(#path-1-inside-1_745_5288)"/>
<path d="M172.404 0H195.761C198.938 0 201.932 0.625 204.744 1.875C207.609 3.07292 210.108 4.73958 212.244 6.875C214.379 9.01042 216.045 11.4844 217.243 14.2969C218.493 17.1094 219.118 20.1302 219.118 23.3594V46.7188H195.761V23.3594H172.404V116.641H195.761V93.2812H219.118V116.641C219.118 119.818 218.493 122.865 217.243 125.781C216.045 128.646 214.379 131.12 212.244 133.203C210.108 135.286 207.609 136.953 204.744 138.203C201.932 139.401 198.938 140 195.761 140H172.404C169.227 140 166.207 139.401 163.342 138.203C160.53 136.953 158.057 135.286 155.921 133.203C153.786 131.12 152.094 128.646 150.844 125.781C149.646 122.865 149.047 119.818 149.047 116.641V23.3594C149.047 20.1302 149.646 17.1094 150.844 14.2969C152.094 11.4844 153.786 9.01042 155.921 6.875C158.057 4.73958 160.53 3.07292 163.342 1.875C166.207 0.625 169.227 0 172.404 0Z" stroke="#967877" stroke-width="6" mask="url(#path-1-inside-1_745_5288)"/>
<path d="M297.079 0V116.641C297.079 119.818 296.454 122.839 295.204 125.703C294.006 128.516 292.34 130.99 290.204 133.125C288.069 135.26 285.569 136.953 282.705 138.203C279.893 139.401 276.898 140 273.722 140H250.365C247.188 140 244.167 139.401 241.303 138.203C238.491 136.953 236.017 135.26 233.882 133.125C231.747 130.99 230.054 128.516 228.804 125.703C227.607 122.839 227.008 119.818 227.008 116.641V0H250.365V116.641H273.722V0H297.079Z" stroke="#967877" stroke-width="6" mask="url(#path-1-inside-1_745_5288)"/>
<path d="M351.682 140H304.968V0H351.682C354.859 0 357.854 0.625 360.666 1.875C363.53 3.07292 366.03 4.73958 368.165 6.875C370.3 9.01042 371.967 11.4844 373.165 14.2969C374.414 17.1094 375.039 20.1302 375.039 23.3594V50.1562C374.362 57.7083 370.483 62.7604 363.4 65.3125C370.795 66.9792 374.675 72.0573 375.039 80.5469V116.797C375.039 119.974 374.414 122.995 373.165 125.859C371.967 128.672 370.3 131.12 368.165 133.203C366.03 135.286 363.53 136.953 360.666 138.203C357.854 139.401 354.859 140 351.682 140ZM351.682 76.4844H328.325V115.859H351.682V76.4844ZM351.682 22.4219H328.325V54.0625H351.682V22.4219Z" stroke="#967877" stroke-width="6" mask="url(#path-1-inside-1_745_5288)"/>
<path d="M406.286 0H429.643C432.82 0 435.814 0.625 438.626 1.875C441.491 3.07292 443.991 4.73958 446.126 6.875C448.261 9.01042 449.927 11.4844 451.125 14.2969C452.375 17.1094 453 20.1302 453 23.3594V140H429.643V88.9844H406.286V140H382.929V23.3594C382.929 20.1302 383.528 17.1094 384.726 14.2969C385.976 11.4844 387.668 9.01042 389.803 6.875C391.939 4.73958 394.412 3.07292 397.225 1.875C400.089 0.625 403.109 0 406.286 0ZM429.643 23.3594H406.286V65.7812H429.643V23.3594Z" stroke="#967877" stroke-width="6" mask="url(#path-1-inside-1_745_5288)"/>
</svg>
