<svg width="454" height="123" viewBox="0 0 454 123" fill="none" xmlns="http://www.w3.org/2000/svg">
<path fill-rule="evenodd" clip-rule="evenodd" d="M224.467 24.4863V37.9022H191.818V24.4864C191.818 15.4707 199.127 8.1621 208.143 8.1621C217.158 8.1621 224.467 15.4707 224.467 24.4863ZM183.656 24.4864C183.656 10.9629 194.619 0 208.143 0C221.666 0 232.629 10.9629 232.629 24.4863V37.9022V44.4766H232.631V122.309H224.469V46.0643H224.467H191.818L191.818 122.309H183.656V46.0643V44.4766V37.9022V24.4864Z" fill="#967877"/>
<path fill-rule="evenodd" clip-rule="evenodd" d="M130.592 8.1621H138.754C147.77 8.1621 155.078 15.4707 155.078 24.4863V37.9022H130.592V8.1621ZM122.43 0H130.592H138.754C152.277 0 163.24 10.9629 163.24 24.4863V37.9022V42.2027C168.197 45.9255 171.402 51.8526 171.402 58.5284V81.4992C171.402 104.038 153.131 122.31 130.592 122.31H130.592H122.43V114.148V46.2853V46.0643V38.1232V37.9022V8.1621V0ZM130.592 46.2853H150.997C157.759 46.2853 163.24 51.7668 163.24 58.5284V81.4992C163.24 99.5304 148.623 114.148 130.592 114.148H130.592V46.2853Z" fill="#967877"/>
<mask id="path-3-inside-1_745_5289" fill="white">
<path d="M48.9766 0H40.8144C18.2753 0 0.00384903 18.2715 0.00384903 40.8105V81.4983C0.00384903 104.037 18.2753 122.309 40.8144 122.309H48.9766V0Z"/>
</mask>
<path d="M48.9766 -8.1621H40.8143C13.7675 -8.1621 -8.15825 13.7637 -8.15825 40.8105H8.16595C8.16595 22.7793 22.7831 8.1621 40.8143 8.1621H48.9766V-8.1621ZM-8.15825 81.4983C-8.15825 108.545 13.7675 130.471 40.8143 130.471H48.9766V114.147H40.8143C22.7831 114.147 8.16595 99.5295 8.16595 81.4983H-8.15825ZM48.9766 122.309V0V122.309ZM40.8143 -8.1621C13.7675 -8.1621 -8.15825 13.7637 -8.15825 40.8105V81.4983C-8.15825 108.545 13.7675 130.471 40.8143 130.471L40.8143 114.147C22.7831 114.147 8.16595 99.5295 8.16595 81.4983V40.8105C8.16595 22.7793 22.7831 8.1621 40.8143 8.1621L40.8143 -8.1621Z" fill="#967877" mask="url(#path-3-inside-1_745_5289)"/>
<path fill-rule="evenodd" clip-rule="evenodd" d="M61.2188 0H69.3809L69.3808 114.143H69.7891C87.5949 114.143 102.029 99.7089 102.029 81.9031V61.9453H102.031V0H110.193V61.9486H110.191V81.903C110.191 104.217 92.1027 122.305 69.7891 122.305H69.3809V122.309H61.2188V122.305V61.9453V0Z" fill="#967877"/>
<path d="M285.683 4.08105H289.764C310.049 4.08105 326.493 20.5254 326.493 40.8105V81.4983C326.493 101.783 310.049 118.228 289.764 118.228H285.683V4.08105Z" stroke="#967877" stroke-width="8.1621"/>
<path fill-rule="evenodd" clip-rule="evenodd" d="M383.623 24.4863V37.9022H350.975V24.4864C350.975 15.4707 358.283 8.1621 367.299 8.1621C376.314 8.1621 383.623 15.4707 383.623 24.4863ZM342.812 24.4864C342.812 10.9629 353.775 0 367.299 0C380.822 0 391.785 10.9629 391.785 24.4863V37.9022V44.4766H391.787V122.309H383.625V46.0643H383.623H350.975L350.975 122.309H342.812V46.0643V44.4766V37.9022V24.4864Z" fill="#967877"/>
<path fill-rule="evenodd" clip-rule="evenodd" d="M444.842 0H453.004V46.0642H444.434C422.12 46.0642 404.031 27.9754 404.031 5.6618V5.66179V0H412.193V5.66179C412.193 23.4676 426.628 37.9021 444.434 37.9021H444.842V0ZM444.842 46.0644H453.004V81.498C453.004 104.037 434.732 122.309 412.193 122.309H404.031V114.146H412.193C430.225 114.146 444.842 99.5293 444.842 81.498V46.0644Z" fill="#967877"/>
</svg>
