<svg width="13" height="13" viewBox="0 0 13 13" fill="none" xmlns="http://www.w3.org/2000/svg">
<path d="M0.478534 0.602608L0.536028 0.536013C0.746823 0.325217 1.07668 0.306056 1.30912 0.478519L1.37571 0.536013L6.49754 5.65757L11.6194 0.536013C11.8513 0.304146 12.2272 0.304146 12.459 0.536013C12.6909 0.767889 12.6909 1.14383 12.459 1.3757L7.33753 6.49753L12.459 11.6194C12.6699 11.8301 12.689 12.16 12.5165 12.3925L12.459 12.459C12.2483 12.6699 11.9184 12.689 11.686 12.5164L11.6194 12.459L6.49754 7.33752L1.37571 12.459C1.14385 12.6909 0.767904 12.6909 0.536028 12.459C0.304161 12.2272 0.304161 11.8513 0.536028 11.6194L5.65758 6.49753L0.536028 1.3757C0.325232 1.1649 0.306071 0.835054 0.478534 0.602608Z" fill="#212121"/>
</svg>
