<svg width="42" height="42" viewBox="0 0 42 42" fill="none" xmlns="http://www.w3.org/2000/svg">
<g id="Add / undefined / Glyph: undefined" clip-path="url(#clip0_809_1195)">
<path id="Vector" d="M31.3941 31.3871C30.9243 31.857 30.1869 31.8964 29.6724 31.5049L29.5379 31.3875L20.5648 22.4174L11.5896 31.3927C11.077 31.9052 10.246 31.9052 9.73344 31.3927C9.26358 30.9228 9.22448 30.1853 9.61588 29.6709L9.73344 29.5365L18.7087 20.5613L9.73591 11.5934C9.22324 11.081 9.22287 10.2498 9.73542 9.73728C10.2053 9.26742 10.9427 9.22795 11.4572 9.61948L11.5917 9.73691L20.5648 18.7051L29.535 9.73493C30.0476 9.22236 30.8786 9.22238 31.3912 9.73493C31.861 10.2048 31.9002 10.9422 31.5087 11.4567L31.3912 11.5911L22.421 20.5613L31.3937 29.531C31.9064 30.0434 31.9067 30.8746 31.3941 31.3871Z" fill="white"/>
</g>
<defs>
<clipPath id="clip0_809_1195">
<rect width="42" height="42" fill="white"/>
</clipPath>
</defs>
</svg>
