<svg width="32" height="32" viewBox="0 0 32 32" fill="none" xmlns="http://www.w3.org/2000/svg">
<path d="M24.3331 27.3358C24.8853 27.3357 25.3333 27.7833 25.3333 28.3356C25.3333 28.8878 24.8859 29.3357 24.3336 29.3358L7.00029 29.3409C6.448 29.341 6 28.8934 6 28.3412C6 27.7889 6.44743 27.341 6.99971 27.3409L24.3331 27.3358ZM15.5309 2.68491L15.6667 2.67578C16.1729 2.67578 16.5913 3.05198 16.6576 3.54009L16.6667 3.67578L16.6653 21.9225L21.6277 16.962C21.9828 16.607 22.5384 16.5748 22.9299 16.8653L23.042 16.9621C23.3969 17.3172 23.4292 17.8728 23.1387 18.2642L23.0419 18.3764L16.3783 25.0385C16.0235 25.3933 15.4683 25.4257 15.0768 25.1356L14.9647 25.0389L8.29337 18.3768C7.90259 17.9865 7.90215 17.3533 8.29241 16.9625C8.64719 16.6073 9.20272 16.5746 9.5944 16.8649L9.70663 16.9616L14.6653 21.9132L14.6667 3.67578C14.6667 3.16951 15.0429 2.75113 15.5309 2.68491Z" fill="white"/>
</svg>
