<svg width="294" height="48" viewBox="0 0 294 48" fill="none" xmlns="http://www.w3.org/2000/svg">
<g clip-path="url(#clip0_976_27)">
<path d="M27.0272 29.2176C26.668 29.6107 26.1975 29.8853 25.6782 30.005C25.1159 30.1067 24.5453 30.155 23.9739 30.1492C23.5956 30.1742 23.2165 30.1155 22.8636 29.9773C22.7604 29.9296 22.6696 29.8587 22.5984 29.7702C22.5271 29.6817 22.4773 29.578 22.4527 29.4671C22.3904 29.1009 22.3644 28.7294 22.375 28.3581V21.8035C22.3629 21.536 22.4025 21.2687 22.4916 21.0161C22.5381 20.9176 22.6045 20.8297 22.6867 20.7581C22.7688 20.6866 22.865 20.6328 22.969 20.6002C23.3271 20.4842 23.7035 20.4353 24.0793 20.456V19.6797H18.2891V20.456C18.6653 20.4361 19.0419 20.4868 19.3994 20.6057C19.5038 20.6396 19.5998 20.6952 19.6811 20.7688C19.7624 20.8424 19.8272 20.9323 19.8713 21.0327C19.9475 21.2823 19.9812 21.5428 19.9712 21.8035V28.9791C20.0106 29.3532 19.9009 29.7277 19.6659 30.0216C19.2646 30.2799 18.7847 30.388 18.3113 30.3266V31.103H28.4762L28.5484 27.2878H27.7767C27.7414 27.9949 27.4785 28.6717 27.0272 29.2176Z" fill="#0F0E0D"/>
<path d="M39.4024 29.6365C39.2803 29.4147 39.0971 28.9877 38.8472 28.3611L35.3608 19.4609H34.5614L31.2638 28.1116C31.0882 28.5926 30.8728 29.0582 30.6198 29.5035C30.4737 29.7785 30.2572 30.01 29.9925 30.1744C29.7427 30.2983 29.4663 30.3592 29.1875 30.3519V31.1282H33.1402V30.3297C32.8297 30.3356 32.5202 30.2907 32.2242 30.1966C32.0952 30.1499 31.986 30.0608 31.9144 29.9439C31.8428 29.827 31.813 29.6893 31.83 29.5534C31.8582 29.2474 31.935 28.9479 32.0577 28.6661L32.3352 27.923H36.0437L36.5988 29.2705C36.6683 29.4336 36.7042 29.609 36.7043 29.7863C36.7145 29.888 36.6883 29.99 36.6304 30.0742C36.5725 30.1585 36.4866 30.2195 36.3879 30.2465C36.0509 30.3205 35.7054 30.3484 35.3608 30.3297V31.106H40.7514V30.3297C40.448 30.3466 40.1455 30.2835 39.8743 30.1467C39.6702 30.0267 39.5061 29.8492 39.4024 29.6365ZM32.6628 27.0857L34.1617 23.1208L35.7439 27.1023L32.6628 27.0857Z" fill="#0F0E0D"/>
<path d="M57.045 27.9125C56.6405 28.5612 56.1009 29.1154 55.4628 29.5373C54.8222 29.9691 54.065 30.1955 53.2922 30.1861C52.89 30.18 52.4919 30.105 52.1152 29.9642C51.642 29.7809 51.2154 29.4949 50.8661 29.1269C50.3881 28.6029 50.0318 27.9799 49.8224 27.3025C49.5197 26.3226 49.3791 25.2999 49.4061 24.2748C49.3753 23.212 49.5448 22.153 49.9057 21.1528C50.1766 20.4068 50.6636 19.7582 51.3047 19.2896C51.8948 18.8824 52.5973 18.6692 53.3144 18.6796C53.9862 18.6814 54.6461 18.8572 55.2297 19.1897C55.8653 19.5558 56.407 20.0646 56.8119 20.6759C57.2657 21.3456 57.5792 22.1001 57.7334 22.894H58.6716L58.5162 18.0141H57.6335C57.536 18.4344 57.3946 18.8433 57.2116 19.2341C56.677 18.6979 56.0383 18.2766 55.3346 17.9963C54.631 17.7159 53.8773 17.5823 53.1201 17.6038C52.1667 17.5977 51.222 17.7865 50.3443 18.1583C49.5096 18.5009 48.7539 19.0105 48.1237 19.6556C47.5114 20.2945 47.0321 21.0484 46.7136 21.8737C46.3834 22.7183 46.2158 23.6176 46.2195 24.5243C46.2015 25.7566 46.516 26.971 47.1299 28.04C47.7102 29.0561 48.5541 29.8971 49.5726 30.4744C50.5863 31.0538 51.7357 31.3543 52.9036 31.345C53.8032 31.39 54.699 31.1988 55.5017 30.7905C56.1294 30.4288 56.7031 29.9808 57.206 29.4596C57.5255 29.915 57.7553 30.4268 57.8833 30.9679H58.8049V25.9772H57.8611C57.7044 26.665 57.4282 27.32 57.045 27.9125Z" fill="#0F0E0D"/>
<path d="M72.1293 29.4007C71.9905 29.14 71.774 28.6465 71.4798 27.9145L67.4383 17.5781H66.5056L62.675 27.5985C62.4733 28.1609 62.2225 28.7046 61.9255 29.2232C61.7547 29.5425 61.5018 29.8105 61.1927 29.9996C60.9062 30.1455 60.5871 30.2161 60.2656 30.2047V31.1086H64.8401V30.2047C64.4787 30.2122 64.1185 30.1597 63.7742 30.0495C63.6253 29.9954 63.4992 29.8925 63.4165 29.7575C63.3338 29.6225 63.2994 29.4635 63.319 29.3064C63.3558 28.9447 63.4495 28.591 63.5966 28.2583L63.9186 27.3988H68.2266L68.8539 28.9626C68.9331 29.1524 68.9746 29.3558 68.976 29.5615C68.995 29.6829 68.968 29.807 68.9002 29.9096C68.8325 30.0121 68.7289 30.0857 68.6096 30.116C68.2318 30.2068 67.8431 30.2441 67.4549 30.2269V31.1086H73.7171V30.2047C73.364 30.2253 73.0117 30.1526 72.6956 29.994C72.4552 29.8527 72.2591 29.6472 72.1293 29.4007ZM64.3016 26.4506L66.0448 21.8203L67.8768 26.4506H64.3016Z" fill="#0F0E0D"/>
<path d="M82.5448 24.1414C81.8013 23.702 81.036 23.3004 80.252 22.9381C79.4415 22.561 78.853 22.2671 78.4921 22.0675C78.1539 21.8866 77.8556 21.6395 77.615 21.3411C77.3931 21.054 77.2756 20.7 77.2819 20.3374C77.2779 20.108 77.3257 19.8807 77.4218 19.6723C77.5179 19.464 77.6599 19.28 77.8371 19.134C78.2273 18.8239 78.7154 18.6627 79.2138 18.6793C80.8349 18.6793 81.9896 19.683 82.6225 21.7015H83.5441V17.9972H82.6225C82.5551 18.3917 82.4472 18.7783 82.3005 19.1507C81.8944 18.6856 81.3976 18.3082 80.8405 18.0416C80.2905 17.7673 79.6842 17.6249 79.0695 17.6257C78.3179 17.6118 77.5769 17.8036 76.9266 18.1802C76.3408 18.5208 75.856 19.0107 75.5221 19.5998C75.2118 20.1343 75.0454 20.7399 75.0391 21.3577C75.0414 21.6926 75.0938 22.0253 75.1945 22.3447C75.3198 22.7174 75.5076 23.0662 75.7497 23.3762C76.0806 23.802 76.4736 24.1758 76.9155 24.4852C77.5354 24.934 78.1995 25.3186 78.8974 25.6331C79.4192 25.866 79.8856 26.0878 80.2909 26.3041C80.6306 26.4715 80.9539 26.6701 81.2568 26.8974C81.4852 27.0659 81.6745 27.2815 81.812 27.5296C81.9357 27.7772 81.9967 28.0514 81.9896 28.3281C81.996 28.5885 81.9452 28.8471 81.8406 29.0856C81.7361 29.3242 81.5804 29.537 81.3845 29.7089C80.9427 30.0921 80.3702 30.2907 79.7857 30.2634C79.0874 30.286 78.4028 30.0666 77.8482 29.6423C77.3384 29.2445 76.9232 28.7389 76.6324 28.1618C76.3392 27.575 76.112 26.9575 75.9551 26.3207H75.0502V30.8789H75.9551C76.0259 30.4154 76.1604 29.9638 76.3548 29.537C76.8199 30.1196 77.4201 30.5802 78.1035 30.8789C78.7631 31.1773 79.478 31.3341 80.202 31.3392C80.8517 31.3525 81.4958 31.2158 82.084 30.9399C82.6011 30.6968 83.0608 30.3472 83.433 29.9141C83.7717 29.523 84.0402 29.0765 84.2269 28.5943C84.3956 28.1781 84.4859 27.7345 84.4934 27.2856C84.5176 26.6188 84.3226 25.9625 83.9382 25.4168C83.5605 24.9058 83.0874 24.4727 82.5448 24.1414Z" fill="#0F0E0D"/>
<path d="M97.434 29.4007C97.2952 29.14 97.0787 28.6465 96.7845 27.9145L92.7429 17.5781H91.8103L87.9797 27.5985C87.7779 28.1609 87.5272 28.7046 87.2302 29.2232C87.0597 29.5409 86.809 29.8085 86.503 29.9996C86.2142 30.1448 85.8935 30.2154 85.5703 30.2047V31.1086H90.1448V30.2047C89.7851 30.2127 89.4267 30.1602 89.0845 30.0495C88.9339 29.9973 88.8059 29.8949 88.722 29.7596C88.6381 29.6243 88.6034 29.4643 88.6237 29.3064C88.6605 28.9447 88.7542 28.591 88.9013 28.2583L89.2232 27.3988H93.5368L94.1586 28.9626C94.2378 29.1524 94.2793 29.3558 94.2807 29.5615C94.2997 29.6829 94.2727 29.807 94.2049 29.9096C94.1372 30.0121 94.0335 30.0857 93.9143 30.116C93.5365 30.2068 93.1478 30.2441 92.7596 30.2269V31.1086H99.0218V30.2047C98.6687 30.2253 98.3164 30.1526 98.0003 29.994C97.7599 29.8527 97.5638 29.6472 97.434 29.4007ZM89.6063 26.4506L91.3495 21.8203L93.1815 26.4506H89.6063Z" fill="#0F0E0D"/>
<path d="M115.8 22.2707C115.512 21.8071 115.154 21.3901 114.74 21.0341C114.329 20.6779 113.862 20.3913 113.358 20.1856C112.779 19.9527 112.176 19.7889 111.559 19.6977C110.766 19.5888 109.966 19.5388 109.166 19.5479H108.122H107.095L104.636 19.5978V20.3908C105.121 20.3284 105.613 20.4341 106.03 20.6903C106.264 20.9867 106.373 21.3626 106.335 21.7383V28.9472C106.346 29.2165 106.307 29.4856 106.218 29.7402C106.172 29.8401 106.106 29.9289 106.022 30.0007C105.939 30.0725 105.841 30.1255 105.735 30.1561C105.376 30.2659 105 30.3128 104.625 30.2947V31.071H109.849C111.191 31.1085 112.525 30.8668 113.768 30.3612C114.302 30.1182 114.786 29.7778 115.195 29.3575C115.67 28.8802 116.047 28.3152 116.306 27.694C116.592 26.9897 116.735 26.2358 116.727 25.4758C116.731 24.898 116.65 24.3227 116.489 23.7679C116.332 23.2387 116.1 22.7345 115.8 22.2707ZM113.13 28.7365C112.564 29.6903 111.598 30.1672 110.232 30.1672C109.884 30.1856 109.536 30.1308 109.211 30.0063C109.112 29.9622 109.025 29.8956 108.956 29.8118C108.888 29.7281 108.84 29.6295 108.816 29.5239C108.763 29.1903 108.741 28.8524 108.75 28.5147V20.4906C109.455 20.4906 109.999 20.4906 110.382 20.5461C110.75 20.5784 111.111 20.6643 111.453 20.8012C112.244 21.1228 112.896 21.7116 113.297 22.4648C113.78 23.381 114.015 24.4075 113.979 25.4426C114.002 26.5974 113.709 27.7364 113.13 28.7365Z" fill="#0F0E0D"/>
<path d="M126.715 29.2619C126.453 29.6111 126.093 29.8754 125.682 30.0216C125.32 30.1183 124.946 30.1668 124.572 30.1658H123.656C123.336 30.1776 123.017 30.1459 122.706 30.0716C122.515 30.0305 122.345 29.9247 122.223 29.7721C122.121 29.6183 122.06 29.4407 122.046 29.2564C122.046 29.0512 122.012 28.7019 122.012 28.2693V25.5854H123.189C123.491 25.5731 123.792 25.6067 124.083 25.6852C124.178 25.7183 124.264 25.771 124.337 25.8398C124.409 25.9086 124.467 25.992 124.505 26.0845C124.615 26.3829 124.674 26.698 124.677 27.0161H125.449V23.2176H124.644C124.632 23.5321 124.578 23.8437 124.483 24.1436C124.448 24.2373 124.393 24.3219 124.321 24.3911C124.248 24.4603 124.162 24.5122 124.066 24.5429C123.776 24.6264 123.474 24.6619 123.173 24.6483H122.012V20.6168H124.15C124.579 20.6036 125.009 20.6352 125.432 20.7111C125.739 20.7929 126.01 20.9767 126.198 21.2324C126.49 21.6591 126.694 22.1399 126.798 22.6464H127.575L127.425 19.6797H117.938V20.456C118.314 20.4358 118.691 20.4885 119.048 20.6113C119.149 20.6469 119.242 20.7032 119.321 20.7767C119.399 20.8503 119.461 20.9394 119.503 21.0383C119.574 21.287 119.606 21.5451 119.597 21.8035V28.9791C119.637 29.3532 119.527 29.7277 119.292 30.0216C118.891 30.2808 118.411 30.389 117.938 30.3266V31.103H128.125L128.219 27.3433H127.425C127.361 28.034 127.116 28.6956 126.715 29.2619Z" fill="#0F0E0D"/>
<path d="M137.982 29.2176C137.622 29.6107 137.152 29.8853 136.633 30.005C136.072 30.1065 135.503 30.1548 134.934 30.1492C134.555 30.1747 134.176 30.116 133.823 29.9773C133.719 29.9306 133.627 29.8602 133.555 29.7716C133.482 29.683 133.432 29.5787 133.407 29.4671C133.347 29.1006 133.323 28.7292 133.335 28.3581V21.8035C133.321 21.5364 133.359 21.2691 133.446 21.0161C133.494 20.9174 133.561 20.8295 133.644 20.758C133.727 20.6864 133.824 20.6327 133.929 20.6002C134.278 20.4868 134.645 20.438 135.012 20.456V19.6797H129.266V20.456C129.642 20.437 130.018 20.4877 130.376 20.6057C130.48 20.6397 130.575 20.6953 130.655 20.7689C130.736 20.8426 130.799 20.9325 130.842 21.0327C130.918 21.2823 130.952 21.5428 130.942 21.8035V28.9791C130.981 29.3523 130.873 29.7258 130.642 30.0216C130.239 30.2799 129.757 30.3879 129.282 30.3266V31.103H139.453L139.53 27.2878H138.753C138.714 27.9981 138.443 28.676 137.982 29.2176Z" fill="#0F0E0D"/>
<path d="M154.496 18.7343C154.919 18.7101 155.342 18.7743 155.739 18.9228C155.855 18.9662 155.961 19.0335 156.049 19.1205C156.137 19.2075 156.205 19.3121 156.25 19.4274C156.331 19.7122 156.367 20.0078 156.356 20.3036V23.5698H150.193V20.3036C150.148 19.8723 150.274 19.4405 150.543 19.1003C150.776 18.8563 151.298 18.7343 152.109 18.7343V17.8359H145.524V18.7343C145.944 18.7103 146.364 18.7745 146.757 18.9228C146.873 18.9678 146.979 19.0356 147.069 19.1223C147.159 19.209 147.23 19.3127 147.279 19.4274C147.367 19.7108 147.406 20.0071 147.395 20.3036V28.6659C147.404 28.9663 147.363 29.2661 147.273 29.5531C147.221 29.6711 147.144 29.7768 147.049 29.8637C146.953 29.9506 146.841 30.0166 146.718 30.0577C146.329 30.1905 145.918 30.2488 145.508 30.2297V31.1058H152.109V30.2019C151.287 30.2019 150.765 30.0799 150.538 29.8304C150.278 29.4896 150.155 29.0645 150.193 28.6382V24.6566H156.383V28.6659C156.393 28.9642 156.354 29.262 156.267 29.5476C156.219 29.6647 156.148 29.7706 156.057 29.8585C155.966 29.9464 155.858 30.0142 155.739 30.0577C155.349 30.1914 154.936 30.2497 154.524 30.2297V31.1058H161.058V30.2019C160.634 30.2265 160.21 30.1604 159.814 30.0078C159.697 29.9624 159.591 29.8931 159.502 29.8043C159.413 29.7155 159.343 29.6092 159.298 29.4921C159.212 29.2248 159.165 28.9465 159.159 28.6659V20.348C159.15 20.0519 159.187 19.7562 159.27 19.4718C159.317 19.3568 159.387 19.2526 159.476 19.1658C159.565 19.079 159.67 19.0114 159.786 18.9672C160.18 18.8189 160.599 18.7547 161.019 18.7786V17.8359H154.496V18.7343Z" fill="#0F0E0D"/>
<path d="M173.594 29.4007C173.455 29.14 173.238 28.6465 172.944 27.9145L168.886 17.5781H167.959L164.156 27.604C163.94 28.1635 163.68 28.7049 163.379 29.2232C163.208 29.5425 162.955 29.8105 162.646 29.9996C162.359 30.1444 162.04 30.2149 161.719 30.2047V31.1086H166.293V30.2047C165.932 30.2122 165.572 30.1597 165.227 30.0495C165.078 29.9954 164.952 29.8925 164.87 29.7575C164.787 29.6225 164.753 29.4635 164.772 29.3064C164.809 28.9447 164.903 28.591 165.05 28.2583L165.372 27.3988H169.707L170.335 28.9626C170.41 29.1533 170.45 29.3564 170.451 29.5615C170.472 29.6823 170.446 29.8064 170.379 29.9091C170.312 30.0119 170.209 30.0857 170.091 30.116C169.713 30.2068 169.324 30.2441 168.936 30.2269V31.1086H175.192V30.2047C174.841 30.2253 174.491 30.1526 174.176 29.994C173.927 29.8585 173.725 29.6519 173.594 29.4007ZM165.755 26.4506L167.487 21.8092L169.319 26.4395L165.755 26.4506Z" fill="#0F0E0D"/>
<path d="M186.07 24.6988C185.441 24.3565 184.76 24.1222 184.054 24.0056C184.958 23.8011 185.796 23.3741 186.491 22.7635C186.731 22.5303 186.921 22.2507 187.049 21.9418C187.177 21.6328 187.24 21.3011 187.235 20.9668C187.26 20.5626 187.19 20.1582 187.031 19.7857C186.872 19.4132 186.628 19.0828 186.319 18.8208C185.735 18.337 185.038 18.0088 184.293 17.867C183.59 17.7309 182.877 17.6604 182.161 17.6562H181.8H180.64L178.531 17.7006L175.827 17.7561V18.6821C176.367 18.6188 176.913 18.7399 177.376 19.0259C177.514 19.1964 177.617 19.3924 177.679 19.6027C177.741 19.813 177.76 20.0335 177.737 20.2514V28.6636C177.746 28.966 177.705 29.2677 177.614 29.5564C177.561 29.6728 177.484 29.777 177.388 29.8628C177.293 29.9486 177.181 30.0141 177.059 30.0555C176.656 30.1924 176.23 30.2508 175.805 30.2274V31.1036H182.467C183.003 31.102 183.54 31.0631 184.071 30.9871C184.657 30.8958 185.23 30.7318 185.775 30.4991C186.338 30.2684 186.833 29.8982 187.213 29.4233C187.606 28.8986 187.802 28.2532 187.768 27.5989C187.774 27.0145 187.62 26.4396 187.324 25.9354C187.022 25.4204 186.589 24.994 186.07 24.6988ZM180.518 18.7542H181.551C182.089 18.7375 182.624 18.8358 183.122 19.0426C183.518 19.2021 183.856 19.48 184.088 19.8382C184.321 20.1965 184.437 20.6178 184.421 21.0444C184.435 21.3815 184.375 21.7176 184.243 22.0284C184.112 22.3391 183.912 22.6167 183.66 22.8411C182.999 23.3273 182.186 23.5631 181.367 23.5065H180.535L180.518 18.7542ZM183.982 29.4012C183.464 29.8061 182.824 30.0232 182.167 30.0167C181.783 30.0441 181.4 29.9674 181.056 29.7949C180.943 29.7274 180.844 29.6367 180.768 29.5288C180.691 29.4208 180.638 29.298 180.612 29.1683C180.548 28.8022 180.518 28.4309 180.524 28.0592V24.5879H182.111C182.477 24.5629 182.844 24.6168 183.187 24.746C183.53 24.8751 183.841 25.0765 184.099 25.3365C184.595 25.918 184.846 26.6697 184.798 27.4326C184.83 27.8005 184.775 28.1708 184.636 28.513C184.497 28.8552 184.278 29.1596 183.999 29.4012H183.982Z" fill="#0F0E0D"/>
<path d="M199.981 29.4007C199.848 29.14 199.631 28.6465 199.337 27.9145L195.29 17.5781H194.357L190.527 27.5985C190.325 28.1609 190.074 28.7046 189.777 29.2232C189.61 29.5432 189.358 29.8116 189.05 29.9996C188.761 30.1448 188.44 30.2154 188.117 30.2047V31.1086H192.692V30.2047C192.332 30.2123 191.974 30.1598 191.631 30.0495C191.481 29.9972 191.354 29.8946 191.271 29.7591C191.188 29.6237 191.154 29.4637 191.176 29.3064C191.21 28.9448 191.302 28.591 191.448 28.2583L191.776 27.3988H196.084L196.711 28.9626C196.787 29.1533 196.826 29.3564 196.828 29.5615C196.847 29.6821 196.821 29.8056 196.754 29.9081C196.687 30.0105 196.585 30.0846 196.467 30.116C196.089 30.2064 195.7 30.2437 195.312 30.2269V31.1086H201.569V30.2047C201.217 30.2261 200.867 30.1534 200.553 29.994C200.31 29.8545 200.111 29.6487 199.981 29.4007ZM192.153 26.4506L193.896 21.8203L195.728 26.4506H192.153Z" fill="#0F0E0D"/>
<path d="M211.711 18.7343C212.151 18.7061 212.592 18.7802 212.998 18.9505C213.123 19.0092 213.233 19.0942 213.321 19.1995C213.409 19.3048 213.473 19.428 213.509 19.5605C213.591 19.9355 213.627 20.3192 213.615 20.7028V26.7583L206.048 17.8359H202.162V18.7343C202.522 18.7602 202.875 18.8484 203.206 18.9949C203.439 19.098 203.634 19.2728 203.761 19.494C203.878 19.7178 203.95 19.9629 203.972 20.2149C203.999 20.4866 204.016 20.8969 204.016 21.4459V28.2167C204.028 28.6219 203.997 29.0272 203.922 29.4256C203.886 29.5483 203.824 29.6617 203.74 29.7576C203.655 29.8534 203.55 29.9294 203.433 29.9801C203.027 30.1381 202.591 30.2062 202.156 30.1797V31.1058H207.092V30.2019C206.629 30.2293 206.166 30.1613 205.731 30.0023C205.603 29.9571 205.487 29.8838 205.391 29.7879C205.295 29.6919 205.222 29.5757 205.176 29.4478C205.096 29.0501 205.062 28.6444 205.076 28.2389V20.9025L213.765 31.2167H214.669V20.6807C214.654 20.2736 214.686 19.8661 214.764 19.4663C214.801 19.3411 214.867 19.2262 214.955 19.1301C215.044 19.034 215.153 18.9593 215.275 18.9117C215.71 18.7568 216.173 18.6908 216.635 18.7176V17.8359H211.677L211.711 18.7343Z" fill="#0F0E0D"/>
<path d="M231.214 20.0429C230.591 19.2836 229.795 18.683 228.894 18.2906C227.755 17.7975 226.521 17.5608 225.28 17.5974C223.883 17.5597 222.5 17.8906 221.272 18.5568C220.209 19.1458 219.338 20.0274 218.762 21.0965C218.292 21.9783 218.014 22.9495 217.946 23.9463C217.878 24.9431 218.022 25.9429 218.368 26.8802C218.669 27.6976 219.123 28.4504 219.706 29.0984C220.353 29.8068 221.152 30.3603 222.043 30.7176C223.101 31.1441 224.234 31.3516 225.374 31.3276C226.765 31.363 228.141 31.0342 229.366 30.3738C230.428 29.7899 231.302 28.9168 231.886 27.8562C232.46 26.8172 232.758 25.649 232.752 24.4625C232.744 23.7092 232.622 22.9615 232.391 22.2444C232.138 21.4446 231.739 20.6983 231.214 20.0429ZM229.482 26.0762C229.403 26.7073 229.233 27.3237 228.977 27.9061C228.696 28.5485 228.25 29.1052 227.684 29.5198C227.006 29.9843 226.195 30.2159 225.374 30.1797C224.549 30.2158 223.733 29.9907 223.043 29.5364C222.468 29.1429 222.015 28.5977 221.732 27.9616C221.468 27.383 221.292 26.768 221.211 26.1372C221.141 25.5687 221.106 24.9964 221.105 24.4237C221.093 23.4885 221.207 22.556 221.444 21.651C221.649 20.8403 222.096 20.1112 222.726 19.5605C223.468 18.9628 224.406 18.6641 225.358 18.7231C226.072 18.6981 226.78 18.8606 227.412 19.1945C227.956 19.4995 228.41 19.9435 228.727 20.481C229.053 21.0386 229.281 21.6483 229.399 22.2832C229.529 22.9799 229.592 23.6873 229.588 24.396C229.588 24.9577 229.553 25.5189 229.482 26.0762Z" fill="#0F0E0D"/>
<path d="M293.994 24.5601C293.989 18.0491 291.397 11.8064 286.788 7.20192C282.18 2.59745 275.93 0.00734111 269.412 0H23.4776C17.2538 0.0029359 11.2855 2.47308 6.8836 6.86797C2.48165 11.2628 0.00588332 17.2232 0 23.4399V24.549C0.00587942 30.7638 2.48012 36.7225 6.87967 41.117C11.2792 45.5116 17.2446 47.983 23.4665 47.9889H270.511C276.734 47.9874 282.702 45.5195 287.105 41.1268C291.508 36.7342 293.986 30.7759 293.994 24.5601ZM270.534 44.5231H23.4887C18.1909 44.5143 13.1126 42.4082 9.36643 38.6664C5.6203 34.9245 3.51185 29.8519 3.50304 24.5601V23.451C3.51185 18.1592 5.6203 13.0866 9.36643 9.34474C13.1126 5.60285 18.1909 3.49678 23.4887 3.48798H269.423C275.015 3.4997 280.374 5.72356 284.327 9.6728C288.281 13.622 290.507 18.975 290.519 24.5601C290.513 29.8538 288.406 34.9292 284.66 38.6735C280.913 42.4178 275.833 44.5254 270.534 44.5342V44.5231Z" fill="#0F0E0D"/>
<path d="M255.443 38.6506L241.759 24.2328L255.893 9.34375H23.7042C19.931 9.34963 16.3145 10.8517 13.6495 13.5199C10.9846 16.1881 9.48924 19.804 9.49219 23.573V24.4325C9.49219 28.1995 10.9888 31.8126 13.6534 34.4784C16.3181 37.1441 19.9329 38.6447 23.7042 38.6506H255.443ZM249.742 37.109H23.7042C20.3413 37.1046 17.1176 35.7671 14.7412 33.3903C12.3648 31.0134 11.03 27.7916 11.03 24.4325V23.573C11.027 20.2119 12.3605 16.9872 14.7372 14.608C17.114 12.2288 20.3393 10.8897 23.7042 10.8853H250.208L237.517 24.2328L249.742 37.109Z" fill="#0F0E0D"/>
<path d="M263.311 38.091L250.132 24.1834L263.611 9.9764C262.387 9.70849 261.146 9.52323 259.897 9.42188L245.891 24.1779L259.559 38.5956C260.82 38.5133 262.074 38.3447 263.311 38.091Z" fill="#0F0E0D"/>
<path d="M258.534 24.1363L269.898 12.1696C268.91 11.6967 267.896 11.2801 266.861 10.9219L254.281 24.1363L266.645 37.1788C267.685 36.8183 268.704 36.3999 269.698 35.9256L258.534 24.1363Z" fill="#0F0E0D"/>
<path d="M266.905 24.0879L275.155 15.3985C274.348 14.7959 273.488 14.2099 272.574 13.6406L262.664 24.0879L272.463 34.4244C273.379 33.8698 274.245 33.2765 275.05 32.6776L266.905 24.0879Z" fill="#0F0E0D"/>
<path d="M271.047 24.0377L277.409 30.753C278.231 30.0155 278.963 29.2891 279.63 28.5959L275.31 24.0377L279.63 19.4406C278.986 18.753 278.253 18.0266 277.409 17.2891L271.047 24.0377Z" fill="#0F0E0D"/>
<path d="M279.43 23.9946L281.584 26.2682C282.483 25.0759 282.96 24.2275 282.96 24.0001C282.96 23.7728 282.489 22.8911 281.584 21.7266L279.43 23.9946Z" fill="#0F0E0D"/>
</g>
<defs>
<clipPath id="clip0_976_27">
<rect width="294" height="48" fill="white"/>
</clipPath>
</defs>
</svg>
