<svg width="294" height="48" viewBox="0 0 294 48" fill="none" xmlns="http://www.w3.org/2000/svg">
<path d="M293.994 24.5601C293.989 18.0491 291.397 11.8064 286.788 7.20192C282.18 2.59745 275.93 0.00734111 269.412 0H23.4776C17.2538 0.0029359 11.2855 2.47308 6.8836 6.86797C2.48165 11.2628 0.00588332 17.2232 0 23.4399V24.549C0.00587942 30.7638 2.48012 36.7225 6.87967 41.117C11.2792 45.5116 17.2446 47.983 23.4665 47.9889H270.511C276.734 47.9874 282.702 45.5195 287.105 41.1268C291.508 36.7342 293.986 30.7759 293.994 24.5601ZM270.534 44.5231H23.4887C18.1909 44.5143 13.1126 42.4082 9.36643 38.6664C5.6203 34.9245 3.51185 29.8519 3.50304 24.5601V23.451C3.51185 18.1592 5.6203 13.0866 9.36643 9.34474C13.1126 5.60285 18.1909 3.49678 23.4887 3.48798H269.423C275.015 3.4997 280.374 5.72356 284.327 9.6728C288.281 13.622 290.507 18.975 290.519 24.5601C290.513 29.8538 288.406 34.9292 284.66 38.6735C280.913 42.4178 275.833 44.5254 270.534 44.5342V44.5231Z" fill="white"/>
</svg>
