<svg width="1127" height="184" viewBox="0 0 1127 184" fill="none" xmlns="http://www.w3.org/2000/svg">
<path d="M103.606 112.007C102.228 113.514 100.425 114.567 98.4344 115.026C96.279 115.416 94.0915 115.601 91.9011 115.578C90.4511 115.674 88.9978 115.449 87.6449 114.919C87.2494 114.737 86.9015 114.465 86.6284 114.126C86.3552 113.787 86.1642 113.389 86.0701 112.964C85.8312 111.56 85.7314 110.136 85.7722 108.712V83.5867C85.7257 82.5612 85.8775 81.5364 86.2191 80.5682C86.3972 80.1905 86.6518 79.8538 86.9668 79.5794C87.2818 79.305 87.6504 79.0988 88.0493 78.974C89.4218 78.5293 90.8648 78.3419 92.3055 78.4213V75.4453H70.1094V78.4213C71.5516 78.3447 72.9953 78.5394 74.3656 78.9952C74.7657 79.125 75.1337 79.338 75.4455 79.6201C75.7573 79.9022 76.0057 80.2471 76.1745 80.632C76.4665 81.5886 76.596 82.5873 76.5575 83.5867V111.093C76.7085 112.527 76.288 113.963 75.3871 115.089C73.8488 116.08 72.0093 116.494 70.1945 116.259V119.235H109.16L109.437 104.61H106.479C106.343 107.32 105.336 109.915 103.606 112.007Z" fill="white"/>
<path d="M151.04 113.6C150.572 112.75 149.869 111.113 148.912 108.711L135.547 74.5938H132.483L119.842 107.755C119.169 109.598 118.343 111.383 117.373 113.09C116.813 114.144 115.983 115.032 114.969 115.662C114.011 116.137 112.952 116.37 111.883 116.342V119.318H127.035V116.257C125.844 116.28 124.658 116.108 123.524 115.747C123.029 115.568 122.61 115.227 122.336 114.779C122.061 114.33 121.947 113.803 122.013 113.281C122.121 112.109 122.415 110.96 122.885 109.88L123.949 107.032H138.165L140.293 112.197C140.559 112.822 140.697 113.495 140.697 114.174C140.736 114.564 140.636 114.955 140.414 115.278C140.192 115.601 139.863 115.835 139.484 115.938C138.192 116.222 136.868 116.329 135.547 116.257V119.233H156.211V116.257C155.048 116.322 153.889 116.08 152.849 115.556C152.066 115.096 151.437 114.416 151.04 113.6ZM125.205 103.822L130.951 88.6233L137.016 103.886L125.205 103.822Z" fill="white"/>
<path d="M218.673 106.99C217.122 109.477 215.053 111.601 212.608 113.218C210.152 114.874 207.249 115.741 204.287 115.705C202.745 115.682 201.219 115.395 199.775 114.855C197.961 114.152 196.326 113.056 194.987 111.645C193.154 109.636 191.788 107.249 190.986 104.652C189.826 100.895 189.286 96.9752 189.39 93.0455C189.272 88.9716 189.922 84.9119 191.305 81.0778C192.344 78.2182 194.21 75.7319 196.668 73.9355C198.93 72.3747 201.623 71.5573 204.372 71.5972C206.947 71.6042 209.477 72.278 211.714 73.5529C214.15 74.9562 216.227 76.9066 217.779 79.2497C219.519 81.817 220.72 84.7092 221.311 87.7525H224.908L224.312 69.0464H220.928C220.555 70.6575 220.012 72.2249 219.311 73.7229C217.262 71.6674 214.813 70.0526 212.116 68.9778C209.419 67.903 206.53 67.3911 203.627 67.4734C199.972 67.4502 196.351 68.1736 192.986 69.5991C189.787 70.9125 186.89 72.8656 184.474 75.3385C182.127 77.7878 180.29 80.6778 179.069 83.8412C177.803 87.0791 177.161 90.5263 177.175 94.0021C177.106 98.7258 178.311 103.381 180.665 107.479C182.889 111.374 186.124 114.598 190.028 116.811C193.914 119.032 198.32 120.184 202.797 120.148C206.246 120.32 209.679 119.588 212.757 118.022C215.163 116.636 217.362 114.918 219.29 112.921C220.514 114.666 221.395 116.628 221.886 118.703H225.419V99.5714H221.801C221.2 102.208 220.142 104.719 218.673 106.99Z" fill="white"/>
<path d="M276.493 112.687C275.961 111.688 275.131 109.796 274.003 106.99L258.511 67.3672H254.935L240.252 105.778C239.478 107.935 238.517 110.019 237.379 112.007C236.724 113.231 235.754 114.258 234.57 114.983C233.471 115.542 232.248 115.813 231.016 115.769V119.234H248.551V115.769C247.166 115.798 245.785 115.597 244.465 115.174C243.894 114.967 243.411 114.572 243.094 114.055C242.777 113.537 242.645 112.928 242.72 112.326C242.861 110.939 243.22 109.583 243.784 108.308L245.019 105.013H261.533L263.937 111.008C264.241 111.735 264.4 112.515 264.406 113.303C264.478 113.769 264.375 114.245 264.115 114.638C263.855 115.031 263.458 115.313 263.001 115.429C261.553 115.777 260.063 115.92 258.575 115.854V119.234H282.58V115.769C281.226 115.848 279.875 115.569 278.664 114.961C277.743 114.42 276.991 113.632 276.493 112.687ZM246.487 101.378L253.169 83.6287L260.192 101.378H246.487Z" fill="white"/>
<path d="M316.42 92.5577C313.57 90.8733 310.637 89.3338 307.631 87.945C304.524 86.4995 302.268 85.3729 300.885 84.6076C299.589 83.9142 298.445 82.9672 297.523 81.823C296.672 80.7225 296.222 79.3656 296.246 77.9755C296.231 77.0962 296.414 76.2248 296.782 75.4262C297.151 74.6275 297.695 73.9222 298.374 73.3627C299.87 72.1737 301.741 71.5558 303.652 71.6197C309.866 71.6197 314.292 75.4672 316.718 83.2047H320.251V69.005H316.718C316.46 70.5173 316.046 71.999 315.484 73.4265C313.927 71.6438 312.023 70.1972 309.887 69.1751C307.779 68.1237 305.455 67.5778 303.098 67.5808C300.217 67.5275 297.377 68.2626 294.884 69.7065C292.638 71.0119 290.78 72.8899 289.5 75.1483C288.31 77.197 287.673 79.5186 287.648 81.8868C287.657 83.1706 287.858 84.4459 288.244 85.6705C288.725 87.0991 289.444 88.436 290.372 89.6243C291.641 91.2564 293.148 92.6895 294.841 93.8757C297.218 95.596 299.763 97.0703 302.439 98.2759C304.439 99.1686 306.227 100.019 307.78 100.848C309.083 101.49 310.322 102.251 311.483 103.122C312.359 103.768 313.084 104.595 313.611 105.546C314.086 106.495 314.319 107.546 314.292 108.607C314.317 109.605 314.122 110.596 313.721 111.511C313.32 112.425 312.723 113.241 311.973 113.9C310.279 115.369 308.084 116.13 305.844 116.025C303.167 116.112 300.543 115.271 298.417 113.645C296.463 112.12 294.871 110.181 293.756 107.969C292.632 105.72 291.761 103.353 291.16 100.912H287.691V118.385H291.16C291.431 116.608 291.947 114.877 292.692 113.241C294.475 115.474 296.776 117.24 299.396 118.385C301.924 119.529 304.664 120.13 307.44 120.149C309.93 120.2 312.399 119.676 314.654 118.619C316.636 117.687 318.398 116.347 319.825 114.686C321.123 113.187 322.153 111.476 322.869 109.627C323.515 108.032 323.861 106.331 323.89 104.61C323.983 102.055 323.235 99.5386 321.762 97.4468C320.314 95.4879 318.5 93.8276 316.42 92.5577Z" fill="white"/>
<path d="M373.493 112.687C372.961 111.688 372.131 109.796 371.003 106.99L355.511 67.3672H351.935L337.252 105.778C336.478 107.935 335.517 110.019 334.379 112.007C333.725 113.224 332.764 114.25 331.591 114.983C330.484 115.54 329.254 115.81 328.016 115.769V119.234H345.551V115.769C344.172 115.8 342.798 115.599 341.487 115.174C340.909 114.974 340.419 114.582 340.097 114.063C339.776 113.544 339.642 112.931 339.72 112.326C339.861 110.939 340.22 109.583 340.784 108.308L342.019 105.013H358.554L360.937 111.008C361.241 111.735 361.4 112.515 361.406 113.303C361.478 113.769 361.375 114.245 361.115 114.638C360.855 115.031 360.458 115.313 360.001 115.429C358.553 115.777 357.063 115.92 355.575 115.854V119.234H379.58V115.769C378.226 115.848 376.875 115.569 375.664 114.961C374.743 114.42 373.991 113.632 373.493 112.687ZM343.487 101.378L350.169 83.6287L357.192 101.378H343.487Z" fill="white"/>
<path d="M443.901 85.3709C442.795 83.5939 441.424 81.9955 439.837 80.6306C438.259 79.2654 436.469 78.1668 434.538 77.3783C432.321 76.4852 430.007 75.8573 427.642 75.5077C424.603 75.0906 421.538 74.8987 418.47 74.9337H414.47H410.533L401.105 75.1251V78.1648C402.965 77.9257 404.85 78.3308 406.447 79.3127C407.345 80.449 407.765 81.89 407.617 83.3302V110.964C407.662 111.997 407.51 113.028 407.17 114.004C406.994 114.387 406.738 114.728 406.418 115.003C406.099 115.278 405.724 115.481 405.319 115.598C403.941 116.019 402.501 116.199 401.062 116.13V119.106H421.088C426.231 119.249 431.347 118.323 436.112 116.385C438.159 115.453 440.014 114.148 441.582 112.537C443.401 110.708 444.847 108.542 445.838 106.16C446.934 103.461 447.484 100.571 447.455 97.6574C447.468 95.4424 447.159 93.2372 446.54 91.1103C445.938 89.0816 445.049 87.149 443.901 85.3709ZM433.665 110.156C431.494 113.813 427.791 115.641 422.556 115.641C421.222 115.712 419.888 115.502 418.641 115.024C418.262 114.855 417.928 114.6 417.666 114.279C417.403 113.958 417.22 113.58 417.13 113.175C416.925 111.896 416.839 110.601 416.874 109.306V78.5474C419.577 78.5474 421.663 78.5474 423.131 78.76C424.54 78.8839 425.924 79.2133 427.238 79.7378C430.269 80.9707 432.769 83.2278 434.303 86.1149C436.157 89.6271 437.059 93.5621 436.921 97.5299C437.009 101.957 435.883 106.323 433.665 110.156Z" fill="white"/>
<path d="M485.739 112.177C484.735 113.516 483.358 114.529 481.781 115.089C480.393 115.46 478.961 115.646 477.525 115.642H474.013C472.789 115.688 471.565 115.566 470.374 115.281C469.643 115.124 468.988 114.718 468.523 114.133C468.129 113.543 467.895 112.862 467.842 112.156C467.842 111.37 467.714 110.03 467.714 108.372V98.0839H472.226C473.381 98.0367 474.536 98.1657 475.652 98.4666C476.014 98.5934 476.346 98.7953 476.624 99.0591C476.903 99.3229 477.123 99.6425 477.269 99.9971C477.693 101.141 477.916 102.349 477.929 103.568H480.887V89.0072H477.801C477.757 90.213 477.55 91.4072 477.184 92.5571C477.051 92.9163 476.839 93.2406 476.562 93.5057C476.286 93.7708 475.953 93.9698 475.588 94.0876C474.475 94.4075 473.318 94.544 472.162 94.4915H467.714V79.0377H475.907C477.554 78.9869 479.202 79.108 480.823 79.3991C482.001 79.7124 483.037 80.4172 483.76 81.3972C484.88 83.0332 485.661 84.8761 486.058 86.8178H489.038L488.463 75.4453H452.094V78.4213C453.538 78.3437 454.983 78.5459 456.35 79.0165C456.739 79.1528 457.095 79.3688 457.396 79.6507C457.696 79.9325 457.934 80.274 458.095 80.6533C458.366 81.6066 458.488 82.5961 458.457 83.5867V111.093C458.608 112.527 458.187 113.963 457.286 115.089C455.75 116.083 453.909 116.498 452.094 116.259V119.235H491.144L491.506 104.822H488.463C488.216 107.47 487.276 110.006 485.739 112.177Z" fill="white"/>
<path d="M528.927 112.007C527.55 113.514 525.746 114.567 523.756 115.026C521.607 115.415 519.427 115.6 517.244 115.578C515.793 115.676 514.34 115.451 512.987 114.919C512.587 114.741 512.234 114.471 511.957 114.131C511.68 113.791 511.486 113.392 511.391 112.964C511.162 111.559 511.069 110.135 511.115 108.712V83.5867C511.063 82.5627 511.207 81.5382 511.54 80.5682C511.723 80.1898 511.981 79.853 512.3 79.5787C512.618 79.3044 512.99 79.0986 513.392 78.974C514.73 78.5394 516.136 78.3521 517.541 78.4213V75.4453H495.516V78.4213C496.958 78.3482 498.401 78.5428 499.772 78.9952C500.169 79.1252 500.534 79.3384 500.843 79.6207C501.151 79.903 501.395 80.2478 501.559 80.632C501.852 81.5886 501.981 82.5873 501.943 83.5867V111.093C502.09 112.524 501.679 113.956 500.793 115.089C499.247 116.079 497.401 116.493 495.579 116.259V119.235H534.566L534.864 104.61H531.885C531.736 107.333 530.697 109.931 528.927 112.007Z" fill="white"/>
<path d="M592.235 71.8069C593.857 71.7141 595.481 71.9603 597.002 72.5296C597.447 72.6958 597.851 72.954 598.188 73.2874C598.526 73.6208 598.789 74.0218 598.96 74.464C599.27 75.5555 599.406 76.6888 599.364 77.8226V90.3429H575.742V77.8226C575.57 76.1693 576.051 74.5141 577.083 73.2099C577.977 72.2746 579.977 71.8069 583.084 71.8069V68.3633H557.845V71.8069C559.453 71.7151 561.063 71.9613 562.569 72.5296C563.015 72.702 563.422 72.9621 563.766 73.2943C564.11 73.6266 564.383 74.0243 564.57 74.464C564.908 75.5503 565.059 76.6859 565.017 77.8226V109.878C565.049 111.03 564.891 112.179 564.549 113.279C564.347 113.731 564.054 114.137 563.688 114.47C563.322 114.803 562.89 115.056 562.42 115.214C560.929 115.723 559.355 115.946 557.781 115.873V119.231H583.084V115.766C579.935 115.766 577.934 115.299 577.062 114.342C576.068 113.036 575.597 111.406 575.742 109.772V94.5093H599.471V109.878C599.507 111.021 599.357 112.163 599.024 113.258C598.842 113.707 598.569 114.113 598.221 114.45C597.872 114.787 597.457 115.047 597.002 115.214C595.504 115.726 593.923 115.949 592.342 115.873V119.231H617.389V115.766C615.765 115.861 614.14 115.607 612.622 115.022C612.173 114.848 611.765 114.582 611.424 114.242C611.084 113.902 610.818 113.494 610.643 113.045C610.315 112.021 610.135 110.954 610.111 109.878V77.9927C610.075 76.8577 610.218 75.7241 610.537 74.6341C610.716 74.1932 610.984 73.7939 611.325 73.4611C611.665 73.1283 612.071 72.8691 612.516 72.6997C614.023 72.1313 615.632 71.8851 617.24 71.977V68.3633H592.235V71.8069Z" fill="white"/>
<path d="M665.442 112.687C664.91 111.688 664.08 109.796 662.952 106.99L647.396 67.3672H643.842L629.264 105.8C628.437 107.944 627.441 110.02 626.285 112.007C625.63 113.231 624.661 114.258 623.476 114.983C622.376 115.538 621.154 115.808 619.922 115.769V119.234H637.457V115.769C636.072 115.798 634.691 115.597 633.371 115.174C632.801 114.967 632.317 114.572 632 114.055C631.683 113.537 631.551 112.928 631.626 112.326C631.768 110.939 632.127 109.583 632.69 108.308L633.925 105.013H650.545L652.95 111.008C653.239 111.739 653.391 112.517 653.397 113.303C653.476 113.766 653.377 114.242 653.121 114.636C652.865 115.03 652.469 115.313 652.014 115.429C650.565 115.777 649.075 115.92 647.587 115.854V119.234H671.571V115.769C670.224 115.848 668.88 115.569 667.676 114.961C666.722 114.442 665.944 113.65 665.442 112.687ZM635.393 101.378L642.033 83.5862L649.056 101.336L635.393 101.378Z" fill="white"/>
<path d="M713.27 94.6779C710.863 93.3661 708.251 92.4679 705.545 92.0208C709.008 91.237 712.22 89.6001 714.888 87.2593C715.807 86.3655 716.534 85.2937 717.025 84.1094C717.515 82.9252 717.758 81.6534 717.739 80.372C717.834 78.8226 717.566 77.2724 716.957 75.8445C716.347 74.4165 715.413 73.1501 714.228 72.1456C711.99 70.2911 709.317 69.0333 706.461 68.4894C703.767 67.9679 701.032 67.6975 698.289 67.6816H696.905H692.458L684.371 67.8517L674.007 68.0643V71.6142C676.078 71.3713 678.171 71.8358 679.944 72.9321C680.473 73.5855 680.868 74.3369 681.105 75.1431C681.343 75.9493 681.418 76.7944 681.328 77.6299V109.877C681.363 111.036 681.205 112.192 680.859 113.299C680.653 113.745 680.357 114.145 679.992 114.473C679.626 114.802 679.197 115.054 678.731 115.212C677.185 115.737 675.552 115.961 673.922 115.871V119.23H699.459C701.517 119.224 703.572 119.075 705.609 118.783C707.856 118.433 710.051 117.805 712.143 116.913C714.301 116.028 716.198 114.609 717.654 112.789C719.159 110.777 719.912 108.303 719.782 105.795C719.802 103.555 719.214 101.351 718.08 99.4182C716.921 97.4443 715.262 95.8095 713.27 94.6779ZM691.989 71.8905H695.948C698.011 71.8263 700.064 72.2032 701.97 72.9959C703.49 73.6074 704.784 74.6726 705.675 76.046C706.567 77.4194 707.012 79.0341 706.95 80.6696C707.006 81.9618 706.774 83.2502 706.269 84.4414C705.765 85.6327 705.002 86.6969 704.035 87.5569C701.5 89.4206 698.385 90.3246 695.245 90.1077H692.053L691.989 71.8905ZM705.269 112.704C703.284 114.256 700.83 115.088 698.31 115.063C696.84 115.168 695.37 114.875 694.054 114.213C693.617 113.954 693.24 113.607 692.947 113.193C692.653 112.779 692.45 112.308 692.351 111.811C692.104 110.408 691.99 108.984 692.011 107.56V94.2528H698.097C699.499 94.157 700.905 94.3637 702.219 94.8589C703.534 95.3541 704.726 96.1261 705.716 97.1225C707.62 99.3517 708.581 102.233 708.397 105.158C708.52 106.568 708.307 107.987 707.774 109.299C707.241 110.611 706.405 111.778 705.333 112.704H705.269Z" fill="white"/>
<path d="M766.595 112.687C766.084 111.688 765.254 109.796 764.126 106.99L748.612 67.3672H745.037L730.353 105.778C729.58 107.935 728.618 110.019 727.48 112.007C726.839 113.233 725.875 114.262 724.692 114.983C723.585 115.54 722.356 115.81 721.117 115.769V119.234H738.653V115.769C737.274 115.798 735.9 115.597 734.588 115.174C734.013 114.974 733.524 114.58 733.206 114.061C732.888 113.542 732.76 112.929 732.843 112.326C732.974 110.939 733.326 109.583 733.886 108.308L735.141 105.013H751.655L754.06 111.008C754.35 111.739 754.501 112.517 754.507 113.303C754.581 113.766 754.48 114.239 754.225 114.632C753.969 115.025 753.577 115.309 753.124 115.429C751.675 115.776 750.185 115.919 748.697 115.854V119.234H772.681V115.769C771.334 115.851 769.99 115.572 768.787 114.961C767.855 114.427 767.094 113.638 766.595 112.687ZM736.588 101.378L743.271 83.6287L750.293 101.378H736.588Z" fill="white"/>
<path d="M811.554 71.8069C813.242 71.699 814.932 71.9828 816.492 72.6359C816.968 72.8609 817.39 73.1864 817.728 73.5901C818.066 73.9939 818.312 74.4661 818.449 74.9742C818.765 76.4116 818.9 77.8824 818.854 79.3531V102.566L789.848 68.3633H774.951V71.8069C776.332 71.9064 777.686 72.2445 778.952 72.806C779.847 73.2011 780.593 73.8714 781.08 74.7191C781.531 75.5772 781.806 76.5167 781.889 77.4825C781.995 78.5241 782.059 80.0971 782.059 82.2015V108.156C782.106 109.709 781.985 111.263 781.697 112.79C781.561 113.261 781.323 113.695 780.999 114.063C780.675 114.43 780.274 114.722 779.824 114.916C778.267 115.522 776.597 115.783 774.93 115.681V119.231H793.849V115.766C792.076 115.871 790.302 115.611 788.635 115.001C788.144 114.828 787.698 114.547 787.329 114.179C786.961 113.811 786.68 113.366 786.507 112.875C786.198 111.351 786.07 109.796 786.124 108.241V80.1184L819.428 119.656H822.897V79.2681C822.838 77.7076 822.959 76.1455 823.259 74.6128C823.402 74.1332 823.653 73.6926 823.992 73.3242C824.331 72.9559 824.75 72.6697 825.217 72.4871C826.887 71.8933 828.66 71.6403 830.431 71.7431V68.3633H811.427L811.554 71.8069Z" fill="white"/>
<path d="M886.323 76.8455C883.932 73.9347 880.884 71.6325 877.428 70.1283C873.061 68.2379 868.331 67.3308 863.574 67.4712C858.218 67.3264 852.918 68.5949 848.209 71.1486C844.136 73.4067 840.797 76.7859 838.59 80.8843C836.788 84.2646 835.722 87.9874 835.461 91.8084C835.201 95.6294 835.752 99.4621 837.079 103.055C838.234 106.189 839.974 109.074 842.208 111.558C844.689 114.274 847.751 116.395 851.167 117.765C855.221 119.4 859.565 120.196 863.936 120.103C869.268 120.239 874.543 118.979 879.237 116.447C883.307 114.209 886.658 110.862 888.898 106.796C891.097 102.814 892.24 98.3354 892.218 93.7872C892.186 90.8997 891.72 88.0334 890.835 85.2845C889.863 82.2186 888.333 79.3579 886.323 76.8455ZM879.684 99.973C879.381 102.392 878.729 104.755 877.747 106.988C876.669 109.45 874.959 111.584 872.789 113.174C870.191 114.954 867.083 115.842 863.936 115.703C860.771 115.842 857.643 114.979 854.998 113.237C852.796 111.729 851.057 109.639 849.975 107.2C848.962 104.982 848.288 102.625 847.975 100.207C847.708 98.0275 847.573 95.834 847.571 93.6384C847.526 90.0536 847.962 86.4789 848.869 83.01C849.655 79.9023 851.37 77.1072 853.785 74.9961C856.628 72.705 860.226 71.56 863.872 71.7863C866.61 71.6904 869.325 72.3134 871.746 73.5931C873.834 74.7625 875.575 76.4643 876.79 78.5248C878.039 80.6624 878.911 82.9996 879.364 85.4333C879.861 88.104 880.103 90.8157 880.088 93.5321C880.089 95.6854 879.954 97.8367 879.684 99.973Z" fill="white"/>
<path d="M1126.98 94.1469C1126.96 69.1882 1117.02 45.2579 1099.36 27.6074C1081.69 9.95687 1057.73 0.0281409 1032.75 0H89.9974C66.1395 0.0112543 43.2612 9.48014 26.3871 26.3272C9.51299 43.1743 0.0225527 66.0221 0 89.8531V94.1044C0.0225378 117.928 9.50714 140.769 26.3721 157.615C43.237 174.461 66.1043 183.935 89.9549 183.957H1036.96C1060.81 183.952 1083.69 174.491 1100.57 157.653C1117.45 140.814 1126.94 117.974 1126.98 94.1469ZM1037.05 170.672H90.04C69.7317 170.638 50.2648 162.565 35.9046 148.221C21.5445 133.877 13.4621 114.432 13.4283 94.1469V89.8956C13.4621 69.6102 21.5445 50.1654 35.9046 35.8215C50.2648 21.4776 69.7317 13.4043 90.04 13.3706H1032.79C1054.22 13.4155 1074.77 21.9403 1089.92 37.0791C1105.08 52.2178 1113.61 72.7375 1113.66 94.1469C1113.63 114.44 1105.56 133.895 1091.2 148.248C1076.83 162.602 1057.36 170.681 1037.05 170.714V170.672Z" fill="white"/>
<path d="M979.203 148.146L926.746 92.8776L980.927 35.8027H90.87C76.406 35.8253 62.5427 41.5833 52.3271 51.8113C42.1114 62.0393 36.3793 75.9003 36.3906 90.348V93.6428C36.3906 108.083 42.1277 121.933 52.3421 132.152C62.5565 142.371 76.4134 148.123 90.87 148.146H979.203ZM957.348 142.236H90.87C77.9787 142.219 65.6212 137.092 56.5117 127.981C47.4021 118.87 42.2855 106.52 42.2855 93.6428V90.348C42.2742 77.4639 47.3859 65.1028 56.4966 55.9824C65.6074 46.862 77.9714 41.7291 90.87 41.7122H959.135L910.487 92.8776L957.348 142.236Z" fill="white"/>
<path d="M1009.36 146.016L958.837 92.7031L1010.51 38.2429C1005.81 37.2159 1001.06 36.5057 996.27 36.1172L942.578 92.6819L994.972 147.95C999.806 147.634 1004.61 146.988 1009.36 146.016Z" fill="white"/>
<path d="M991.043 92.5147L1034.61 46.6422C1030.82 44.8294 1026.93 43.2325 1022.96 41.8594L974.742 92.5147L1022.13 142.511C1026.12 141.129 1030.03 139.525 1033.84 137.707L991.043 92.5147Z" fill="white"/>
<path d="M1023.13 92.3449L1054.76 59.0353C1051.66 56.7254 1048.37 54.4793 1044.86 52.2969L1006.88 92.3449L1044.44 131.968C1047.95 129.842 1051.27 127.568 1054.35 125.272L1023.13 92.3449Z" fill="white"/>
<path d="M1039.02 92.1509L1063.4 117.893C1066.55 115.066 1069.36 112.281 1071.92 109.624L1055.36 92.1509L1071.92 74.5289C1069.45 71.8931 1066.64 69.1084 1063.4 66.2812L1039.02 92.1509Z" fill="white"/>
<path d="M1071.15 91.9792L1079.41 100.695C1082.85 96.1243 1084.68 92.872 1084.68 92.0005C1084.68 91.129 1082.87 87.7491 1079.41 83.2852L1071.15 91.9792Z" fill="white"/>
</svg>
