<svg width="429" height="133" viewBox="0 0 429 133" fill="none" xmlns="http://www.w3.org/2000/svg">
<path d="M66.3717 22.5249V110.852C66.3717 113.86 65.7799 116.745 64.5963 119.507C63.462 122.219 61.8839 124.562 59.8619 126.535C57.8399 128.507 55.4727 130.085 52.7602 131.269C50.0971 132.403 47.2614 132.97 44.253 132.97H22.1343C19.126 132.97 16.2656 132.403 13.5532 131.269C10.89 130.085 8.54747 128.507 6.52548 126.535C4.50348 124.562 2.90067 122.219 1.71706 119.507C0.582771 116.745 0.015625 113.86 0.015625 110.852V22.5249C0.015625 19.4673 0.582771 16.6069 1.71706 13.9438C2.90067 11.2807 4.50348 8.9381 6.52548 6.9161C8.54747 4.8941 10.89 3.31596 13.5532 2.18166C16.2656 0.998055 19.126 0.40625 22.1343 0.40625H44.253C47.2614 0.40625 50.0971 0.998055 52.7602 2.18166C55.4727 3.31596 57.8399 4.8941 59.8619 6.9161C61.8839 8.9381 63.462 11.2807 64.5963 13.9438C65.7799 16.6069 66.3717 19.4673 66.3717 22.5249ZM22.1343 109.964H44.253V21.6372H22.1343V109.964Z" fill="#774F4D"/>
<path d="M95.962 0.40625V88.7331H73.8433V0.40625H95.962ZM95.962 132.97H73.8433V110.852H95.962V132.97Z" fill="#774F4D"/>
<path d="M163.28 0.40625H185.398C188.407 0.40625 191.243 0.998055 193.906 2.18166C196.618 3.31596 198.985 4.8941 201.007 6.9161C203.029 8.9381 204.607 11.2807 205.742 13.9438C206.925 16.6069 207.517 19.4673 207.517 22.5249V44.6436H185.398V22.5249H163.28V110.852H185.398V88.7331H207.517V110.852C207.517 113.86 206.925 116.745 205.742 119.507C204.607 122.219 203.029 124.562 201.007 126.535C198.985 128.507 196.618 130.085 193.906 131.269C191.243 132.403 188.407 132.97 185.398 132.97H163.28C160.271 132.97 157.411 132.403 154.699 131.269C152.035 130.085 149.693 128.507 147.671 126.535C145.649 124.562 144.046 122.219 142.862 119.507C141.728 116.745 141.161 113.86 141.161 110.852V22.5249C141.161 19.4673 141.728 16.6069 142.862 13.9438C144.046 11.2807 145.649 8.9381 147.671 6.9161C149.693 4.8941 152.035 3.31596 154.699 2.18166C157.411 0.998055 160.271 0.40625 163.28 0.40625Z" fill="#774F4D"/>
<path d="M281.345 0.40625V110.852C281.345 113.86 280.753 116.721 279.569 119.433C278.435 122.096 276.857 124.439 274.835 126.461C272.813 128.483 270.446 130.085 267.733 131.269C265.07 132.403 262.234 132.97 259.226 132.97H237.107C234.099 132.97 231.239 132.403 228.526 131.269C225.863 130.085 223.521 128.483 221.499 126.461C219.477 124.439 217.874 122.096 216.69 119.433C215.556 116.721 214.989 113.86 214.989 110.852V0.40625H237.107V110.852H259.226V0.40625H281.345Z" fill="#774F4D"/>
<path d="M333.054 132.97H288.816V0.40625H333.054C336.062 0.40625 338.898 0.998055 341.561 2.18166C344.273 3.31596 346.641 4.8941 348.663 6.9161C350.685 8.9381 352.263 11.2807 353.397 13.9438C354.581 16.6069 355.172 19.4673 355.172 22.5249V47.8986C354.531 55.0495 350.857 59.8333 344.15 62.2498C351.153 63.828 354.827 68.6364 355.172 76.6751V111C355.172 114.008 354.581 116.868 353.397 119.581C352.263 122.244 350.685 124.562 348.663 126.535C346.641 128.507 344.273 130.085 341.561 131.269C338.898 132.403 336.062 132.97 333.054 132.97ZM333.054 72.8283H310.935V110.112H333.054V72.8283ZM333.054 21.6372H310.935V51.5974H333.054V21.6372Z" fill="#774F4D"/>
<path d="M384.763 0.40625H406.881C409.89 0.40625 412.725 0.998055 415.389 2.18166C418.101 3.31596 420.468 4.8941 422.49 6.9161C424.512 8.9381 426.09 11.2807 427.225 13.9438C428.408 16.6069 429 19.4673 429 22.5249V132.97H406.881V84.6644H384.763V132.97H362.644V22.5249C362.644 19.4673 363.211 16.6069 364.345 13.9438C365.529 11.2807 367.132 8.9381 369.154 6.9161C371.176 4.8941 373.518 3.31596 376.181 2.18166C378.894 0.998055 381.754 0.40625 384.763 0.40625ZM406.881 22.5249H384.763V62.6937H406.881V22.5249Z" fill="#774F4D"/>
</svg>
