<svg width="121" height="163" viewBox="0 0 121 163" fill="none" xmlns="http://www.w3.org/2000/svg">
<path d="M-25.0493 97.1378L-19.2222 88.5003C-20.6505 88.5003 -21.8534 88.4729 -23.0521 88.5256C-23.1897 88.5583 -23.317 88.6245 -23.4228 88.7182C-23.5286 88.8119 -23.6097 88.9303 -23.6589 89.0628C-24.2445 92.0712 -26.3091 93.5711 -29.0478 94.3422C-29.724 94.5318 -30.0042 94.8225 -29.8905 95.4987C-29.743 96.4531 -29.5703 97.3948 -29.4691 98.3639C-29.4594 98.7263 -29.5314 99.0864 -29.6798 99.4172C-29.7135 99.5057 -30.1959 99.552 -30.2254 99.4909C-30.3844 99.2025 -30.484 98.8852 -30.5183 98.5577C-30.6341 96.9734 -30.7121 95.385 -30.8153 93.6259C-31.0864 93.7299 -31.3486 93.856 -31.599 94.003C-34.0596 96.0065 -37.8096 96.3688 -40.6051 94.9089C-42.3811 93.9819 -43.0679 92.2924 -43.6893 90.5691C-43.7567 90.3816 -43.4112 90.0445 -43.268 89.7749C-42.9773 89.9518 -42.4253 90.1794 -42.438 90.2973C-42.7076 91.7531 -42.0166 92.7137 -40.9148 93.4784C-39.5075 94.4623 -37.898 94.9278 -36.2316 94.6856C-34.9974 94.4964 -33.8058 94.0921 -32.7113 93.4911C-31.6432 92.9033 -30.9522 91.9258 -31.3125 90.5017C-31.4747 89.8697 -31.4178 89.1745 -31.4031 88.5108C-31.3883 87.8472 -31.698 87.6092 -32.3048 87.7124C-32.9936 87.8304 -33.6804 88.1337 -34.3609 88.1C-36.4865 88.02 -38.6101 87.8367 -40.7315 87.6787C-41.2772 87.6345 -41.7217 87.468 -42.221 88.0368C-42.9099 88.8289 -43.2617 88.0684 -43.5208 87.527C-44.4204 87.5692 -45.2841 87.6724 -46.1394 87.6324C-46.8283 87.5986 -47.5362 87.3206 -47.4814 86.4695C-47.4266 85.6183 -46.7335 85.4435 -46.0067 85.5172C-45.2125 85.5994 -44.4225 85.7279 -43.6093 85.8438C-42.7961 84.5692 -42.6023 84.5629 -41.8755 85.8964C-38.4812 85.0435 -34.9115 85.2039 -31.6074 86.3578C-31.5358 85.1949 -31.5484 84.2848 -31.4073 83.4084C-31.1966 82.0643 -30.7753 80.7519 -30.6194 79.4057C-30.4698 78.1649 -30.5246 76.8966 -30.5056 75.6431C-30.5056 75.4746 -30.6615 75.2892 -30.6236 75.1417C-30.533 74.7867 -30.3911 74.4467 -30.2023 74.1326C-30.158 74.0568 -29.6988 74.0947 -29.6714 74.1706C-29.5279 74.5128 -29.4479 74.8783 -29.4354 75.2492C-29.4354 76.391 -29.5492 77.535 -29.5071 78.6726C-29.5071 78.9148 -29.0625 79.2393 -28.7571 79.3551C-26.5155 80.1978 -24.7965 81.5882 -23.9728 83.9098C-23.7621 84.4934 -23.8042 85.4203 -23.4271 85.6247C-22.8457 85.9344 -22.0009 85.7532 -21.2678 85.7869C-20.3577 85.829 -19.4476 85.8501 -18.5396 85.9301C-17.7643 85.9997 -17.2756 85.7405 -16.8163 85.0622C-12.9484 79.294 -9.03629 73.5554 -5.1389 67.8083C0.629234 59.3015 6.39597 50.7954 12.1613 42.2899C13.7729 39.9115 13.7582 39.9157 12.0981 37.6784C7.67965 31.7291 3.26682 25.7769 -1.1404 19.822C-1.33842 19.5545 -1.52803 19.2806 -1.72184 19.0109L-1.44587 18.8003C3.76399 25.5185 8.97386 32.2368 14.2701 39.0625C14.9295 38.1144 15.5341 37.2697 16.1177 36.408C18.4161 33.0099 20.6955 29.5971 23.0213 26.2158C23.3647 25.7165 23.3837 25.4111 23.0045 24.9518C22.0796 23.81 21.2095 22.6345 20.2657 21.3704C17.0699 23.1274 14.2469 22.1878 11.464 20.0053C10.5686 20.9217 9.71752 21.8276 8.82428 22.6871C8.54375 22.9252 8.21546 23.1005 7.86152 23.2011C7.77936 23.2306 7.44019 22.8683 7.47178 22.8093C7.62111 22.4811 7.82883 22.1827 8.08483 21.9287C9.26247 20.8585 10.4675 19.822 11.603 18.8234C10.1873 18.0566 8.79478 17.5362 7.69088 16.6535C5.78221 15.1262 4.51398 13.0722 4.78574 10.5441C4.929 9.22112 5.72112 7.9571 6.30046 6.70361C6.36998 6.54982 6.943 6.62777 7.28429 6.59828C7.26743 6.95009 7.3833 7.52312 7.21687 7.62002C4.8995 8.97252 5.4936 11.0055 6.19934 12.8025C7.16421 15.2589 8.91487 17.0686 11.7378 17.3635C12.3168 17.3949 12.8893 17.2293 13.3621 16.8937C14.2617 16.2364 15.0475 15.419 15.9744 14.5953C15.6963 14.2351 15.4941 13.7905 15.1486 13.5419C12.9197 12.0041 11.7147 9.70144 10.4886 7.41146C10.1831 6.84265 9.99982 6.2907 9.10026 6.23382C8.108 6.17272 8.59887 5.41853 8.81164 4.93609C8.24283 4.28302 7.64032 3.69736 7.16842 3.019C6.74708 2.42491 6.5048 1.67493 7.25479 1.14615C8.07219 0.571018 8.56516 1.24516 8.95911 1.82029C9.38045 2.4523 9.71753 3.14962 10.122 3.87432C10.3409 3.82089 10.5634 3.78357 10.7877 3.76266C11.3671 3.7437 11.7673 4.00072 11.3902 4.57374C10.931 5.26474 11.4745 5.48594 11.8116 5.86304C13.0756 7.31245 14.3396 8.74289 15.5299 10.2471C15.9512 10.7822 16.124 11.5111 16.4252 12.1431C16.6359 12.6003 16.8845 13.0448 17.0573 13.3882L24.5424 9.24008C23.8071 8.81874 23.2257 8.53854 22.7011 8.17198C22.4128 7.94355 22.1765 7.65627 22.008 7.3293C21.968 7.25978 22.2418 6.87004 22.343 6.88268C22.7092 6.92606 23.0654 7.0315 23.3963 7.19447C23.5627 7.27663 23.6323 7.53365 23.7734 7.68744C24.8689 8.8714 25.2881 8.8377 26.4004 7.66005C26.6427 7.40093 27.1188 7.33141 27.5023 7.25557C27.5992 7.23661 27.8941 7.61581 27.8688 7.65373C27.6536 7.98518 27.395 8.28631 27.0999 8.54908C26.7788 8.77544 26.4391 8.97418 26.0844 9.14317L32.9586 12.7245C33.188 12.386 33.3788 12.0228 33.5274 11.6417C34.2942 9.11367 35.8448 7.11231 37.6839 5.29844C38.1769 4.81601 38.8847 4.45577 38.3159 3.57938C38.2696 3.50986 38.6214 3.06113 38.8637 2.94737C39.1059 2.83361 39.3903 3.00215 39.6179 3.03585C40.0539 2.21635 40.431 1.43055 40.8819 0.688993C41.2232 0.128612 41.8341 -0.2527 42.3713 0.20024C42.6852 0.463577 42.8601 1.27676 42.6873 1.65597C42.3039 2.486 41.6614 3.19807 41.0441 4.07656C41.6319 4.87921 41.3559 5.38482 40.1551 5.51333C39.9128 5.53861 39.6452 5.93467 39.5104 6.23382C38.3349 8.71551 37.1278 11.1656 34.842 12.872C34.5471 13.0827 34.3785 13.4766 34.0857 13.8727C35.1201 14.7428 36.0596 15.7055 37.1699 16.3839C37.6713 16.6894 38.5455 16.5587 39.1986 16.4071C42.3861 15.6676 44.9057 11.4353 44.044 8.25625C43.9113 7.76117 43.372 7.37986 43.0391 6.93113C42.7971 6.63834 42.5965 6.31368 42.4429 5.96627C42.4029 5.86304 42.7821 5.45645 42.8474 5.48383C43.2014 5.6313 43.6374 5.79352 43.8291 6.09056C46.5678 10.3461 44.6592 15.6297 39.8264 17.3087C39.4999 17.4225 39.1712 17.5194 38.6783 17.6921C39.6389 18.9161 40.5448 20.0095 41.813 20.7953C42.2112 21.0418 42.4998 21.4737 42.8095 21.8486C42.7171 21.9966 42.5986 22.1265 42.4598 22.2321C42.0431 21.9795 41.6447 21.6979 41.2674 21.3894C40.4121 20.6815 39.5821 19.9526 38.7141 19.2153C36.0744 21.4294 33.302 22.3922 30.0155 20.7827C28.9622 22.2574 27.9089 23.6941 26.9103 25.1625C26.8599 25.2763 26.8375 25.4005 26.8448 25.5247C26.8522 25.6489 26.889 25.7696 26.9524 25.8767C29.9383 30.0353 32.9375 34.1841 35.9501 38.323C36.0555 38.4266 36.1712 38.5191 36.2956 38.599L51.6071 17.5994L51.8915 17.8101L36.7549 39.5365C39.3608 43.1516 41.9394 46.7372 44.5244 50.3164C52.6955 61.6336 60.8674 72.9501 69.04 84.2658C70.7801 86.6801 70.7548 86.678 73.759 86.6907C79.3375 86.7117 84.9245 86.7581 90.4967 86.7981C90.7706 86.7981 91.0465 86.8318 91.3204 86.8508C91.3204 86.9687 91.3204 87.0846 91.3204 87.2026H71.5448C71.5175 87.3248 71.4922 87.4491 71.4648 87.5713L77.5321 96.0444L77.2877 96.2382C76.5356 95.286 75.7666 94.3422 75.0314 93.3773C73.6937 91.6203 72.3917 89.8339 71.0287 88.0958C70.7843 87.7861 70.3103 87.4638 69.9459 87.4638C64.085 87.4975 58.2263 87.5818 52.3655 87.6576C52.3065 87.6576 52.2475 87.7103 52.0326 87.8135C53.027 89.0986 54.0024 90.3542 54.982 91.6056C57.2804 94.5739 59.5914 97.5317 61.8667 100.517C62.2522 101.02 62.6356 101.172 63.2697 101.162C67.4115 101.107 71.5533 101.096 75.6992 101.109C76.4366 101.109 76.7652 100.97 76.938 100.14C77.4857 97.5085 79.3038 95.9643 81.7834 95.2291C82.9315 94.8878 83.5741 94.496 83.2181 93.1793C83.025 92.409 82.9023 91.6228 82.8515 90.8303C82.8462 90.4617 82.924 90.0967 83.079 89.7622C83.1148 89.6716 83.5972 89.6358 83.6162 89.6822C83.7667 90.0162 83.8648 90.3715 83.9069 90.7355C84.0417 92.3513 84.145 93.9714 84.2651 95.6841C85.5417 95.0247 86.5277 94.3632 87.6147 93.9861C88.7096 93.595 89.8734 93.434 91.0333 93.513C92.1933 93.592 93.3244 93.9094 94.3562 94.4454C96.1869 95.3534 96.9073 97.0746 97.5014 98.8568C97.5731 99.0675 97.1939 99.432 97.0232 99.7248C96.7325 99.4952 96.1806 99.2318 96.1953 99.0401C96.3091 98.0816 96.3154 97.1546 95.4285 96.6027C94.3161 95.9117 93.1785 95.1111 91.9398 94.8035C89.6666 94.2411 87.4672 94.6498 85.6471 96.293C85.0024 96.8744 84.5516 97.5317 84.7096 98.4987C84.8434 99.2592 84.8851 100.033 84.8339 100.803C84.7538 101.857 85.3142 102.095 86.0979 101.857C89.0346 100.938 91.9313 101.469 94.8407 101.958C95.1672 102.007 95.5004 101.932 95.774 101.747C96.7599 100.966 96.8273 100.961 97.3287 101.958C98.3315 101.958 99.269 101.895 100.192 101.979C100.885 102.042 101.492 102.354 101.416 103.243C101.34 104.132 100.668 104.155 100.025 104.105C99.1615 104.037 98.2999 103.894 97.354 103.786C97.2836 103.98 97.1998 104.169 97.1033 104.351C96.7599 104.926 96.2732 105.023 96.0289 104.37C95.7845 103.717 95.3758 103.738 94.8807 103.856C92.0117 104.593 88.9906 104.484 86.1822 103.542C85.843 103.428 85.449 103.477 85.074 103.452C84.9329 105.097 84.8929 106.641 84.6527 108.152C84.3662 109.898 83.5804 111.567 83.8627 113.401C83.9663 113.877 84.0248 114.361 84.0375 114.847C83.9991 115.213 83.8758 115.565 83.6773 115.875C83.6246 115.967 83.1633 115.974 83.1338 115.908C82.9625 115.59 82.8619 115.239 82.8388 114.878C82.8578 113.76 82.9926 112.643 82.9779 111.529C82.9596 111.342 82.8977 111.162 82.7971 111.003C82.6964 110.845 82.5599 110.712 82.3985 110.616C80.5657 109.9 78.9351 108.931 77.7364 107.086C77.1044 107.68 76.5483 108.179 76.0279 108.718C74.7175 110.071 73.4577 111.474 72.1158 112.791C71.4837 113.412 71.3847 113.776 72.1326 114.24C74.5427 115.734 76.1353 117.901 77.3741 120.391C77.5194 120.684 77.8397 121.152 78.0061 121.125C79.5313 120.88 79.1606 121.714 78.8635 122.42C79.5419 123.139 80.2328 123.745 80.7469 124.476C80.9576 124.778 80.9576 125.622 80.7595 125.74C80.3888 125.951 79.6346 126.037 79.3649 125.801C78.6507 125.169 78.1009 124.346 77.4141 123.495C76.6346 123.766 76.1733 123.512 76.3607 122.372C76.4029 122.111 76.0405 121.74 75.8067 121.481C74.3636 119.827 72.8573 118.217 71.469 116.521C70.9571 115.889 70.6811 115.085 70.2555 114.278C69.08 115.051 67.9993 115.645 67.0744 116.422C66.6805 116.755 66.4867 117.459 66.415 118.021C65.9937 121.247 69.3075 125.117 72.5624 125.184C73.1101 125.197 73.6663 124.784 74.2225 124.582C74.5775 124.428 74.9505 124.319 75.3327 124.257C75.438 124.257 75.7266 124.748 75.6824 124.801C75.4317 125.092 75.141 125.45 74.7955 125.544C69.8531 126.922 65.526 123.648 65.4228 118.5C65.4228 118.224 65.3764 117.952 65.3238 117.335C63.9481 118.219 62.7367 118.993 61.5317 119.776C61.4158 119.85 61.3526 120.023 61.2326 120.067C60.9277 120.185 60.6104 120.269 60.2867 120.316C60.2361 120.316 60.0486 119.991 60.0928 119.907C60.2232 119.602 60.4256 119.333 60.6827 119.123C61.5528 118.561 62.4945 118.102 63.3414 117.507C63.5647 117.352 63.7164 116.793 63.6173 116.521C62.6672 113.897 62.5008 111.392 64.3968 109.062C64.559 108.851 64.5401 108.312 64.38 108.078C63.4846 106.78 62.545 105.508 61.5633 104.275C61.2951 103.98 60.9293 103.791 60.5331 103.744C59.6294 103.65 58.7109 103.66 57.7944 103.654C51.0937 103.602 44.3909 103.553 37.686 103.506C29.8604 103.447 22.0347 103.384 14.209 103.317C7.26111 103.256 0.313221 103.186 -6.63466 103.106C-6.92807 103.079 -7.22295 103.137 -7.48434 103.273C-7.74572 103.409 -7.96265 103.617 -8.10935 103.873C-9.32913 105.708 -10.6163 107.499 -11.8635 109.289C-9.58193 112.399 -9.38811 113.846 -10.7701 117.977C-9.71676 118.531 -8.62337 119.092 -7.54896 119.696C-7.27136 119.872 -7.0413 120.114 -6.87903 120.4C-6.82005 120.495 -7.02439 120.901 -7.0897 120.897C-7.42188 120.89 -7.74818 120.808 -8.04404 120.657C-9.35651 119.833 -10.6416 118.972 -12.0847 118.021C-12.151 118.237 -12.1982 118.457 -12.2258 118.681C-12.0699 121.704 -13.3424 124.053 -15.6682 125.871C-17.5979 127.379 -19.7362 127.135 -21.8703 126.402C-22.0599 126.337 -22.1041 125.848 -22.2158 125.559C-21.8808 125.477 -21.3731 125.209 -21.2341 125.349C-19.0178 127.272 -17.2587 125.795 -15.6745 124.472C-13.9765 123.056 -13.0116 121.156 -13.2602 118.809C-13.3508 117.939 -13.6816 117.299 -14.4737 116.861C-15.3311 116.389 -16.1338 115.82 -17.0965 115.207C-17.3893 115.656 -17.758 116.05 -17.9392 116.509C-18.8071 118.862 -20.4799 120.604 -22.2516 122.262C-22.7593 122.738 -23.1849 123.105 -23.0585 123.916C-22.892 124.995 -23.7326 124.563 -24.1877 124.548C-24.668 125.302 -25.043 126.061 -25.5781 126.684C-26.0479 127.232 -26.7684 127.628 -27.413 126.975C-27.9692 126.41 -27.5879 125.795 -27.1581 125.29C-26.6799 124.733 -26.1722 124.202 -25.5844 123.558C-25.6202 123.48 -25.8477 123.208 -25.7951 123.002C-25.7297 122.724 -25.3885 122.254 -25.2726 122.285C-24.6048 122.458 -24.3878 122.062 -24.1792 121.59C-23.0479 119.047 -21.4953 116.837 -19.1484 115.255C-18.8514 115.045 -18.6744 114.678 -18.4659 114.413C-19.7109 113.307 -20.9117 112.291 -22.0472 111.213C-23.1006 110.21 -24.0697 109.106 -25.1251 108.109C-25.4622 107.789 -25.9952 107.688 -26.3702 107.387C-26.6689 107.123 -26.9166 106.807 -27.1012 106.454C-27.1433 106.382 -26.8695 105.999 -26.8084 106.015C-26.4494 106.086 -26.1071 106.224 -25.7993 106.422C-24.9039 107.083 -24.0655 107.825 -23.1533 108.457C-22.9721 108.583 -22.5002 108.457 -22.2558 108.303C-19.8205 106.749 -17.3114 106.197 -14.5959 107.581C-14.4105 107.675 -13.9849 107.64 -13.8817 107.503C-12.8283 106.119 -11.8235 104.701 -10.8038 103.289C-10.8417 103.178 -10.8776 103.066 -10.9155 102.954H-41.8418L-41.8565 102.533C-41.1613 102.482 -40.4661 102.394 -39.7709 102.388C-31.8399 102.312 -23.9089 102.242 -15.9779 102.177C-14.1914 102.16 -12.3965 102.141 -10.6163 102.057C-10.2115 102.031 -9.8331 101.847 -9.56296 101.545C-6.41556 97.2852 -3.30397 92.9981 -0.188164 88.7131C-0.133389 88.6394 -0.141815 88.5214 -0.080719 88.2391C-1.79979 88.2391 -3.46408 88.2201 -5.12626 88.2391C-9.16058 88.2939 -13.1949 88.3992 -17.2292 88.4076C-18.1119 88.4076 -18.6281 88.6983 -19.1126 89.3999C-20.7811 91.8268 -22.5086 94.2137 -24.2171 96.6132C-24.3899 96.8576 -24.59 97.0851 -24.7775 97.3189L-25.0493 97.1378ZM59.286 101.364C59.1904 101.153 59.0836 100.948 58.9658 100.749C55.8605 96.5521 52.7657 92.3513 49.6226 88.1843C49.3866 87.8704 48.8073 87.6576 48.3901 87.6618C44.36 87.6913 40.3299 87.7946 36.2998 87.843C30.0598 87.9203 23.819 87.9821 17.5776 88.0284C12.9808 88.0649 8.38398 88.079 3.78717 88.0705C3.49334 88.0498 3.19954 88.1116 2.93896 88.2489C2.67838 88.3863 2.46139 88.5938 2.31248 88.8479C-0.51049 92.9475 -3.36085 97.0261 -6.19646 101.115C-6.36347 101.398 -6.514 101.69 -6.6473 101.989H-5.82147L11.4303 101.779C17.2152 101.709 22.9981 101.627 28.7831 101.568C36.7801 101.488 44.7779 101.418 52.7763 101.357C54.8809 101.351 56.9749 101.368 59.286 101.368V101.364ZM69.6341 86.6169L69.8089 86.3452L35.5203 41.2935C35.1496 41.7359 34.9305 41.9592 34.7535 42.212C32.1623 45.9472 29.6153 49.7118 26.9587 53.4027C26.2909 54.3297 26.3667 54.8964 27.0409 55.7454C29.9081 59.3584 32.7016 63.0303 35.5288 66.677C40.4542 73.0322 45.3783 79.3917 50.3009 85.7553C50.4943 86.0394 50.7597 86.2671 51.0698 86.4151C51.38 86.5631 51.7238 86.6262 52.0663 86.598C54.4153 86.5579 56.7685 86.6106 59.1196 86.6127C62.6237 86.6183 66.1285 86.6155 69.6341 86.6043V86.6169ZM15.0496 41.561L-16.6646 85.907C-16.0326 85.9386 -15.6913 85.9681 -15.3543 85.9681C-9.77784 85.9997 -4.20142 86.0355 1.375 86.0376C1.5399 86.0202 1.69958 85.9696 1.84441 85.8889C1.98923 85.8082 2.1162 85.6989 2.21768 85.5678C4.16848 82.9239 6.08348 80.2547 8.01743 77.5982C11.2674 73.1348 14.5215 68.6721 17.7798 64.2101C19.9582 61.2144 22.1323 58.2187 24.2643 55.1913C24.4539 54.9217 24.4749 54.3023 24.3043 54.0516C21.8331 50.6219 19.3135 47.228 16.8002 43.8278C16.2672 43.1073 15.7047 42.4079 15.0496 41.561ZM4.2064 86.1176L47.9941 86.4547L48.1374 86.1197L25.484 55.6L4.2064 86.1176ZM25.2333 53.7188C25.7916 53.0867 26.1097 52.7939 26.3625 52.4547C29.0675 48.7259 31.7451 44.976 34.4796 41.2682C34.8673 40.7436 34.901 40.4845 34.5007 39.9515C31.6251 36.2205 28.7979 32.4517 25.9496 28.6996C25.0627 27.5304 25.0585 27.5367 24.1674 28.7839C21.4876 32.5338 18.8269 36.2943 16.1029 40.0126C15.6394 40.6446 15.6373 41.0491 16.1029 41.639C18.9821 45.3299 21.8444 49.0328 24.6898 52.7476C24.8913 53.0595 25.0729 53.3839 25.2333 53.7188ZM66.8638 107.018C70.2745 105.512 72.1305 105.512 74.8102 107.185C75.5939 107.675 76.0279 107.408 76.6367 106.999C77.3003 106.553 77.3467 106.043 77.0749 105.383C76.9704 105.161 76.9123 104.919 76.9043 104.673C76.9338 103.9 76.5187 103.778 75.8509 103.778C73.4725 103.778 71.094 103.728 68.7134 103.709C67.3378 103.696 65.96 103.709 64.3399 103.709L66.8638 107.018ZM25.0121 23.2707C25.8548 22.0551 26.5648 20.9533 27.3464 19.9C27.7677 19.3248 27.6813 18.9435 27.1757 18.4864C26.6466 18.0219 26.2172 17.455 25.9134 16.8199C25.6096 16.1847 25.4377 15.4946 25.4082 14.7912C25.3576 13.5588 25.562 12.3074 25.7432 11.0771C25.8316 10.4641 25.8 9.86155 25.1111 10.0364C24.6245 10.1628 23.9588 10.4999 24.1842 11.4921C24.4981 12.8615 24.7783 14.3636 24.5213 15.7055C24.2453 17.1402 23.331 18.4442 22.6084 20.0011C23.2551 20.8754 24.0768 21.994 25.0121 23.2707Z" fill="#3D3A3A"/>
<path d="M52.2524 154.768L58.5135 162.352C57.0388 162.352 55.8043 162.388 54.5698 162.325C54.298 162.31 53.9947 161.977 53.7924 161.722C52.5284 160.13 51.2644 158.531 50.0572 156.904C49.6359 156.331 49.2588 156.306 48.572 156.519C47.0973 156.976 46.5306 157.817 46.756 159.352C46.8909 160.275 46.7813 161.234 46.7813 162.26H43.6992V144.837C44.2575 144.812 44.8031 144.768 45.3467 144.766C47.5924 144.766 49.8381 144.766 52.0881 144.766C52.263 144.766 52.4399 144.766 52.6127 144.766C55.6547 145.044 57.0178 147.23 55.6189 149.946C54.7657 151.602 53.5017 153.026 52.2524 154.768ZM46.7898 154.018C49.1345 152.91 50.9463 151.566 51.9807 149.383C52.402 148.49 51.9807 147.833 50.9842 147.766C49.7915 147.698 48.5961 147.693 47.4028 147.749C47.1921 147.749 46.8108 148.073 46.8066 148.254C46.7729 150.1 46.7898 151.941 46.7898 154.018Z" fill="#3D3A3A"/>
<path d="M120.778 154.033C120.778 158.868 116.852 162.837 112.059 162.852C106.984 162.867 103.152 158.915 103.16 153.677C103.16 149.015 107.142 145.114 111.888 145.107C116.949 145.103 120.781 148.95 120.778 154.033ZM112.053 148.331C108.871 148.331 106.297 150.831 106.303 153.924C106.307 155.43 106.908 156.873 107.975 157.936C109.041 159 110.485 159.597 111.991 159.597C115.046 159.597 117.595 157.069 117.639 153.985C117.682 150.947 115.103 148.331 112.053 148.331Z" fill="#3D3A3A"/>
<path d="M83.3312 146.038L82.0188 148.604C80.1059 147.534 78.1488 146.919 76.0252 147.13C75.3282 147.188 74.646 147.364 74.007 147.648C72.6629 148.28 72.5723 149.647 73.8237 150.463C74.4583 150.83 75.1382 151.114 75.8461 151.305C77.7127 151.906 79.6171 152.394 81.4605 153.054C83.4871 153.781 84.5679 155.226 84.4436 157.478C84.3298 159.538 83.5314 161.186 81.5806 161.999C78.391 163.324 75.2605 162.799 72.2142 161.413C71.3715 161.028 70.5815 160.503 69.7135 160.012L70.9776 157.379C72.9094 158.085 74.7064 158.853 76.5729 159.378C77.4725 159.629 78.5195 159.502 79.4718 159.359C79.8937 159.296 80.282 159.092 80.5739 158.781C80.8658 158.47 81.0442 158.069 81.0803 157.644C81.1163 157.219 81.0079 156.794 80.7726 156.438C80.5373 156.082 80.1888 155.816 79.7836 155.683C78.4605 155.247 77.0448 155.066 75.7303 154.63C74.3329 154.203 72.9815 153.638 71.6959 152.944C70.1854 152.078 69.5155 150.589 69.6272 148.849C69.7473 146.976 70.8364 145.661 72.5239 145.057C76.219 143.732 79.8025 144.328 83.3312 146.038Z" fill="#3D3A3A"/>
<path d="M12.8108 147.698C12.7686 148.12 12.7223 148.389 12.7202 148.661C12.7202 149.742 12.7202 150.822 12.7202 152.053H18.9181V154.985H12.8087V159.384H21.621V162.279H9.53906V144.846H21.5957V147.698H12.8108Z" fill="#3D3A3A"/>
<path d="M37.8072 157.581L39.7896 159.799C38.1927 162.195 34.249 163.408 31.0658 162.525C27.3201 161.487 24.6762 158.287 24.4887 154.568C24.2928 150.623 26.49 147.054 29.9029 145.779C33.5727 144.408 37.586 145.284 39.7369 147.97C39.0881 148.756 38.4308 149.548 37.7777 150.336C34.3248 147.764 31.4576 147.69 29.2793 150.045C27.1726 152.314 27.1241 155.449 29.1613 157.754C31.3228 160.197 34.1205 160.157 37.8072 157.581Z" fill="#3D3A3A"/>
<path d="M87.0254 147.589V144.851H100.239V147.735C98.9619 147.735 97.6726 147.8 96.396 147.714C95.429 147.648 95.2246 148.004 95.2352 148.908C95.2794 152.945 95.252 156.983 95.2499 161.019V162.258H92.0288V154.23C92.0288 152.614 92.0288 151 92.0288 149.384C92.0288 147.446 92.1531 147.752 90.4235 147.73C89.3701 147.718 88.3168 147.714 87.2634 147.699C87.2087 147.699 87.1455 147.644 87.0254 147.589Z" fill="#3D3A3A"/>
<path d="M-7.75781 147.762V144.861H5.40904V147.699H0.481475V162.258H-2.73335V147.762H-7.75781Z" fill="#3D3A3A"/>
<path d="M65.453 144.831V162.247H62.293V144.831H65.453Z" fill="#3D3A3A"/>
<path d="M24.5821 95.1411C25.4733 95.7394 25.962 96.58 25.5028 97.5491C25.2415 98.0989 24.6116 98.7162 24.0513 98.8279C22.8378 99.0743 21.5632 99.0153 20.2402 99.0849V91.8715C21.4179 91.8715 22.5702 91.7788 23.6994 91.8926C25.2373 92.0485 25.7682 93.4853 24.8286 94.7451C24.7486 94.8567 24.6854 94.9768 24.5821 95.1411ZM21.2388 95.7057C20.7585 98.0568 20.986 98.3328 23.1348 98.1874C23.205 98.1917 23.2753 98.1917 23.3455 98.1874C24.0344 98.0526 24.6748 97.8546 24.6559 96.974C24.6369 96.0934 24.0597 95.7584 23.276 95.7205C22.6082 95.6805 21.9445 95.7057 21.2388 95.7057ZM21.2283 94.9579C21.9972 94.9073 22.7914 94.9705 23.5035 94.7598C23.8722 94.6503 24.3041 94.0604 24.3209 93.6728C24.3357 93.3462 23.849 92.7964 23.4782 92.6868C21.5506 92.1138 20.9502 92.6321 21.0829 94.5829C21.1196 94.7121 21.1683 94.8376 21.2283 94.9579Z" fill="#3D3A3A"/>
<path d="M39.3012 91.8709H40.1649V99.3328C39.575 98.9431 39.08 98.7787 38.844 98.4353C37.8918 97.0491 37.0217 95.6082 36.1053 94.1904C35.9684 93.9797 35.8083 93.769 35.6587 93.571L35.3912 93.6363C35.3912 95.1931 35.3912 96.75 35.3912 98.3047C35.3912 98.8651 35.2837 99.2064 34.5801 98.9367V91.9151C35.3048 91.6518 35.7409 91.8604 36.118 92.5303C36.929 93.9607 37.8328 95.3385 38.6944 96.7437C38.804 96.9206 38.9051 97.106 38.9957 97.2872L39.2864 97.1313L39.3012 91.8709Z" fill="#3D3A3A"/>
<path d="M26.5371 98.9225C27.3798 96.7105 28.1888 94.4984 29.0504 92.2948C29.1146 92.1713 29.2069 92.0645 29.32 91.9833C29.4331 91.902 29.5638 91.8485 29.7014 91.8271C29.8405 91.8369 29.9751 91.8804 30.0936 91.9538C30.2122 92.0272 30.3111 92.1283 30.3818 92.2485C31.2245 94.4605 32.0293 96.6915 32.8382 98.912C32.044 99.2701 31.8165 98.8256 31.6079 98.2294C31.431 97.7175 31.2414 96.9275 30.8874 96.8242C30.117 96.5851 29.2921 96.5851 28.5216 96.8242C28.1003 96.9738 27.9865 97.8628 27.6579 98.3705C27.4472 98.6887 27.108 98.9162 26.8152 99.1837L26.5371 98.9225ZM30.8053 96.0553C30.4429 95.0546 30.129 94.1803 29.813 93.3061L29.5265 93.3545L28.5806 96.0553H30.8053Z" fill="#3D3A3A"/>
<path d="M48.2687 98.89C47.4871 99.2313 47.2322 98.8647 47.0342 98.2875C46.8572 97.7734 46.6929 96.9708 46.3432 96.8591C45.5794 96.6082 44.7576 96.5943 43.9858 96.8191C43.5644 96.9602 43.4296 97.8324 43.1031 98.3338C42.863 98.6422 42.595 98.9278 42.3025 99.187L41.957 98.9279C42.7997 96.6948 43.6234 94.4575 44.4977 92.2391C44.5725 92.1197 44.6757 92.0206 44.7981 91.9507C44.9205 91.8809 45.0583 91.8425 45.1992 91.8389C45.3373 91.8724 45.4659 91.9368 45.5754 92.0273C45.6849 92.1179 45.7724 92.2321 45.8312 92.3613C46.655 94.506 47.4429 96.6674 48.2687 98.89ZM46.2695 96.0544C45.8818 95.0305 45.5637 94.1857 45.2435 93.3409H44.957L43.99 96.0459L46.2695 96.0544Z" fill="#3D3A3A"/>
<path d="M18.4455 98.9151C17.7102 99.1848 17.4658 98.9152 17.2678 98.34C16.7201 96.7642 15.7931 96.2333 14.2257 96.7895C13.8234 96.9285 13.6064 97.6933 13.3831 98.2031C13.1598 98.7129 13.065 99.2564 12.1738 98.9004C12.4287 98.2073 12.6836 97.5079 12.947 96.8106C13.5031 95.3359 14.0383 93.8612 14.6471 92.4076C14.7357 92.2608 14.8536 92.134 14.9936 92.035C15.1335 91.936 15.2924 91.867 15.4603 91.8324C15.6204 91.7987 15.9722 92.1337 16.0607 92.3696C16.8718 94.529 17.647 96.7031 18.4455 98.9151ZM15.4202 93.147L15.1358 93.1196L14.0509 96.0837H16.5326C16.2103 95.1758 15.9469 94.4237 15.6752 93.6758C15.5994 93.4952 15.5143 93.3187 15.4202 93.147Z" fill="#3D3A3A"/>
<path d="M4.76594 91.8591H5.68025V94.8359H9.65558C9.65558 93.9511 9.63241 93.1505 9.67033 92.3689C9.67033 92.1856 9.881 92.0129 10.0074 91.8359C10.1296 92.0087 10.355 92.1793 10.3571 92.3542C10.3845 94.385 10.3908 96.4159 10.3571 98.4468C10.3571 98.6342 10.0917 98.8196 9.94842 99.005C9.84519 98.8175 9.65769 98.6342 9.65137 98.4446C9.61977 97.5388 9.63873 96.6329 9.63873 95.6322H5.72449V98.8344C4.99979 99.2052 4.75963 98.9776 4.76173 98.3098C4.77016 96.1799 4.76594 94.048 4.76594 91.8591Z" fill="#3D3A3A"/>
<path d="M54.1727 81.7803C52.4304 81.7803 50.7493 80.0759 50.7598 78.3358C50.7725 76.2965 52.7801 74.5564 54.8615 74.4237C56.5722 74.312 58.2175 76.1975 58.2596 78.1441C58.2976 79.8737 56.1509 81.7845 54.1727 81.7803ZM57.4528 77.8997C57.4739 76.5683 56.2667 75.2663 54.9838 75.2347C53.5575 75.201 51.474 77.0528 51.474 78.3527C51.474 79.5766 52.8686 81.0471 54.0694 81.0914C55.5209 81.1482 57.4296 79.347 57.4528 77.8997Z" fill="#3D3A3A"/>
<path d="M35.4629 60.1318C35.5295 59.8427 35.6233 59.5605 35.7431 59.2891C35.8727 59.1241 36.0321 58.9848 36.2129 58.8783L40.8118 55.2295C41.6418 56.3165 42.4698 57.353 43.2429 58.4275C43.698 59.0595 43.7359 59.8516 43.1818 60.3572C42.6278 60.8628 41.842 61.1135 41.1446 61.4843L38.8589 64.0481C38.2037 63.6816 38.1658 63.2876 38.7514 62.8431C39.0021 62.6535 39.2275 62.4218 39.4846 62.2532C40.1166 61.8129 40.2177 61.1893 39.8785 60.5931C39.4811 59.9335 39.0097 59.3214 38.4734 58.7687C38.3533 58.6381 37.8772 58.6845 37.677 58.8172C37.0113 59.2554 36.3962 59.7736 35.7621 60.2603L35.4629 60.1318ZM41.1236 60.4878C42.3876 60.5236 43.0491 59.4829 42.5309 58.5539C42.2802 58.1051 41.8378 57.7638 41.5807 57.3172C41.0435 56.3903 40.5948 56.3524 39.7311 57.0729C38.8673 57.7933 38.5661 58.24 39.5478 59.0279C39.9186 59.327 40.1503 59.7947 40.4979 60.1318C40.6864 60.2811 40.8976 60.3992 41.1236 60.4815V60.4878Z" fill="#3D3A3A"/>
<path d="M43.8921 66.5629C43.8057 67.1233 43.8121 67.4393 43.7067 67.7131C43.2854 68.8213 43.9996 70.4518 45.1519 70.7341C45.5374 70.8268 46.1652 70.7341 46.3843 70.4729C46.6329 70.1759 46.694 69.5586 46.5803 69.152C46.3464 68.3093 45.8155 67.5594 45.6533 66.7209C45.5522 66.2005 45.7249 65.3684 46.0915 65.0798C46.3594 64.8881 46.6643 64.7545 46.9868 64.6874C47.3093 64.6203 47.6422 64.6212 47.9644 64.69C49.9088 65.2715 50.5767 67.4835 49.0999 69.1815C49.0999 68.6338 49.0198 68.3157 49.1125 68.0586C49.4749 67.0748 48.9018 65.6486 47.9222 65.3874C47.5241 65.282 46.8689 65.2989 46.6582 65.5411C46.4033 65.8298 46.3527 66.466 46.4707 66.8768C46.7109 67.7195 47.1765 68.4779 47.4524 69.3037C47.5461 69.5678 47.5748 69.8505 47.5361 70.128C47.4975 70.4055 47.3927 70.6696 47.2306 70.8981C47.0684 71.1266 46.8536 71.3127 46.6044 71.4407C46.3552 71.5687 46.0789 71.6349 45.7987 71.6337C44.5115 71.6337 43.692 70.791 43.1021 69.7377C42.5565 68.7686 42.5417 67.8037 43.3128 66.9189C43.4966 66.7857 43.6902 66.6667 43.8921 66.5629Z" fill="#3D3A3A"/>
<path d="M37.8225 54.7933C37.732 54.4394 37.5255 54.1023 37.6119 53.9043C38.1006 52.8509 37.6751 52.0504 36.9462 51.3763C36.173 50.6579 35.2208 50.6136 34.3002 51.0434C33.1499 51.5806 32.1935 52.379 32.027 53.7231C31.8164 55.2779 33.1878 56.4955 34.7257 56.2238C35.0432 56.171 35.3692 56.2251 35.6527 56.3775C34.85 57.1844 33.8978 57.1444 33.0699 56.7209C31.9322 56.1374 31.1738 55.1641 31.1738 53.7926C31.1738 51.7239 34.5445 48.8482 36.9904 50.4472C38.1238 51.174 39.3225 53.6072 37.8225 54.7933Z" fill="#3D3A3A"/>
<path d="M54.4581 73.4165L52.8296 71.531C51.3043 72.7445 49.8507 73.9221 48.3655 75.0597C48.1548 75.2241 47.7798 75.184 47.4828 75.2388L47.3438 74.8533C48.5263 73.8982 49.7075 72.9439 50.8872 71.9903C52.2355 70.9074 52.2355 70.9116 51.2664 69.5191C51.1316 69.3232 51.0242 69.1104 50.9041 68.9061L51.0895 68.6406C51.3431 68.7657 51.5796 68.9229 51.7931 69.1083C54.5086 72.1525 54.8078 72.6223 54.4581 73.4165Z" fill="#3D3A3A"/>
<path d="M40.1855 65.7286C41.8878 64.3529 43.5794 62.9646 45.309 61.6205C45.446 61.5131 45.8209 61.7132 46.335 61.8312C44.4074 63.3775 42.741 64.7342 41.0472 66.0446C40.8723 66.1794 40.5268 66.0972 40.2593 66.1162L40.1855 65.7286Z" fill="#3D3A3A"/>
<path d="M1.44567 78.4533L-2.5718 75.5671L-2.793 75.7399C-2.69515 76.0398 -2.57036 76.3304 -2.42013 76.6078C-1.7502 77.6317 -1.0255 78.6218 -0.382956 79.6604C-0.222847 79.9196 -0.286043 80.3177 -0.246016 80.6527C-0.559913 80.6632 -0.896989 80.7538 -1.18561 80.6716C-2.35904 80.3325 -3.50297 79.9322 -4.68061 79.572C-4.93002 79.5111 -5.18348 79.4681 -5.43903 79.4434C-5.4938 79.5382 -5.54646 79.633 -5.59913 79.7278C-4.77962 80.383 -3.96433 81.0403 -3.14061 81.6892C-2.81197 81.9483 -2.42855 82.1505 -2.15257 82.4518C-2.01353 82.6014 -2.05989 82.9174 -1.97562 83.4651L-7.80273 79.1022C-7.51412 78.0909 -6.98955 78.0025 -6.1869 78.3227C-5.0535 78.7735 -3.88217 79.1338 -2.71506 79.5024C-2.36113 79.6162 -1.9714 79.6267 -1.32464 79.7278C-1.51903 79.2798 -1.73848 78.843 -1.98193 78.4196C-2.65818 77.3999 -3.30072 76.3445 -4.08863 75.4112C-4.68482 74.7034 -4.50997 74.2547 -3.77262 73.6416C-1.98614 75.0131 -0.165954 76.4014 1.63106 77.8171C1.68794 77.8592 1.53415 78.1773 1.44567 78.4533Z" fill="#3D3A3A"/>
<path d="M2.73047 64.8887C3.15181 63.7659 3.95025 64.0713 4.64546 64.124C6.30132 64.2525 7.95718 64.4063 9.61093 64.5454L9.78158 64.1999C9.12429 63.6921 8.47121 63.1823 7.80971 62.6809C7.1145 62.1543 6.41297 61.6276 5.40387 60.8839C5.90105 60.7786 6.27603 60.5763 6.42561 60.6859C8.18049 61.9499 9.89955 63.2603 11.8777 64.7455C11.3321 64.9899 10.9445 65.3206 10.5716 65.3038C8.83567 65.2279 7.10398 65.0531 5.37017 64.9246C5.0688 64.9144 4.77467 65.0182 4.54644 65.2153C5.36594 65.862 6.18334 66.513 7.00917 67.1513C7.45157 67.4926 7.94665 67.7728 8.34482 68.1583C8.52178 68.329 8.51757 68.6892 8.59552 68.9631L8.31111 69.0769L2.73047 64.8887Z" fill="#3D3A3A"/>
<path d="M5.88985 71.5263C5.88985 73.4834 4.35617 75.0487 2.48332 75.0319C0.511454 75.0171 -1.51941 73.0516 -1.48992 71.1661C-1.47306 69.3859 0.212303 67.6437 1.90398 67.6563C3.88006 67.6711 5.90881 69.6408 5.88985 71.5263ZM2.68556 74.1744C3.99803 74.1618 5.21359 72.9231 5.21359 71.6022C5.21359 70.2813 3.30493 68.5664 1.80496 68.5622C1.15263 68.5821 0.532861 68.8518 0.0737367 69.3156C-0.385388 69.7794 -0.64877 70.4019 -0.661974 71.0544C-0.666187 72.6092 1.01916 74.1744 2.68556 74.1744Z" fill="#3D3A3A"/>
<path d="M19.6515 52.7978C19.7694 53.2191 19.9443 53.5204 19.8621 53.6405C18.9352 54.9466 17.9661 56.2254 16.9844 57.5505L11.2773 53.3371C12.3117 51.8982 13.2766 50.5226 14.3847 49.2754L14.8334 49.6693C14.1825 50.5689 13.5821 51.5106 12.8679 52.3554C12.3623 52.9537 12.4107 53.2802 13.0786 53.632C13.4583 53.8657 13.8209 54.1262 14.1635 54.4115C15.0778 53.3856 15.9395 52.4186 16.8116 51.4621C16.9259 51.5365 17.0363 51.6166 17.1424 51.7023C16.5104 52.5745 15.9184 53.4572 15.2464 54.2893C14.8735 54.7591 14.8629 55.0625 15.4044 55.3722C15.7053 55.5547 15.9875 55.7664 16.247 56.0042C16.7379 56.4255 17.075 56.3286 17.4373 55.7935C18.0925 54.8455 18.8025 53.9501 19.6515 52.7978Z" fill="#3D3A3A"/>
<path d="M7.0332 59.5541C7.0627 59.316 7.01004 59.019 7.13433 58.8505C8.14133 57.4706 9.17993 56.1117 10.2101 54.7529L10.5261 54.793C10.5071 55.0226 10.564 55.2986 10.4566 55.4713C9.37796 57.1841 9.38007 57.1567 11.0654 58.3701C12.0324 59.059 12.9888 59.7711 13.9074 60.5253C14.118 60.7001 14.1433 61.0962 14.255 61.3911L13.9663 61.5365C12.5654 60.5021 11.1097 59.5309 9.78244 58.408C9.00928 57.7529 8.61112 57.9088 8.15186 58.6587C7.91639 59 7.66104 59.3271 7.38713 59.6384L7.0332 59.5541Z" fill="#3D3A3A"/>
<path d="M27.2214 80.6344C26.7516 82.1091 26.9791 83.746 25.7193 84.9553C24.4553 83.786 24.6533 82.1828 24.2446 80.6239C23.7727 80.8999 23.3661 81.1295 22.9806 81.3739C21.7166 82.1513 20.4273 82.6168 18.9062 82.2166C17.8529 81.9385 17.0881 81.3739 16.8796 80.3205C16.671 79.2672 16.711 78.1886 17.9329 77.6345C18.0277 77.5903 18.0636 77.4238 18.1921 77.1942C17.8592 77.171 17.638 77.1542 17.4168 77.1415C16.275 77.0699 15.5208 76.5095 15.1669 75.4035C14.6865 73.9288 14.9351 72.5005 15.9189 71.3481C17.0018 70.0841 18.5797 69.8039 20.0628 70.3221C21.2046 70.7182 22.1969 71.5714 23.2102 72.2877C23.463 72.4668 23.541 72.8965 23.699 73.2125L24.1856 72.8923C24.1809 72.5117 24.1528 72.1318 24.1013 71.7547C23.5157 68.6621 23.1934 65.5779 24.4321 62.5569C24.7418 61.8006 25.1758 61.0927 25.6456 60.1826C28.6307 64.3623 27.8787 68.7232 27.0823 73.0904L27.3878 73.1683C27.7459 72.7722 28.0914 72.3614 28.4664 71.9801C30.038 70.3769 31.9109 69.6775 34.0976 70.3917C36.2043 71.0806 37.1881 74.3059 35.9283 76.143C35.389 76.9309 34.0555 77.3606 33.2044 77.0214C32.151 76.6001 31.9404 75.3614 32.7599 74.4049C33.4424 73.6107 33.3919 73.3516 32.4354 72.9113C31.1061 72.3067 28.7108 73.1472 28.123 74.445C28.0817 74.5351 28.0587 74.6325 28.0554 74.7317C28.0521 74.8308 28.0687 74.9295 28.1041 75.0222C29.0816 76.7075 28.9762 76.9877 27.1645 77.428C27.2277 79.3241 29.8358 80.9989 31.6475 80.2173C30.847 79.6696 30.4994 79.0102 31.0914 78.1317C31.6539 77.289 32.467 77.3585 33.2528 77.586C34.144 77.8473 34.6074 78.4645 34.599 79.4673C34.5822 81.4876 32.8884 82.838 30.7669 82.2987C29.8063 82.0564 28.9173 81.5171 28.003 81.0979C27.7344 80.9574 27.4735 80.8027 27.2214 80.6344ZM18.447 77.1247C20.9265 78.237 21.1604 78.7953 19.8353 80.2384C21.4659 81.0347 23.8717 79.5663 24.3436 77.487C24.291 77.4449 24.2446 77.3796 24.1856 77.3648C22.4708 76.9435 22.2896 76.5095 23.2292 75.0475C23.2765 74.9634 23.3066 74.8707 23.3178 74.7749C23.329 74.679 23.3211 74.5819 23.2945 74.4892C22.7404 72.9239 19.5677 72.1171 18.4112 73.2589C18.2574 73.4127 18.1878 73.9246 18.3016 74.0278C19.3739 75.018 19.4434 76.046 18.447 77.1247Z" fill="#3D3A3A"/>
</svg>
