<svg width="288" height="198" viewBox="0 0 288 198" fill="none" xmlns="http://www.w3.org/2000/svg">
<path d="M42.137 163.876C41.7136 162.501 41.3613 161.524 41.114 160.516C40.7308 158.946 40.2393 157.37 40.1126 155.772C39.9365 153.553 40.057 151.312 40.0385 149.081C40.0199 146.917 41.4972 145.573 43.058 144.754C43.8681 144.293 44.8092 144.118 45.7308 144.255C46.6525 144.392 47.5015 144.835 48.1422 145.511C49.3198 146.689 50.8589 147.539 51.1402 149.446C51.4492 151.566 50.2439 153.374 48.0928 153.772C46.3558 154.082 45.6202 154.777 45.6202 156.61C45.6131 158.289 45.7997 159.964 46.1765 161.601C46.626 163.515 47.2681 165.379 48.0928 167.164C48.5935 168.228 49.4496 169.377 50.454 169.903C54.0021 171.757 57.6739 173.377 61.3147 175.058C62.5973 175.651 63.8923 176.239 65.2275 176.708C69.3937 178.18 73.5723 179.616 77.7633 181.017C80.3625 181.885 82.9711 182.748 85.6198 183.449C88.6116 184.24 91.6559 184.846 94.6755 185.529C96.1095 185.838 97.5313 186.262 98.9808 186.478C103.413 187.146 107.87 187.64 112.271 188.385C119.179 189.601 126.18 190.211 133.195 190.209C136.313 190.187 139.432 190.462 142.55 190.635C144.228 190.731 145.903 191.031 147.576 191.003C150.901 190.95 154.227 190.743 157.549 190.579C160.872 190.416 164.21 190.351 167.517 190.011C171.417 189.612 175.29 188.948 179.178 188.431C180.847 188.212 182.556 188.2 184.203 187.875C187.584 187.214 190.935 186.388 194.307 185.662C197.437 184.985 200.599 184.426 203.705 183.662C205.816 183.14 207.872 182.364 209.927 181.638C213.571 180.359 217.215 179.082 220.818 177.701C222.515 177.048 224.113 176.155 225.764 175.383C227.371 174.644 229.071 174.072 230.597 173.194C232.606 172.038 234.68 171.154 235.542 168.404C236.21 166.287 236.847 164.17 237.397 162.012C237.82 160.356 237.922 158.888 236.318 157.772C235.858 157.463 235.515 156.965 235.051 156.647C233.997 155.927 233.66 154.774 234.084 153.81C234.94 151.866 235.913 149.928 238.157 149.053C239.622 148.481 240.695 148.889 241.523 150.024C242.83 151.81 243.489 153.692 242.852 156.032C242.172 158.504 241.925 161.116 241.43 163.66C241.307 164.299 240.963 164.896 240.787 165.514C240.59 166.222 240.478 166.948 240.308 167.677L240.701 168.021C241.628 167.56 242.605 167.208 243.427 166.617C246.585 164.349 249.824 162.161 252.788 159.654C258.318 154.981 263.621 150.045 267.704 143.994C269.901 140.742 272.136 137.503 273.984 134.042C275.53 131.161 276.679 128.043 277.724 124.936C278.868 121.537 279.767 118.032 280.62 114.536C280.994 112.793 281.234 111.023 281.337 109.242C281.544 106.853 281.872 104.436 281.733 102.056C281.519 98.4061 281.05 94.7622 280.521 91.1399C279.602 84.8217 277.519 78.7288 274.377 73.1707C271.917 68.8755 269.127 64.7783 266.032 60.9161C263.087 57.1762 259.85 53.6758 256.352 50.448C252.89 47.2801 249.009 44.5757 245.226 41.7601C242.688 39.8779 240.058 38.1069 237.375 36.4318C235.212 35.0873 232.943 33.9314 230.69 32.7508C228.187 31.4372 225.674 30.133 223.118 28.9276C221.381 28.1086 219.554 27.4812 217.777 26.7394C216.142 26.0533 214.532 25.3115 212.894 24.6254C211.061 23.8589 209.238 23.043 207.359 22.4094C205.152 21.6645 202.88 21.1113 200.649 20.4406C197.923 19.6247 195.249 18.6048 192.483 17.9681C188.774 17.115 184.988 16.534 181.233 15.8571C179.134 15.4801 177.03 15.1432 174.928 14.7939C174.426 14.6954 173.92 14.6242 173.411 14.5807C169.832 14.3952 166.249 14.2284 162.67 14.0553C162.516 14.0702 162.36 14.0576 162.21 14.0182C160.238 13.091 161.425 11.2953 161.178 9.91067C160.992 8.89693 161.688 8.36534 162.683 8.4457C166.138 8.73622 169.59 9.06383 173.043 9.38835C174.672 9.53979 176.306 9.6696 177.929 9.88595C179.842 10.1425 181.743 10.4763 183.647 10.7822C185.307 11.048 186.982 11.2459 188.617 11.6136C192.016 12.3832 195.416 13.2239 198.816 14.0862C201.471 14.7538 204.15 15.3626 206.747 16.2249C210.264 17.3901 213.71 18.7778 217.193 20.0605C219.146 20.7806 221.162 21.3647 223.065 22.2239C225.538 23.3397 227.946 24.6594 230.378 25.8988C231.735 26.5911 233.104 27.271 234.436 28.0128C236.779 29.3201 239.146 30.5997 241.415 32.0307C243.921 33.6069 246.385 35.2573 248.764 37.0128C251.608 39.1052 254.516 41.1543 257.081 43.562C261.374 47.5799 265.695 51.6441 269.484 56.1318C272.733 59.9766 275.357 64.3808 278.052 68.6552C279.666 71.1263 281.034 73.7494 282.138 76.487C283.522 80.0722 284.372 83.8583 285.605 87.5083C287.089 91.8909 286.971 96.4466 287.46 100.953C287.827 104.371 287.151 107.635 286.919 110.957C286.712 113.386 286.338 115.797 285.8 118.174C285.278 120.866 284.582 123.521 283.717 126.123C282.635 129.174 281.281 132.138 279.906 135.086C278.94 137.223 277.812 139.282 276.531 141.246C274.018 144.949 271.546 148.732 268.631 152.131C265.555 155.705 262.213 159.041 258.633 162.111C255.045 165.202 251.119 167.915 247.225 170.626C244.388 172.601 241.415 174.4 238.398 176.087C235.972 177.447 233.385 178.52 230.872 179.728C229.231 180.516 227.612 181.351 225.955 182.108C224.66 182.695 223.35 183.261 222.005 183.718C218.544 184.889 215.061 185.99 211.59 187.118C208.99 187.971 206.438 188.972 203.798 189.658C200.309 190.558 196.761 191.204 193.234 191.958C189.015 192.848 184.806 193.781 180.562 194.563C178.658 194.913 176.696 194.947 174.758 195.11C169.161 195.589 163.567 196.09 157.966 196.523C155.111 196.742 152.242 196.832 149.38 196.986C147.498 197.095 145.601 197.447 143.734 197.329C139.867 197.085 136.007 196.578 132.165 196.226C130.833 196.106 129.48 196.204 128.148 196.053C125.116 195.704 122.099 195.243 119.07 194.869C118.103 194.749 117.111 194.823 116.15 194.681C113.64 194.31 111.143 193.865 108.639 193.466C107.78 193.33 106.908 193.268 106.052 193.123C102.894 192.591 99.7164 192.137 96.5855 191.466C93.365 190.777 90.1878 189.881 87.0044 189.053C84.4484 188.391 81.8955 187.705 79.3457 187.013C77.2935 186.456 75.2042 185.99 73.2076 185.273C69.6657 184.006 66.1763 182.59 62.6746 181.218C59.7508 180.074 56.8023 178.999 53.9372 177.719C51.7682 176.715 49.6514 175.602 47.5952 174.384C44.5879 172.657 41.5992 170.895 38.6569 169.059C32.1463 164.957 26.1581 160.079 20.8237 154.533C17.1149 150.725 14.0242 146.497 11.0726 142.105C8.21373 137.834 6.1986 133.173 4.25147 128.506C3.07392 125.669 2.48361 122.563 1.84694 119.543C1.2007 116.605 0.74848 113.627 0.493216 110.63C0.184148 106.445 -0.214557 102.201 0.137781 98.0445C0.493209 93.6186 0.493216 89.097 2.03856 84.7824C2.96576 82.1707 3.31501 79.3459 4.12476 76.6786C4.75394 74.7591 5.51609 72.8857 6.40569 71.0721C7.52451 68.6676 8.68969 66.2785 9.96923 63.9636C12.442 59.5431 15.3404 55.3746 18.6231 51.5174C22.3308 47.1037 26.5118 43.1103 31.0909 39.609C35.0532 36.5678 39.2843 33.8727 43.4537 31.1313C45.7469 29.6261 48.1638 28.3002 50.5622 26.9774C51.8943 26.2449 53.316 25.6793 54.7037 25.0457C56.6787 24.1463 58.6289 23.1913 60.644 22.3754C62.5757 21.6058 64.5784 21.0062 66.5441 20.317C67.8237 19.8688 69.0877 19.3898 70.3673 18.9355C72.4813 18.2061 74.5799 17.4272 76.7248 16.806C79.7444 15.9344 82.8011 15.1865 85.8454 14.386C86.3368 14.2593 86.8313 14.1387 87.3258 14.0275C92.1875 12.9365 96.9873 11.6415 101.991 11.1686C106.893 10.7081 111.73 9.53979 116.635 9.10401C121.889 8.63731 127.189 8.64968 132.471 8.48587C133.482 8.45187 133.98 8.99892 133.952 10.0312C133.933 10.6988 133.952 11.3695 133.952 12.0402C133.952 13.3661 133.244 13.9904 131.94 14.0429C127.276 14.2253 122.606 14.3211 117.954 14.6456C115.068 14.8496 112.209 15.4183 109.335 15.8077C108.07 15.9808 106.794 16.0766 105.53 16.2713C102.668 16.7102 99.806 17.1614 96.9533 17.659C93.5968 18.2431 90.2249 18.7809 86.8993 19.5134C84.0806 20.1316 81.3083 20.9939 78.536 21.8222C74.5459 23.0152 70.5558 24.2051 66.6121 25.531C64.8968 26.112 63.3051 27.0578 61.6485 27.8212C60.4122 28.3929 59.1976 29.0173 57.9242 29.4932C52.5433 31.5053 47.6972 34.5496 42.9159 37.6186C36.7208 41.5675 31.0578 46.2946 26.0655 51.6843C21.8962 56.2183 18.0297 61.012 15.1647 66.4794C13.1743 70.2994 11.6197 74.3606 10.031 78.3754C9.02348 80.9159 8.24773 83.5554 7.48742 86.1855C7.15054 87.3538 7.08564 88.6024 6.9342 89.8171C6.48914 93.3528 5.82774 96.8824 5.69793 100.427C5.58357 103.679 6.007 106.955 6.31606 110.206C6.55096 112.738 6.86619 115.275 7.34215 117.769C7.80416 120.16 8.40687 122.521 9.14712 124.841C9.74362 126.714 10.6924 128.475 11.3817 130.32C13.5451 136.023 16.7811 141.079 20.6537 145.703C23.2084 148.796 25.9728 151.71 28.9275 154.425C32.4941 157.639 36.3853 160.501 40.1744 163.468C40.5361 163.755 41.1789 163.69 42.137 163.876Z" fill="#201F1F"/>
<path d="M143.264 50.8592C146.921 50.8592 150.586 50.7016 154.23 50.9086C157.423 51.091 160.588 51.6968 163.768 52.0893C164.584 52.1882 165.418 52.1264 166.24 52.2438C168.5 52.5714 170.765 52.8959 173.006 53.3255C176.35 53.9684 179.707 54.5958 183.004 55.4272C185.696 56.1041 188.314 57.0653 190.963 57.8997C192.99 58.5457 195.039 59.136 197.039 59.8809C199.039 60.6257 201.057 61.5066 203.078 62.3534C204.716 63.0457 206.379 63.6886 207.958 64.4983C210.049 65.5446 212.085 66.6958 214.059 67.9475C216.575 69.5825 219.051 71.3009 221.415 73.1492C225.742 76.5335 229.76 80.2763 232.461 85.1472C233.985 87.8948 235.286 90.7691 236.597 93.6249C236.971 94.4408 237.036 95.402 237.215 96.2983C238.043 100.381 237.877 104.603 236.733 108.609C235.516 113.007 233.325 117.074 230.323 120.511C228.181 122.925 225.829 125.147 223.628 127.517C223.461 127.726 223.337 127.967 223.266 128.226C223.194 128.484 223.175 128.754 223.211 129.019C223.251 129.264 223.981 129.486 224.426 129.554C227.949 130.101 231.93 132.416 232.461 135.871C232.604 136.833 232.418 138.177 231.822 138.848C230.643 140.174 229.249 141.292 227.699 142.155C225.427 143.41 222.444 141.864 221.867 139.336C221.805 138.939 221.876 138.533 222.067 138.18C223.112 136.18 222.822 135.003 220.68 134.453C219.025 134.016 217.298 133.92 215.605 134.172C214.059 134.425 212.644 135.34 211.197 136.026C208.28 137.423 205.393 138.885 202.473 140.279C201.057 140.956 199.598 141.549 198.146 142.161C196.273 142.952 194.437 143.839 192.502 144.47C190.144 145.242 187.718 145.814 185.31 146.435C182.266 147.22 179.224 148.036 176.155 148.71C174.221 149.137 172.239 149.384 170.283 149.619C165.981 150.129 161.648 150.435 157.367 151.087C150.175 152.184 142.946 152.042 135.732 151.816C130.688 151.655 125.638 151.149 120.631 150.49C116.765 149.98 112.954 149.022 109.128 148.212C105.852 147.52 102.563 146.853 99.3304 145.99C97.0371 145.372 94.8273 144.445 92.5772 143.682C91.4306 143.286 90.25 142.964 89.1281 142.507C86.0776 141.271 82.9992 140.069 80.0322 138.65C77.6616 137.513 75.4363 136.063 73.1369 134.771C72.7042 134.527 72.2251 134.218 71.7584 134.199C70.1646 134.112 68.5669 134.12 66.9741 134.224C64.8106 134.4 63.7968 135.98 64.3933 137.976C65.0486 140.164 62.474 143.286 60.2827 142.736C58.0266 142.167 55.9558 141.058 54.7195 138.925C53.4833 136.792 53.6996 134.926 55.6127 132.849C57.4424 130.855 59.7728 129.811 62.471 129.548C62.916 129.505 63.3363 129.211 63.7659 129.035C63.5558 128.546 63.4569 127.95 63.1138 127.588C60.8483 125.215 58.3912 123.011 56.2587 120.526C53.6903 117.531 52.0152 114.002 50.5069 110.327C48.6154 105.725 49.045 101.024 49.3665 96.3663C49.5272 94.036 50.7913 91.7581 51.6845 89.5081C53.2298 85.6139 55.7704 82.3439 58.5952 79.3089C60.4917 77.2623 62.5249 75.3468 64.6808 73.5757C67.1392 71.5736 69.7119 69.716 72.3858 68.0124C74.5493 66.6309 76.926 65.5399 79.2255 64.3809C80.5823 63.6886 81.9546 63.0179 83.3547 62.4245C85.6479 61.452 87.9577 60.5165 90.284 59.6182C92.738 58.6662 95.1796 57.6432 97.7016 56.8922C100.372 56.0948 103.126 55.5725 105.849 54.9451C109.106 54.194 112.361 53.4214 115.631 52.7383C116.975 52.4571 118.366 52.3891 119.732 52.2129C123.061 51.7833 126.386 51.3259 129.721 50.9272C130.695 50.84 131.673 50.81 132.651 50.8375C136.156 50.8499 139.71 50.8561 143.264 50.8592ZM142.065 146.034C148.803 145.508 154.428 144.955 160.081 144.655C167.721 144.25 175.12 142.467 182.565 140.946C184.565 140.493 186.536 139.922 188.469 139.237C190.558 138.545 192.619 137.763 194.672 136.965C197.623 135.819 200.689 134.87 203.471 133.393C207.459 131.302 211.315 128.969 215.018 126.408C221.693 121.735 227.012 115.961 229.562 107.898C231.309 102.378 230.752 97.0803 228.697 91.9498C226.991 87.6939 224.126 84.0871 220.785 80.882C216.439 76.6609 211.446 73.1614 205.996 70.5159C202.126 68.6615 198.319 66.5876 194.288 65.1628C189.075 63.3044 183.75 61.7716 178.347 60.5732C172.332 59.2627 166.222 58.1501 160.112 57.6216C145.456 56.3513 130.784 56.5089 116.246 59.0031C110.701 59.952 105.218 61.4108 99.8125 62.987C95.0158 64.3871 90.2314 65.9788 85.6881 68.0341C81.3334 70.0059 77.2073 72.5403 73.1492 75.0963C67.6151 78.514 62.9922 83.2227 59.677 88.8189C57.3621 92.7162 56.0825 96.9134 56.1258 101.373C56.1691 105.883 57.5289 110.101 59.884 114.045C63.3209 119.791 68.1238 124.124 73.5943 127.768C76.5839 129.737 79.6793 131.542 82.8663 133.173C85.5246 134.498 88.249 135.685 91.0288 136.731C93.1212 137.553 95.2816 138.208 97.4358 138.869C100.217 139.725 102.999 140.646 105.855 141.292C109.873 142.22 113.891 143.147 117.952 143.62C126.321 144.606 134.719 145.31 142.065 146.034Z" fill="#201F1F"/>
<path d="M158.464 10.7762C158.483 12.6306 156.094 14.9362 153.909 14.8899C152.391 14.8559 151.637 15.4617 151.22 16.7999C151.099 17.2992 150.868 17.765 150.543 18.1629C149.458 19.291 148.457 20.7375 146.593 20.3666C144.915 20.0359 143.051 17.7766 142.937 16.0396C142.875 15.0877 142.541 14.6457 141.549 14.3614C140.441 13.983 139.399 13.4357 138.458 12.7388C136.276 11.2583 136.332 8.57872 138.267 6.8294C139.46 5.75075 140.606 5.18207 142.223 5.25933C142.717 5.28097 143.329 4.58866 143.734 4.10033C144.139 3.612 144.272 3.02477 144.525 2.47772C144.848 1.77581 145.356 1.17491 145.994 0.739361C146.632 0.303814 147.376 0.0500247 148.148 0.00517903C149.721 -0.118448 151.764 1.99558 152.23 3.73872C152.336 4.13433 152.54 4.53303 152.54 4.91936C152.472 6.05364 153.053 6.22981 154.038 6.29162C155.979 6.42143 158.446 8.99906 158.464 10.7762Z" fill="#201F1F"/>
<path d="M124.203 178.918C126.481 178.504 126.546 176.971 126.657 175.191C126.901 171.235 127.47 167.297 127.785 163.344C127.832 162.742 127.337 161.997 126.895 161.49C126.499 161.033 125.835 160.804 125.288 160.476L125.316 160.028C125.857 159.886 126.398 159.629 126.941 159.623C129.618 159.592 132.341 159.314 134.977 159.716C137.802 160.142 140.751 160.832 142.231 163.839C142.982 165.384 142.327 167.829 140.921 168.784C139.462 169.773 139.453 170.376 140.828 171.383C144.172 173.828 143.752 177.021 140.395 179.237C137.304 181.27 133.868 181.181 130.363 180.473C128.975 180.189 127.516 180.278 126.101 180.111C125.483 180.037 124.895 179.74 124.293 179.546L124.203 178.918ZM131.188 174.693C131.16 175.036 131.086 175.648 131.055 176.263C130.962 178.096 131.652 178.9 133.45 178.702C134.585 178.581 135.694 178.121 136.785 177.728C138.074 177.268 138.501 176.257 138.476 174.928C138.489 174.335 138.322 173.752 137.997 173.255C137.672 172.758 137.204 172.372 136.655 172.147C135.91 171.804 135.147 171.502 134.368 171.244C131.701 170.317 131.241 170.666 131.191 173.507C131.185 173.791 131.188 174.1 131.188 174.693ZM134.226 168.694C137.626 168.855 139.156 167.304 138.426 164.454C138.065 163.051 135.228 161.484 133.364 161.641C132.211 161.737 131.599 162.26 131.593 163.496C131.593 164.618 131.494 165.746 131.373 166.862C131.253 167.977 131.59 168.66 132.845 168.626C133.302 168.602 133.766 168.657 134.226 168.682V168.694Z" fill="#201F1F"/>
<path d="M92.4569 154.548C93.2945 153.297 94.2619 153.652 95.2385 153.93C96.5984 154.329 97.983 154.641 99.3337 155.074C99.8096 155.228 100.208 155.633 100.644 155.924C100.307 156.254 100.026 156.755 99.6211 156.882C98.4775 157.25 98.1252 157.985 97.8687 159.116C97.2722 161.734 96.4222 164.293 95.6898 166.877C95.2292 168.49 94.7409 170.097 94.3793 171.732C94.2835 172.165 94.5957 172.694 94.7347 173.176C94.8924 173.732 95.0654 174.282 95.2323 174.835L94.8985 175.299L87.4284 172.972V172.462C87.8425 172.252 88.2505 172.026 88.6647 171.844C89.0324 171.683 89.6629 171.664 89.7557 171.42C90.516 169.436 91.1959 167.421 91.845 165.397C91.8944 165.239 91.5606 164.778 91.3566 164.744C88.9026 164.318 86.8041 162.488 84.1739 162.862C83.6299 162.936 82.9067 163.31 82.6811 163.755C82.1804 164.738 81.9579 165.857 81.6024 166.911C80.9225 168.926 81.0678 169.384 83.2096 171.207C82.4987 171.482 81.8991 171.958 81.4448 171.85C79.2412 171.312 77.0715 170.614 74.8926 169.974C74.8184 169.952 74.7751 169.822 74.6113 169.6C74.9204 169.387 75.1893 169.056 75.52 168.982C77.4208 168.561 77.8164 167.072 78.2089 165.48C78.7652 163.218 79.3586 160.958 80.0633 158.742C81.0214 155.791 82.3751 152.889 79.85 149.894L80.2673 149.727L88.8006 152.508C88.0805 153.108 87.7745 153.485 87.3789 153.658C86.7979 153.915 85.8614 153.834 85.5925 154.239C84.9744 155.166 84.6838 156.267 84.3006 157.33C84.2317 157.634 84.2088 157.946 84.2326 158.257C84.1183 160.665 84.1368 160.569 86.4548 161.076C87.8827 161.385 89.221 162.086 90.6272 162.516C92.2097 163.004 92.8123 162.621 93.1616 161.036C93.2852 160.485 93.177 159.84 93.4274 159.373C94.4813 157.475 95.0407 155.726 92.4569 154.548Z" fill="#201F1F"/>
<path d="M172.526 164.803C173.289 168.413 173.932 171.476 174.584 174.536C174.68 174.978 174.708 175.484 174.946 175.84C175.434 176.54 175.981 177.198 176.581 177.806C176.932 178.116 177.311 178.391 177.715 178.628L177.65 179.215L170.638 180.142C170.736 179.777 170.699 178.999 171.061 178.702C172.674 177.385 172.653 175.902 172.133 174.044C171.614 172.187 171.515 170.141 171.206 168.172C170.922 166.432 170.662 164.679 170.223 162.976C170.081 162.414 169.494 161.867 168.987 161.527C168.48 161.187 167.701 161.051 167.021 160.822C167.531 159.082 168.959 159.586 169.924 159.317C171.487 158.872 172.857 159.107 174.251 160.377C177.697 163.493 181.384 166.348 185.006 169.269C185.182 169.404 185.386 169.498 185.603 169.545C185.82 169.591 186.045 169.589 186.261 169.538C186.517 169.427 186.675 168.778 186.647 168.385C186.549 167.735 186.405 167.092 186.215 166.463C185.906 165.137 185.389 163.814 185.358 162.479C185.309 160.315 184.759 158.646 182.484 157.976C182.189 157.853 181.903 157.708 181.631 157.54C183.918 155.76 186.576 156.9 189.172 155.75C188.835 156.576 188.792 157.042 188.554 157.256C186.258 159.181 187.318 161.539 187.701 163.78C188.084 166.021 188.548 168.262 188.99 170.499C189.231 171.735 189.491 172.972 189.75 174.208C189.812 174.517 189.982 174.826 189.942 175.089C189.865 175.617 189.818 176.325 189.475 176.582C189.206 176.773 188.428 176.498 188.026 176.217C187.099 175.574 186.279 174.792 185.408 174.078C181.968 171.253 178.547 168.407 175.06 165.644C174.476 165.239 173.611 165.171 172.526 164.803Z" fill="#201F1F"/>
<path d="M196.072 47.7439C194.149 48.1858 192.202 48.838 190.199 49.0111C189.019 49.1161 187.77 48.4609 186.552 48.1518L179.824 46.4582C179.802 46.2634 179.777 46.0687 179.756 45.8709C180.09 45.5619 180.393 45.0612 180.76 45.0055C182.133 44.8077 182.232 43.7476 182.469 42.7617C183.227 39.6092 183.897 36.4351 184.763 33.3166C185.171 31.8454 184.179 31.0264 183.669 29.9663C183.463 29.6106 183.232 29.2707 182.976 28.9495C185.174 29.2987 187.343 29.3203 189.263 30.0281C191.55 30.8688 194.013 31.2644 196.062 32.8097C198.016 34.284 198.411 38.1411 196.004 39.1209C194.505 39.739 194.579 40.453 195.58 41.7263C196.483 42.873 197.716 44.0196 196.436 45.7442C196.133 46.1893 196.217 46.9279 196.072 47.7439ZM193.009 43.4169C192.901 43.1913 192.771 42.3476 192.313 42.091C190.885 41.3341 189.402 40.6833 187.878 40.1439C187.634 40.0512 186.973 40.4097 186.889 40.6786C186.426 42.1745 185.909 43.7013 185.829 45.2404C185.811 45.5804 187.473 46.01 188.363 46.3933C188.593 46.5064 188.833 46.5964 189.08 46.6621C191.049 47.067 192.947 45.7009 193.009 43.4138V43.4169ZM194.477 35.786C194.325 35.3564 194.229 35.069 194.118 34.7847C193.318 32.7046 191.114 33.1281 189.572 32.4017C189.47 32.3554 188.518 33.9811 188.051 34.8743C187.796 35.3728 187.653 35.9216 187.634 36.4814C187.624 36.936 187.775 37.3795 188.061 37.7332C189.04 38.7902 192.811 38.4935 193.655 37.3128C193.963 36.8221 194.238 36.3109 194.477 35.7829V35.786Z" fill="#201F1F"/>
<path d="M92.7188 30.3585C93.7139 30.0155 94.4712 29.5642 95.25 29.5179C97.5402 29.3881 99.7902 29.4344 102.05 28.6927C103.286 28.2909 104.831 28.8719 106.244 29.0512C108.343 29.3093 110.278 30.3195 111.689 31.8946C114.554 34.9544 114.916 38.7868 112.36 42.1309C110.444 44.6344 108.033 46.4579 104.633 46.4393C103.918 46.4283 103.212 46.603 102.584 46.9462C100.622 48.1145 98.486 47.5891 96.4245 47.7127C96.0567 47.7374 95.6642 47.3882 94.8791 47.0173C95.2214 46.7826 95.5763 46.5669 95.9423 46.3713C97.4568 45.7099 97.6886 45.0485 97.3486 43.4259C96.8386 40.9997 96.3101 38.555 96.0907 36.0917C95.828 33.0722 95.5158 32.2346 92.7188 30.3585ZM110.45 37.8287C110.2 36.9571 110.03 35.3933 109.31 34.1477C108.716 33.1247 107.576 32.0461 106.485 31.7679C104.63 31.2981 102.621 31.3846 100.677 31.3476C99.7068 31.329 99.1566 31.907 99.3235 32.9609C99.9015 36.6141 100.458 40.2673 101.076 43.9143C101.255 44.962 101.765 45.6265 103.023 45.0207C103.629 44.734 104.285 44.5692 104.955 44.5355C107.653 44.4273 110.493 41.043 110.45 37.8411V37.8287Z" fill="#201F1F"/>
<path d="M87.447 49.5858C86.0407 51.2888 83.3611 51.5978 81.7941 50.5995C79.6461 49.2304 77.4362 47.9539 75.1831 46.7702C74.667 46.4982 73.8634 46.7702 73.1897 46.7918C73.1946 47.4118 73.2358 48.031 73.3133 48.6462C73.4091 49.1933 73.7305 49.7063 73.7985 50.2565C73.9407 51.3938 74.5619 51.9749 75.6529 52.2252C76.3379 52.389 76.9737 52.7144 77.5073 53.1741C75.0348 53.8324 73.0753 55.9217 70.2968 55.3994C70.2257 55.1552 70.1422 55.0223 70.1762 54.9667C71.7216 52.6857 70.4637 50.5934 69.7343 48.4762C68.9585 46.2169 68.2291 43.9391 67.3514 41.72C67.1412 41.1884 66.4241 40.8453 65.9296 40.4405C65.5278 40.1159 65.0951 39.8223 64.6934 39.5133C65.055 39.2042 65.364 38.753 65.7875 38.5861C68.464 37.5352 71.1343 36.4226 73.8727 35.5665C76.3452 34.7814 79.4699 36.2557 80.6722 38.5304C81.4757 40.0418 81.1234 41.3553 79.4637 43.0366C77.8597 44.6623 78.0822 45.3577 80.2024 46.2324C82.6008 47.2338 84.9497 48.4237 87.447 49.5858ZM73.7243 37.7763C72.1574 37.8041 70.5749 39.0126 70.612 40.1716C70.6831 42.2702 72.0832 44.616 73.2422 44.5727C74.7875 44.514 76.951 42.3042 76.9294 40.7804C76.9232 38.9848 75.5973 37.7485 73.7243 37.7763Z" fill="#201F1F"/>
<path d="M64.7425 52.8526C65.3606 56.2524 61.4633 61.2438 58.0574 61.8651C57.4392 61.9794 56.9169 62.4832 56.3142 62.7335C53.8633 63.6917 51.7246 62.477 49.8825 61.2871C46.9402 59.3863 44.9591 56.5522 45.1074 52.8805C45.2156 50.0988 46.3066 47.6109 48.8688 46.081C50.3832 45.1816 51.9285 44.3347 53.4801 43.5064C53.8771 43.2793 54.327 43.161 54.7843 43.1634C59.2164 43.4601 65.3575 46.9865 64.7425 52.8526ZM61.3984 54.5711L61.7693 54.4165C61.1171 52.8403 60.4464 51.2733 59.8252 49.6878C59.204 48.1023 57.9276 47.1442 56.5306 46.1984C54.8276 45.0425 53.5512 45.4845 51.9131 46.3684C49.388 47.7376 48.1703 49.5394 48.8966 52.2654C49.3756 54.0642 49.9969 55.9217 51.0075 57.4516C51.919 58.798 53.1754 59.875 54.6453 60.5701C55.4457 60.9348 56.7933 60.1528 57.8781 59.8283C60.7277 58.9722 61.4324 56.5831 61.3984 54.5711Z" fill="#201F1F"/>
<path d="M133.423 38.923C133.279 39.2404 133.152 39.5654 133.043 39.8966C132.141 43.2963 131.748 43.5343 128.182 43.6054C125.215 43.6641 122.251 43.8743 119.29 44.0783C118.431 44.137 117.587 44.4183 116.555 44.6315C116.629 44.1123 116.592 43.8032 116.691 43.7507C119.472 42.2795 118.335 39.7328 118.261 37.6002C118.183 35.378 117.642 33.1775 117.479 30.9522C117.374 29.5954 117.59 28.2231 115.726 27.914C115.507 27.8769 115.343 27.4906 114.926 26.9868C115.724 26.7168 116.536 26.4909 117.358 26.31C120.205 25.8556 123.057 25.4044 125.919 25.0521C127.04 24.9398 128.169 24.9481 129.288 25.0768C130.271 25.1695 131 25.7227 131.143 26.789C131.285 27.8553 131.201 28.8505 130.027 29.3574C127.919 26.9528 124.946 26.3934 122.022 27.9604C121.781 28.1291 121.579 28.3469 121.428 28.5994C121.277 28.8519 121.182 29.1333 121.147 29.4254C121.106 30.2476 121.204 31.0708 121.435 31.8608C121.799 33.3042 122.455 33.6009 123.935 33.2362C125.548 32.8437 127.381 32.9271 128.284 31.0727C128.308 31.0233 129.307 31.252 129.335 31.4281C129.551 32.8344 129.801 34.2685 129.724 35.6778C129.668 36.6668 128.902 36.4381 128.265 35.9869C127.74 35.616 127.14 34.9731 126.639 35.0288C125.142 35.2084 123.668 35.5515 122.245 36.0518C121.503 36.3114 121.803 41.2009 122.554 41.5996C122.883 41.739 123.241 41.7993 123.598 41.7757C124.834 41.7757 126.071 41.717 127.307 41.7417C128.957 41.7726 130.28 41.3616 131.17 39.7699C131.51 39.1517 132.407 38.8581 133.025 38.4162L133.423 38.923Z" fill="#201F1F"/>
<path d="M235.295 64.6654C235.131 58.1749 241.968 53.4122 247.444 55.4242C249.067 56.0207 250.51 57.3034 251.821 58.5149C252.77 59.3865 253.391 60.6289 254.099 61.7447C256.38 65.3237 253.481 70.0153 251.132 72.1572C248.254 74.7781 244.969 74.5741 241.767 73.5882C239.532 72.902 237.795 71.2516 236.513 69.0263C235.626 67.481 235.181 66.0902 235.295 64.6654ZM251.796 63.12C251.762 58.7498 247.469 56.2525 243.618 58.314C241.433 59.4885 240.002 61.3645 238.84 63.4075C237.678 65.4504 237.749 67.6973 239.149 69.5363C240.549 71.3752 242.669 72.2344 245.154 71.607C248.242 70.8065 251.821 66.2787 251.796 63.0922V63.12Z" fill="#201F1F"/>
<path d="M201.696 174.412L195.515 176.06L195.262 175.75C197.71 172.567 197.4 168.815 197.648 165.171C197.702 164.824 197.781 164.481 197.883 164.145C198.223 162.566 198.621 160.999 198.887 159.407C199.153 157.815 199.218 156.258 199.487 154.7C199.57 154.208 199.975 153.464 200.337 153.402C200.631 153.384 200.925 153.431 201.2 153.537C201.475 153.644 201.723 153.809 201.928 154.02C205.523 157.967 209.037 162.003 212.634 165.928C213.648 167.032 214.959 167.857 216.124 168.824C216.39 169.044 216.606 169.325 217.051 169.795C216.44 170.091 215.812 170.353 215.172 170.58C213.815 170.966 212.443 171.322 211.064 171.618C210.638 171.711 210.162 171.578 209.708 171.547C209.8 171.121 209.874 170.688 209.998 170.268C210.078 169.986 210.403 169.597 210.307 169.47C209.525 168.351 208.839 167.06 207.782 166.29C207.241 165.897 205.98 166.383 205.081 166.599C203.709 166.942 202.389 167.526 201.007 167.789C199.851 168.015 199.44 168.617 199.462 169.687C199.492 170.047 199.467 170.41 199.388 170.762C198.952 172.131 199.264 173.071 200.76 173.454C201.043 173.568 201.311 173.718 201.557 173.899C201.598 174.075 201.641 174.236 201.696 174.412ZM202.194 165.493C202.843 165.221 203.922 164.776 204.994 164.321C206.002 163.895 205.989 163.295 205.303 162.547C204.302 161.45 203.341 160.316 202.327 159.231C202.034 158.984 201.711 158.777 201.366 158.613C201.142 158.983 200.964 159.378 200.834 159.79C200.605 160.986 200.581 162.235 200.238 163.394C199.762 164.989 200.049 165.52 202.179 165.493H202.194Z" fill="#201F1F"/>
<path d="M121.03 180.192C118.409 179.265 115.717 180.028 113.337 178.702C115.525 176.588 115.714 176.007 114.573 173.448C114.307 172.83 113.473 172.283 112.793 172.103C111.07 171.69 109.327 171.371 107.57 171.148C107.076 171.055 106.566 171.127 106.117 171.352C104.006 172.746 103.706 174.505 105.1 176.715C105.171 176.826 105.125 177.024 105.14 177.277L98.959 175.992C100.195 174.972 101.255 174.375 101.932 173.488C104.664 169.912 107.285 166.253 109.928 162.612C110.855 161.329 111.711 159.991 112.651 158.718C112.904 158.375 113.423 157.905 113.692 157.976C113.928 158.055 114.144 158.185 114.325 158.356C114.505 158.528 114.646 158.736 114.737 158.968C115.281 160.822 115.664 162.717 116.171 164.578C116.894 167.217 117.682 169.832 118.455 172.462C118.538 172.753 118.81 173.021 118.814 173.3C118.814 175.41 119.531 177.283 120.646 179.042C120.814 179.411 120.943 179.796 121.03 180.192ZM112.125 162.949C110.836 164.754 109.653 166.253 108.707 167.872C108.543 168.147 109.137 169.26 109.597 169.445C110.615 169.796 111.68 169.994 112.756 170.033C113.943 170.125 114.301 169.538 113.952 168.392C113.544 167.032 113.201 165.653 112.802 164.287C112.608 163.826 112.382 163.379 112.125 162.949Z" fill="#201F1F"/>
<path d="M165.031 181.515C163.567 181.515 162.392 181.45 161.23 181.515C160.068 181.58 158.955 181.824 157.432 182.037C158.575 180.541 159.165 179.435 158.504 177.756C157.407 174.975 156.782 175 153.757 175.256C153.174 175.354 152.58 175.371 151.992 175.305C150.62 175.034 148.626 175.615 148.132 176.517C147.285 178.062 147.446 179.781 148.524 181.036C148.685 181.224 148.852 181.672 148.771 181.756C148.544 181.976 148.246 182.108 147.931 182.13C146.775 182.167 145.613 182.158 144.457 182.13C144.141 182.134 143.833 182.025 143.591 181.821C143.468 181.682 143.533 181.243 143.663 181.023C144.825 179.033 146.12 177.114 147.177 175.071C147.906 173.652 148.286 172.057 148.895 170.571C149.587 168.886 150.363 167.233 151.105 165.567C151.559 164.55 151.921 163.474 152.511 162.541C152.82 162.043 153.531 161.53 154.075 161.515C154.477 161.515 155.039 162.21 155.311 162.717C156.062 164.207 156.656 165.774 157.388 167.273C158.696 169.956 159.994 172.648 161.425 175.265C162.312 176.885 163.458 178.356 164.45 179.923C164.679 180.309 164.769 180.795 165.031 181.515ZM153.259 173.241C153.927 173.241 154.65 173.395 155.246 173.185C155.639 173.046 156.198 172.24 156.09 171.983C155.417 170.432 154.66 168.919 153.825 167.449C153.429 166.732 152.848 166.683 152.44 167.477C151.915 168.411 151.468 169.387 151.105 170.394C150.202 173.235 150.24 173.247 153.259 173.241Z" fill="#201F1F"/>
<path d="M196.718 48.8563C198.183 47.8859 199.308 47.311 200.226 46.4982C203.486 43.6176 206.648 40.6259 209.915 37.7546C210.465 37.2694 211.352 37.1705 212.078 36.8923C212.282 37.597 212.619 38.2955 212.662 39.0125C212.87 42.4463 212.737 45.9233 213.244 49.3045C213.58 51.5483 212.848 54.1414 214.919 56.0422C214.387 57.0219 213.726 56.9447 212.863 56.5707C211.799 56.1253 210.706 55.7485 209.593 55.4426C208.521 55.1335 208.317 54.5834 209.053 53.7211C211.015 51.4185 210.069 48.7235 207.115 48.096C206.413 47.9791 205.749 47.6927 205.183 47.2616C204.46 46.6249 203.7 46.0253 202.899 46.7083C202.059 47.4586 201.358 48.351 200.828 49.3447C200.569 49.8052 200.782 50.5315 200.782 51.1465C197.796 50.9704 196.27 50.6366 196.718 48.8563ZM209.328 46.6032V41.4851L208.842 41.176C207.711 42.2547 206.537 43.2931 205.495 44.4521C205.356 44.6067 205.776 45.6359 206.138 45.7935C207.047 46.1829 208.07 46.3065 209.328 46.6032Z" fill="#201F1F"/>
<path d="M26.5013 73.4674C28.6648 72.9141 30.8282 73.7764 31.842 75.5443C29.5147 76.487 28.504 78.3074 28.2877 80.7274C28.1764 81.942 28.8131 82.3994 29.833 82.5818C30.2843 82.6683 30.8777 82.5385 31.1867 82.7827C32.9732 84.2075 34.5401 83.2586 36.5892 82.1831C35.6033 85.0265 34.7349 87.5021 33.8818 89.9778L33.3935 89.9623C33.2019 89.6532 32.9113 89.3442 32.8372 89.0104C32.4508 87.2332 31.5638 86.4235 29.8238 85.9382C27.138 85.1903 24.4831 84.3249 21.8313 83.4657C20.765 83.1195 19.7883 82.8785 18.8086 83.7284C18.5273 83.9726 17.9803 83.9108 17.5538 83.988C17.5352 83.5553 17.393 83.0825 17.5228 82.6992C18.4284 80.0227 19.4113 77.3709 20.323 74.6974C20.7279 73.5137 20.8021 72.16 21.4233 71.1246C22.7554 68.9117 24.2049 69.125 25.401 71.6284C25.2353 71.7048 25.0637 71.7678 24.8879 71.8169C23.3828 72.0982 22.06 72.4814 22.1527 74.4966C22.1774 75.0683 21.6767 75.7081 21.3182 76.2459C20.1777 77.955 20.4126 79.046 22.2454 79.8898C23.1157 80.3053 24.0245 80.6344 24.959 80.8726C25.8553 81.089 26.4395 80.7181 26.4518 79.6673C26.4518 79.2253 26.5167 78.6659 26.7856 78.3692C28.2444 76.7589 27.7437 75.3249 26.5353 73.8908C26.4549 73.8135 26.5106 73.6281 26.5013 73.4674Z" fill="#201F1F"/>
<path d="M177.301 45.6421L169.627 44.5201C169.915 43.9453 169.936 43.7351 170.051 43.6949C171.123 43.2653 172.013 42.7677 171.596 41.3367C171.114 39.6647 170.36 39.096 168.675 39.0187C167.405 38.9569 166.138 38.7962 164.877 38.6077C163.616 38.4191 162.389 38.7406 161.928 39.7574C161.542 40.6135 161.928 41.822 162.006 43.2931C161.434 43.936 158.723 43.9113 157.061 42.777C157.19 42.5297 157.255 42.1589 157.469 42.0321C160.08 40.4528 161.267 37.7732 162.744 35.3099C163.26 34.4507 163.848 33.6348 164.398 32.7972C165.449 31.1962 166.422 29.5365 167.584 28.019C168.026 27.4472 168.901 27.2092 169.578 26.8198C169.844 27.3823 170.162 27.9263 170.369 28.5073C171.083 30.5194 171.754 32.5469 172.452 34.5651C173.28 36.9603 174.099 39.3649 174.974 41.7447C175.2 42.3629 175.632 42.8852 175.969 43.4508C176.306 44.0164 176.689 44.6221 177.301 45.6421ZM167.081 36.9233C167.645 36.9537 168.211 36.9485 168.774 36.9078C169.575 36.8089 169.773 36.3453 169.476 35.585C169.127 34.6856 168.824 33.7677 168.549 32.8374C168.274 31.9071 167.696 31.5238 167.034 32.2842C166.184 33.2608 165.242 34.3549 164.92 35.5572C164.407 37.5012 166.027 36.9634 167.081 36.9233Z" fill="#201F1F"/>
<path d="M230.326 62.5265C228.314 63.3641 226.4 63.4352 224.453 62.134C223.217 61.3057 221.622 60.9688 220.435 60.0849C217.963 58.2305 216.201 55.7332 216.331 52.5745C216.473 49.0203 218.164 46.1861 221.492 44.4831C223.01 43.7043 224.543 42.7215 226.243 43.1881C228.208 43.7636 230.11 44.535 231.92 45.4907C233.37 46.2232 234.618 47.3451 236.031 48.158C237.057 48.7514 237.348 49.7589 236.621 50.9396C236.25 51.5577 235.935 52.1944 235.521 52.7693C235.229 53.0963 234.903 53.3906 234.547 53.647C234.279 53.205 233.855 52.7878 233.775 52.3149C233.67 51.6813 233.957 50.9828 233.852 50.3523C233.565 48.6679 231.429 46.6435 229.664 46.4179C228.178 46.2201 226.573 45.7998 225.186 46.1274C221.959 46.8753 220.275 49.9135 219.966 53.1061C219.718 55.6529 220.472 57.9894 222.556 59.306C224.262 60.3816 226.104 61.7168 228.468 61.3397C229.111 61.2377 229.837 61.6704 230.526 61.8558L230.326 62.5265Z" fill="#201F1F"/>
<path d="M263.98 83.9201C264.15 83.2865 264.196 82.5818 264.514 82.0379C265.309 80.6687 265.751 79.3706 264.626 77.9582C264.342 77.5949 264.145 77.1723 264.048 76.7219C263.788 75.5104 262.858 75.1766 261.958 75.5196C261.217 75.7916 260.225 76.555 260.141 77.2041C259.897 79.0405 259.903 80.9013 260.157 82.7364C260.623 85.8981 258.902 89.1681 255.851 89.78C254.887 89.9716 253.589 89.3164 252.662 88.7106C251.702 88.0853 250.882 87.2683 250.252 86.311C249.623 85.3536 249.199 84.2766 249.005 83.1474C248.901 82.557 248.665 81.998 248.313 81.5125C247.256 80.1649 247.265 80.0382 248.743 79.0925C249.67 78.5021 250.545 77.8345 251.833 76.929C251.725 77.9458 251.719 78.5176 251.598 79.0646C251.262 80.5822 250.671 82.075 250.563 83.6017C250.433 85.518 253.963 87.6567 255.545 86.6183C256.182 86.1979 256.673 85.0915 256.692 84.2879C256.722 81.9864 256.618 79.6852 256.383 77.3957C256.194 75.3496 259.328 72.4506 261.368 72.8802C263.878 73.4149 265.587 74.7037 266.047 77.4018C266.208 78.0507 266.587 78.6247 267.12 79.0275C268.375 79.9795 268.322 80.987 267.33 81.9606C266.462 82.8136 265.423 83.5059 264.459 84.2539L263.98 83.9201Z" fill="#201F1F"/>
<path d="M154.932 42.3565C153.789 43.1539 147.824 42.6161 147.1 41.8496C147.144 41.726 147.156 41.5066 147.249 41.4602C149.338 40.4372 149.35 38.6044 149.304 36.6325C149.239 33.9097 149.363 31.1775 149.391 28.4515C149.412 26.4549 148.559 25.7843 146.696 26.5971C145.558 27.0978 144.606 28.0188 143.444 28.8379C142.384 27.8705 142.826 26.4704 143.086 25.2589C143.317 24.1678 144.368 23.936 145.444 24.0226C148.587 24.31 151.73 24.5944 154.877 24.8262C156.002 24.9065 157.164 24.6871 158.276 24.8725C158.894 24.9745 159.8 25.5556 159.893 26.0501C160.087 27.0731 160.152 28.3835 159.658 29.2026C159.163 30.0216 158.422 29.2489 158.165 28.5164C157.856 27.5552 157.402 26.8845 156.28 26.7918C152.8 26.5137 153.019 27.0576 153.019 29.6043C153.019 31.9533 152.831 34.3084 152.627 36.6542C152.419 38.9166 152.512 41.012 154.932 42.3565Z" fill="#201F1F"/>
<path d="M32.3271 60.499C31.0599 62.2916 31.1218 63.0704 32.664 64.4581C35.2571 66.7885 37.8254 69.156 40.5483 71.3256C41.1046 71.7676 42.6623 71.7985 43.1259 71.3565C44.395 70.1132 45.4767 68.6921 46.3372 67.1378C46.7482 66.4176 46.5319 65.339 46.5937 64.4211C46.6431 63.7411 46.6864 63.0581 46.7328 62.3781L47.1655 62.3441C47.9227 63.2095 48.8622 63.9822 49.3753 64.9743C49.6627 65.5306 49.5206 66.6803 49.1064 67.1718C46.1672 70.6488 43.1105 74.0269 40.0662 77.4204C39.9147 77.5904 39.4233 77.7295 39.3244 77.6183C39.1173 77.4205 38.901 77.0001 38.9814 76.7714C39.5439 75.2261 38.8299 74.2989 37.6925 73.3717C35.2045 71.3071 32.8618 69.0663 30.3429 67.042C29.7248 66.5382 28.6708 66.464 27.8024 66.396C26.631 66.3033 26.529 65.6481 27.1224 65.0052C28.5812 63.4228 30.1822 61.9732 31.7399 60.4866C31.8079 60.4001 32.018 60.4773 32.3271 60.499Z" fill="#201F1F"/>
<path d="M111.89 111.121H103.502C103.502 110.726 103.462 110.565 103.502 110.534C105.601 109.134 105.867 107.165 105.721 104.782C105.53 101.617 105.833 98.4248 105.839 95.2414C105.777 94.6508 105.555 94.0885 105.196 93.6157C104.837 93.0748 104.312 92.6452 103.579 91.8694C104.488 91.5913 105.125 91.2513 105.743 91.2513C108.834 91.2204 111.924 91.1895 114.993 91.344C117.098 91.4491 118.634 92.639 119.456 94.5985C120.482 97.0432 119.527 99.6332 117.197 100.916C115.723 101.726 115.652 102.075 116.774 103.293C118.702 105.419 120.634 107.542 122.522 109.703C122.776 109.993 123.004 110.63 122.859 110.862C122.68 111.171 122.102 111.372 121.694 111.378C119.87 111.399 118.294 110.874 117.107 109.329C115.584 107.332 114.017 105.357 112.354 103.484C112.088 103.24 111.774 103.054 111.433 102.937C111.091 102.82 110.729 102.775 110.37 102.804C110.079 102.832 109.875 103.914 109.677 104.529C109.622 104.705 109.739 104.931 109.749 105.147C109.835 107.249 109.183 109.638 112.264 110.568L111.89 111.121ZM111.89 100.802C112.886 100.27 113.964 99.8434 114.864 99.1789C116.1 98.2671 116.285 95.4206 115.333 94.2678C114.635 93.4179 111.031 92.8399 110.283 93.5879C109.888 93.9835 109.727 94.7252 109.665 95.331C109.579 96.2891 109.748 97.272 109.665 98.2301C109.507 100.168 109.813 100.548 111.884 100.802H111.89Z" fill="#201F1F"/>
<path d="M183.425 97.3582C182.188 96.091 181.443 94.9907 180.408 94.3355C179.246 93.5968 177.827 92.818 176.529 92.8334C172.511 92.8798 170.212 94.5858 169.322 98.7922C168.796 101.283 169.013 103.815 170.502 106.071C172.357 108.852 174.95 110.045 178.133 109.443C179.465 109.189 180.529 107.607 180.473 106.241C180.445 105.521 180.454 104.801 180.448 104.077C180.448 102.785 180.139 101.648 178.977 100.863C178.69 100.674 178.544 100.226 178.433 99.8678C178.609 99.652 178.857 99.5079 179.132 99.4629C181.19 99.5556 183.248 99.6978 185.4 99.8307C185.4 99.9265 185.48 100.183 185.4 100.3C183.993 102.071 184.086 104.13 184.216 106.201C184.364 108.605 183.783 109.452 181.502 110.15C179.957 110.626 178.412 111.387 176.841 111.529C172.555 111.937 169.226 110.098 166.673 106.677C164.445 103.691 164.454 96.4093 168.911 92.9632C170.935 91.3993 173.296 91.0532 175.602 90.4598C176.316 90.2743 177.181 90.6607 177.976 90.8059C179.438 91.0686 180.887 91.4055 182.355 91.5971C183.261 91.7146 183.592 92.0855 183.554 92.9879C183.517 93.8904 183.715 94.728 183.737 95.5996C183.737 96.023 183.588 96.4495 183.425 97.3582Z" fill="#201F1F"/>
<path d="M82.7054 111.288C81.6392 111.341 80.5729 111.446 79.5097 111.421C79.1048 111.421 78.533 111.196 78.363 110.89C78.2271 110.645 78.4712 110.009 78.7401 109.746C80.5945 107.944 81.3857 105.546 82.4489 103.29C83.1938 101.695 84.0499 100.156 84.8287 98.5763C85.5643 97.0866 86.2443 95.566 86.9922 94.0794C87.3625 93.2406 87.8315 92.449 88.3892 91.7212C89.1464 90.8311 90.0458 91.103 90.5156 92.1941C91.8909 95.328 93.2787 98.4589 94.7096 101.568C95.813 103.973 96.9813 106.349 98.1527 108.72C98.3752 109.168 98.8017 109.514 99.049 109.956C99.2004 110.225 99.3364 110.67 99.2128 110.883C99.1016 111.01 98.9654 111.112 98.8127 111.184C98.66 111.255 98.4942 111.294 98.3257 111.298C96.5455 111.335 94.7622 111.328 92.982 111.298C92.71 111.298 92.2742 111.162 92.2124 110.988C92.1654 110.832 92.156 110.666 92.185 110.505C92.214 110.344 92.2805 110.192 92.3793 110.061C93.8473 108.76 93.3652 107.311 92.5585 106.019C91.7519 104.727 90.4816 104.34 88.9393 104.937C88.4108 105.141 87.7031 105.033 87.1189 104.9C84.9091 104.39 82.5787 106.445 82.9372 108.701C82.9929 109.066 83.3205 109.391 83.5245 109.731L84.2291 110.88L82.826 111.622C82.7734 111.511 82.7364 111.4 82.7054 111.288ZM88.0307 102.869C90.6454 102.681 90.8617 102.384 89.9253 100.047C89.5854 99.1907 89.1996 98.3529 88.7694 97.5378C88.6241 97.2659 88.2718 96.9352 88.0152 96.9352C87.7587 96.9352 87.5424 97.3555 87.3786 97.6306C86.9938 98.1669 86.682 98.7521 86.4513 99.3706C86.2041 100.267 85.9228 101.256 86.0897 102.118C86.167 102.48 87.3415 102.625 88.0276 102.869H88.0307Z" fill="#201F1F"/>
<path d="M163.65 110.865H155.991C157.5 109.53 157.738 108.247 156.878 106.643C155.794 104.622 155.293 104.288 153.028 104.671C152.143 104.799 151.246 104.806 150.36 104.693C149.226 104.569 148.308 104.643 147.959 105.963C147.843 106.299 147.669 106.613 147.446 106.89C146.605 108.052 146.67 109.054 147.875 109.947C148.154 110.219 148.404 110.518 148.623 110.84C147.937 111.007 147.44 111.22 146.936 111.236C145.864 111.26 144.792 111.227 143.725 111.137C143.299 111.052 142.884 110.918 142.488 110.738C142.616 110.377 142.761 110.022 142.924 109.675C144.418 106.836 145.916 103.999 147.418 101.166C148.268 99.5621 149.173 97.989 149.98 96.3664C150.617 95.0899 151.08 93.7269 151.736 92.4597C152.008 91.9312 152.567 91.2049 153.009 91.1957C153.451 91.1864 154.137 91.8447 154.381 92.367C155.88 95.5628 157.163 98.8575 158.748 102.013C160.093 104.708 161.715 107.267 163.208 109.879C163.332 110.135 163.434 110.407 163.65 110.865ZM152.128 102.576C152.511 102.606 152.972 102.668 153.432 102.671C154.394 102.671 154.786 102.127 154.486 101.271C154.096 100.162 153.621 99.084 153.065 98.0477C152.948 97.8687 152.791 97.7196 152.606 97.6122C152.422 97.5049 152.215 97.4423 152.001 97.4296C151.692 97.4543 151.365 97.9333 151.158 98.2826C150.709 99.0039 150.324 99.763 150.008 100.551C149.822 101.039 149.699 101.685 149.881 102.127C150.002 102.436 150.679 102.548 151.117 102.656C151.456 102.678 151.797 102.651 152.128 102.576Z" fill="#201F1F"/>
<path d="M69.2671 91.3256C70.2963 91.3256 71.341 91.4399 72.3578 91.3008C74.6387 90.9918 76.2181 92.2589 77.6398 93.6559C79.3366 95.3187 78.3166 99.7384 76.1532 100.968C74.4224 101.951 72.6761 102.687 70.6178 102.455C69.5793 102.338 69.1188 102.987 69.1311 103.976C69.1466 105.156 69.162 106.343 69.2362 107.524C69.3104 108.652 69.5886 109.669 70.9392 109.95C71.1741 109.999 71.5573 110.383 71.511 110.516C71.4131 110.847 71.1919 111.128 70.8928 111.301C70.5511 111.411 70.1893 111.446 69.8327 111.403C68.1576 111.403 66.4793 111.421 64.8011 111.424C64.547 111.461 64.2881 111.444 64.0408 111.375C63.7317 111.23 63.3516 110.998 63.2836 110.732C63.2721 110.566 63.3033 110.399 63.3741 110.248C63.445 110.097 63.5532 109.967 63.6884 109.87C65.4316 108.992 65.5428 107.468 65.5058 105.793C65.4563 102.393 65.4594 98.9935 65.5336 95.5938C65.5583 94.5244 65.4532 93.7054 64.4024 93.1398C64.0532 92.9482 63.9295 92.3362 63.7039 91.919C64.115 91.7057 64.5168 91.3348 64.9402 91.3008C66.3773 91.2236 67.8207 91.2699 69.2671 91.2699V91.3256ZM69.1991 96.8888H69.1497C69.1497 97.5564 69.1775 98.227 69.1497 98.8915C69.0941 100.063 69.5947 100.477 70.7908 100.548C72.6205 100.653 73.4983 99.3891 74.3482 98.2394C75.1981 97.0897 75.0127 95.7174 74.0639 94.5306C73.3097 93.6034 71.2606 92.9142 70.1356 93.3283C68.717 93.8475 69.2424 95.0869 69.2084 96.1099C69.193 96.3819 69.1991 96.6384 69.1991 96.895V96.8888Z" fill="#201F1F"/>
<path d="M213.568 104.912C214.878 106.17 216.195 107.425 217.502 108.686C217.783 108.983 218.122 109.219 218.498 109.38C218.875 109.54 219.28 109.622 219.689 109.619C220.098 109.617 220.502 109.53 220.876 109.365C221.25 109.199 221.586 108.959 221.863 108.658C223.446 107.051 223.56 105.926 221.885 104.488C220.34 103.169 218.569 102.127 216.875 100.99C215.258 99.9019 213.92 98.6749 213.691 96.5516C213.416 93.9956 214.786 91.9156 217.267 91.1985C218.667 90.7967 219.962 89.9623 221.415 91.2263C221.78 91.5354 222.704 91.2789 223.359 91.1831C224.336 91.0378 225.025 91.3747 225.214 92.3359C225.513 93.7292 225.608 95.1588 225.495 96.5794C224.734 96.0169 223.949 95.4977 223.223 94.8826C222.583 94.3356 222.095 93.5969 221.421 93.1024C219.953 92.0299 218.51 92.3699 217.428 93.9245C216.683 95.0001 217.162 96.496 218.621 97.4355C220.299 98.5173 222.076 99.4568 223.69 100.625C225.235 101.738 226.521 103.064 226.722 105.193C227.052 108.716 223.668 111.158 221.159 111.535C219.901 111.724 218.547 111.3 217.236 111.143C216.986 111.115 216.739 111.004 216.489 110.988C214.177 110.865 214.189 110.865 213.735 108.516C213.515 107.397 213.243 106.29 212.996 105.181L213.568 104.912Z" fill="#201F1F"/>
<path d="M194.826 110.923C194.408 111.053 193.991 111.291 193.589 111.294C192.353 111.294 191.145 111.239 189.927 111.146C189.618 111.121 189.151 110.97 189.03 110.738C188.91 110.506 189.2 110.12 189.358 109.836C190.996 106.797 192.653 103.768 194.303 100.727C195.162 99.1232 196.006 97.5099 196.822 95.8842C197.415 94.6943 197.879 93.4333 198.556 92.2959C198.846 91.8137 199.526 91.3038 200.036 91.2976C200.398 91.2976 200.886 92.0548 201.121 92.5679C202.391 95.3093 203.594 98.0816 204.83 100.845C205.519 102.39 206.147 103.963 206.929 105.459C207.711 106.955 208.65 108.346 209.503 109.786C209.676 110.116 209.83 110.455 209.964 110.803C209.549 110.97 209.138 111.266 208.727 111.285C207.108 111.353 205.479 111.368 203.86 111.319C203.431 111.253 203.035 111.054 202.725 110.75C202.645 110.682 202.852 110.07 203.075 109.897C204.74 108.621 203.581 107.267 203.161 106C202.741 104.733 201.579 104.569 200.379 104.625C199.185 104.727 197.984 104.72 196.791 104.606C194.869 104.334 194.516 105.997 193.83 107.02C193.274 107.854 193.166 109.109 194.26 109.937C194.504 110.123 194.77 110.284 195.026 110.457C194.921 110.614 194.875 110.769 194.826 110.923ZM198.791 103.456L198.884 103.218C199.344 103.218 199.882 103.37 200.243 103.181C200.729 102.931 201.48 102.273 201.415 102.041C200.801 100.33 200.091 98.6553 199.288 97.0246C199.168 96.7681 198.469 96.5239 198.238 96.6476C197.929 96.8114 197.786 97.3306 197.619 97.72C197.422 98.2238 197.437 98.9347 197.085 99.2314C195.926 100.22 195.913 101.5 196.467 102.56C196.785 103.113 197.987 103.175 198.791 103.456Z" fill="#201F1F"/>
<path d="M128.327 110.747C128.636 110.413 128.806 110.021 129.081 109.941C130.697 109.468 130.997 108.191 131.013 106.794C131.053 102.885 131.034 98.9718 131.056 95.0497C131.056 93.8135 130.496 93.2602 129.263 93.2942C127.579 93.3375 126.173 93.8166 125.187 95.331C124.973 95.6586 124.389 95.7482 123.975 95.9491C123.817 95.5123 123.713 95.0577 123.666 94.5954C123.733 94.0341 123.837 93.4776 123.975 92.9295C124.173 91.6933 124.942 91.2142 126.139 91.2173C130.666 91.2328 135.197 91.1895 139.738 91.2668C140.461 91.2668 141.694 91.6747 141.796 92.1012C142.08 93.2238 142.033 94.4047 141.66 95.501C141.271 96.4807 140.504 95.9213 140.115 95.1765C139.308 93.662 137.216 92.8306 135.655 93.5662C135.241 93.7609 134.845 94.4934 134.836 94.9787C134.783 98.8389 134.836 102.705 134.836 106.559C134.836 108.009 135.225 109.18 136.631 109.866C136.77 109.96 136.882 110.087 136.959 110.236C137.036 110.384 137.074 110.549 137.07 110.716C137.015 110.991 136.619 111.406 136.369 111.406C133.924 111.406 131.476 111.328 129.031 111.242C128.831 111.226 128.636 110.967 128.327 110.747Z" fill="#201F1F"/>
<path d="M139.575 67.2245C140.14 67.2245 140.706 67.2245 141.269 67.2245C143.364 67.1843 145.858 68.569 146.374 70.4265C146.962 72.5281 147.101 74.6607 145.268 76.444C143.985 77.6803 142.712 78.5395 140.786 78.2552C139.699 78.0944 138.546 78.4066 137.421 78.4684C135.582 78.5673 135.171 77.9523 135.613 76.206C135.829 75.3561 135.733 74.4196 135.715 73.5233C135.678 71.7616 136.259 69.969 135.406 68.2259C135.331 68.0745 136.073 67.2554 136.506 67.1843C137.504 67.0236 138.549 67.1318 139.575 67.1318V67.2245ZM138.475 72.593L138.645 72.6208C138.645 73.4924 138.592 74.3671 138.66 75.2325C138.756 76.4966 139.414 77.0467 140.731 76.75C142.894 76.2617 144.087 74.6761 144.025 72.457C143.964 70.2379 142.366 69.3818 140.728 68.4577C139.85 67.9663 139.284 68.1795 139.068 69.0048C138.771 70.173 138.672 71.3938 138.484 72.593H138.475Z" fill="#201F1F"/>
<path d="M154.155 78.1777C153.249 78.2272 151.917 78.3539 150.582 78.3632C149.037 78.3632 148.786 77.8594 148.867 76.3697C148.998 73.9217 149.004 71.4687 148.885 69.0201C148.827 67.7838 148.916 67.042 150.412 67.11C152.362 67.1996 154.319 67.144 156.284 67.2058C156.779 67.2244 157.431 67.3078 157.706 67.6231C157.981 67.9383 157.892 68.5997 157.96 69.1066C157.573 69.1794 157.179 69.2084 156.785 69.1931C155.744 69.0417 154.705 68.6584 153.694 68.6986C153.178 68.7203 152.338 69.4218 152.273 69.8978C152.18 70.5994 152.436 71.6039 152.931 72.0613C153.586 72.664 154.393 72.2962 155.051 71.5637C155.36 71.2114 156.087 71.2237 156.624 71.0723C156.686 71.848 156.862 72.6485 156.726 73.3903C156.689 73.5943 155.608 73.8848 155.206 73.6993C154.155 73.211 153.206 72.7289 152.369 73.9311C151.475 75.2076 152.14 76.6479 153.701 76.6448C154.748 76.6448 155.796 76.2801 156.847 76.1193C157.332 76.0452 157.901 75.9154 158.293 76.1008C158.5 76.1997 158.602 77.028 158.417 77.3371C158.182 77.7636 157.672 78.2426 157.227 78.3045C156.349 78.4126 155.459 78.2643 154.155 78.1777Z" fill="#201F1F"/>
</svg>
