<svg width="930" height="152" viewBox="0 0 930 152" fill="none" xmlns="http://www.w3.org/2000/svg">
<g clip-path="url(#clip0_458_2049)">
<path d="M85.5044 92.5266C84.368 93.7715 82.8796 94.6411 81.2371 95.0201C79.4585 95.3423 77.6533 95.4951 75.8458 95.4767C74.6493 95.5558 73.45 95.37 72.3336 94.9323C72.0072 94.7812 71.7202 94.5568 71.4948 94.2766C71.2693 93.9964 71.1117 93.6679 71.0341 93.3168C70.8369 92.157 70.7545 90.9807 70.7882 89.8048V69.0487C70.7499 68.2016 70.8751 67.355 71.157 66.5552C71.304 66.2432 71.5141 65.965 71.774 65.7383C72.034 65.5117 72.3381 65.3414 72.6673 65.2382C73.7999 64.8708 74.9906 64.7161 76.1795 64.7816V62.3232H57.8633V64.7816C59.0534 64.7184 60.2448 64.8793 61.3755 65.2558C61.7057 65.363 62.0094 65.5389 62.2667 65.772C62.5239 66.005 62.729 66.2899 62.8682 66.6079C63.1092 67.3981 63.2161 68.2232 63.1843 69.0487V91.7715C63.3089 92.9561 62.9619 94.1421 62.2184 95.0728C60.9491 95.8907 59.4311 96.2329 57.9335 96.0386V98.497H90.0879L90.3162 86.4157H87.8752C87.7634 88.6547 86.9319 90.7979 85.5044 92.5266Z" fill="#774F4D"/>
<path d="M124.633 93.8429C124.246 93.1404 123.667 91.7883 122.877 89.804L111.848 61.6201H109.319L98.8882 89.0138C98.3328 90.5371 97.6514 92.0114 96.8511 93.4214C96.3888 94.2924 95.7042 95.0255 94.8667 95.5462C94.0764 95.9383 93.2022 96.1313 92.3203 96.1081V98.5665H104.824V96.0379C103.841 96.0566 102.863 95.9143 101.926 95.6164C101.518 95.4685 101.173 95.1863 100.946 94.8162C100.72 94.4461 100.626 94.01 100.679 93.5794C100.768 92.6106 101.012 91.6621 101.399 90.7698L102.277 88.4168H114.008L115.764 92.6839C115.984 93.2003 116.098 93.7557 116.098 94.317C116.13 94.639 116.047 94.9621 115.864 95.2289C115.681 95.4956 115.409 95.6889 115.097 95.7745C114.031 96.0086 112.938 96.0972 111.848 96.0379V98.4963H128.9V96.0379C127.94 96.0914 126.983 95.8916 126.125 95.4584C125.48 95.0783 124.961 94.5164 124.633 93.8429ZM103.314 85.7652L108.055 73.2098L113.06 85.8179L103.314 85.7652Z" fill="#774F4D"/>
<path d="M180.457 88.3827C179.178 90.4371 177.471 92.1919 175.452 93.5278C173.426 94.8954 171.031 95.6121 168.586 95.5823C167.314 95.5633 166.055 95.3257 164.863 94.8799C163.366 94.2992 162.017 93.3936 160.912 92.2284C159.4 90.5689 158.272 88.5962 157.61 86.4511C156.653 83.3481 156.208 80.1096 156.293 76.8633C156.196 73.4979 156.732 70.1443 157.874 66.977C158.731 64.6147 160.271 62.5608 162.299 61.0768C164.166 59.7874 166.388 59.1122 168.656 59.1452C170.782 59.1509 172.869 59.7076 174.715 60.7607C176.726 61.92 178.439 63.5311 179.72 65.4668C181.155 67.5875 182.147 69.9768 182.635 72.4908H185.603L185.111 57.038H182.319C182.01 58.3688 181.563 59.6637 180.984 60.9012C179.293 59.2032 177.273 57.8692 175.047 56.9813C172.821 56.0934 170.437 55.6705 168.042 55.7385C165.026 55.7194 162.038 56.3169 159.261 57.4945C156.621 58.5795 154.23 60.1929 152.237 62.2357C150.3 64.2591 148.784 66.6465 147.776 69.2598C146.732 71.9345 146.202 74.7822 146.213 77.6535C146.156 81.5557 147.151 85.4013 149.093 88.7866C150.929 92.0042 153.598 94.6673 156.82 96.4955C160.027 98.3303 163.663 99.2817 167.357 99.2524C170.203 99.3948 173.036 98.7894 175.575 97.4964C177.561 96.3509 179.376 94.9322 180.967 93.282C181.977 94.7239 182.704 96.3448 183.109 98.0583H186.024V82.2542H183.039C182.543 84.4322 181.67 86.5065 180.457 88.3827Z" fill="#774F4D"/>
<path d="M228.155 93.0875C227.716 92.2622 227.031 90.6993 226.1 88.3814L213.316 55.6494H210.366L198.248 87.3805C197.61 89.1616 196.817 90.8832 195.878 92.5256C195.337 93.5366 194.537 94.3853 193.56 94.984C192.653 95.4462 191.644 95.6698 190.627 95.6337V98.496H205.097V95.6337C203.954 95.6573 202.815 95.4912 201.726 95.142C201.254 94.9709 200.856 94.6449 200.594 94.2174C200.332 93.7899 200.224 93.2863 200.286 92.789C200.402 91.6434 200.698 90.5234 201.164 89.4701L202.182 86.7483H215.81L217.794 91.7002C218.044 92.3014 218.176 92.9455 218.18 93.5967C218.24 93.9812 218.155 94.3742 217.941 94.699C217.726 95.0237 217.398 95.2569 217.021 95.3527C215.826 95.6401 214.597 95.7583 213.369 95.7039V98.496H233.177V95.6337C232.06 95.6987 230.946 95.4685 229.946 94.9664C229.186 94.5189 228.566 93.8682 228.155 93.0875ZM203.394 83.7455L208.908 69.0829L214.703 83.7455H203.394Z" fill="#774F4D"/>
<path d="M261.116 76.4595C258.764 75.0681 256.343 73.7963 253.863 72.649C251.299 71.4549 249.438 70.5242 248.296 69.8921C247.226 69.3192 246.283 68.5369 245.521 67.5917C244.819 66.6826 244.448 65.5617 244.468 64.4133C244.455 63.687 244.606 62.9672 244.91 62.3074C245.214 61.6476 245.663 61.065 246.224 60.6028C247.458 59.6206 249.002 59.1101 250.579 59.1629C255.707 59.1629 259.36 62.3412 261.361 68.7331H264.277V57.003H261.361C261.148 58.2522 260.807 59.4762 260.343 60.6555C259.058 59.1829 257.487 57.9878 255.724 57.1435C253.985 56.2749 252.067 55.824 250.122 55.8265C247.745 55.7824 245.401 56.3896 243.344 57.5825C241.491 58.6608 239.957 60.2122 238.901 62.0779C237.919 63.7703 237.393 65.6881 237.373 67.6444C237.381 68.705 237.546 69.7585 237.865 70.7701C238.261 71.9503 238.855 73.0546 239.621 74.0363C240.668 75.3846 241.911 76.5684 243.309 77.5483C245.27 78.9694 247.37 80.1873 249.578 81.1832C251.229 81.9207 252.704 82.6231 253.986 83.308C255.06 83.8382 256.083 84.4672 257.041 85.1869C257.764 85.7203 258.363 86.4031 258.798 87.1888C259.189 87.973 259.382 88.8412 259.36 89.7174C259.38 90.5419 259.219 91.3607 258.888 92.1162C258.557 92.8717 258.065 93.5454 257.445 94.0899C256.048 95.3035 254.237 95.9323 252.388 95.8459C250.179 95.9175 248.014 95.2226 246.259 93.8791C244.646 92.6194 243.333 91.0182 242.413 89.1906C241.486 87.3324 240.767 85.3772 240.271 83.3607H237.408V97.795H240.271C240.495 96.3272 240.92 94.8972 241.535 93.5455C243.006 95.3904 244.905 96.849 247.067 97.795C249.153 98.74 251.415 99.2365 253.705 99.2525C255.76 99.2945 257.797 98.8619 259.658 97.9882C261.294 97.2183 262.748 96.1112 263.925 94.7396C264.997 93.5012 265.846 92.0874 266.437 90.5603C266.97 89.2425 267.256 87.8376 267.28 86.4161C267.356 84.3047 266.739 82.2263 265.523 80.4984C264.329 78.8801 262.832 77.5086 261.116 76.4595Z" fill="#774F4D"/>
<path d="M308.196 93.0875C307.757 92.2622 307.072 90.6993 306.141 88.3814L293.357 55.6494H290.407L278.289 87.3805C277.651 89.1616 276.858 90.8832 275.919 92.5256C275.379 93.5315 274.586 94.379 273.618 94.984C272.705 95.444 271.69 95.6674 270.668 95.6337V98.496H285.138V95.6337C284.001 95.659 282.867 95.4928 281.784 95.142C281.308 94.9768 280.903 94.6527 280.638 94.2242C280.372 93.7957 280.262 93.2889 280.327 92.789C280.443 91.6434 280.739 90.5234 281.205 89.4701L282.223 86.7483H295.868L297.835 91.7002C298.086 92.3014 298.217 92.9455 298.221 93.5967C298.281 93.9812 298.196 94.3742 297.982 94.699C297.767 95.0237 297.439 95.2569 297.062 95.3527C295.867 95.6401 294.638 95.7583 293.41 95.7039V98.496H313.218V95.6337C312.101 95.6987 310.987 95.4685 309.987 94.9664C309.227 94.5189 308.607 93.8682 308.196 93.0875ZM283.435 83.7455L288.949 69.0829L294.744 83.7455H283.435Z" fill="#774F4D"/>
<path d="M366.323 70.5238C365.41 69.0559 364.279 67.7354 362.969 66.6079C361.668 65.4801 360.19 64.5726 358.596 63.9212C356.767 63.1834 354.857 62.6647 352.906 62.3759C350.399 62.0313 347.869 61.8729 345.338 61.9018H342.036H338.787L331.008 62.0598V64.5709C332.542 64.3734 334.098 64.7081 335.416 65.5192C336.157 66.4579 336.503 67.6483 336.381 68.838V91.6661C336.418 92.5189 336.293 93.371 336.013 94.1772C335.868 94.4936 335.656 94.775 335.392 95.0022C335.129 95.2295 334.819 95.3973 334.485 95.4942C333.348 95.8419 332.16 95.9905 330.973 95.9332V98.3916H347.498C351.742 98.5103 355.964 97.7448 359.896 96.1439C361.585 95.3743 363.115 94.2964 364.409 92.9656C365.91 91.454 367.103 89.6648 367.921 87.6975C368.826 85.4674 369.28 83.08 369.256 80.6735C369.266 78.8437 369.012 77.022 368.501 75.265C368.004 73.5891 367.271 71.9927 366.323 70.5238ZM357.876 90.9988C356.085 94.0192 353.029 95.5293 348.709 95.5293C347.608 95.5878 346.508 95.4143 345.478 95.0201C345.166 94.8803 344.89 94.6694 344.673 94.4041C344.457 94.1388 344.306 93.8266 344.231 93.4924C344.062 92.4359 343.991 91.366 344.021 90.2964V64.887C346.251 64.887 347.972 64.887 349.183 65.0626C350.347 65.165 351.489 65.4371 352.573 65.8704C355.074 66.8888 357.137 68.7534 358.403 71.1384C359.932 74.0398 360.677 77.2904 360.563 80.5682C360.636 84.225 359.706 87.832 357.876 90.9988Z" fill="#774F4D"/>
<path d="M400.834 92.6671C400.006 93.7727 398.87 94.6095 397.568 95.0728C396.422 95.3789 395.242 95.5324 394.056 95.5293H391.158C390.148 95.5668 389.138 95.4664 388.155 95.2308C387.552 95.1009 387.012 94.7658 386.627 94.2826C386.303 93.7955 386.109 93.2331 386.066 92.6495C386.066 91.9998 385.96 90.8935 385.96 89.5238V81.0247H389.683C390.636 80.9857 391.59 81.0923 392.51 81.3408C392.809 81.4456 393.083 81.6124 393.313 81.8303C393.543 82.0482 393.724 82.3122 393.845 82.6051C394.194 83.55 394.379 84.5479 394.389 85.5552H396.83V73.5266H394.284C394.248 74.5226 394.077 75.5091 393.775 76.4591C393.665 76.7558 393.49 77.0237 393.262 77.2427C393.034 77.4617 392.759 77.6261 392.458 77.7234C391.54 77.9877 390.585 78.1004 389.63 78.0571H385.96V65.2909H392.721C394.08 65.2489 395.44 65.349 396.778 65.5894C397.75 65.8483 398.604 66.4304 399.201 67.2401C400.125 68.5915 400.77 70.1139 401.098 71.7179H403.556L403.082 62.3232H373.07V64.7816C374.262 64.7176 375.454 64.8846 376.583 65.2733C376.904 65.3859 377.197 65.5644 377.445 65.7972C377.693 66.0301 377.89 66.3122 378.023 66.6255C378.246 67.413 378.347 68.2304 378.321 69.0487V91.7715C378.446 92.9561 378.099 94.1421 377.355 95.0728C376.087 95.8936 374.568 96.236 373.07 96.0386V98.497H405.295L405.593 86.5913H403.082C402.878 88.7785 402.103 90.8737 400.834 92.6671Z" fill="#774F4D"/>
<path d="M436.464 92.5266C435.327 93.7715 433.839 94.6411 432.196 95.0201C430.423 95.3416 428.624 95.4944 426.822 95.4767C425.626 95.5576 424.426 95.3717 423.31 94.9323C422.98 94.7845 422.689 94.5615 422.46 94.2809C422.231 94.0004 422.071 93.6702 421.993 93.3168C421.804 92.1562 421.728 90.98 421.765 89.8048V69.0487C421.722 68.2028 421.841 67.3565 422.116 66.5552C422.267 66.2426 422.48 65.9644 422.743 65.7378C423.006 65.5112 423.312 65.3412 423.644 65.2382C424.748 64.8792 425.909 64.7245 427.068 64.7816V62.3232H408.893V64.7816C410.083 64.7213 411.273 64.8821 412.405 65.2558C412.733 65.3631 413.034 65.5393 413.288 65.7725C413.543 66.0057 413.745 66.2905 413.88 66.6079C414.121 67.3981 414.228 68.2232 414.196 69.0487V91.7715C414.318 92.9531 413.978 94.136 413.248 95.0728C411.972 95.8905 410.448 96.2325 408.945 96.0386V98.497H441.117L441.363 86.4157H438.904C438.782 88.6649 437.924 90.8117 436.464 92.5266Z" fill="#774F4D"/>
<path d="M488.707 59.3203C490.045 59.2437 491.385 59.447 492.64 59.9174C493.007 60.0546 493.341 60.268 493.619 60.5434C493.898 60.8188 494.115 61.15 494.256 61.5153C494.512 62.417 494.624 63.3532 494.59 64.2898V74.6327H475.097V64.2898C474.955 62.924 475.352 61.5567 476.203 60.4793C476.941 59.7066 478.592 59.3203 481.155 59.3203V56.4756H460.328V59.3203C461.655 59.2444 462.983 59.4478 464.227 59.9174C464.595 60.0598 464.93 60.2746 465.214 60.5491C465.498 60.8235 465.723 61.1521 465.877 61.5153C466.156 62.4127 466.281 63.3508 466.246 64.2898V90.7704C466.273 91.7218 466.142 92.6712 465.86 93.58C465.694 93.9535 465.452 94.2884 465.15 94.5635C464.847 94.8385 464.491 95.0478 464.104 95.178C462.873 95.5985 461.574 95.7831 460.275 95.7223V98.4968H481.155V95.6345C478.556 95.6345 476.906 95.2482 476.186 94.458C475.365 93.379 474.977 92.0327 475.097 90.6826V78.0745H494.678V90.7704C494.708 91.715 494.583 92.6581 494.309 93.5625C494.159 93.9333 493.933 94.2687 493.646 94.547C493.358 94.8253 493.016 95.0402 492.64 95.178C491.404 95.6011 490.099 95.7858 488.795 95.7223V98.4968H509.464V95.6345C508.124 95.7125 506.783 95.5029 505.53 95.0199C505.16 94.8761 504.823 94.6566 504.542 94.3754C504.26 94.0942 504.041 93.7576 503.897 93.3869C503.626 92.5403 503.478 91.6591 503.458 90.7704V64.4303C503.428 63.4927 503.547 62.5563 503.809 61.6558C503.957 61.2916 504.179 60.9617 504.46 60.6868C504.741 60.4119 505.075 60.1978 505.443 60.0578C506.686 59.5883 508.014 59.3849 509.341 59.4608V56.4756H488.707V59.3203Z" fill="#774F4D"/>
<path d="M549.12 93.0875C548.681 92.2622 547.996 90.6993 547.065 88.3814L534.228 55.6494H531.295L519.266 87.398C518.584 89.1697 517.762 90.8842 516.807 92.5256C516.267 93.5366 515.467 94.3853 514.489 94.984C513.582 95.4426 512.573 95.666 511.557 95.6337V98.496H526.027V95.6337C524.884 95.6573 523.744 95.4912 522.655 95.142C522.184 94.9709 521.785 94.6449 521.524 94.2174C521.262 93.7899 521.153 93.2863 521.215 92.789C521.332 91.6434 521.628 90.5234 522.093 89.4701L523.112 86.7483H536.827L538.811 91.7002C539.05 92.3043 539.175 92.9472 539.18 93.5967C539.245 93.9793 539.164 94.3723 538.952 94.6976C538.741 95.0229 538.415 95.2568 538.039 95.3527C536.844 95.6401 535.614 95.7583 534.386 95.7039V98.496H554.177V95.6337C553.066 95.6989 551.957 95.4687 550.964 94.9664C550.176 94.5373 549.534 93.8831 549.12 93.0875ZM524.324 83.7455L529.803 69.0477L535.598 83.7104L524.324 83.7455Z" fill="#774F4D"/>
<path d="M588.578 78.2144C586.591 77.1307 584.436 76.3887 582.203 76.0194C585.061 75.3719 587.711 74.0197 589.913 72.0859C590.671 71.3476 591.271 70.4622 591.676 69.4839C592.081 68.5056 592.281 67.455 592.266 66.3965C592.344 65.1165 592.123 63.8359 591.62 62.6563C591.117 61.4767 590.346 60.4305 589.368 59.6007C587.521 58.0687 585.316 57.0296 582.958 56.5804C580.736 56.1496 578.478 55.9262 576.215 55.9131H575.073H571.403L564.73 56.0536L556.178 56.2292V59.1617C557.887 58.961 559.614 59.3448 561.077 60.2504C561.514 60.7902 561.839 61.4109 562.035 62.0769C562.231 62.7429 562.293 63.441 562.219 64.1312V90.7698C562.248 91.7272 562.118 92.6827 561.832 93.597C561.662 93.9655 561.418 94.2955 561.116 94.5672C560.814 94.8388 560.461 95.0464 560.076 95.1774C558.8 95.611 557.453 95.7958 556.107 95.7218V98.4963H577.181C578.879 98.4914 580.575 98.3681 582.256 98.1275C584.11 97.8382 585.921 97.3191 587.647 96.5822C589.428 95.8516 590.993 94.6791 592.195 93.1756C593.437 91.5138 594.059 89.47 593.952 87.3983C593.968 85.5476 593.483 83.727 592.547 82.1303C591.59 80.4996 590.221 79.1492 588.578 78.2144ZM571.017 59.39H574.283C575.986 59.3369 577.68 59.6483 579.253 60.3031C580.507 60.8083 581.575 61.6882 582.31 62.8227C583.046 63.9573 583.413 65.2912 583.362 66.6423C583.408 67.7097 583.217 68.7741 582.801 69.7581C582.384 70.7422 581.754 71.6213 580.956 72.3318C578.865 73.8714 576.295 74.6182 573.704 74.439H571.069L571.017 59.39ZM581.975 93.1053C580.337 94.3877 578.312 95.075 576.232 95.0545C575.02 95.1412 573.806 94.8985 572.72 94.3521C572.36 94.1384 572.049 93.8513 571.807 93.5094C571.565 93.1676 571.397 92.7786 571.315 92.3678C571.111 91.2086 571.017 90.0327 571.034 88.8558V77.8632H576.057C577.213 77.7841 578.374 77.9548 579.458 78.3639C580.543 78.7729 581.527 79.4107 582.344 80.2338C583.915 82.0753 584.708 84.4556 584.556 86.8715C584.658 88.0365 584.482 89.209 584.042 90.2927C583.603 91.3764 582.912 92.3403 582.028 93.1053H581.975Z" fill="#774F4D"/>
<path d="M632.585 93.0875C632.163 92.2622 631.478 90.6993 630.548 88.3814L617.746 55.6494H614.795L602.678 87.3805C602.04 89.1616 601.247 90.8832 600.307 92.5256C599.778 93.5389 598.983 94.3889 598.007 94.984C597.093 95.444 596.079 95.6674 595.057 95.6337V98.496H609.527V95.6337C608.389 95.6576 607.256 95.4915 606.173 95.142C605.698 94.9764 605.295 94.6515 605.033 94.2226C604.77 93.7937 604.664 93.2871 604.733 92.789C604.841 91.6439 605.131 90.5234 605.593 89.4701L606.629 86.7483H620.257L622.241 91.7002C622.48 92.3043 622.605 92.9472 622.61 93.5967C622.671 93.9788 622.588 94.3698 622.377 94.6942C622.166 95.0186 621.842 95.2532 621.469 95.3527C620.273 95.639 619.044 95.7572 617.816 95.7039V98.496H637.607V95.6337C636.496 95.7014 635.386 95.4711 634.393 94.9664C633.624 94.5245 632.997 93.8728 632.585 93.0875ZM607.824 83.7455L613.338 69.0829L619.133 83.7455H607.824Z" fill="#774F4D"/>
<path d="M669.711 59.3203C671.104 59.2312 672.498 59.4656 673.785 60.0052C674.178 60.191 674.526 60.4599 674.805 60.7934C675.084 61.1269 675.287 61.517 675.401 61.9368C675.661 63.1242 675.773 64.3392 675.734 65.5541V84.7297L651.799 56.4756H639.506V59.3203C640.646 59.4025 641.763 59.6818 642.807 60.1456C643.546 60.4721 644.161 61.0257 644.563 61.726C644.936 62.4349 645.163 63.211 645.231 64.0089C645.319 64.8693 645.371 66.1688 645.371 67.9072V89.348C645.41 90.6311 645.31 91.9146 645.073 93.1761C644.961 93.5648 644.764 93.9238 644.497 94.2274C644.23 94.531 643.899 94.7717 643.527 94.9322C642.243 95.4324 640.865 95.6481 639.488 95.5643V98.4968H655.1V95.6345C653.638 95.7212 652.173 95.506 650.798 95.0024C650.392 94.8592 650.024 94.6272 649.721 94.3234C649.417 94.0195 649.185 93.6516 649.042 93.2464C648.787 91.987 648.681 90.7023 648.725 89.4183V66.1863L676.209 98.848H679.071V65.4839C679.022 64.1948 679.122 62.9044 679.37 61.6383C679.488 61.2421 679.695 60.878 679.975 60.5738C680.255 60.2695 680.6 60.033 680.985 59.8822C682.364 59.3917 683.827 59.1827 685.288 59.2676V56.4756H669.606L669.711 59.3203Z" fill="#774F4D"/>
<path d="M731.385 63.4822C729.411 61.0777 726.896 59.1759 724.044 57.9332C720.441 56.3717 716.537 55.6223 712.612 55.7382C708.192 55.6187 703.818 56.6665 699.933 58.7761C696.571 60.6415 693.816 63.433 691.995 66.8186C690.508 69.6111 689.628 72.6865 689.413 75.8429C689.198 78.9993 689.653 82.1656 690.748 85.1338C691.701 87.7222 693.137 90.1059 694.98 92.1578C697.028 94.4012 699.555 96.1539 702.374 97.2854C705.719 98.636 709.304 99.2931 712.91 99.217C717.311 99.3293 721.664 98.2881 725.537 96.1966C728.896 94.3476 731.66 91.583 733.509 88.2244C735.324 84.9342 736.267 81.2348 736.249 77.4776C736.223 75.0923 735.838 72.7245 735.108 70.4536C734.305 67.9209 733.043 65.5577 731.385 63.4822ZM725.906 82.5876C725.656 84.5862 725.117 86.5382 724.307 88.3824C723.418 90.4167 722.006 92.1796 720.216 93.4924C718.072 94.9634 715.508 95.6968 712.91 95.582C710.299 95.6964 707.717 94.9836 705.535 93.5451C703.718 92.2988 702.283 90.5722 701.39 88.558C700.554 86.7257 699.998 84.7782 699.74 82.7807C699.519 80.9804 699.407 79.1684 699.406 77.3547C699.369 74.3933 699.729 71.4403 700.477 68.5746C701.126 66.0074 702.541 63.6984 704.534 61.9545C706.88 60.0619 709.849 59.1159 712.858 59.3029C715.117 59.2237 717.357 59.7384 719.355 60.7955C721.078 61.7615 722.515 63.1673 723.517 64.8695C724.549 66.6354 725.267 68.5661 725.642 70.5765C726.052 72.7828 726.252 75.0229 726.239 77.2669C726.24 79.0457 726.128 80.8228 725.906 82.5876Z" fill="#774F4D"/>
<path d="M929.982 77.7755C929.964 57.1574 921.766 37.3889 907.187 22.808C892.609 8.2272 872.841 0.0252 852.222 0.00195312H74.2658C54.5782 0.0112501 35.6992 7.83338 21.7746 21.7505C7.85012 35.6676 0.0186105 54.5419 0 74.2284V77.7404C0.0185982 97.4208 7.84528 116.29 21.7622 130.206C35.6791 144.122 54.5492 151.948 74.2307 151.967H855.699C875.383 151.962 894.262 144.147 908.189 130.237C922.116 116.327 929.954 97.4589 929.982 77.7755ZM855.769 140.992H74.3009C57.5425 140.964 41.4785 134.295 29.6285 122.445C17.7785 110.596 11.1089 94.533 11.081 77.7755V74.2635C11.1089 57.5061 17.7785 41.4429 29.6285 29.5936C41.4785 17.7443 57.5425 11.0751 74.3009 11.0472H852.257C869.944 11.0844 886.896 18.1266 899.403 30.6325C911.909 43.1384 918.952 60.0895 918.989 77.7755C918.971 94.539 912.305 110.611 900.454 122.468C888.603 134.325 872.534 140.999 855.769 141.027V140.992Z" fill="#774F4D"/>
<path d="M808.02 122.378L764.732 76.722L809.443 29.5732H74.9681C63.0324 29.5919 51.5924 34.3485 43.1625 42.7977C34.7325 51.2469 30.0024 62.6973 30.0117 74.6324V77.3542C30.0117 89.2832 34.7459 100.725 43.1749 109.166C51.6038 117.608 63.0385 122.36 74.9681 122.378H808.02ZM789.985 117.497H74.9681C64.3302 117.483 54.1328 113.247 46.6156 105.721C39.0984 98.1939 34.8761 87.9915 34.8761 77.3542V74.6324C34.8668 63.989 39.085 53.7776 46.6032 46.2434C54.1214 38.7092 64.3241 34.4689 74.9681 34.4549H791.46L751.316 76.722L789.985 117.497Z" fill="#774F4D"/>
<path d="M832.939 120.623L791.249 76.5818L833.887 31.5929C830.015 30.7445 826.09 30.1579 822.139 29.8369L777.832 76.5643L821.067 122.22C825.056 121.96 829.023 121.426 832.939 120.623Z" fill="#774F4D"/>
<path d="M817.805 76.4228L853.753 38.5282C850.628 37.0306 847.421 35.7115 844.147 34.5771L804.354 76.4228L843.462 117.724C846.753 116.582 849.978 115.258 853.121 113.756L817.805 76.4228Z" fill="#774F4D"/>
<path d="M844.282 76.2824L870.378 48.7658C867.825 46.8576 865.104 45.0021 862.212 43.1992L830.865 76.2824L861.861 109.014C864.758 107.258 867.498 105.379 870.044 103.483L844.282 76.2824Z" fill="#774F4D"/>
<path d="M857.387 76.1245L877.512 97.3898C880.111 95.0543 882.429 92.7539 884.536 90.5589L870.874 76.1245L884.536 61.5672C882.499 59.3898 880.181 57.0894 877.512 54.7539L857.387 76.1245Z" fill="#774F4D"/>
<path d="M883.902 75.9838L890.716 83.1835C893.561 79.408 895.071 76.7213 895.071 76.0014C895.071 75.2814 893.579 72.4894 890.716 68.8018L883.902 75.9838Z" fill="#774F4D"/>
</g>
<defs>
<clipPath id="clip0_458_2049">
<rect width="930" height="152" fill="white"/>
</clipPath>
</defs>
</svg>
