<svg width="255" height="161" viewBox="0 0 255 161" fill="none" xmlns="http://www.w3.org/2000/svg">
<path d="M254.778 78.778C254.778 81.0962 254.991 83.4386 254.724 85.7301C254.426 88.518 253.866 91.2717 253.053 93.9549C252.14 96.9724 250.932 99.8929 249.448 102.674C247.673 105.822 245.673 108.837 243.464 111.696C241.587 114.22 239.511 116.589 237.256 118.782C234.171 121.763 230.927 124.574 227.539 127.205C223.846 130.057 220.008 132.716 216.041 135.173C212.298 137.491 208.335 139.496 204.399 141.502C201.094 143.184 197.714 144.711 194.316 146.221C192.417 147.064 190.431 147.719 188.479 148.443C186.142 149.312 183.818 150.211 181.457 151.007C179.716 151.596 177.93 152.05 176.163 152.556C173.51 153.315 170.877 154.136 168.203 154.799C165.652 155.433 163.055 155.901 160.48 156.443C157.865 156.994 155.253 157.561 152.633 158.093C151.761 158.271 150.881 158.404 149.996 158.489C146.485 158.831 142.977 159.248 139.458 159.454C134.549 159.743 129.621 160.139 124.717 159.989C119.813 159.839 114.891 159.104 109.982 158.58C106.57 158.216 103.155 157.845 99.7594 157.345C97.417 157 95.1015 156.443 92.7779 155.96C90.2885 155.441 87.7938 154.941 85.3231 154.355C83.5824 153.935 81.8818 153.347 80.1572 152.863C78.3042 152.328 76.4405 151.858 74.5875 151.344C73.5446 151.053 72.4992 150.77 71.4777 150.414C70.1889 149.97 68.9269 149.454 67.6514 148.973C64.4641 147.767 61.2502 146.617 58.0896 145.342C55.7366 144.39 53.421 143.328 51.1375 142.216C48.6963 141.023 46.239 139.833 43.9181 138.435C39.3047 135.636 34.7342 132.765 30.2064 129.822C24.3667 126.039 19.3585 121.266 14.6204 116.215C11.3476 112.739 8.42232 108.947 6.16289 104.717C4.78049 102.132 3.37136 99.5166 2.41946 96.7652C1.13065 93.0913 -0.000397192 89.3264 0.0343632 85.3477C0.0584282 82.4519 0.119923 79.5507 0.0129676 76.6603C-0.0939875 73.7698 0.478223 70.9649 1.08252 68.1573C2.35529 62.2294 4.93825 56.8682 8.20841 51.8467C12.0313 46.024 16.7034 40.8057 22.0698 36.3649C25.4175 33.5627 28.7839 30.7498 32.3589 28.2631C36.1906 25.5892 40.2335 23.2255 44.263 20.8564C46.7952 19.3697 49.4289 18.0381 52.0921 16.8001C54.7018 15.5862 57.4078 14.5755 60.0736 13.4819C63.055 12.2545 66.0043 10.9417 69.0311 9.83736C71.5366 8.92289 74.1302 8.2464 76.6865 7.47633C77.8612 7.11981 79.0386 6.77933 80.2186 6.4549C82.4513 5.82654 84.6626 5.11796 86.9247 4.61527C90.6949 3.79172 94.4865 3.06175 98.2887 2.39061C102.048 1.72481 105.824 1.12319 109.61 0.609802C111.456 0.393941 113.313 0.285021 115.172 0.283589C121.928 0.157916 128.685 -0.0613417 135.44 0.0162008C139.815 0.0721559 144.184 0.38554 148.523 0.954731C153.563 1.61251 158.558 2.63928 163.561 3.57513C167.053 4.23023 170.553 4.87731 173.989 5.75969C176.952 6.51907 179.834 7.58863 182.741 8.55924C186.773 9.89618 190.818 11.2037 194.805 12.6717C196.853 13.4284 198.781 14.5193 200.771 15.4418C202.91 16.4365 205.11 17.3349 207.212 18.4152C209.618 19.6478 211.966 20.9901 214.292 22.3591C217.164 24.0517 220.108 25.656 222.809 27.5946C226.533 30.2685 230.221 33.0386 233.624 36.1029C237.005 39.1546 240.173 42.4342 243.106 45.9187C245.296 48.515 247.053 51.5044 248.796 54.4403C250.178 56.7693 251.518 59.1918 252.39 61.74C253.636 65.3819 254.903 69.0718 254.796 73.0318C254.743 74.9463 254.796 76.8635 254.796 78.778H254.778ZM30.7198 124.29C30.6021 123.488 30.5326 123.076 30.4818 122.662C30.3401 121.474 29.9979 120.255 30.1048 119.1C30.6075 113.616 33.2172 110.276 38.9634 110.469C40.8351 110.528 42.9234 111.934 43.287 113.314C43.7576 115.105 43.1266 116.707 41.6586 117.437C40.2762 118.124 38.5703 117.571 37.4954 116.084C36.7788 115.092 35.9606 115.014 35.3296 116.041C34.789 116.895 34.4405 117.855 34.3082 118.857C34.0408 121.576 34.9632 124.124 35.7895 126.656C36.0569 127.459 36.4579 128.472 37.1264 128.876C40.7067 131.092 44.3459 133.226 48.0439 135.232C51.0413 136.855 54.1296 138.315 57.2286 139.732C59.9212 140.964 62.662 142.098 65.4267 143.154C67.7396 144.037 70.1087 144.777 72.4724 145.526C75.3442 146.435 78.2132 147.371 81.1251 148.136C84.5557 149.04 88.0237 149.818 91.4944 150.564C94.4036 151.187 97.3261 151.764 100.265 152.221C103.559 152.732 106.869 153.176 110.19 153.481C116.209 154.032 122.223 154.705 128.268 154.855C133.057 154.976 137.878 154.516 142.662 154.08C146.507 153.732 150.325 153.064 154.143 152.475C156.282 152.147 158.422 151.732 160.561 151.294C163.079 150.775 165.601 150.243 168.096 149.612C170.975 148.881 173.839 148.087 176.69 147.229C179.321 146.427 181.938 145.593 184.521 144.654C187.434 143.599 190.32 142.472 193.179 141.272C196.482 139.887 199.805 138.523 203.001 136.913C206.514 135.146 209.953 133.189 213.319 131.17C216.795 129.09 220.969 127.523 220.969 122.381C220.969 122.295 221.033 122.215 221.055 122.13C221.536 120.127 221.589 118.159 220.538 116.293C219.841 115.055 218.867 115.084 218.02 116.167C217.538 116.782 216.784 117.386 216.049 117.557C214.212 117.988 212.971 117.212 212.354 115.555C212.092 114.795 212.098 113.969 212.371 113.213C212.644 112.458 213.167 111.819 213.854 111.402C216.528 109.771 219.779 110.204 222.143 111.937C225.234 114.212 225.581 117.552 225.301 121.052C225.263 121.509 225.186 121.961 225.084 122.739C225.809 122.394 226.298 122.279 226.63 121.988C228.937 119.964 231.301 117.977 233.483 115.838C238.445 110.939 242.716 105.522 245.804 99.2011C247.537 95.6555 249.013 91.9816 249.374 88.1098C249.82 83.4332 249.719 78.6951 249.7 73.9837C249.668 65.9862 246.472 59.026 242.149 52.5553C237.707 45.9107 232.052 40.3704 225.726 35.5119C220.33 31.3701 214.685 27.616 208.594 24.5624C204.851 22.6907 201.158 20.6291 197.292 19.0168C192.516 17.0248 187.636 15.252 182.706 13.669C177.302 11.9417 171.836 10.3614 166.315 9.06728C161.769 7.99773 157.143 7.32658 152.52 6.70892C147.365 6.0244 142.188 5.39069 137.012 5.10459C129.006 4.67142 120.987 4.60191 112.987 5.45487C110.508 5.72226 107.998 5.74899 105.543 6.14206C100.856 6.89609 96.1844 7.77847 91.5318 8.717C88.0558 9.42291 84.5797 10.1769 81.1599 11.1395C77.5421 12.1556 73.9644 13.3508 70.4323 14.6396C65.777 16.3402 61.0951 18.0194 56.5816 20.0542C52.2167 22.0288 47.9642 24.2425 43.8432 26.6855C39.321 29.3174 34.9397 32.1841 30.7171 35.274C23.273 40.8009 16.7675 47.2824 11.8075 55.2104C8.54799 60.4031 6.03722 65.9728 5.50779 72.0371C4.92489 78.7406 4.43825 85.5322 6.17894 92.2249C7.1745 96.0525 8.69141 99.7252 10.6871 103.14C15.3503 111.137 21.8078 117.541 28.9951 123.263C29.4042 123.592 29.9203 123.817 30.7198 124.29Z" fill="#201F1F"/>
<path d="M128.606 39.9612C134.769 40.4104 140.949 40.7179 147.096 41.3596C151.994 41.8677 156.893 42.5843 161.714 43.5789C166.136 44.4907 170.484 45.8143 174.816 47.1138C178.166 48.1165 181.501 49.2529 184.736 50.539C187.773 51.753 190.747 53.1568 193.651 54.6675C197.928 56.8398 201.952 59.477 205.651 62.5314C208.884 65.2534 211.707 68.3391 213.56 72.1574C214.282 73.6414 214.63 75.366 214.86 77.0105C215.09 78.6549 214.986 80.3929 214.932 82.0908C214.788 86.6364 212.389 90.1392 209.568 93.4174C208.683 94.4754 207.698 95.446 206.627 96.3159C205.699 97.0458 205.878 97.4148 206.726 97.9657C209.517 99.7839 210.616 102.495 209.905 105.664C209.263 108.509 206.429 109.522 204.29 107.701C203.36 106.899 203.298 105.918 203.619 104.907C203.94 103.896 204.565 103.244 205.758 103.231C207.023 103.214 207.156 102.923 206.622 101.784C205.603 99.6208 203.512 99.1662 201.445 100.372C197.627 102.605 193.779 104.811 189.816 106.765C186.287 108.503 182.616 109.974 178.942 111.391C176.508 112.33 173.968 112.996 171.455 113.723C168.342 114.608 165.225 115.498 162.075 116.226C158.925 116.953 155.815 117.611 152.647 118.028C147.272 118.739 141.879 119.365 136.478 119.782C132.397 120.116 128.3 120.218 124.207 120.087C119.59 119.913 114.969 119.461 110.383 118.878C105.359 118.239 100.335 117.498 95.3803 116.472C90.9122 115.536 86.5324 114.175 82.1339 112.923C79.7087 112.231 77.2915 111.471 74.9358 110.57C72.0881 109.479 69.2725 108.287 66.5131 106.987C63.6734 105.65 60.8979 104.172 58.1358 102.674C56.7785 101.918 55.4685 101.079 54.2132 100.164C52.4324 98.8962 49.0179 100.246 48.7612 102.418C48.7318 102.656 49.2959 103.204 49.5901 103.201C51.0527 103.182 51.8361 103.955 52.157 105.255C52.4538 106.436 51.788 107.608 50.5366 108.338C49.9996 108.611 49.394 108.721 48.7951 108.654C48.1962 108.586 47.6302 108.344 47.1675 107.958C44.5739 105.629 45.1354 100.599 48.2371 98.3667C48.3815 98.2651 48.5419 98.1822 48.6917 98.0993C50.2398 97.1047 50.2318 97.1127 48.836 95.8854C45.4857 92.9441 42.6647 89.5456 41.2235 85.2808C40.0096 81.6897 40.154 77.9784 41.4722 74.4008C43.6888 68.3872 48.1408 64.1999 53.1463 60.5233C57.7053 57.1783 62.66 54.5392 67.8366 52.2664C73.3664 49.8619 79.0525 47.834 84.8559 46.1967C91.2237 44.398 97.6972 42.9969 104.239 42.0014C112.293 40.7075 120.451 40.1704 128.606 40.397V39.9612ZM128.515 43.3971L128.488 43.7367C120.988 43.595 113.549 44.2715 106.143 45.3811C102.755 45.8811 99.3403 46.3036 96.0086 47.0657C91.4256 48.1138 86.8854 49.3679 82.3718 50.6861C79.0161 51.6647 75.6497 52.6888 72.4384 54.0499C68.5746 55.6863 64.8285 57.6222 61.1038 59.5687C55.8871 62.2961 51.288 65.847 47.7344 70.5824C45.5953 73.4275 44.0418 76.5826 44.2824 80.2886C44.5284 84.0321 46.3279 87.1471 48.6863 89.9413C54.3362 96.626 61.8311 100.669 69.6174 104.223C72.3876 105.487 75.2673 106.538 78.1525 107.522C81.928 108.808 85.7195 110.1 89.5806 111.078C93.584 112.092 97.6378 112.896 101.725 113.485C108.322 114.429 114.942 115.295 121.579 115.862C130.269 116.603 138.919 115.675 147.534 114.565C151.107 114.105 154.682 113.611 158.214 112.913C161.823 112.199 165.404 111.308 168.957 110.33C172.677 109.314 176.407 108.284 180.022 106.955C183.637 105.626 187.126 103.995 190.61 102.37C195.182 100.278 199.425 97.5337 203.207 94.2222C206.525 91.281 209.328 87.8798 210.263 83.4759C211.333 78.4303 210.362 73.6574 207.111 69.4942C202.616 63.7293 196.53 60.0554 190.145 56.8708C186.752 55.1782 183.166 53.8466 179.597 52.5445C175.936 51.2075 172.252 49.8438 168.468 48.9641C162.029 47.4668 155.543 46.0389 149 45.1405C142.221 44.2126 135.355 43.9506 128.526 43.3971H128.515Z" fill="#201F1F"/>
<path d="M51.0859 42.8007C51.5993 44.2741 52.1073 45.742 52.6287 47.2233C53.0592 48.4346 53.6154 49.6138 53.8881 50.8571C54.0004 51.3732 53.6448 52.3839 53.2704 52.5203C52.6394 52.7476 51.6661 52.6995 51.1313 52.3305C49.4521 51.1727 47.9227 49.8063 46.3183 48.5335C46.0192 48.32 45.7076 48.1245 45.3852 47.948L45.0509 48.2635C45.7916 49.2501 46.4574 50.3063 47.2943 51.2047C48.0042 51.966 48.8234 52.6175 49.7249 53.138C50.88 53.7957 51.1447 54.2075 50.2596 55.1434C49.3341 56.0959 48.3177 56.9557 47.2248 57.7103C47.0193 57.8195 46.7906 57.8777 46.558 57.88C46.3253 57.8824 46.0955 57.8287 45.8879 57.7237C45.5991 57.5258 45.5777 56.9215 45.4734 56.475C45.3343 55.9001 45.3932 55.1969 45.0803 54.7557C42.3797 50.9534 39.6345 47.1832 36.8448 43.4452C36.5988 43.1163 36.0426 42.9772 35.5907 42.8542C34.072 42.4318 33.604 41.3782 34.6148 40.2044C35.5163 39.23 36.5004 38.3354 37.556 37.5305C38.2833 36.9369 39.0507 37.1375 39.7647 37.6642C41.369 38.8514 42.9733 40.0413 44.6017 41.1911C45.1178 41.5574 45.7221 41.8007 46.5964 42.2606C46.2354 40.9798 46.0135 40.06 45.7167 39.1669C45.2434 37.7391 44.6231 36.3514 44.2621 34.8887C44.1044 34.255 44.1953 33.2844 44.599 32.8459C45.4744 31.9787 46.4748 31.2477 47.567 30.6774C48.5216 30.1426 49.5831 30.6961 49.6019 31.8245C49.6259 33.3272 50.4682 34.2791 51.2837 35.3273C53.4228 38.0653 55.5459 40.798 57.6262 43.5735C57.913 43.99 58.2803 44.3449 58.7065 44.6172C59.1327 44.8896 59.609 45.0738 60.1075 45.1591C61.4819 45.4265 61.8028 46.4961 60.7653 47.4426C59.583 48.5093 58.3325 49.4981 57.0219 50.4026C55.9978 51.1112 54.733 50.4721 55.0379 49.3678C55.6074 47.2982 54.3052 46.1244 53.3346 44.7393C52.9496 44.2045 52.5725 43.6403 52.1527 43.135C51.935 42.9216 51.6927 42.7349 51.4308 42.5788L51.0859 42.8007Z" fill="#201F1F"/>
<path d="M25.5704 53.3334C27.6881 53.2585 29.4422 54.173 31.1267 55.3014C34.2685 57.4164 37.3809 59.5555 39.5655 62.7401C42.472 66.9916 40.3355 71.4115 36.8782 73.6709C34.2043 75.425 31.4021 74.9009 28.755 73.5747C25.2415 71.8152 22.0355 69.6227 19.4418 66.5905C14.6289 60.9753 18.9953 55.2479 23.5971 53.5473C24.196 53.3227 24.9099 53.4056 25.5704 53.3334ZM23.8431 57.5875C23.1773 58.141 22.2922 58.518 22.1959 59.0448C22.0515 59.8069 22.2227 60.8924 22.704 61.4513C25.1292 64.323 28.1106 66.5637 31.3941 68.3766C32.4155 68.9408 33.5573 69.4596 34.6937 69.6013C36.3247 69.8045 37.1002 68.3954 36.298 66.9755C35.9905 66.4407 35.7177 65.8258 35.2659 65.4434C32.9369 63.4834 30.6213 61.4941 28.1614 59.7026C26.9314 58.8255 25.418 58.3469 23.8431 57.5875Z" fill="#201F1F"/>
<path d="M79.8415 23.236C79.7666 19.6717 80.1088 17.2893 81.911 15.4657C84.7052 12.6581 91.6466 11.3613 94.2269 16.9845C95.0893 18.9137 95.7393 20.9309 96.1655 23.0007C96.663 25.2505 96.9451 27.5425 97.0078 29.8458C97.0479 32.0464 96.4944 34.2764 94.6013 35.6856C90.3765 38.8568 85.708 38.4958 82.8362 33.5732C80.8174 30.0597 80.0286 26.1585 79.8415 23.236ZM92.1975 30.5383C92.0932 26.4954 90.8872 22.7199 89.6439 18.9658C89.2321 17.7171 87.6813 16.7278 86.7989 16.9203C85.6117 17.1877 84.9539 18.1182 85.1464 19.8428C85.4459 22.5328 85.7267 25.2548 86.4165 27.8645C86.8791 29.6052 87.8765 31.2763 88.9326 32.7684C89.7348 33.8994 91.0718 33.5919 91.7108 32.3245C91.9729 31.7817 92.0424 31.1346 92.1975 30.5383Z" fill="#201F1F"/>
<path d="M16.5701 91.2008C16.5059 90.0082 16.2813 88.3585 16.3668 86.7247C16.538 83.4278 19.4472 79.8368 23.0515 80.4545C24.1478 80.6443 25.2575 81.3716 26.1211 82.1283C26.9233 82.8235 27.2495 82.9305 28.1961 82.2727C29.3512 81.4705 30.8272 81.1256 32.1882 80.6523C33.1053 80.3341 34.215 80.4759 34.3701 78.9945C34.4476 78.2753 35.6509 78.3501 36.1963 79.0801C37.3007 80.5534 37.314 82.246 35.8434 83.6605C34.9022 84.5642 33.584 85.1177 32.3673 85.6819C31.4555 86.1017 30.3539 86.1365 29.4902 86.6204C28.9127 86.9466 28.4555 87.69 28.2175 88.3584C27.926 89.1606 28.3298 89.7462 29.287 89.7195C30.3566 89.6874 31.4475 89.7783 32.4957 89.5804C33.2936 89.399 34.042 89.0448 34.6883 88.5429C35.6776 87.8023 36.6536 87.928 36.7632 89.1285C36.9721 91.3399 37.0088 93.5641 36.8728 95.7811C36.7899 97.0833 35.7177 97.217 34.6321 96.3881C33.9991 95.8875 33.2309 95.5877 32.4262 95.5271C28.6399 95.4656 24.8537 95.5699 21.0675 95.5458C19.9365 95.5458 19.1129 95.8694 18.4658 96.8186C18.2386 97.1502 17.6209 97.5299 17.3401 97.4336C16.9952 97.3133 16.6182 96.7304 16.5968 96.3266C16.5086 94.7731 16.5701 93.2115 16.5701 91.2008ZM22.5275 89.7462C22.835 89.7852 23.1466 89.7798 23.4526 89.7301C23.9874 89.5644 24.8537 89.3879 24.9233 89.0697C25.0436 88.5349 24.7922 87.7755 24.4339 87.3103C23.7147 86.3798 21.2066 86.0964 20.3991 86.9012C19.9186 87.4356 19.6688 88.1381 19.7038 88.8558C19.7333 89.1954 20.6451 89.5296 21.2066 89.7221C21.5943 89.8558 22.0729 89.7489 22.5168 89.7462H22.5275Z" fill="#201F1F"/>
<path d="M172.38 38.7286C169.513 38.9158 165.532 36.7954 165.313 33.191C165.203 31.3915 165.765 29.5278 166.168 27.7256C166.888 24.5169 167.773 21.3537 168.455 18.1451C168.553 17.6905 167.957 17.1156 167.791 16.5648C167.612 15.9659 167.302 15.2145 167.524 14.7439C167.767 14.2091 168.612 13.5139 169.059 13.5995C171.098 13.9658 173.102 14.5071 175.048 15.2172C176.286 15.6851 176.34 16.8964 175.217 17.5595C173.856 18.3617 173.473 19.6665 173.153 20.9928C172.284 24.5758 171.495 28.1748 170.674 31.7685C170.297 33.4183 171.139 34.8568 172.727 35.2579C173.987 35.5788 175.423 34.6536 175.821 33.1963C176.824 29.5171 177.693 25.795 178.832 22.1586C179.262 20.7815 179.284 19.8216 178.262 18.736C177.506 17.9338 178.177 16.4044 179.249 16.5274C180.825 16.7117 182.367 17.1214 183.827 17.744C184.032 17.8231 184.211 17.9597 184.341 18.1376C184.471 18.3155 184.547 18.5272 184.56 18.7472C184.573 18.9672 184.523 19.1863 184.414 19.3782C184.306 19.5702 184.145 19.7269 183.95 19.8296C181.372 21.3778 181.738 24.1613 181.008 26.4528C180.134 29.1962 179.65 32.068 178.76 34.798C177.936 37.3061 175.412 38.7179 172.38 38.7286Z" fill="#201F1F"/>
<path d="M74.8762 35.5094C74.8762 35.0656 74.7371 34.5522 74.9109 34.1939C75.1141 33.7741 75.5634 33.258 75.9537 33.2126C76.3441 33.1671 76.9591 33.5896 77.1302 33.9639C77.7185 35.2447 78.1276 36.6057 78.6597 37.9159C79.0207 38.8063 78.9084 39.4881 77.9886 39.8999C75.8887 40.8429 73.7852 41.7752 71.6782 42.6968C70.3814 43.269 69.1113 43.9268 67.7663 44.3493C67.0444 44.5765 65.7876 44.7049 65.4935 44.3225C65.0844 43.7877 65.0871 42.6166 65.3919 41.9347C65.6057 41.532 65.7139 41.0816 65.7064 40.6257C65.6989 40.1698 65.576 39.7232 65.3491 39.3277C64.4186 37.4239 63.6619 35.4345 62.8491 33.4746C62.1218 31.7178 61.5121 29.905 60.6538 28.2124C60.3329 27.5787 59.4452 27.2445 58.865 26.7204C58.4398 26.3353 57.8623 25.8995 57.7954 25.4155C57.7366 25.0599 58.2794 24.4048 58.7072 24.1962C60.7313 23.2122 62.8116 22.3379 64.8571 21.4207C66.1058 20.8646 67.3278 20.2282 68.6166 19.7843C69.1514 19.6025 70.1889 19.6239 70.3493 19.9153C71.0956 21.2995 71.7218 22.7452 72.221 24.2363C72.3333 24.5572 71.9937 25.2765 71.6729 25.4369C71.352 25.5973 70.7584 25.3647 70.3546 25.1695C69.9509 24.9743 69.5872 24.5679 69.1968 24.2764C68.1086 23.4609 65.9374 23.8112 65.2582 24.9476C65.1912 25.083 65.1528 25.2307 65.1454 25.3816C65.1381 25.5325 65.1619 25.6833 65.2154 25.8246C65.8304 27.2471 66.4722 28.6589 67.17 30.0413C67.2877 30.2793 67.8011 30.5601 67.9722 30.4798C68.3425 30.2725 68.6522 29.972 68.8706 29.6082C69.253 29.0386 69.4428 28.0279 69.9134 27.8915C70.983 27.5814 71.1862 28.7392 71.5605 29.4504C72.1144 30.4516 72.6047 31.4867 73.0285 32.5494C73.1729 32.9264 73.074 33.7206 72.8306 33.8516C72.4082 34.0789 71.7611 34.0281 71.2531 33.9318C70.538 33.7609 69.8336 33.5485 69.1434 33.2954C69.2156 34.1297 69.1888 34.988 69.3813 35.7955C69.5717 36.7506 69.9167 37.6682 70.4028 38.5122C70.5962 38.7729 70.8454 38.9872 71.1322 39.1394C71.419 39.2916 71.7362 39.3778 72.0606 39.3919C73.7906 39.2582 74.8601 37.6619 74.8762 35.5094Z" fill="#201F1F"/>
<path d="M212.845 56.6302C213.541 56.2532 214.337 55.9884 214.91 55.4751C217.926 52.7798 220.918 50.0524 223.835 47.2529C224.306 46.801 224.343 45.916 224.624 45.2448C224.891 44.6405 225.07 43.7421 225.525 43.5576C225.979 43.3731 226.862 43.7929 227.287 44.2207C229.755 46.7208 232.1 49.3278 234.565 51.8413C235.448 52.745 235.458 53.5017 234.565 54.32C233.747 55.0713 232.977 55.9002 232.063 56.5045C231.807 56.6381 231.523 56.7108 231.235 56.7168C230.946 56.7228 230.66 56.6621 230.399 56.5393C230.116 56.3735 229.998 55.451 230.185 55.0419C230.891 53.5071 230.72 52.2156 229.514 51.0311C228.835 50.368 228.177 50.1915 227.445 50.9241C226.522 51.8279 225.552 52.6809 224.65 53.598C224.383 53.8654 224.022 54.4617 224.137 54.6542C224.343 55.0098 224.867 55.189 225.268 55.4216C225.335 55.4644 225.445 55.4216 225.536 55.443L227.61 55.8414C227.244 56.5099 226.971 57.2585 226.49 57.8281C225.742 58.7114 224.912 59.5216 224.011 60.2479C223.672 60.5153 222.867 60.7025 222.629 60.502C222.289 60.2212 222.201 59.5527 222.158 59.0367C222.129 58.665 222.466 58.2586 222.426 57.8923C222.382 57.4758 222.179 57.0924 221.859 56.8227C221.65 56.681 221.078 56.8441 220.822 57.058C219.65 58.0126 218.535 59.0367 217.396 60.034C216.789 60.5688 216.738 61.1464 217.22 61.7934C218.506 63.5208 220.343 63.9325 222.271 62.879C223.046 62.4592 223.824 62.2747 224.426 63.0555C225.07 63.8924 224.426 64.4379 223.822 64.9433C222.838 65.7748 221.894 66.6599 220.862 67.4273C219.998 68.069 219.19 68.1653 218.319 67.1599C216.033 64.5529 213.631 62.0475 211.268 59.5099C210.655 58.8522 209.781 58.1356 210.412 57.2425C210.837 56.6436 211.813 56.4403 212.551 56.0473L212.845 56.6302Z" fill="#201F1F"/>
<path d="M241.892 94.0644C241.841 96.0511 240.665 97.3372 238.683 97.4736C236.376 97.634 234.055 97.6073 231.747 97.741C227.843 97.9789 223.942 98.2757 220.044 98.5806C219.576 98.618 219.129 98.979 218.661 99.0057C218.193 99.0324 217.573 98.9709 217.255 98.6875C216.987 98.4495 216.902 97.7757 217.028 97.3934C217.506 95.9655 218.076 94.5671 218.667 93.1793C219.386 91.4814 220.21 91.2755 221.434 92.5831C222.341 93.551 223.391 93.2328 224.276 92.9173C224.811 92.7221 225.207 91.8718 225.493 91.2381C225.764 90.5839 225.935 89.8924 225.998 89.1872C226.063 88.6524 226.137 87.9492 225.867 87.5561C225.402 86.8797 224.704 86.5962 223.779 87.0856C222.399 87.8129 221.429 87.1979 221.613 85.655C221.819 84.2503 222.168 82.8705 222.656 81.5373C222.923 80.711 224.228 80.5853 224.587 81.4062C225.512 83.5106 227.509 84.1817 229.234 85.1871C232.943 87.3556 236.721 89.4011 240.464 91.5402C241.443 92.1098 242.039 92.9788 241.892 94.0644ZM234.491 92.2809L234.563 91.8798C232.841 90.9493 231.122 90.0081 229.389 89.1043C229.307 89.0845 229.222 89.0854 229.141 89.1069C229.059 89.1284 228.985 89.1698 228.924 89.2273C228.558 90.2526 228.248 91.297 227.996 92.3558C227.969 92.4814 228.616 92.936 228.948 92.9307C230.365 92.9146 231.782 92.8103 233.194 92.6793C233.639 92.5936 234.074 92.46 234.491 92.2809Z" fill="#201F1F"/>
<path d="M239.133 83.6043C238.954 83.6043 238.775 83.6043 238.599 83.6043C237.826 83.5482 236.917 83.7675 236.615 82.7032C236.296 81.5882 237.251 81.4251 237.887 80.9893C238.986 80.2406 240.433 79.8021 240.366 78.0159C240.326 76.9651 239.882 76.556 238.885 76.6362C236.318 76.8421 233.748 77.0533 231.179 77.2539C229.184 77.409 227.184 77.4865 225.2 77.7272C224.422 77.8207 223.694 78.286 222.932 78.5507C222.414 78.7325 221.793 79.0989 221.376 78.9491C220.959 78.7994 220.609 78.1256 220.529 77.6336C220.327 76.3141 220.208 74.9836 220.17 73.6495C220.103 71.8099 220.839 71.374 222.475 72.1174C223.001 72.3482 223.576 72.4482 224.149 72.4088C228.938 72.0478 233.724 71.6575 238.502 71.2056C238.935 71.1628 239.657 70.6093 239.66 70.2911C239.66 69.3338 239.928 68.1199 238.681 67.6333C237.78 67.283 236.81 67.1226 235.885 66.8097C235.494 66.6787 234.879 66.3846 234.871 66.1519C234.871 65.7535 235.16 65.1091 235.489 64.9808C236.604 64.5773 237.746 64.2529 238.906 64.0102C242.002 63.2962 242.16 63.3363 242.532 66.4701C243.123 71.4569 243.569 76.4597 244.08 81.4438C244.16 82.246 243.853 82.73 243.059 82.8984C241.759 83.1658 240.462 83.4573 239.165 83.738L239.133 83.6043Z" fill="#201F1F"/>
<path d="M195.326 42.8356C196.128 42.3436 196.885 41.988 197.516 41.4987C198.067 41.0601 198.404 40.3008 198.997 39.9852C199.532 39.7179 200.382 39.6162 200.893 39.8596C201.073 39.9313 201.234 40.0437 201.363 40.1879C201.492 40.3321 201.587 40.5043 201.638 40.6909C201.69 40.8776 201.698 41.0736 201.662 41.2638C201.625 41.4541 201.545 41.6333 201.428 41.7874C200.177 43.6752 198.955 45.5897 197.591 47.4026C197.35 47.7208 196.356 47.8197 195.93 47.5951C192.208 45.6405 188.526 43.603 184.853 41.5575C184.05 41.1083 183.248 40.397 183.625 39.4318C183.785 39.0901 184.015 38.786 184.3 38.5395C184.585 38.2929 184.919 38.1095 185.28 38.0012C186.299 37.774 186.831 37.1616 187.262 36.3969C189.149 33.0332 191.021 29.6587 192.837 26.2549C193.067 25.8244 192.96 25.2014 192.954 24.6693C192.954 24.0489 192.628 23.2227 192.917 22.8617C193.24 22.4553 194.142 22.2253 194.698 22.3457C195.623 22.5462 196.492 23.0516 197.353 23.4901C198.393 23.9806 199.394 24.55 200.348 25.1933C200.548 25.3729 200.705 25.5951 200.808 25.8437C200.911 26.0922 200.956 26.3607 200.941 26.6292C200.87 26.8707 200.741 27.0909 200.564 27.2701C200.387 27.4493 200.168 27.5819 199.928 27.656C198.759 27.8271 198.227 28.5036 197.687 29.4742C195.831 32.8059 193.89 36.0894 191.909 39.3489C191.278 40.389 191.278 41.0254 192.494 41.5094C193.409 41.8596 194.289 42.3383 195.326 42.8356Z" fill="#201F1F"/>
<path d="M125.35 17.4471C126.097 16.3428 126.73 15.4979 127.238 14.5807C127.364 14.3561 127.07 13.9042 126.99 13.554C126.84 12.9096 126.396 12.086 126.639 11.6635C126.936 11.1475 127.792 10.7571 128.447 10.6796C129.641 10.5341 130.85 10.5575 132.038 10.7491C132.757 10.8987 133.39 11.3202 133.805 11.9256C133.982 12.217 133.49 13.2759 133.041 13.5299C131.027 14.6503 130.399 16.8188 129.051 18.4204C126.925 20.9472 127.276 23.8671 127.238 26.779C127.238 28.0919 127.217 29.2737 128.308 30.3005C129.134 31.0732 128.458 32.3353 127.113 32.5091C125.795 32.7202 124.456 32.7678 123.126 32.6508C122.385 32.5653 121.575 31.993 121.083 31.4021C120.906 31.1882 121.602 30.2898 121.842 29.6828C122.043 29.1855 122.289 28.6534 122.284 28.14C122.284 27.1694 121.925 26.1774 122.038 25.2335C122.374 22.4099 120.767 20.3376 119.505 18.121C119.028 17.2195 118.492 16.3504 117.901 15.5193C117.39 14.8455 116.65 14.3481 116.11 13.6903C115.612 13.0834 114.898 12.3534 114.906 11.7037C114.906 10.7544 115.909 10.463 116.823 10.463C118.471 10.463 120.12 10.4336 121.765 10.5031C123.749 10.586 124.396 11.7758 123.489 13.4951C123.361 13.7411 123.246 14.1502 123.361 14.3481C123.936 15.3321 124.594 16.2733 125.35 17.4471Z" fill="#201F1F"/>
<path d="M142.902 29.3995C143.087 27.3834 143.811 25.8031 145.606 24.8539C146.814 24.2095 148.245 24.3887 149.429 25.4154C150.4 26.2577 150.485 27.37 150.058 28.461C149.791 28.9958 149.37 29.4383 148.849 29.7311C148.314 30.06 147.451 30.2391 148.066 30.9798C148.36 31.3354 149.595 31.4664 149.852 31.191C150.612 30.4086 151.179 29.459 151.507 28.4182C152.007 26.5839 152.221 24.6748 152.542 22.787C152.929 20.5115 153.298 18.2414 153.689 15.9579C153.847 15.0408 153.809 14.276 153.031 13.5354C152.659 13.1798 152.512 12.2626 152.691 11.7466C152.849 11.292 153.635 10.7198 154.087 10.7652C155.839 10.9444 157.627 11.1717 159.291 11.7252C160.585 12.1557 160.627 13.7038 159.713 14.6825C159.146 15.2975 158.574 16.0889 158.43 16.8777C157.52 21.7683 156.74 26.6828 155.9 31.5841C155.78 32.282 155.686 33.036 155.349 33.6323C155.034 34.1831 154.448 34.8515 153.908 34.9264C153.368 35.0013 152.518 34.5735 152.149 34.0975C151.614 33.4103 151.256 33.2018 150.568 33.8007C148.793 35.3462 147.007 34.5146 145.365 33.6269C143.723 32.7392 142.985 31.1803 142.902 29.3995Z" fill="#201F1F"/>
<path d="M58.8365 133.189C58.2482 132.937 57.537 132.678 56.8658 132.344C54.446 131.135 52.0288 129.921 49.6464 128.654C49.2506 128.445 48.7025 127.91 48.7533 127.616C48.8362 127.143 49.3202 126.71 49.6999 126.325C50.1571 125.86 50.863 125.557 51.1464 125.017C52.6384 122.204 54.0556 119.351 55.4246 116.461C55.6145 116.06 55.3337 115.458 55.3658 114.956C55.3979 114.453 55.3658 113.696 55.684 113.418C56.0022 113.14 56.8257 113.068 57.2429 113.276C58.6199 113.964 59.874 114.881 61.2537 115.584C62.6334 116.287 64.0399 116.691 65.3821 117.346C65.8634 117.581 66.425 118.116 66.4945 118.584C66.5533 118.964 66.0132 119.696 65.5934 119.833C64.4864 120.196 64.1789 121.114 63.7484 121.972C62.5773 124.301 61.3419 126.608 60.3018 128.993C59.9809 129.723 60.0691 130.689 60.152 131.528C60.243 132.552 59.8526 133.234 58.8365 133.189ZM53.9513 127.64C54.2722 128.199 54.4353 128.87 54.8016 129.012C55.1679 129.154 55.9835 128.937 56.1974 128.611C56.9044 127.553 57.4884 126.417 57.9381 125.226C58.0691 124.87 57.6252 124.175 57.2643 123.822C57.0584 123.622 56.2375 123.643 56.1145 123.822C55.3417 125.044 54.6759 126.33 53.9513 127.64ZM61.3713 118.485C61.0558 117.921 60.8606 117.285 60.4301 116.95C60.2563 116.814 59.4167 117.218 59.144 117.584C58.4403 118.485 57.8536 119.471 57.3979 120.52C57.283 120.803 57.8792 121.536 58.3097 121.838C58.6547 122.084 59.5638 122.186 59.6467 122.02C60.3018 120.916 60.7884 119.734 61.3713 118.485Z" fill="#201F1F"/>
<path d="M115.686 137.823C115.794 137.433 115.878 137.038 115.937 136.638C116.066 135.491 116.134 134.338 116.14 133.183C116.14 132.649 115.769 132.143 115.606 131.611C115.443 131.079 115.116 130.453 115.304 130.106C115.512 129.718 116.21 129.44 116.718 129.402C117.516 129.373 118.315 129.45 119.092 129.632C120.05 129.825 120.598 130.935 119.895 131.531C118.368 132.849 118.686 134.63 118.483 136.218C118.114 139.079 118.012 141.975 117.852 144.86C117.801 145.809 117.614 146.515 116.496 146.62C114.892 146.769 114.09 146.333 113.804 145.152C113.167 142.569 112.516 139.984 111.849 137.397C111.706 137.01 111.54 136.631 111.352 136.264C111.148 136.911 110.993 137.205 110.969 137.51C110.83 139.143 110.67 140.78 110.643 142.419C110.643 142.938 111.041 143.454 111.196 143.991C111.352 144.529 111.662 145.224 111.448 145.507C111.143 145.911 110.432 146.133 109.87 146.181C109.204 146.211 108.539 146.121 107.905 145.914C107.477 145.791 106.835 145.51 106.777 145.2C106.675 144.718 106.937 144.13 107.13 143.625C107.381 142.956 107.9 142.341 107.982 141.665C108.327 138.798 108.6 135.919 108.785 133.036C108.827 132.354 108.402 131.649 108.237 130.943C108.108 130.408 107.819 129.739 108.028 129.368C108.236 128.996 108.972 128.833 109.48 128.833C110.325 128.8 111.169 128.906 111.98 129.146C112.467 129.306 113.049 129.806 113.197 130.274C113.857 132.48 114.37 134.732 114.953 136.959C115.057 137.264 115.185 137.56 115.336 137.844L115.686 137.823Z" fill="#201F1F"/>
<path d="M190.016 125.37C191.233 126.563 192.423 127.373 193.123 128.483C195.262 131.836 193.452 134.111 190.65 135.435C189.134 136.149 187.575 136.772 186.005 137.376C185.666 137.504 184.971 137.437 184.837 137.218C184.562 136.7 184.414 136.125 184.404 135.539C184.372 134.956 184.749 134.272 184.559 133.782C183.358 130.691 182.075 127.632 180.751 124.587C180.569 124.167 179.989 123.934 179.647 123.563C179.305 123.191 178.802 122.761 178.765 122.306C178.738 121.988 179.299 121.445 179.695 121.29C181.717 120.528 183.754 119.782 185.829 119.183C187.366 118.739 188.834 119.143 189.674 120.576C190.514 122.009 191.407 123.576 190.059 125.261C189.96 125.378 189.952 125.582 190.016 125.37ZM188.126 128.258C186.955 128.258 186.543 128.793 186.882 129.785C187.158 130.626 187.507 131.441 187.925 132.221C188.193 132.694 188.77 133.451 189.016 133.384C189.621 133.185 190.13 132.768 190.441 132.213C190.904 131.322 189.607 128.737 188.647 128.373C188.477 128.319 188.303 128.281 188.126 128.258ZM188.043 124.718C187.31 123.571 186.84 122.549 186.094 121.801C185.773 121.48 184.775 121.533 184.286 121.801C184.019 121.948 184.04 122.892 184.147 123.434C184.254 123.977 184.682 124.531 184.88 125.111C185.123 125.881 185.415 126.715 186.358 126.352C186.979 126.106 187.404 125.362 188.043 124.718Z" fill="#201F1F"/>
<path d="M84.8864 141.855C82.6323 141.218 80.3568 140.66 78.1375 139.916C76.9744 139.526 76.8674 138.678 77.8701 137.94C79.1161 137.036 79.4477 135.777 79.7766 134.413C80.2953 132.261 80.9263 130.135 81.5093 127.996C81.7766 127.06 82.175 126.146 81.2258 125.285C81.0012 125.082 80.9584 124.368 81.1563 124.092C81.3863 123.75 82.02 123.346 82.3248 123.445C84.9452 124.298 87.8945 124.309 90.079 126.29C91.8625 127.894 91.4561 131.477 89.3143 132.606C88.2448 133.175 88.1806 133.582 88.8464 134.622C89.7448 136.02 89.5095 137.686 88.7662 139.09C88.0095 140.574 86.9452 141.887 84.8864 141.855ZM88.2715 128.616C88.4239 127.584 88.0041 126.59 86.8944 126.499C85.8543 126.416 85.1832 127.191 85.1377 128.389C85.0708 129.004 84.8999 129.602 84.6323 130.159C84.2928 130.98 84.6457 131.325 85.3971 131.469C87.4265 131.865 88.3704 130.368 88.2715 128.616ZM86.1324 135.836C85.881 134.734 85.6832 133.814 84.5842 133.675C83.4425 133.534 83.4612 134.579 83.2633 135.317C83.0371 136.034 82.8752 136.77 82.7793 137.515C82.7419 137.967 82.9104 138.774 83.1483 138.852C83.6002 138.978 84.397 138.852 84.6484 138.536C85.266 137.716 85.6564 136.737 86.1351 135.828L86.1324 135.836Z" fill="#201F1F"/>
<path d="M216.868 39.7097C216.702 39.822 216.09 40.06 215.732 40.5119C213.234 43.635 210.766 46.7822 208.36 49.9748C208.092 50.325 208.279 51.0069 208.239 51.5336C208.189 52.1807 208.357 53.0818 208.001 53.4053C207.555 53.8171 206.459 54.1086 206.023 53.8385C204.259 52.7349 202.58 51.5024 200.998 50.1512C200.816 50.0058 200.681 49.8095 200.61 49.5872C200.539 49.3649 200.536 49.1266 200.601 48.9025C200.666 48.6783 200.795 48.4784 200.974 48.328C201.152 48.1776 201.371 48.0835 201.603 48.0576C204.277 47.5843 205.151 45.3008 206.576 43.5869C208.194 41.6456 209.71 39.6135 211.159 37.5412C211.501 37.0519 211.397 36.2551 211.504 35.5973C211.619 34.8994 211.55 33.7443 211.9 33.5999C212.28 33.4617 212.685 33.4016 213.089 33.4232C213.493 33.4448 213.889 33.5477 214.253 33.7256C215.708 34.5783 217.086 35.5562 218.371 36.6481C218.909 37.0991 219.285 37.7144 219.44 38.3995C219.619 39.4049 218.78 39.8889 216.868 39.7097Z" fill="#201F1F"/>
<path d="M179.311 136.905C179.296 137.484 179.143 138.052 178.863 138.559C178.584 139.067 178.188 139.5 177.707 139.823C175.124 141.638 171.747 142.152 170.41 138.435C169.811 136.772 169.256 135.093 168.746 133.397C168.3 131.913 167.987 130.389 167.511 128.916C167.364 128.461 166.843 128.14 166.551 127.718C166.182 127.183 165.712 126.632 165.618 126.033C165.586 125.817 166.495 125.397 167.016 125.17C167.706 124.865 168.463 124.394 169.156 124.464C170.92 124.643 172.313 123.766 173.824 123.18C174.279 123.004 174.744 122.726 175.207 122.729C175.72 122.729 176.396 122.849 176.693 123.188C176.926 123.456 176.878 124.279 176.626 124.603C175.995 125.405 176.204 126.092 176.466 126.953C177.471 130.253 178.372 133.584 179.311 136.905ZM172.273 125.044C170.744 126.897 170.698 127.263 171.431 129.119C171.674 129.734 171.819 130.387 172.011 131.023C172.661 133.183 173.247 135.368 174.017 137.486C174.172 137.908 175.059 138.333 175.551 138.288C175.963 138.24 176.354 137.523 176.621 137.034C176.747 136.815 176.621 136.416 176.543 136.122C175.602 132.978 174.688 129.82 173.653 126.705C173.46 126.074 172.771 125.614 172.273 125.044Z" fill="#201F1F"/>
<path d="M131.197 146.793C130.577 146.793 129.938 146.882 129.325 146.767C128.857 146.676 128.154 146.408 128.066 146.079C128.017 145.812 128.03 145.537 128.105 145.276C128.179 145.015 128.313 144.775 128.497 144.574C129.395 143.772 129.152 142.868 128.673 142.186C128.406 141.82 127.488 141.766 126.898 141.836C125.946 141.946 125.561 143.422 126.152 144.464C127.221 146.368 126.954 146.815 124.737 146.871C124.248 146.871 123.745 146.999 123.274 146.914C122.804 146.828 122.205 146.646 122.087 146.333C121.94 145.927 122.044 145.16 122.355 144.908C123.392 144.042 123.523 142.882 123.748 141.7C124.237 139.13 124.79 136.571 125.307 134.004C125.499 133.047 125.689 132.087 125.841 131.122C126.063 129.678 127.109 129.648 128.248 129.603C129.387 129.558 129.964 129.929 130.21 131.084C131.087 135.202 132.029 139.309 132.986 143.411C133.077 143.804 133.499 144.109 133.662 144.499C133.884 145.034 134.227 145.665 134.096 146.138C134.01 146.448 133.192 146.62 132.676 146.727C132.191 146.782 131.702 146.789 131.216 146.748L131.197 146.793ZM127.78 135.707H127.149C126.951 136.777 126.697 137.817 126.614 138.884C126.595 139.111 127.149 139.585 127.456 139.595C127.764 139.606 128.424 139.173 128.403 138.991C128.272 137.881 128.002 136.798 127.78 135.707Z" fill="#201F1F"/>
<path d="M199.133 131.825C197.9 131.782 197.437 131.242 197.71 130.504C198.28 128.961 197.643 127.6 197.258 126.226C196.368 123.017 195.362 119.851 194.445 116.653C194.044 115.26 195.782 113.351 197.199 113.611C197.531 113.669 197.847 114.041 198.093 114.332C200.515 117.175 202.881 120.065 205.357 122.862C206.114 123.651 206.993 124.314 207.959 124.825C209.029 125.432 209.205 126.138 208.202 126.806C207.063 127.577 205.871 128.268 204.635 128.873C204.283 129.042 203.579 128.854 203.256 128.576C202.988 128.352 202.911 127.713 203.004 127.317C203.213 126.437 202.791 124.881 202.085 124.926C201.323 124.977 200.459 125.501 199.9 126.071C199.4 126.584 200.216 127.793 201.034 128.266C201.504 128.533 202.004 129.068 202.103 129.571C202.162 129.876 201.542 130.403 201.127 130.686C200.482 131.099 199.816 131.479 199.133 131.825ZM197.833 119.204L197.328 119.496C197.782 120.755 198.194 122.036 198.734 123.261C198.836 123.488 199.552 123.667 199.825 123.528C200.181 123.36 200.678 122.662 200.59 122.525C199.812 121.322 199.146 119.958 197.833 119.204Z" fill="#201F1F"/>
<path d="M67.0422 132.953C67.0903 136.293 67.0743 136.341 64.3042 135.456C63.6892 135.261 62.9672 134.654 62.7961 134.095C62.6891 133.764 63.5662 133.138 63.9672 132.619C64.9352 131.378 65.9593 130.17 66.8256 128.86C68.5636 126.234 70.2107 123.547 71.906 120.892C72.0183 120.712 72.2509 120.421 72.3498 120.45C73.382 120.744 74.4595 120.985 75.3874 121.493C75.6949 121.662 75.743 122.579 75.6548 123.119C75.2269 126.103 74.6093 129.066 74.2964 132.06C74.12 133.715 73.4729 135.352 74.2028 137.141C74.6761 138.288 73.7055 138.962 72.4889 138.528C71.4399 138.19 70.4091 137.799 69.4006 137.355C68.9353 137.133 68.4032 136.67 68.2855 136.221C68.2053 135.908 68.7642 135.405 69.0877 135.026C69.3391 134.726 69.8204 134.531 69.9166 134.205C70.0904 133.619 70.3284 132.707 70.0396 132.408C69.78 132.162 69.4697 131.977 69.1306 131.865C68.7914 131.752 68.4318 131.716 68.077 131.758C67.577 131.86 67.2347 132.707 67.0422 132.953ZM72.2322 126.386L71.7696 125.301C71.4409 125.532 71.1403 125.802 70.8739 126.103C70.3231 126.905 69.8631 127.755 69.3204 128.558C68.8364 129.277 68.9861 129.812 69.7161 130.186C70.446 130.56 71.1065 130.488 71.3765 129.566C71.6707 128.541 71.9193 127.525 72.2322 126.386Z" fill="#201F1F"/>
<path d="M154.576 132.242C154.771 131.416 154.902 130.068 155.41 128.878C156.314 126.761 157.726 126.245 159.985 126.83C160.309 126.913 160.742 126.739 161.074 126.582C162.365 125.961 162.868 126.242 163.052 127.624C163.199 128.721 163.416 129.807 163.702 130.876C163.951 131.801 163.996 132.611 162.921 132.932C161.846 133.253 161.737 132.36 161.483 131.643C161.258 131.02 161.036 130.354 160.63 129.852C160.312 129.459 159.606 128.972 159.266 129.09C158.79 129.255 158.464 129.916 158.138 130.427C158.017 130.616 158.079 130.961 158.138 131.213C158.763 134.25 159.341 137.301 160.098 140.304C160.231 140.839 161.108 141.486 161.678 141.523C162.568 141.582 162.863 140.721 162.812 139.889C162.761 139.058 162.643 138.213 162.544 137.373C162.445 136.534 162.654 135.828 163.614 135.683C164.683 135.526 164.892 136.293 164.951 137.095C165.067 138.287 165.116 139.484 165.098 140.681C165.018 142.7 163.598 143.606 161.889 144.098C161.14 144.341 160.332 144.343 159.582 144.103C158.831 143.863 158.174 143.394 157.705 142.761C155.376 139.844 154.969 136.309 154.576 132.242Z" fill="#201F1F"/>
<path d="M102.768 136.028C102.768 137.809 102.715 139.593 102.795 141.376C102.824 142.05 103.212 142.713 103.33 143.382C103.412 143.849 103.493 144.481 103.252 144.796C103.081 144.975 102.872 145.113 102.641 145.201C102.41 145.29 102.162 145.326 101.915 145.307C100.731 145.132 99.562 144.868 98.4176 144.518C98.0139 144.4 97.4122 144.039 97.3882 143.748C97.3534 143.309 97.7171 142.817 97.9631 142.379C98.2305 141.876 98.7652 141.43 98.8428 140.911C98.9043 140.467 98.5754 139.678 98.2331 139.534C97.6689 139.304 96.6876 139.221 96.3427 139.553C95.9256 139.959 95.9202 140.852 95.8587 141.547C95.8053 142.162 96.1742 142.991 95.8881 143.363C95.602 143.734 94.733 143.63 94.118 143.63C93.5837 143.625 93.0524 143.549 92.5378 143.406C91.4281 143.111 91.0752 141.954 92.003 141.307C93.6421 140.154 93.9603 138.296 94.725 136.689C96.0405 133.929 97.2385 131.116 98.447 128.306C98.8294 127.413 99.423 127.095 100.343 127.304C101.332 127.531 102.527 127.571 102.562 128.964C102.624 131.32 102.581 133.675 102.581 136.031L102.768 136.028ZM100.281 134.269H100.362C100.4 133.645 100.393 133.02 100.34 132.397C100.268 131.921 99.9979 131.475 99.8054 131.015C99.3695 131.33 98.7626 131.55 98.5299 131.98C97.8132 133.297 97.1878 134.661 96.6582 136.063C96.5058 136.462 96.7197 137.4 96.9417 137.47C97.8191 137.732 98.7412 137.81 99.6503 137.7C99.9177 137.657 100.153 136.694 100.249 136.127C100.311 135.507 100.322 134.883 100.281 134.261V134.269Z" fill="#201F1F"/>
<path d="M144.57 139.505C143.573 139.521 142.53 138.473 142.52 137.435C142.52 136.448 143.589 135.347 144.568 135.365C145.431 135.382 146.488 136.523 146.49 137.443C146.493 138.363 145.45 139.505 144.57 139.505Z" fill="#201F1F"/>
<path d="M65.703 90.5725C64.6789 90.5725 63.6414 90.666 62.6334 90.5323C62.0986 90.4628 61.4087 90.1045 61.2028 89.6767C61.0344 89.3184 61.3125 88.4173 61.6654 88.1981C62.9222 87.4226 62.9115 86.3076 62.9008 85.0669C62.8669 80.7887 62.8669 76.5105 62.9008 72.2323C62.9008 71.2617 62.6976 70.5611 61.8312 69.9649C61.4248 69.6841 61.1868 68.9408 61.1734 68.398C61.1734 68.1065 61.7884 67.5397 62.1334 67.537C65.1816 67.4915 68.2565 67.0022 71.254 68.0985C73.4171 68.8846 74.5509 70.6173 75.0589 72.5987C76.1418 76.8448 75.9867 81.1765 75.0803 85.4493C74.5214 88.0938 71.9973 90.2195 69.294 90.4388C68.0988 90.5377 66.8875 90.4548 65.6869 90.4548L65.703 90.5725ZM67.3608 79.04C67.3608 81.3075 67.3448 83.5722 67.3608 85.8397C67.3608 86.5911 67.0586 87.7863 68.1095 87.7943C68.925 87.7943 69.794 87.0349 70.532 86.4574C70.7994 86.2488 70.8636 85.6365 70.8663 85.2087C70.8912 81.082 70.8912 76.9571 70.8663 72.8339C70.8663 72.4008 70.8422 71.7831 70.5748 71.5719C69.8154 70.9756 68.9304 70.1627 68.0828 70.1467C67.0132 70.128 67.3715 71.358 67.3581 72.096C67.3394 74.4142 67.3742 76.7244 67.3742 79.0347L67.3608 79.04Z" fill="#201F1F"/>
<path d="M115.015 77.2512C115.015 80.1924 115.031 83.1337 115.015 86.075C115.015 87.0082 115.119 87.7889 115.991 88.3932C116.325 88.6232 116.595 89.3772 116.464 89.7302C116.343 89.9534 116.169 90.1434 115.957 90.2833C115.746 90.4233 115.503 90.5088 115.25 90.5323C113.817 90.4708 112.394 90.2168 110.972 90.0644C110.683 90.0214 110.388 90.0681 110.127 90.1981C107.186 92.0885 104.29 90.166 103.795 87.2755C103.136 83.4974 103.136 79.6336 103.795 75.8554C104.354 72.6815 107.212 71.3847 110.009 73.0585C110.579 73.4008 111.049 73.3259 110.958 72.5986C110.777 71.1842 111.405 69.5959 109.785 68.4675C108.929 67.8685 109.549 66.5824 110.691 66.5022C111.761 66.4273 112.83 66.4781 113.9 66.5022C114.969 66.5262 115.074 67.2509 115.074 68.0717C115.074 71.1431 115.074 74.2145 115.074 77.2859L115.015 77.2512ZM110.972 81.6337H110.769C110.769 80.1657 110.787 78.6924 110.769 77.2271C110.75 76.2592 110.255 75.5827 109.277 75.4677C108.247 75.3474 107.9 76.1576 107.688 76.9517C107.481 77.633 107.374 78.3411 107.373 79.0534C107.474 81.5748 107.587 84.1016 107.878 86.6071C107.934 87.0857 108.822 87.4681 109.327 87.8932C109.801 87.3183 110.571 86.7996 110.686 86.1605C110.958 84.6899 110.894 83.1471 110.972 81.6337Z" fill="#201F1F"/>
<path d="M152.669 84.7539C152.536 82.4998 153.6 80.7912 155.29 79.4864C156.226 78.7644 156.065 78.2992 155.354 77.5906C152.902 75.1413 152.648 71.6252 154.691 69.0342C157.295 65.7426 162.996 66.4191 164.755 70.2267C165.632 72.1278 164.841 75.2082 163.135 76.5237C161.983 77.4114 161.983 77.5612 163.135 78.4355C167.33 81.6121 166.985 88.0936 162.271 90.3076C157.605 92.5082 152.504 89.5776 152.669 84.7539ZM156.1 84.9732C156.077 85.2829 156.077 85.5939 156.1 85.9037C156.285 87.2139 157.437 88.3717 158.589 88.4652C160.1 88.5829 161.263 87.9144 161.67 86.6951C162.344 84.671 161.135 81.6148 159.223 80.7591C158.835 80.5853 158.052 80.7591 157.728 81.0666C156.648 82.1068 155.998 83.4063 156.097 84.9732H156.1ZM162.028 72.3311C161.801 71.0102 161.517 69.9994 160.196 69.609C159.039 69.2695 158.092 69.5021 157.426 70.5743C156.48 72.1011 157.835 75.291 159.608 75.5798C159.958 75.636 160.555 75.4247 160.715 75.1493C161.2 74.2327 161.638 73.292 162.028 72.3311Z" fill="#201F1F"/>
<path d="M185.406 75.6122C185.728 75.5303 186.037 75.4052 186.325 75.2405C188.612 73.3875 192.505 74.9517 193.767 77.647C195.521 81.3717 195.326 85.1071 192.983 88.5457C191.435 90.8159 189.106 91.3587 186.494 90.8747C183.932 90.4014 182.617 88.7062 182.095 86.289C181.678 84.3477 183.087 82.3103 184.809 82.2782C186.074 82.2541 186.874 82.8691 187.079 84.083C187.269 85.2141 187.045 86.2221 185.689 86.5698C184.665 86.8371 184.887 87.3345 185.502 87.8559C187.039 89.1928 189.497 88.6046 190.173 86.3799C190.946 83.8477 191.227 81.1204 189.756 78.6257C189.549 78.2841 189.262 77.9979 188.92 77.7919C188.578 77.5859 188.191 77.4661 187.792 77.443C187.394 77.4198 186.995 77.4939 186.632 77.659C186.268 77.824 185.95 78.075 185.705 78.3903C185.438 78.7326 185.296 79.2059 184.983 79.4947C184.542 79.8459 184.071 80.159 183.577 80.4305C183.275 79.9465 182.716 79.4626 182.713 78.9759C182.713 77.3315 182.887 75.6871 183.002 74.0453C183.135 72.1736 183.315 70.3259 183.398 68.4649C183.446 67.3713 183.865 67.0157 184.983 67.0932C187.39 67.2536 189.777 67.2483 192.173 67.3472C192.673 67.4107 193.165 67.5171 193.647 67.6654C193.535 68.1447 193.38 68.6128 193.184 69.0639C191.884 71.4703 189.51 71.0907 187.398 71.0933C185.545 71.0933 185.448 71.0158 185.293 72.8715C185.229 73.6228 185.189 74.3769 185.16 75.1282C185.157 75.2352 185.272 75.3528 185.406 75.6122Z" fill="#201F1F"/>
<path d="M90.134 86.7917C90.134 86.1687 90.15 85.543 90.134 84.92C90.1073 84.0751 90.3131 83.3718 91.2864 83.2809C92.2009 83.1953 92.5886 83.8157 92.8908 84.5831C93.3079 85.6526 93.6448 86.8372 94.3801 87.634C94.8988 88.1928 96.0326 88.3773 96.8802 88.3559C97.3053 88.3426 98.0754 87.4575 98.038 87.019C97.9658 86.2168 97.6075 85.2248 97.0166 84.7676C95.5539 83.6365 93.856 82.813 92.3132 81.7782C88.8372 79.4439 89.3933 74.9037 92.4576 72.7966C93.6475 71.9784 96.0513 71.9945 97.2706 72.9089C97.9364 73.4116 98.4016 73.5453 99.0995 72.8849C99.8696 72.1576 100.83 72.5266 100.923 73.5961C101.043 75.0598 101.043 76.531 100.923 77.9947C100.894 78.3717 100.308 78.9385 99.9231 78.9893C99.538 79.0401 98.8856 78.6819 98.645 78.3129C98.2145 77.6551 98.0513 76.8289 97.6877 76.1203C97.2144 75.2031 96.4791 74.4438 95.3882 74.6202C94.7346 74.7663 94.1571 75.1468 93.7651 75.6898C93.2303 76.4919 93.7919 77.7273 94.8347 78.3637C96.0139 79.0669 97.2224 79.722 98.4203 80.3958C100.923 81.8023 102.608 84.6927 101.322 87.8292C100.217 90.5031 96.3267 91.8748 93.9256 90.1795C93.241 89.6982 92.7811 89.5726 92.0672 90.1662C91.2089 90.8854 90.3426 90.479 90.1955 89.3132C90.0832 88.4843 90.1741 87.626 90.1741 86.781L90.134 86.7917Z" fill="#201F1F"/>
<path d="M117.475 81.8528C117.878 79.7806 118.17 77.7671 118.681 75.8099C119.279 73.5317 121.258 72.2295 123.689 72.2857C124.76 72.2966 125.795 72.674 126.622 73.3551C127.449 74.0361 128.018 74.9798 128.234 76.0291C128.536 77.4613 128.741 78.912 128.849 80.3715C128.943 81.441 128.352 82.0186 127.245 82.0133C125.999 82.0133 124.748 82.1015 123.502 82.0133C122.453 81.9464 121.919 82.3769 122.023 83.3662C122.138 84.7173 122.379 86.0546 122.742 87.361C122.868 87.7755 123.734 88.2862 124.165 88.2086C124.468 88.12 124.749 87.9675 124.989 87.7613C125.229 87.5552 125.422 87.3002 125.555 87.0134C125.852 86.3048 125.822 85.4492 125.871 84.6524C125.921 83.5481 126.603 83.3395 127.504 83.3796C128.405 83.4197 128.972 83.893 128.796 84.8289C128.558 86.0909 128.387 87.4252 127.836 88.5536C126.945 90.3745 125.285 90.9601 123.264 90.8611C121.087 90.7462 119.378 89.952 118.731 87.8209C118.146 85.9091 117.886 83.8876 117.475 81.8528ZM124.916 77.6067C124.868 77.0719 124.943 76.4917 124.74 76.0318C124.536 75.5719 123.937 74.7537 123.694 74.8179C123.122 74.9783 122.403 75.4542 122.218 75.973C121.963 76.8246 121.898 77.7219 122.028 78.6014C122.068 78.957 122.627 79.4757 123.012 79.5399C124.643 79.81 124.927 79.4704 124.916 77.6067Z" fill="#201F1F"/>
<path d="M77.168 81.3207C77.684 79.1816 78.037 77.0023 78.7723 74.9488C79.3766 73.2509 80.8499 72.422 82.727 72.2749C84.6575 72.1305 86.0533 72.8525 87.1683 74.3846C88.6737 76.4488 88.2753 78.8045 88.2378 81.088C88.2378 81.4062 87.4918 81.9437 87.056 81.9811C85.7206 82.0656 84.3817 82.0763 83.0452 82.0132C82.1708 81.9945 81.6494 82.2993 81.7376 83.2432C81.8526 84.4785 81.8686 85.7459 82.1895 86.9278C82.3366 87.4786 83.0318 88.0615 83.6067 88.2647C84.4463 88.5642 84.9035 87.8316 85.1147 87.1203C85.3522 86.3181 85.5195 85.4968 85.6147 84.6657C85.7164 83.7352 86.1709 83.2993 87.0881 83.3287C88.0052 83.3581 88.3849 83.8635 88.2833 84.7272C88.1469 85.8636 88.187 87.1123 87.7164 88.1043C86.5105 90.6525 84.6281 91.3263 81.4381 90.6739C79.6306 90.3049 78.0129 88.2674 77.807 86.0507C77.6626 84.4999 77.5396 82.949 77.4113 81.3982L77.168 81.3207ZM84.7778 77.6414C84.6174 76.9542 84.5666 76.2135 84.2591 75.6039C84.0612 75.2162 83.4756 74.8017 83.0772 74.8017C82.6788 74.8017 82.1494 75.3365 82.0344 75.7162C81.7674 76.6518 81.6218 77.6179 81.6013 78.5906C81.6413 78.7936 81.733 78.9829 81.8674 79.1403C82.0018 79.2976 82.1744 79.4177 82.3687 79.489C84.3634 79.7564 85.0212 79.5292 84.7778 77.6414Z" fill="#201F1F"/>
<path d="M176.853 71.4034C175.133 71.2189 173.497 70.898 171.871 70.9542C171.336 70.9729 170.802 71.9462 170.385 72.5585C170.195 72.8473 170.443 73.4088 170.27 73.7243C170.024 74.1682 169.58 74.7939 169.2 74.7939C168.82 74.7939 168.064 74.2137 168.04 73.8473C167.917 72.0271 167.903 70.2012 167.997 68.3792C168.004 68.1864 168.065 67.9994 168.174 67.8399C168.283 67.6804 168.434 67.5549 168.611 67.4778C168.788 67.4006 168.983 67.3751 169.174 67.404C169.365 67.4329 169.543 67.5152 169.689 67.6413C170.369 68.2161 170.727 68.0156 171.382 67.6118C173.074 66.569 174.831 67.0316 176.462 67.807C177.363 68.2322 178.067 68.6359 178.944 67.6814C179.211 67.3926 179.978 67.5637 180.516 67.5236C180.532 68.0423 180.716 68.6306 180.537 69.0718C179.115 72.5478 177.329 75.9116 176.259 79.4999C175.436 82.2594 175.366 85.2755 175.19 88.19C175.05 90.4976 175.19 90.519 172.925 90.5136C172.569 90.5136 172.139 90.666 171.874 90.5136C171.406 90.2462 170.695 89.8131 170.695 89.4441C170.695 87.9012 170.732 86.313 171.093 84.8263C172.163 80.4064 174.067 76.3233 176.441 72.4516C176.611 72.1162 176.749 71.7652 176.853 71.4034Z" fill="#201F1F"/>
<path d="M146.624 77.604C146.624 80.4544 146.64 83.3047 146.624 86.1604C146.624 87.1845 146.83 87.9653 147.94 88.3583C148.134 88.4703 148.297 88.6294 148.414 88.821C148.531 89.0126 148.598 89.2305 148.608 89.4546C148.563 89.8263 148.073 90.4146 147.731 90.4333C145.648 90.5402 143.554 90.559 141.466 90.4894C141.18 90.4894 140.701 89.8317 140.693 89.4707C140.693 89.0509 141.044 88.2995 141.33 88.2541C142.667 88.0455 142.776 87.1845 142.771 86.115C142.755 81.794 142.755 77.4739 142.771 73.1547C142.771 72.3873 142.661 71.8926 141.723 71.8177C141.338 71.783 140.677 71.2455 140.701 70.9835C140.741 70.5156 141.161 69.7321 141.504 69.6973C142.988 69.5289 143.942 68.8069 144.635 67.5288C144.768 67.369 144.94 67.245 145.134 67.168C145.327 67.091 145.537 67.0634 145.744 67.0876C146.076 67.1732 146.394 67.6385 146.546 68.0075C146.699 68.3764 146.64 68.7936 146.643 69.1947C146.643 72.0004 146.643 74.8062 146.643 77.612L146.624 77.604Z" fill="#201F1F"/>
<path d="M232.068 91.8026H229.127C229.285 91.2517 229.41 90.7999 229.547 90.3132L232.095 91.5726L232.068 91.8026Z" fill="#201F1F"/>
<path d="M99.1655 133.405C99.1655 134.376 99.2056 135.352 99.1387 136.317C99.1135 136.477 99.0523 136.629 98.9597 136.762C98.867 136.895 98.7454 137.005 98.6039 137.085C98.4413 137.136 98.2692 137.148 98.1008 137.122C97.9324 137.095 97.7725 137.031 97.6333 136.932C97.5414 136.798 97.4826 136.644 97.4617 136.483C97.4408 136.321 97.4583 136.157 97.513 136.004C97.8927 135.063 98.3633 134.157 98.7992 133.237L99.1655 133.405Z" fill="#201F1F"/>
</svg>
