<svg width="646" height="176" viewBox="0 0 646 176" fill="none" xmlns="http://www.w3.org/2000/svg">
<path fill-rule="evenodd" clip-rule="evenodd" d="M319.584 35.7903V54.8927H273.098V35.7903C273.098 22.9536 283.504 12.5473 296.341 12.5473C309.178 12.5473 319.584 22.9536 319.584 35.7903ZM261.477 35.7903C261.477 16.5352 277.086 0.925781 296.341 0.925781C315.596 0.925781 331.206 16.5352 331.206 35.7903V54.8927V64.2539H331.215V175.076H319.594V66.5142H319.584H273.098L273.098 175.076H261.477V66.5142V64.2539V54.8927V35.7903Z" fill="white" fill-opacity="0.3"/>
<path fill-rule="evenodd" clip-rule="evenodd" d="M185.926 12.5473H197.548C210.384 12.5473 220.791 22.9536 220.791 35.7904V54.8927H185.926V12.5473ZM174.305 0.925781H185.926H197.548C216.803 0.925781 232.412 16.5352 232.412 35.7904V54.8927V61.0137C239.469 66.3143 244.034 74.7535 244.034 84.2589V116.966C244.034 149.058 218.018 175.074 185.926 175.074H174.305V163.452V66.8266V66.5143V55.2051V54.8927V12.5473V0.925781ZM185.926 66.8266H214.98C224.608 66.8266 232.412 74.6313 232.412 84.2589V116.966C232.412 142.64 211.6 163.452 185.926 163.452V66.8266Z" fill="white" fill-opacity="0.3"/>
<mask id="path-3-inside-1_809_1169" fill="white">
<path d="M69.7266 0.927734H58.1051C26.0131 0.927734 -0.00251007 26.9434 -0.00251007 59.0354V116.969C-0.00251007 149.061 26.0131 175.077 58.1051 175.077H69.7266V0.927734Z"/>
</mask>
<path d="M69.7266 -10.6938H58.1051C19.5948 -10.6938 -11.624 20.525 -11.624 59.0354H11.619C11.619 33.3618 32.4316 12.5493 58.1051 12.5493H69.7266V-10.6938ZM-11.624 116.969C-11.624 155.479 19.5948 186.698 58.1051 186.698H69.7266V163.455H58.1051C32.4316 163.455 11.619 142.642 11.619 116.969H-11.624ZM69.7266 175.077V0.927734V175.077ZM58.1051 -10.6938C19.5948 -10.6938 -11.624 20.525 -11.624 59.0354V116.969C-11.624 155.479 19.5948 186.698 58.1051 186.698L58.1051 163.455C32.4316 163.455 11.619 142.642 11.619 116.969V59.0354C11.619 33.3618 32.4316 12.5493 58.1051 12.5493L58.1051 -10.6938Z" fill="white" fill-opacity="0.3" mask="url(#path-3-inside-1_809_1169)"/>
<path fill-rule="evenodd" clip-rule="evenodd" d="M87.1562 0.925781H98.7778L98.7778 89.1289V163.451H99.3587C124.711 163.451 145.264 142.899 145.264 117.546V89.131H145.25V0.925781H156.872V89.1289H156.885V117.546C156.885 149.317 131.13 175.072 99.3587 175.072H98.7778V175.075H87.1562V175.072V89.1289V0.925781Z" fill="white" fill-opacity="0.3"/>
<path d="M406.756 6.7385H412.567C441.45 6.7385 464.864 30.1526 464.864 59.0354V116.969C464.864 145.852 441.45 169.266 412.567 169.266H406.756V6.7385Z" stroke="white" stroke-opacity="0.3" stroke-width="11.6215"/>
<path fill-rule="evenodd" clip-rule="evenodd" d="M546.201 35.7903V54.8927H499.715V35.7903C499.715 22.9536 510.122 12.5473 522.958 12.5473C535.795 12.5473 546.201 22.9536 546.201 35.7903ZM488.094 35.7903C488.094 16.5352 503.703 0.925781 522.958 0.925781C542.213 0.925781 557.823 16.5352 557.823 35.7903V54.8927V64.2539H557.832V175.076H546.211V66.5142H546.201H499.715L499.715 175.076H488.094V66.5142V64.2539V54.8927V35.7903Z" fill="white" fill-opacity="0.3"/>
<path fill-rule="evenodd" clip-rule="evenodd" d="M633.381 0.925781H645.003V66.5137V66.5141V116.966C645.003 149.058 618.987 175.074 586.895 175.074H575.273V163.452H586.895C612.568 163.452 633.381 142.64 633.381 116.966V66.5141H632.8C601.029 66.5141 575.273 40.7585 575.273 8.98749V8.98748V0.925781H586.895V8.98749C586.895 34.3401 607.447 54.8925 632.8 54.8925H633.381V0.925781Z" fill="white" fill-opacity="0.3"/>
</svg>
