<svg width="188" height="163" viewBox="0 0 188 163" fill="none" xmlns="http://www.w3.org/2000/svg">
<path d="M41.9507 97.1378L47.7778 88.5003C46.3495 88.5003 45.1466 88.4729 43.9479 88.5256C43.8103 88.5583 43.683 88.6245 43.5772 88.7182C43.4714 88.8119 43.3903 88.9303 43.3411 89.0628C42.7555 92.0712 40.6909 93.5711 37.9522 94.3422C37.276 94.5318 36.9958 94.8225 37.1095 95.4987C37.257 96.4531 37.4297 97.3948 37.5309 98.3639C37.5406 98.7263 37.4686 99.0864 37.3202 99.4172C37.2865 99.5057 36.8041 99.552 36.7746 99.4909C36.6156 99.2025 36.516 98.8852 36.4817 98.5577C36.3659 96.9734 36.2879 95.385 36.1847 93.6259C35.9136 93.7299 35.6514 93.856 35.401 94.003C32.9404 96.0065 29.1904 96.3688 26.3949 94.9089C24.6189 93.9819 23.9321 92.2924 23.3107 90.5691C23.2433 90.3816 23.5888 90.0445 23.732 89.7749C24.0227 89.9518 24.5747 90.1794 24.562 90.2973C24.2924 91.7531 24.9834 92.7137 26.0852 93.4784C27.4925 94.4623 29.102 94.9278 30.7684 94.6856C32.0026 94.4964 33.1942 94.0922 34.2887 93.4911C35.3568 92.9033 36.0478 91.9258 35.6875 90.5017C35.5253 89.8697 35.5822 89.1745 35.5969 88.5108C35.6117 87.8472 35.302 87.6092 34.6952 87.7124C34.0064 87.8304 33.3196 88.1337 32.6391 88.1C30.5135 88.02 28.3899 87.8367 26.2685 87.6787C25.7228 87.6345 25.2783 87.468 24.779 88.0368C24.0901 88.829 23.7383 88.0684 23.4792 87.527C22.5796 87.5692 21.7159 87.6724 20.8606 87.6324C20.1717 87.5986 19.4638 87.3206 19.5186 86.4695C19.5734 85.6183 20.2665 85.4435 20.9933 85.5172C21.7875 85.5994 22.5775 85.7279 23.3907 85.8438C24.2039 84.5692 24.3977 84.5629 25.1245 85.8964C28.5188 85.0435 32.0885 85.2039 35.3926 86.3578C35.4642 85.1949 35.4516 84.2848 35.5927 83.4084C35.8034 82.0643 36.2247 80.7519 36.3806 79.4057C36.5302 78.1649 36.4754 76.8966 36.4944 75.6431C36.4944 75.4746 36.3385 75.2892 36.3764 75.1417C36.467 74.7867 36.6089 74.4467 36.7977 74.1326C36.842 74.0568 37.3012 74.0947 37.3286 74.1706C37.4721 74.5128 37.5521 74.8783 37.5646 75.2492C37.5646 76.391 37.4508 77.535 37.4929 78.6726C37.4929 78.9148 37.9375 79.2393 38.2429 79.3551C40.4845 80.1978 42.2035 81.5882 43.0272 83.9098C43.2379 84.4934 43.1958 85.4203 43.5729 85.6247C44.1543 85.9344 44.9991 85.7532 45.7322 85.7869C46.6423 85.829 47.5524 85.8501 48.4604 85.9301C49.2357 85.9997 49.7244 85.7405 50.1837 85.0622C54.0516 79.294 57.9637 73.5554 61.8611 67.8083C67.6292 59.3015 73.396 50.7954 79.1613 42.2899C80.7729 39.9115 80.7582 39.9157 79.0981 37.6784C74.6796 31.7291 70.2668 25.7769 65.8596 19.822C65.6616 19.5545 65.472 19.2806 65.2782 19.0109L65.5541 18.8003C70.764 25.5185 75.9739 32.2368 81.2701 39.0625C81.9295 38.1144 82.5341 37.2697 83.1177 36.408C85.4161 33.0099 87.6955 29.5971 90.0213 26.2158C90.3647 25.7165 90.3837 25.4111 90.0045 24.9518C89.0796 23.81 88.2095 22.6345 87.2657 21.3704C84.0699 23.1274 81.2469 22.1878 78.464 20.0053C77.5686 20.9217 76.7175 21.8276 75.8243 22.6871C75.5437 22.9252 75.2155 23.1005 74.8615 23.2011C74.7794 23.2306 74.4402 22.8683 74.4718 22.8093C74.6211 22.4811 74.8288 22.1827 75.0848 21.9287C76.2625 20.8585 77.4675 19.822 78.603 18.8234C77.1873 18.0566 75.7948 17.5362 74.6909 16.6535C72.7822 15.1262 71.514 13.0722 71.7857 10.5441C71.929 9.22112 72.7211 7.95709 73.3005 6.70361C73.37 6.54982 73.943 6.62777 74.2843 6.59828C74.2674 6.95009 74.3833 7.52312 74.2169 7.62002C71.8995 8.97252 72.4936 11.0055 73.1993 12.8025C74.1642 15.2589 75.9149 17.0686 78.7378 17.3635C79.3168 17.3949 79.8893 17.2293 80.3621 16.8937C81.2617 16.2364 82.0475 15.419 82.9744 14.5953C82.6963 14.2351 82.4941 13.7905 82.1486 13.5419C79.9197 12.0041 78.7147 9.70144 77.4886 7.41146C77.1831 6.84265 76.9998 6.2907 76.1003 6.23382C75.108 6.17272 75.5989 5.41853 75.8116 4.93609C75.2428 4.28302 74.6403 3.69736 74.1684 3.019C73.7471 2.42491 73.5048 1.67493 74.2548 1.14615C75.0722 0.571018 75.5652 1.24516 75.9591 1.82029C76.3805 2.4523 76.7175 3.14962 77.122 3.87432C77.3409 3.82089 77.5634 3.78357 77.7877 3.76266C78.3671 3.7437 78.7673 4.00072 78.3902 4.57374C77.931 5.26474 78.4745 5.48594 78.8116 5.86304C80.0756 7.31245 81.3396 8.74289 82.5299 10.2471C82.9512 10.7822 83.124 11.5111 83.4252 12.1431C83.6359 12.6003 83.8845 13.0448 84.0573 13.3882L91.5424 9.24007C90.8071 8.81874 90.2257 8.53854 89.7011 8.17198C89.4128 7.94355 89.1765 7.65627 89.008 7.3293C88.968 7.25978 89.2418 6.87004 89.343 6.88268C89.7092 6.92606 90.0654 7.0315 90.3963 7.19447C90.5627 7.27663 90.6323 7.53365 90.7734 7.68744C91.8689 8.8714 92.2881 8.8377 93.4004 7.66005C93.6427 7.40093 94.1188 7.33141 94.5023 7.25557C94.5992 7.23661 94.8941 7.61581 94.8688 7.65373C94.6536 7.98518 94.395 8.28631 94.0999 8.54908C93.7788 8.77544 93.4391 8.97418 93.0844 9.14317L99.9586 12.7245C100.188 12.386 100.379 12.0228 100.527 11.6417C101.294 9.11367 102.845 7.11231 104.684 5.29844C105.177 4.81601 105.885 4.45577 105.316 3.57938C105.27 3.50986 105.621 3.06113 105.864 2.94737C106.106 2.83361 106.39 3.00215 106.618 3.03585C107.054 2.21635 107.431 1.43055 107.882 0.688993C108.223 0.128612 108.834 -0.2527 109.371 0.20024C109.685 0.463577 109.86 1.27676 109.687 1.65597C109.304 2.486 108.661 3.19807 108.044 4.07656C108.632 4.87921 108.356 5.38482 107.155 5.51333C106.913 5.53861 106.645 5.93467 106.51 6.23382C105.335 8.71551 104.128 11.1656 101.842 12.872C101.547 13.0827 101.379 13.4766 101.086 13.8727C102.12 14.7428 103.06 15.7055 104.17 16.3839C104.671 16.6894 105.546 16.5587 106.199 16.4071C109.386 15.6676 111.906 11.4353 111.044 8.25625C110.911 7.76117 110.372 7.37986 110.039 6.93113C109.797 6.63834 109.597 6.31368 109.443 5.96627C109.403 5.86304 109.782 5.45645 109.847 5.48383C110.201 5.6313 110.637 5.79352 110.829 6.09056C113.568 10.3461 111.659 15.6297 106.826 17.3087C106.5 17.4225 106.171 17.5194 105.678 17.6921C106.639 18.9161 107.545 20.0095 108.813 20.7953C109.211 21.0418 109.5 21.4737 109.81 21.8487C109.717 21.9966 109.599 22.1265 109.46 22.2321C109.043 21.9795 108.645 21.6979 108.267 21.3894C107.412 20.6815 106.582 19.9526 105.714 19.2153C103.074 21.4294 100.302 22.3922 97.0155 20.7827C95.9622 22.2574 94.9088 23.6941 93.9103 25.1625C93.8599 25.2763 93.8375 25.4005 93.8448 25.5247C93.8522 25.6489 93.889 25.7696 93.9524 25.8767C96.9383 30.0353 99.9375 34.1841 102.95 38.323C103.055 38.4266 103.171 38.5191 103.296 38.599L118.607 17.5994L118.891 17.8101L103.755 39.5365C106.361 43.1516 108.939 46.7372 111.524 50.3164C119.696 61.6336 127.867 72.9501 136.04 84.2658C137.78 86.6801 137.755 86.678 140.759 86.6907C146.338 86.7117 151.924 86.7581 157.497 86.7981C157.771 86.7981 158.047 86.8318 158.32 86.8508C158.32 86.9687 158.32 87.0846 158.32 87.2026H138.545C138.517 87.3248 138.492 87.4491 138.465 87.5713L144.532 96.0444L144.288 96.2382C143.536 95.286 142.767 94.3422 142.031 93.3773C140.694 91.6203 139.392 89.8339 138.029 88.0958C137.784 87.7861 137.31 87.4638 136.946 87.4638C131.085 87.4975 125.226 87.5818 119.365 87.6576C119.306 87.6576 119.248 87.7103 119.033 87.8135C120.027 89.0986 121.002 90.3542 121.982 91.6056C124.28 94.5739 126.591 97.5317 128.867 100.517C129.252 101.02 129.636 101.172 130.27 101.162C134.411 101.107 138.553 101.096 142.699 101.109C143.437 101.109 143.765 100.97 143.938 100.14C144.486 97.5085 146.304 95.9643 148.783 95.2291C149.932 94.8878 150.574 94.496 150.218 93.1793C150.025 92.409 149.902 91.6228 149.851 90.8303C149.846 90.4617 149.924 90.0967 150.079 89.7622C150.115 89.6716 150.597 89.6358 150.616 89.6822C150.767 90.0162 150.865 90.3715 150.907 90.7355C151.042 92.3513 151.145 93.9714 151.265 95.6841C152.542 95.0247 153.528 94.3632 154.615 93.9861C155.71 93.595 156.873 93.434 158.033 93.513C159.193 93.592 160.324 93.9094 161.356 94.4454C163.187 95.3534 163.907 97.0746 164.501 98.8568C164.573 99.0675 164.194 99.432 164.023 99.7248C163.732 99.4952 163.181 99.2318 163.195 99.0401C163.309 98.0816 163.315 97.1546 162.428 96.6027C161.316 95.9117 160.178 95.1111 158.94 94.8035C156.667 94.2411 154.467 94.6498 152.647 96.293C152.002 96.8744 151.552 97.5317 151.71 98.4987C151.843 99.2592 151.885 100.033 151.834 100.803C151.754 101.857 152.314 102.095 153.098 101.857C156.035 100.938 158.931 101.469 161.841 101.958C162.167 102.007 162.5 101.932 162.774 101.747C163.76 100.966 163.827 100.961 164.329 101.958C165.331 101.958 166.269 101.895 167.192 101.979C167.885 102.042 168.492 102.354 168.416 103.243C168.34 104.132 167.668 104.155 167.025 104.105C166.162 104.037 165.3 103.894 164.354 103.786C164.284 103.98 164.2 104.169 164.103 104.351C163.76 104.926 163.273 105.023 163.029 104.37C162.784 103.717 162.376 103.738 161.881 103.856C159.012 104.593 155.991 104.484 153.182 103.542C152.843 103.428 152.449 103.477 152.074 103.452C151.933 105.097 151.893 106.641 151.653 108.152C151.366 109.898 150.58 111.567 150.863 113.401C150.966 113.877 151.025 114.361 151.038 114.847C150.999 115.213 150.876 115.565 150.677 115.875C150.625 115.967 150.163 115.974 150.134 115.908C149.962 115.59 149.862 115.239 149.839 114.878C149.858 113.76 149.993 112.643 149.978 111.529C149.96 111.342 149.898 111.162 149.797 111.003C149.696 110.845 149.56 110.712 149.399 110.616C147.566 109.9 145.935 108.931 144.736 107.086C144.104 107.68 143.548 108.179 143.028 108.718C141.718 110.071 140.458 111.474 139.116 112.791C138.484 113.412 138.385 113.776 139.133 114.24C141.543 115.734 143.135 117.901 144.374 120.391C144.519 120.684 144.84 121.152 145.006 121.125C146.531 120.88 146.161 121.714 145.864 122.42C146.542 123.139 147.233 123.745 147.747 124.476C147.958 124.778 147.958 125.622 147.76 125.74C147.389 125.951 146.635 126.037 146.365 125.801C145.651 125.169 145.101 124.346 144.414 123.495C143.635 123.766 143.173 123.512 143.361 122.372C143.403 122.111 143.041 121.74 142.807 121.481C141.364 119.827 139.857 118.217 138.469 116.521C137.957 115.889 137.681 115.085 137.256 114.278C136.08 115.051 134.999 115.645 134.074 116.422C133.68 116.755 133.487 117.459 133.415 118.021C132.994 121.247 136.308 125.117 139.562 125.184C140.11 125.197 140.666 124.784 141.222 124.582C141.578 124.428 141.951 124.319 142.333 124.257C142.438 124.257 142.727 124.748 142.682 124.801C142.432 125.092 142.141 125.45 141.795 125.544C136.853 126.922 132.526 123.648 132.423 118.5C132.423 118.224 132.376 117.952 132.324 117.335C130.948 118.219 129.737 118.993 128.532 119.776C128.416 119.85 128.353 120.023 128.233 120.067C127.928 120.185 127.61 120.269 127.287 120.316C127.236 120.316 127.049 119.991 127.093 119.907C127.223 119.602 127.426 119.333 127.683 119.123C128.553 118.561 129.494 118.102 130.341 117.507C130.565 117.352 130.716 116.793 130.617 116.521C129.667 113.897 129.501 111.392 131.397 109.062C131.559 108.851 131.54 108.312 131.38 108.078C130.485 106.78 129.545 105.508 128.563 104.275C128.295 103.98 127.929 103.791 127.533 103.744C126.629 103.65 125.711 103.66 124.794 103.654C118.094 103.602 111.391 103.553 104.686 103.506C96.8604 103.447 89.0347 103.384 81.209 103.317C74.2611 103.256 67.3132 103.186 60.3653 103.106C60.0719 103.079 59.7771 103.137 59.5157 103.273C59.2543 103.409 59.0374 103.617 58.8906 103.873C57.6709 105.708 56.3837 107.499 55.1365 109.289C57.4181 112.399 57.6119 113.846 56.2299 117.977C57.2832 118.531 58.3766 119.092 59.451 119.696C59.7286 119.872 59.9587 120.114 60.121 120.4C60.18 120.495 59.9756 120.901 59.9103 120.897C59.5781 120.89 59.2518 120.808 58.956 120.657C57.6435 119.833 56.3584 118.972 54.9153 118.021C54.849 118.237 54.8018 118.457 54.7742 118.681C54.9301 121.704 53.6576 124.053 51.3318 125.871C49.4021 127.379 47.2638 127.135 45.1297 126.402C44.9401 126.337 44.8959 125.848 44.7842 125.559C45.1192 125.477 45.6269 125.209 45.7659 125.349C47.9822 127.272 49.7413 125.795 51.3255 124.472C53.0235 123.056 53.9884 121.156 53.7398 118.809C53.6492 117.939 53.3184 117.299 52.5263 116.861C51.6689 116.389 50.8662 115.82 49.9035 115.207C49.6107 115.656 49.242 116.05 49.0608 116.509C48.1929 118.862 46.5201 120.604 44.7484 122.262C44.2407 122.738 43.8151 123.105 43.9415 123.916C44.108 124.995 43.2674 124.563 42.8123 124.548C42.332 125.302 41.957 126.061 41.4219 126.684C40.9521 127.232 40.2316 127.628 39.587 126.975C39.0308 126.41 39.4121 125.795 39.8419 125.29C40.3201 124.733 40.8278 124.202 41.4156 123.558C41.3798 123.48 41.1523 123.208 41.2049 123.002C41.2703 122.724 41.6115 122.254 41.7274 122.285C42.3952 122.458 42.6122 122.062 42.8208 121.59C43.9521 119.047 45.5047 116.837 47.8516 115.255C48.1486 115.045 48.3256 114.678 48.5341 114.413C47.2891 113.307 46.0883 112.291 44.9528 111.213C43.8994 110.21 42.9303 109.106 41.8749 108.109C41.5378 107.789 41.0048 107.688 40.6298 107.387C40.3311 107.123 40.0834 106.807 39.8988 106.454C39.8567 106.382 40.1305 105.999 40.1916 106.015C40.5506 106.086 40.8929 106.224 41.2007 106.422C42.0961 107.083 42.9345 107.825 43.8467 108.457C44.0279 108.583 44.4998 108.457 44.7442 108.303C47.1795 106.749 49.6886 106.197 52.4041 107.581C52.5895 107.675 53.0151 107.64 53.1183 107.503C54.1717 106.119 55.1765 104.701 56.1962 103.289C56.1583 103.178 56.1224 103.066 56.0845 102.954H25.1582L25.1435 102.533C25.8387 102.482 26.5339 102.394 27.2291 102.388C35.1601 102.312 43.0911 102.242 51.0221 102.177C52.8086 102.16 54.6035 102.141 56.3837 102.057C56.7885 102.031 57.1669 101.847 57.437 101.545C60.5844 97.2852 63.696 92.9981 66.8118 88.7131C66.8666 88.6394 66.8582 88.5214 66.9193 88.2391C65.2002 88.2391 63.5359 88.2201 61.8737 88.2391C57.8394 88.2939 53.8051 88.3992 49.7708 88.4076C48.8881 88.4076 48.3719 88.6983 47.8874 89.3999C46.2189 91.8268 44.4914 94.2137 42.7829 96.6132C42.6101 96.8576 42.41 97.0851 42.2225 97.3189L41.9507 97.1378ZM126.286 101.364C126.19 101.153 126.084 100.948 125.966 100.749C122.861 96.5521 119.766 92.3514 116.623 88.1843C116.387 87.8704 115.807 87.6576 115.39 87.6618C111.36 87.6913 107.33 87.7946 103.3 87.843C97.0598 87.9203 90.819 87.9821 84.5776 88.0284C79.9808 88.0649 75.384 88.079 70.7872 88.0705C70.4933 88.0498 70.1995 88.1116 69.939 88.2489C69.6784 88.3863 69.4614 88.5938 69.3125 88.8479C66.4895 92.9476 63.6391 97.0261 60.8035 101.115C60.6365 101.398 60.486 101.69 60.3527 101.989H61.1785L78.4303 101.779C84.2153 101.709 89.9981 101.627 95.7831 101.568C103.78 101.488 111.778 101.418 119.776 101.357C121.881 101.351 123.975 101.368 126.286 101.368V101.364ZM136.634 86.6169L136.809 86.3452L102.52 41.2935C102.15 41.7359 101.93 41.9592 101.754 42.212C99.1623 45.9471 96.6153 49.7118 93.9587 53.4027C93.2909 54.3297 93.3667 54.8964 94.0409 55.7454C96.9081 59.3584 99.7016 63.0304 102.529 66.677C107.454 73.0322 112.378 79.3917 117.301 85.7553C117.494 86.0394 117.76 86.267 118.07 86.4151C118.38 86.5631 118.724 86.6262 119.066 86.598C121.415 86.5579 123.768 86.6106 126.12 86.6127C129.624 86.6183 133.129 86.6155 136.634 86.6043V86.6169ZM82.0496 41.561L50.3354 85.907C50.9674 85.9386 51.3087 85.9681 51.6457 85.9681C57.2222 85.9997 62.7986 86.0355 68.375 86.0376C68.5399 86.0202 68.6996 85.9696 68.8444 85.8889C68.9892 85.8082 69.1162 85.6989 69.2177 85.5678C71.1685 82.9239 73.0835 80.2547 75.0174 77.5982C78.2674 73.1348 81.5215 68.6721 84.7798 64.2101C86.9582 61.2144 89.1323 58.2187 91.2643 55.1913C91.4539 54.9217 91.4749 54.3023 91.3043 54.0516C88.8331 50.6219 86.3135 47.228 83.8002 43.8278C83.2672 43.1073 82.7047 42.4079 82.0496 41.561ZM71.2064 86.1176L114.994 86.4547L115.137 86.1197L92.484 55.6L71.2064 86.1176ZM92.2333 53.7188C92.7916 53.0867 93.1097 52.7939 93.3625 52.4547C96.0675 48.7259 98.7451 44.976 101.48 41.2682C101.867 40.7436 101.901 40.4845 101.501 39.9515C98.6251 36.2205 95.7979 32.4517 92.9496 28.6996C92.0627 27.5304 92.0585 27.5367 91.1674 28.7839C88.4876 32.5338 85.8269 36.2943 83.1029 40.0126C82.6394 40.6446 82.6373 41.0491 83.1029 41.639C85.9821 45.3299 88.8444 49.0328 91.6898 52.7476C91.8913 53.0595 92.0729 53.3839 92.2333 53.7188ZM133.864 107.018C137.275 105.512 139.131 105.512 141.81 107.185C142.594 107.675 143.028 107.408 143.637 106.999C144.3 106.553 144.347 106.043 144.075 105.383C143.97 105.161 143.912 104.919 143.904 104.673C143.934 103.9 143.519 103.778 142.851 103.778C140.472 103.778 138.094 103.728 135.713 103.709C134.338 103.696 132.96 103.709 131.34 103.709L133.864 107.018ZM92.0121 23.2707C92.8548 22.0551 93.5648 20.9533 94.3464 19.9C94.7677 19.3248 94.6813 18.9435 94.1757 18.4864C93.6466 18.0219 93.2172 17.455 92.9134 16.8199C92.6096 16.1848 92.4377 15.4946 92.4082 14.7912C92.3576 13.5588 92.562 12.3074 92.7432 11.0771C92.8316 10.4641 92.8 9.86155 92.1111 10.0364C91.6245 10.1628 90.9588 10.4999 91.1842 11.4921C91.4981 12.8615 91.7783 14.3636 91.5213 15.7055C91.2453 17.1402 90.331 18.4442 89.6084 20.0011C90.2551 20.8754 91.0768 21.994 92.0121 23.2707Z" fill="#201F1F"/>
<path d="M4.50346 162.323C3.47328 162.323 2.60743 162.376 1.73736 162.29C1.47402 162.264 1.10536 161.887 1.03162 161.605C0.181175 158.561 -0.147214 155.395 0.060427 152.241C0.182615 150.083 0.603955 147.943 0.903106 145.798C1.00212 145.105 1.3392 144.857 2.13764 144.745C3.86934 144.509 4.93532 145.063 5.74851 146.607C6.49006 148.017 7.50128 149.283 8.48721 150.743C9.55109 149.123 10.6129 147.686 11.4745 146.138C12.0897 145.032 12.8713 144.663 14.0805 144.741C15.9955 144.85 15.7427 144.461 16.1767 146.426C17.23 151.251 17.1184 156.092 16.1451 160.925C15.9344 161.978 15.4836 162.54 14.3122 162.347C13.7392 162.25 13.1388 162.33 12.4331 162.33C13.9731 158.028 14.0742 153.762 13.5264 149.454L13.2378 149.359L8.47246 155.974L3.73451 149.418L3.42061 149.481C2.87708 153.774 2.96135 158.021 4.50346 162.323Z" fill="#201F1F"/>
<path d="M55.2852 162.3H52.1504C52.0704 156.797 48.8282 153.216 44.9877 149.996L44.6843 150.121V162.253H41.5664V144.852C43.2707 144.755 44.9097 144.431 46.2812 145.882C47.8886 147.584 49.6119 149.175 51.2846 150.814C51.451 150.976 51.6217 151.136 51.9777 151.478V145.031C52.1778 144.903 52.2326 144.839 52.2937 144.833C55.2852 144.58 55.2852 144.58 55.2852 147.572V162.306V162.3Z" fill="#201F1F"/>
<path d="M119.252 154.769L125.514 162.353C124.039 162.353 122.804 162.389 121.57 162.325C121.298 162.311 120.995 161.978 120.792 161.723C119.528 160.13 118.264 158.531 117.057 156.905C116.636 156.332 116.259 156.307 115.572 156.519C114.097 156.977 113.531 157.817 113.756 159.353C113.891 160.276 113.781 161.234 113.781 162.26H110.699V144.838C111.257 144.812 111.803 144.768 112.347 144.766C114.592 144.766 116.838 144.766 119.088 144.766C119.263 144.766 119.44 144.766 119.613 144.766C122.655 145.044 124.018 147.231 122.619 149.946C121.766 151.602 120.502 153.026 119.252 154.769ZM113.79 154.019C116.135 152.911 117.946 151.567 118.981 149.384C119.402 148.491 118.981 147.833 117.984 147.766C116.791 147.699 115.596 147.693 114.403 147.749C114.192 147.749 113.811 148.074 113.807 148.255C113.773 150.1 113.79 151.942 113.79 154.019Z" fill="#201F1F"/>
<path d="M20.0665 154.019C20.0665 148.996 23.928 145.105 28.8872 145.112C33.9306 145.112 37.7206 149.034 37.7143 154.229C37.7143 158.902 33.6483 162.867 28.8851 162.867C27.7244 162.867 26.5752 162.638 25.5032 162.193C24.4312 161.748 23.4576 161.096 22.6383 160.274C21.819 159.452 21.17 158.476 20.7287 157.403C20.2873 156.329 20.0623 155.179 20.0665 154.019ZM28.9146 148.331C25.8156 148.331 23.1802 150.926 23.1907 153.983C23.1858 155.105 23.5132 156.203 24.1317 157.138C24.7502 158.074 25.6321 158.806 26.666 159.241C27.6999 159.676 28.8395 159.795 29.9411 159.583C31.0426 159.371 32.0566 158.838 32.8552 158.05C33.6538 157.262 34.2012 156.256 34.4282 155.157C34.6553 154.059 34.5518 152.917 34.1309 151.878C33.71 150.838 32.9905 149.946 32.0633 149.315C31.1361 148.683 30.0426 148.341 28.9209 148.331H28.9146Z" fill="#201F1F"/>
<path d="M187.778 154.033C187.778 158.868 183.852 162.837 179.059 162.852C173.984 162.867 170.152 158.914 170.16 153.677C170.16 149.015 174.142 145.114 178.888 145.107C183.949 145.103 187.781 148.95 187.778 154.033ZM179.053 148.33C175.871 148.33 173.297 150.831 173.303 153.924C173.307 155.43 173.908 156.873 174.975 157.936C176.041 159 177.485 159.597 178.991 159.597C182.046 159.597 184.595 157.069 184.639 153.985C184.682 150.947 182.103 148.33 179.053 148.33Z" fill="#201F1F"/>
<path d="M150.331 146.039L149.019 148.605C147.106 147.534 145.149 146.919 143.025 147.13C142.328 147.189 141.646 147.364 141.007 147.648C139.663 148.28 139.572 149.647 140.824 150.463C141.458 150.83 142.138 151.114 142.846 151.305C144.713 151.906 146.617 152.395 148.46 153.054C150.487 153.781 151.568 155.226 151.444 157.478C151.33 159.538 150.531 161.186 148.581 161.999C145.391 163.324 142.26 162.8 139.214 161.413C138.372 161.028 137.581 160.503 136.714 160.012L137.978 157.379C139.909 158.085 141.706 158.854 143.573 159.378C144.473 159.629 145.52 159.503 146.472 159.359C146.894 159.296 147.282 159.093 147.574 158.781C147.866 158.47 148.044 158.07 148.08 157.644C148.116 157.219 148.008 156.794 147.773 156.439C147.537 156.083 147.189 155.816 146.784 155.683C145.461 155.247 144.045 155.066 142.73 154.63C141.333 154.203 139.982 153.639 138.696 152.944C137.185 152.079 136.516 150.589 136.627 148.849C136.747 146.976 137.836 145.662 139.524 145.057C143.219 143.732 146.803 144.328 150.331 146.039Z" fill="#201F1F"/>
<path d="M79.8108 147.698C79.7686 148.12 79.7223 148.389 79.7202 148.661C79.7202 149.742 79.7202 150.823 79.7202 152.053H85.9181V154.985H79.8087V159.384H88.621V162.279H76.5391V144.846H88.5957V147.698H79.8108Z" fill="#201F1F"/>
<path d="M104.807 157.581L106.79 159.8C105.193 162.195 101.249 163.409 98.0658 162.526C94.3201 161.487 91.6762 158.287 91.4887 154.569C91.2928 150.623 93.49 147.054 96.9029 145.78C100.573 144.408 104.586 145.285 106.737 147.971C106.088 148.757 105.431 149.549 104.778 150.337C101.325 147.764 98.4576 147.691 96.2793 150.046C94.1726 152.315 94.1241 155.449 96.1613 157.754C98.3228 160.198 101.12 160.158 104.807 157.581Z" fill="#201F1F"/>
<path d="M154.025 147.589V144.85H167.239V147.734C165.962 147.734 164.673 147.8 163.396 147.713C162.429 147.648 162.225 148.004 162.235 148.908C162.279 152.944 162.252 156.983 162.25 161.019V162.258H159.029V154.229C159.029 152.614 159.029 151 159.029 149.384C159.029 147.446 159.153 147.751 157.423 147.73C156.37 147.718 155.317 147.713 154.263 147.699C154.209 147.699 154.145 147.644 154.025 147.589Z" fill="#201F1F"/>
<path d="M59.2422 147.762V144.861H72.409V147.699H67.4815V162.258H64.2667V147.762H59.2422Z" fill="#201F1F"/>
<path d="M132.453 144.831V162.247H129.293V144.831H132.453Z" fill="#201F1F"/>
<path d="M91.5821 95.1406C92.4733 95.739 92.962 96.5795 92.5028 97.5486C92.2415 98.0984 91.6116 98.7157 91.0513 98.8274C89.8378 99.0739 88.5632 99.0149 87.2402 99.0844V91.8711C88.4179 91.8711 89.5702 91.7784 90.6994 91.8921C92.2373 92.048 92.7682 93.4848 91.8286 94.7446C91.7486 94.8562 91.6854 94.9763 91.5821 95.1406ZM88.2388 95.7052C87.7585 98.0563 87.986 98.3323 90.1348 98.1869C90.205 98.1913 90.2753 98.1913 90.3455 98.1869C91.0344 98.0521 91.6748 97.8541 91.6559 96.9735C91.6369 96.0929 91.0597 95.7579 90.276 95.72C89.6082 95.68 88.9445 95.7052 88.2388 95.7052ZM88.2283 94.9574C88.9972 94.9068 89.7914 94.97 90.5035 94.7593C90.8722 94.6498 91.3041 94.0599 91.3209 93.6723C91.3357 93.3457 90.849 92.7959 90.4782 92.6863C88.5506 92.1133 87.9502 92.6316 88.0829 94.5824C88.1196 94.7116 88.1683 94.8371 88.2283 94.9574Z" fill="#201F1F"/>
<path d="M106.301 91.8711H107.165V99.333C106.575 98.9433 106.08 98.779 105.844 98.4356C104.892 97.0494 104.022 95.6084 103.105 94.1906C102.968 93.9799 102.808 93.7693 102.659 93.5712L102.391 93.6365C102.391 95.1934 102.391 96.7502 102.391 98.305C102.391 98.8654 102.284 99.2066 101.58 98.937V91.9154C102.305 91.652 102.741 91.8606 103.118 92.5305C103.929 93.961 104.833 95.3388 105.694 96.7439C105.804 96.9209 105.905 97.1063 105.996 97.2875L106.286 97.1315L106.301 91.8711Z" fill="#201F1F"/>
<path d="M93.5371 98.9223C94.3798 96.7102 95.1888 94.4982 96.0504 92.2946C96.1146 92.171 96.2069 92.0643 96.32 91.983C96.4331 91.9018 96.5638 91.8483 96.7014 91.8269C96.8405 91.8367 96.9751 91.8801 97.0936 91.9535C97.2122 92.0269 97.3111 92.1281 97.3818 92.2482C98.2245 94.4603 99.0293 96.6913 99.8382 98.9117C99.044 99.2699 98.8165 98.8254 98.6079 98.2292C98.431 97.7172 98.2414 96.9272 97.8874 96.824C97.117 96.5848 96.2921 96.5848 95.5216 96.824C95.1003 96.9736 94.9865 97.8626 94.6579 98.3703C94.4472 98.6884 94.108 98.9159 93.8152 99.1835L93.5371 98.9223ZM97.8053 96.055C97.4429 95.0544 97.129 94.1801 96.813 93.3058L96.5265 93.3543L95.5806 96.055H97.8053Z" fill="#201F1F"/>
<path d="M115.269 98.8902C114.487 99.2315 114.232 98.865 114.034 98.2877C113.857 97.7737 113.693 96.971 113.343 96.8594C112.579 96.6085 111.758 96.5945 110.986 96.8193C110.564 96.9605 110.43 97.8327 110.103 98.3341C109.863 98.6425 109.595 98.9281 109.303 99.1873L108.957 98.9281C109.8 96.6951 110.623 94.4577 111.498 92.2394C111.572 92.1199 111.676 92.0208 111.798 91.951C111.921 91.8811 112.058 91.8427 112.199 91.8391C112.337 91.8726 112.466 91.9371 112.575 92.0276C112.685 92.1181 112.772 92.2323 112.831 92.3616C113.655 94.5062 114.443 96.6677 115.269 98.8902ZM113.269 96.0546C112.882 95.0308 112.564 94.186 112.243 93.3412H111.957L110.99 96.0462L113.269 96.0546Z" fill="#201F1F"/>
<path d="M85.4455 98.9154C84.7102 99.185 84.4658 98.9154 84.2678 98.3403C83.7201 96.7645 82.7931 96.2336 81.2257 96.7897C80.8234 96.9288 80.6064 97.6935 80.3831 98.2033C80.1598 98.7131 80.065 99.2567 79.1738 98.9006C79.4287 98.2075 79.6836 97.5081 79.947 96.8108C80.5031 95.3361 81.0383 93.8614 81.6471 92.4078C81.7357 92.2611 81.8536 92.1342 81.9936 92.0352C82.1335 91.9362 82.2924 91.8673 82.4603 91.8327C82.6204 91.799 82.9722 92.1339 83.0607 92.3699C83.8718 94.5292 84.647 96.7034 85.4455 98.9154ZM82.4202 93.1473L82.1358 93.1199L81.0509 96.084H83.5326C83.2103 95.176 82.9469 94.4239 82.6752 93.676C82.5994 93.4955 82.5143 93.319 82.4202 93.1473Z" fill="#201F1F"/>
<path d="M71.7659 91.8586H72.6802V94.8354H76.6556C76.6556 93.9506 76.6324 93.15 76.6703 92.3684C76.6703 92.1852 76.881 92.0124 77.0074 91.8354C77.1296 92.0082 77.355 92.1788 77.3571 92.3537C77.3845 94.3845 77.3908 96.4154 77.3571 98.4463C77.3571 98.6338 77.0917 98.8191 76.9484 99.0045C76.8452 98.817 76.6577 98.6338 76.6514 98.4442C76.6198 97.5383 76.6387 96.6324 76.6387 95.6317H72.7245V98.8339C71.9998 99.2047 71.7596 98.9771 71.7617 98.3093C71.7702 96.1795 71.7659 94.0475 71.7659 91.8586Z" fill="#201F1F"/>
<path d="M121.173 81.7803C119.43 81.7803 117.749 80.0759 117.76 78.3358C117.772 76.2965 119.78 74.5564 121.862 74.4237C123.572 74.312 125.218 76.1975 125.26 78.1441C125.298 79.8737 123.151 81.7845 121.173 81.7803ZM124.453 77.8997C124.474 76.5683 123.267 75.2663 121.984 75.2347C120.558 75.201 118.474 77.0528 118.474 78.3527C118.474 79.5766 119.869 81.0471 121.069 81.0914C122.521 81.1482 124.43 79.347 124.453 77.8997Z" fill="#201F1F"/>
<path d="M102.463 60.1315C102.53 59.8424 102.623 59.5603 102.743 59.2888C102.873 59.1239 103.032 58.9845 103.213 58.878L107.812 55.2292C108.642 56.3163 109.47 57.3528 110.243 58.4272C110.698 59.0592 110.736 59.8513 110.182 60.3569C109.628 60.8626 108.842 61.1133 108.145 61.484L105.859 64.0479C105.204 63.6813 105.166 63.2874 105.751 62.8428C106.002 62.6532 106.228 62.4215 106.485 62.253C107.117 61.8127 107.218 61.1891 106.879 60.5929C106.481 59.9332 106.01 59.3211 105.473 58.7685C105.353 58.6379 104.877 58.6842 104.677 58.817C104.011 59.2551 103.396 59.7734 102.762 60.26L102.463 60.1315ZM108.124 60.4876C109.388 60.5234 110.049 59.4827 109.531 58.5536C109.28 58.1049 108.838 57.7636 108.581 57.317C108.044 56.39 107.595 56.3521 106.731 57.0726C105.867 57.7931 105.566 58.2397 106.548 59.0276C106.919 59.3268 107.15 59.7945 107.498 60.1315C107.686 60.2809 107.898 60.399 108.124 60.4812V60.4876Z" fill="#201F1F"/>
<path d="M110.892 66.5631C110.806 67.1235 110.812 67.4395 110.707 67.7134C110.285 68.8215 111 70.4521 112.152 70.7344C112.537 70.8271 113.165 70.7344 113.384 70.4732C113.633 70.1761 113.694 69.5589 113.58 69.1523C113.346 68.3096 112.816 67.5596 112.653 66.7211C112.552 66.2008 112.725 65.3686 113.091 65.08C113.359 64.8884 113.664 64.7547 113.987 64.6876C114.309 64.6205 114.642 64.6214 114.964 64.6903C116.909 65.2717 117.577 67.4838 116.1 69.1818C116.1 68.634 116.02 68.3159 116.113 68.0589C116.475 67.0751 115.902 65.6488 114.922 65.3876C114.524 65.2823 113.869 65.2991 113.658 65.5414C113.403 65.83 113.353 66.4662 113.471 66.877C113.711 67.7197 114.176 68.4781 114.452 69.3039C114.546 69.568 114.575 69.8507 114.536 70.1282C114.498 70.4057 114.393 70.6699 114.231 70.8983C114.068 71.1268 113.854 71.3129 113.604 71.441C113.355 71.569 113.079 71.6352 112.799 71.6339C111.511 71.6339 110.692 70.7913 110.102 69.7379C109.556 68.7688 109.542 67.804 110.313 66.9192C110.497 66.7859 110.69 66.6669 110.892 66.5631Z" fill="#201F1F"/>
<path d="M104.823 54.7933C104.732 54.4394 104.526 54.1023 104.612 53.9043C105.101 52.8509 104.675 52.0504 103.946 51.3763C103.173 50.6579 102.221 50.6136 101.3 51.0434C100.15 51.5806 99.1935 52.379 99.027 53.7231C98.8164 55.2779 100.188 56.4955 101.726 56.2238C102.043 56.171 102.369 56.2251 102.653 56.3775C101.85 57.1844 100.898 57.1444 100.07 56.7209C98.9322 56.1374 98.1738 55.1641 98.1738 53.7926C98.1738 51.7239 101.545 48.8482 103.99 50.4472C105.124 51.174 106.323 53.6072 104.823 54.7933Z" fill="#201F1F"/>
<path d="M121.458 73.4165L119.83 71.531C118.304 72.7445 116.851 73.9221 115.365 75.0597C115.155 75.2241 114.78 75.184 114.483 75.2388L114.344 74.8533C115.526 73.8982 116.707 72.9439 117.887 71.9903C119.235 70.9074 119.235 70.9116 118.266 69.5191C118.132 69.3232 118.024 69.1104 117.904 68.9061L118.089 68.6406C118.343 68.7657 118.58 68.9229 118.793 69.1083C121.509 72.1525 121.808 72.6223 121.458 73.4165Z" fill="#201F1F"/>
<path d="M107.186 65.7291C108.888 64.3534 110.579 62.9651 112.309 61.621C112.446 61.5136 112.821 61.7137 113.335 61.8317C111.407 63.378 109.741 64.7347 108.047 66.0451C107.872 66.1799 107.527 66.0977 107.259 66.1167L107.186 65.7291Z" fill="#201F1F"/>
<path d="M68.4457 78.4533L64.4282 75.5671L64.207 75.7399C64.3048 76.0398 64.4296 76.3304 64.5799 76.6078C65.2498 77.6317 65.9745 78.6218 66.617 79.6604C66.7772 79.9196 66.714 80.3177 66.754 80.6527C66.4401 80.6632 66.103 80.7538 65.8144 80.6716C64.641 80.3325 63.497 79.9322 62.3194 79.572C62.07 79.5111 61.8165 79.4681 61.561 79.4434C61.5062 79.5382 61.4535 79.633 61.4009 79.7278C62.2204 80.383 63.0357 81.0403 63.8594 81.6892C64.188 81.9483 64.5714 82.1505 64.8474 82.4518C64.9865 82.6014 64.9401 82.9174 65.0244 83.4651L59.1973 79.1022C59.4859 78.0909 60.0104 78.0025 60.8131 78.3227C61.9465 78.7735 63.1178 79.1338 64.2849 79.5024C64.6389 79.6162 65.0286 79.6267 65.6754 79.7278C65.481 79.2798 65.2615 78.843 65.0181 78.4196C64.3418 77.3999 63.6993 76.3445 62.9114 75.4112C62.3152 74.7034 62.49 74.2547 63.2274 73.6416C65.0139 75.0131 66.834 76.4014 68.6311 77.8171C68.6879 77.8592 68.5341 78.1773 68.4457 78.4533Z" fill="#201F1F"/>
<path d="M69.7305 64.8883C70.1518 63.7654 70.9503 64.0709 71.6455 64.1235C73.3013 64.252 74.9572 64.4058 76.6109 64.5449L76.7816 64.1994C76.1243 63.6917 75.4712 63.1818 74.8097 62.6804C74.1145 62.1538 73.413 61.6271 72.4039 60.8834C72.901 60.7781 73.276 60.5758 73.4256 60.6854C75.1805 61.9494 76.8996 63.2598 78.8777 64.745C78.3321 64.9894 77.9445 65.3201 77.5716 65.3033C75.8357 65.2274 74.104 65.0526 72.3702 64.9241C72.0688 64.9139 71.7747 65.0177 71.5464 65.2148C72.3659 65.8615 73.1833 66.5125 74.0092 67.1508C74.4516 67.4921 74.9467 67.7723 75.3448 68.1578C75.5218 68.3285 75.5176 68.6887 75.5955 68.9626L75.3111 69.0764L69.7305 64.8883Z" fill="#201F1F"/>
<path d="M72.8898 71.5266C72.8898 73.4837 71.3562 75.049 69.4833 75.0321C67.5115 75.0174 65.4806 73.0518 65.5101 71.1663C65.5269 69.3862 67.2123 67.6439 68.904 67.6566C70.8801 67.6713 72.9088 69.6411 72.8898 71.5266ZM69.6856 74.1747C70.998 74.162 72.2136 72.9233 72.2136 71.6024C72.2136 70.2815 70.3049 68.5667 68.805 68.5624C68.1526 68.5823 67.5329 68.852 67.0737 69.3158C66.6146 69.7797 66.3512 70.4022 66.338 71.0547C66.3338 72.6094 68.0192 74.1747 69.6856 74.1747Z" fill="#201F1F"/>
<path d="M86.6515 52.7978C86.7694 53.2191 86.9443 53.5204 86.8621 53.6405C85.9352 54.9466 84.9661 56.2254 83.9844 57.5505L78.2773 53.3371C79.3117 51.8982 80.2766 50.5226 81.3847 49.2754L81.8334 49.6693C81.1825 50.5689 80.5821 51.5106 79.8679 52.3554C79.3623 52.9537 79.4107 53.2802 80.0786 53.632C80.4583 53.8657 80.8209 54.1262 81.1635 54.4115C82.0778 53.3856 82.9395 52.4186 83.8116 51.4621C83.9259 51.5365 84.0363 51.6166 84.1424 51.7023C83.5104 52.5745 82.9184 53.4572 82.2464 54.2893C81.8735 54.7591 81.8629 55.0625 82.4044 55.3722C82.7053 55.5547 82.9875 55.7664 83.247 56.0042C83.7379 56.4255 84.075 56.3286 84.4373 55.7935C85.0925 54.8455 85.8025 53.9501 86.6515 52.7978Z" fill="#201F1F"/>
<path d="M74.0332 59.5543C74.0627 59.3163 74.01 59.0192 74.1343 58.8507C75.1413 57.4708 76.1799 56.112 77.2101 54.7532L77.5261 54.7932C77.5071 55.0228 77.564 55.2988 77.4566 55.4716C76.378 57.1843 76.3801 57.1569 78.0654 58.3704C79.0324 59.0593 79.9888 59.7713 80.9074 60.5255C81.118 60.7004 81.1433 61.0964 81.255 61.3914L80.9663 61.5367C79.5654 60.5024 78.1097 59.5312 76.7824 58.4083C76.0093 57.7531 75.6111 57.909 75.1519 58.659C74.9164 59.0003 74.661 59.3274 74.3871 59.6386L74.0332 59.5543Z" fill="#201F1F"/>
<path d="M94.2214 80.6339C93.7516 82.1086 93.9791 83.7455 92.7193 84.9548C91.4553 83.7856 91.6533 82.1824 91.2446 80.6234C90.7727 80.8994 90.3661 81.129 89.9806 81.3734C88.7166 82.1508 87.4273 82.6163 85.9062 82.2161C84.8529 81.938 84.0881 81.3734 83.8796 80.32C83.671 79.2667 83.711 78.1881 84.9329 77.634C85.0277 77.5898 85.0636 77.4233 85.1921 77.1937C84.8592 77.1705 84.638 77.1537 84.4168 77.141C83.275 77.0694 82.5208 76.509 82.1669 75.403C81.6865 73.9283 81.9351 72.5 82.9189 71.3476C84.0018 70.0836 85.5797 69.8034 87.0628 70.3217C88.2046 70.7177 89.1969 71.5709 90.2102 72.2872C90.463 72.4663 90.541 72.896 90.699 73.212L91.1856 72.8918C91.1809 72.5113 91.1528 72.1313 91.1013 71.7542C90.5157 68.6616 90.1934 65.5774 91.4321 62.5564C91.7418 61.8001 92.1758 61.0922 92.6456 60.1821C95.6307 64.3618 94.8787 68.7227 94.0823 73.0899L94.3878 73.1678C94.7459 72.7717 95.0914 72.3609 95.4664 71.9796C97.038 70.3764 98.9109 69.677 101.098 70.3912C103.204 71.0801 104.188 74.3054 102.928 76.1425C102.389 76.9304 101.055 77.3601 100.204 77.021C99.151 76.5996 98.9404 75.3609 99.7599 74.4044C100.442 73.6102 100.392 73.3511 99.4354 72.9108C98.1061 72.3062 95.7108 73.1467 95.123 74.4445C95.0817 74.5346 95.0587 74.6321 95.0554 74.7312C95.0521 74.8303 95.0687 74.9291 95.1041 75.0217C96.0816 76.7071 95.9762 76.9872 94.1645 77.4275C94.2277 79.3236 96.8358 80.9984 98.6475 80.2168C97.847 79.6691 97.4994 79.0097 98.0914 78.1312C98.6539 77.2885 99.467 77.358 100.253 77.5856C101.144 77.8468 101.607 78.464 101.599 79.4668C101.582 81.4872 99.8884 82.8375 97.7669 82.2982C96.8063 82.056 95.9173 81.5166 95.003 81.0974C94.7344 80.9569 94.4735 80.8022 94.2214 80.6339ZM85.447 77.1242C87.9265 78.2365 88.1604 78.7948 86.8353 80.2379C88.4659 81.0342 90.8717 79.5658 91.3436 77.4865C91.291 77.4444 91.2446 77.3791 91.1856 77.3644C89.4708 76.943 89.2896 76.509 90.2292 75.047C90.2765 74.9629 90.3066 74.8702 90.3178 74.7744C90.329 74.6786 90.3211 74.5815 90.2945 74.4887C89.7404 72.9234 86.5677 72.1166 85.4112 73.2584C85.2574 73.4122 85.1878 73.9241 85.3016 74.0273C86.3739 75.0175 86.4434 76.0456 85.447 77.1242Z" fill="#201F1F"/>
</svg>
