<svg width="207" height="198" viewBox="0 0 207 198" fill="none" xmlns="http://www.w3.org/2000/svg">
<path d="M164.193 130.501C150.976 122.175 140.998 111.406 130.24 101.543C128.127 99.6084 125.932 98.7885 122.843 99.337C122.843 105.007 122.687 110.747 122.924 116.47C123.022 118.779 124.8 119.836 127.249 119.657C127.826 119.617 128.461 120.356 129.073 120.737C128.461 121.02 127.849 121.528 127.231 121.534C121.646 121.599 116.064 121.599 110.486 121.534C109.908 121.534 109.29 120.956 108.696 120.656C109.273 120.304 109.775 119.709 110.37 119.634C113.835 119.207 115.082 118.035 115.088 114.501C115.088 103.529 115.038 92.5579 114.938 81.5866C114.892 77.4232 114.614 77.2673 110.457 76.251C109.816 76.0951 109.198 75.8179 107.824 75.3329C109.065 74.7555 109.521 74.3859 109.972 74.3859C117.767 74.3859 125.563 74.1665 133.347 74.6053C142.072 75.1077 146.703 80.9572 145.542 88.9951C144.866 93.6493 141.945 95.9994 137.741 97.2236L134.346 98.1995C144.924 108.686 154.059 120.09 166.492 128.001C167.274 128.534 168.161 128.897 169.093 129.065C170.025 129.233 170.982 129.203 171.902 128.977C184.542 126.43 197.229 123.653 210.209 124.877C215.672 125.397 221.088 127.1 226.343 128.821C227.977 129.358 229.64 131.547 230.148 133.314C230.83 135.675 228.647 137.39 226.649 137.933C221.221 139.417 215.724 141.109 210.158 141.559C196.669 142.657 183.786 139.7 171.4 134.318C169.855 133.708 168.159 133.59 166.544 133.978C161.543 135.242 156.623 136.865 150.797 138.597C153.239 139.602 154.925 140.145 156.467 140.965C159.354 142.489 162.386 143.852 164.909 145.861C170.245 150.105 170.684 155.712 166.388 161.042C163.088 165.126 158.675 168.164 153.684 169.79C131.493 177.239 109.221 177.984 86.88 170.241C85.1553 169.625 83.491 168.852 81.9083 167.931C81.0594 167.44 80.4647 166.499 79.7544 165.76L80.2164 165.113C80.823 165.149 81.4216 165.27 81.9949 165.471C95.8534 172.724 110.815 174.035 126.077 173.099C136.009 172.522 145.779 170.726 154.949 166.632C158.203 165.205 161.25 163.346 164.009 161.106C168.905 157.035 168.813 152.023 164.141 147.773C159.603 143.65 153.978 141.606 148.25 139.896C147.188 139.579 145.813 140.139 144.624 140.474C125.828 145.399 106.963 150.065 87.6365 152.548C74.2803 154.28 60.8722 156.013 47.3947 153.969C44.0796 153.438 40.866 152.4 37.867 150.891C33.1262 148.546 32.6354 144.672 37.0759 141.779C41.3432 138.996 46.1532 136.582 51.0672 135.329C80.3097 127.924 110.927 127.847 140.207 135.104C141.5 135.39 142.84 135.39 144.133 135.104C150.577 133.712 157.016 132.164 164.193 130.501ZM135.079 137.223L134.998 136.501C134.455 136.362 133.924 136.195 133.375 136.097C106.744 131.477 80.176 131.518 53.7523 137.512C48.9134 138.609 44.2015 140.399 39.582 142.235C38.098 142.812 37.099 144.626 35.8748 145.867C37.2315 147.079 38.6562 148.213 40.1421 149.262C41.0704 149.777 42.1073 150.064 43.1679 150.1C47.7874 150.452 52.3722 151.128 56.9456 150.914C75.926 150.036 94.5138 146.41 113.009 142.304C120.377 140.67 127.722 138.921 135.079 137.223ZM174.512 131.714C174.991 132.063 175.491 132.383 176.008 132.673C185.084 136.434 194.679 138.794 204.464 139.671C211.041 140.214 217.589 139.839 223.773 137.361C225.552 136.645 226.915 134.89 228.474 133.614C227.024 132.211 225.812 130.213 224.085 129.531C220.789 128.214 217.333 127.339 213.807 126.927C200.56 125.472 187.839 128.734 174.512 131.714ZM122.739 96.9003C125.222 96.9003 127.324 97.0273 129.408 96.9003C135.639 96.4441 139.121 92.8293 139.086 87.003C139.04 80.5241 135.766 77.0364 129.27 76.6091C127.832 76.5224 126.313 76.2684 124.979 76.6091C124.09 76.8516 122.843 78.0353 122.82 78.8264C122.658 84.7798 122.739 90.7217 122.739 96.9003Z" fill="#3D3A3A"/>
<path d="M50.959 66.1511C47.35 64.3726 45.1269 61.4219 45.0518 57.4491C44.9074 49.5267 50.0524 44.9707 56.5024 40.9286C49.9369 34.7327 47.5925 27.1336 49.192 18.4085C50.2199 12.8246 53.4016 8.59202 57.8536 5.24287C68.2475 -2.50058 82.799 -1.41501 91.27 7.70275C99.741 16.8205 98.5053 29.8013 87.7765 42.2625C89.9592 42.9381 92.0207 43.6079 94.1283 44.22C109.142 48.6316 124.051 53.4244 139.169 57.3163C152.94 60.856 166.99 62.1899 181.148 59.014C192.333 56.5021 201.567 50.8201 209.501 42.5223C208.923 43.2326 208.403 43.9775 207.797 44.6531C194.972 58.9332 178.717 64.8346 159.818 64.286C142.368 63.7779 125.991 58.5982 109.777 52.7372C102.374 50.0579 94.9945 47.2862 87.5398 44.7512C86.0363 44.3308 84.4426 44.3589 82.9549 44.8321C74.7726 47.3151 66.8732 47.2111 59.2799 42.9092C58.6724 42.5112 57.9468 42.3339 57.2242 42.4068C52.5008 43.6137 46.5185 50.8606 45.993 55.7515C45.5137 60.2382 47.6272 63.4487 50.959 66.1511ZM89.07 22.9702L89.8726 22.7393C88.6022 18.2699 87.9786 13.5003 85.9402 9.39466C81.4305 0.363514 68.49 -0.670101 62.0574 7.0849C56.0116 14.378 55.0935 29.7956 60.3251 37.6487C60.7697 38.3186 61.8437 39.1385 62.4731 39.0288C68.7037 37.8739 74.7437 39.1212 80.7375 40.484C82.5911 40.9055 83.6247 40.432 84.6352 39.0577C88.1056 34.2476 89.093 28.7504 89.0642 22.9702H89.07ZM63.0333 40.4955C67.5257 45.1728 76.5915 45.987 80.3564 42.0546C74.6513 40.6976 69.1599 39.0692 63.0275 40.4955H63.0333Z" fill="#3D3A3A"/>
<path d="M0.444639 119.553L2.8872 118.906C5.39328 118.242 6.86575 116.851 6.8542 114.039C6.80415 103.183 6.80415 92.325 6.8542 81.4653C6.8542 78.4973 5.69934 76.7419 2.54075 76.5225C1.7843 76.4705 1.06249 75.8237 0 75.2809C0.785317 74.7035 0.929704 74.5187 1.07406 74.5245C9.73565 74.6515 18.3972 74.2011 26.9606 75.0673C42.7247 76.6553 51.0514 90.6004 45.866 105.706C42.5977 115.199 35.8878 120.344 25.852 120.65C17.9757 120.893 10.0936 120.754 2.21738 120.766C1.6796 120.722 1.14644 120.634 0.623644 120.5L0.444639 119.553ZM13.8297 97.1255C13.8297 102.992 13.8297 108.865 13.8297 114.732C13.8585 118.063 14.5977 118.86 17.941 118.803C20.9231 118.8 23.9017 118.598 26.8567 118.196C32.7062 117.307 36.6732 114.154 38.1514 108.183C40.0954 100.693 39.8348 92.801 37.4007 85.4554C35.7955 80.5992 32.4925 77.7062 27.336 77.25C23.8713 76.944 20.4067 76.9266 16.9825 76.6726C14.6265 76.4993 13.7142 77.3713 13.7719 79.8081C13.8932 85.5767 13.8008 91.3511 13.8066 97.1255H13.8297Z" fill="#3D3A3A"/>
<path d="M60.498 98.0951C60.498 84.814 71.2962 74.4721 85.1258 74.4952C99.1692 74.524 109.309 84.1557 109.222 97.3906C109.13 111.33 99.0479 121.522 85.3048 121.568C70.7476 121.608 60.498 111.884 60.498 98.0951ZM101.45 98.0951C100.821 94.5958 100.532 91.1254 99.5503 87.8629C97.483 80.9682 92.2745 76.9262 85.5358 76.4527C79.6575 76.0427 74.4317 79.4265 71.377 85.9054C67.7391 93.6199 67.947 101.577 70.6841 109.453C72.9938 116.036 78.4506 119.639 85.2471 119.547C88.3987 119.546 91.4659 118.527 93.9913 116.642C96.5168 114.756 98.3653 112.105 99.2615 109.084C100.341 105.602 100.711 101.82 101.427 98.0951H101.45Z" fill="#3D3A3A"/>
<path d="M98.6669 0.18457H115.99L116.25 0.762009C115.696 1.12253 115.103 1.41893 114.483 1.64549C112.491 2.12476 111.076 3.21035 111.076 5.34688C111.076 15.2326 110.741 25.1415 111.313 34.9984C111.659 40.9922 115.701 44.197 121.095 44.4337C127.256 44.7051 131.489 41.7775 132.799 35.7144C133.467 32.3275 133.792 28.8821 133.769 25.4302C133.856 19.4768 133.856 13.5061 133.504 7.56424C133.238 3.19303 132.557 2.78304 128.261 1.58774C127.828 1.47226 127.47 1.05073 126.372 0.25964H142.119C141.039 1.02186 140.641 1.52422 140.179 1.58774C137.396 1.97463 136.137 3.75314 136.027 6.31697C135.785 12.3628 135.733 18.4143 135.559 24.4601C135.473 27.3473 135.559 30.2345 135.086 33.0755C133.354 43.7177 127.002 48.0196 116.377 45.9524C107.305 44.1854 103.945 40.178 103.852 30.8697C103.783 24.3331 103.852 17.7907 103.812 11.2367C103.812 9.42359 103.483 7.61043 103.379 5.7915C103.246 3.424 101.993 2.12476 99.7294 1.62239C99.2687 1.44131 98.8398 1.18791 98.459 0.871724L98.6669 0.18457Z" fill="#3D3A3A"/>
<path d="M179.515 45.9064H160.217C160.165 45.687 160.113 45.4618 160.055 45.2424C161.06 44.971 162.047 44.6245 163.064 44.4455C165.079 44.0817 165.985 42.9672 165.373 40.9808C164.351 37.6837 163.289 34.3923 162.042 31.1644C161.799 30.5523 160.638 29.9575 159.888 29.9287C156.238 29.8016 152.577 29.7785 148.916 29.9287C148.45 30.0042 148.006 30.1828 147.618 30.4516C147.229 30.7203 146.905 31.0723 146.67 31.482C145.55 33.9305 144.559 36.4362 143.702 38.9887C142.461 42.4995 143.24 43.7814 146.97 44.6996C147.343 44.7782 147.71 44.8844 148.068 45.0171C148.218 45.0807 148.304 45.2943 148.726 45.8256H134.342C134.671 45.4098 134.873 44.8728 135.173 44.8093C138.58 44.0817 140.445 41.6276 141.594 38.7057C146.37 26.5795 150.989 14.3725 155.701 2.2116C156.102 1.42517 156.586 0.683772 157.145 0C157.763 0.727573 158.64 1.35121 158.964 2.1885C162.723 12.0512 166.228 22.0235 170.178 31.8111C172.262 36.9907 172.476 43.6602 179.515 45.9064ZM148.218 27.6016H161.048L154.87 9.56239C152.514 15.9604 150.406 21.6828 148.218 27.6016Z" fill="#3D3A3A"/>
<path d="M196.734 121.192H182.246C182.968 120.517 183.182 120.141 183.464 120.078C186.727 119.368 188.661 117.087 189.759 114.24C194.499 102.189 199.113 90.0856 203.773 77.9998C203.859 77.6274 203.985 77.2654 204.148 76.92C204.535 76.3426 205.003 75.8171 205.436 75.2686C206.014 75.8113 206.805 76.2502 207.059 76.9027C210.212 85.1543 213.283 93.4348 216.373 101.733C217.418 104.516 218.301 107.38 219.531 110.082C221.968 115.453 220.634 117.352 227.904 121.175H208.41L208.277 120.528C209.356 120.177 210.453 119.884 211.563 119.651C213.578 119.316 214.167 118.103 213.63 116.336C212.602 112.941 211.499 109.563 210.263 106.237C210.056 105.659 209.005 105.139 208.329 105.116C204.68 105.012 201.013 104.96 197.358 105.151C196.855 105.251 196.381 105.462 195.97 105.767C195.558 106.073 195.22 106.466 194.979 106.918C193.885 109.267 192.921 111.675 192.091 114.13C190.781 117.762 191.595 119.137 195.423 120.043C195.902 120.198 196.367 120.391 196.815 120.621L196.734 121.192ZM209.351 102.911C207.353 97.0726 205.413 91.3964 203.473 85.7144L202.814 85.7606L196.509 102.911H209.351Z" fill="#3D3A3A"/>
<path d="M182.182 76.7299V86.835L181.605 86.9332C180.768 85.1605 180.121 83.2549 179.03 81.6496C177.976 79.9589 176.603 78.4898 174.988 77.3246C174.203 76.808 173.323 76.4532 172.399 76.2812C171.475 76.1092 170.527 76.1234 169.609 76.3229C168.691 76.5224 167.822 76.9033 167.053 77.4432C166.284 77.9831 165.63 78.6711 165.131 79.4669C163.011 83.0586 164.276 88.371 167.793 90.3401C171.309 92.3092 175.051 93.9144 178.354 96.1838C185.416 101.028 187.172 108.31 183.216 114.893C179.682 120.76 170.333 123.04 163.652 119.645C162.117 118.866 160.621 118.011 159.125 117.151C158.831 116.983 158.438 116.642 158.432 116.377C158.386 113.189 158.404 110.025 158.404 106.809L159.483 106.647C159.801 107.542 160.107 108.443 160.436 109.332C162.122 113.952 163.901 118.433 169.675 119.2C173.636 119.72 176.939 118.329 178.568 115.297C180.473 111.74 180.15 107.271 177.078 104.73C174.231 102.38 170.905 100.543 167.614 98.8054C163.756 96.767 160.904 94.0357 159.755 89.7396C158.508 85.1201 159.495 80.9914 162.821 77.4921C166.147 73.9928 170.328 73.912 174.618 74.6395C177.141 75.0611 179.497 75.9445 182.182 76.7299Z" fill="#3D3A3A"/>
<path d="M183.59 0.0976562H201.658L202.034 0.715503C201.352 1.13126 200.723 1.74913 199.989 1.92237C197.818 2.43629 196.675 3.65468 196.611 5.92401C196.49 10.2317 196.23 14.5394 196.178 18.8529C196.109 24.9968 196.178 31.1466 196.178 37.2905C196.178 40.9515 196.952 44.0408 201.277 44.7164C201.463 44.7694 201.622 44.8912 201.722 45.0571C201.818 45.354 201.873 45.6631 201.883 45.9752H183.215C183.74 45.3169 183.994 44.676 184.37 44.5951C187.453 43.9253 188.614 41.7426 188.729 38.9304C188.978 32.8904 189.145 26.8504 189.197 20.8104C189.243 16.1043 189.012 11.4039 189.012 6.69778C189.012 3.84523 187.788 2.19953 184.97 1.7318C184.384 1.55149 183.825 1.29319 183.307 0.963815C183.382 0.675095 183.492 0.386376 183.59 0.0976562Z" fill="#3D3A3A"/>
<path d="M76.8398 197.357V186.547C79.4037 186.547 81.8867 186.397 84.3466 186.593C86.8064 186.79 87.5109 188.141 86.8584 190.635C86.7405 191.28 86.8315 191.946 87.1183 192.535C88.1114 194.724 87.4994 196.467 85.1088 196.854C82.4872 197.259 79.7963 197.195 76.8398 197.357ZM78.4682 195.497C80.8935 195.376 82.5103 195.428 84.0463 195.134C84.5025 195.047 84.7738 193.979 85.1319 193.361C83.432 192.987 81.7064 192.741 79.9696 192.628C79.5827 192.628 79.1843 194.077 78.4682 195.497ZM81.8289 191.115L84.8836 189.353C83.8269 188.961 82.7817 188.279 81.7192 188.262C80.8473 188.262 79.9869 189.007 79.0745 189.417C79.9118 189.908 80.7433 190.445 81.8289 191.115Z" fill="#3D3A3A"/>
<path d="M191.686 196.994V186.6C194.301 186.6 196.883 186.409 199.389 186.663C201.531 186.871 202.605 188.17 201.773 190.509C201.586 191.119 201.621 191.776 201.872 192.363C203.026 194.805 202.357 196.584 199.631 196.948C197.119 197.254 194.527 196.994 191.686 196.994ZM193.995 195.492C195.808 195.4 197.327 195.394 198.817 195.204C199.08 195.135 199.326 195.014 199.54 194.846C199.753 194.678 199.93 194.467 200.058 194.228C200.203 193.956 199.868 193.073 199.648 193.032C197.83 192.726 195.987 192.547 193.995 192.311V195.492ZM193.643 189.833L194.221 190.515C195.618 190.586 197.018 190.565 198.413 190.451C198.909 190.382 199.308 189.574 199.752 189.1C198.285 188.707 196.789 188.432 195.277 188.28C194.74 188.263 194.186 189.285 193.649 189.833H193.643Z" fill="#3D3A3A"/>
<path d="M117.231 192.709V186.64H119.264V197.415C115.089 196.56 113.859 192.218 110.602 190.647C109.505 196.941 109.505 196.941 108.402 196.999V186.443C112.779 186.443 113.622 191.236 117.231 192.709Z" fill="#3D3A3A"/>
<path d="M47.0367 192.882C45.8818 194.302 48.0588 197.178 44.4902 197.276V186.634L46.621 186.495V190.445H52.7823L52.967 186.593H55.1497C55.1497 189.983 55.1844 193.32 55.0631 196.652C55.0631 196.901 53.9083 197.103 53.0363 197.397C52.9382 195.665 52.8631 194.371 52.7765 192.882H47.0367Z" fill="#3D3A3A"/>
<path d="M124.387 196.681C125.911 193.407 127.441 190.133 129.087 186.616C130.363 186.097 131.172 186.507 131.853 188.28C132.973 191.207 134.544 193.956 136.328 197.605C134.804 197.068 133.637 197.028 133.222 196.45C131.224 193.661 128.388 193.627 126.616 196.45C126.292 196.953 125.368 197.08 124.722 197.38L124.387 196.681Z" fill="#3D3A3A"/>
<path d="M71.3137 197.461C70.4937 197.039 69.131 196.774 68.9404 196.156C68.3284 194.146 66.8674 194.533 65.4758 194.464C64.0842 194.395 62.8542 194.464 62.3865 196.243C62.2479 196.768 61.1797 197.045 60.1172 196.889L64.8984 186.553C66.3824 185.976 67.0984 186.79 67.7856 188.54C68.8885 191.381 70.4129 194.054 71.7526 196.797L71.3137 197.461Z" fill="#3D3A3A"/>
<path d="M102.529 197.675C101.811 196.98 101.039 196.345 100.219 195.775C99.2546 195.197 98.1517 194.557 97.1181 194.574C96.0844 194.591 95.0393 195.307 94.0981 195.885C93.4343 196.379 92.8229 196.94 92.2734 197.559L91.6035 196.982C93.1741 193.552 94.7506 190.122 96.3847 186.588H98.2787C99.9706 190.053 101.622 193.517 103.268 196.907L102.529 197.675Z" fill="#3D3A3A"/>
<path d="M213.098 186.564C214.888 190.231 216.499 193.546 218.115 196.86L217.475 197.622C216.721 196.928 215.907 196.302 215.044 195.751C213.981 195.174 212.797 194.597 211.654 194.597C210.747 194.597 209.783 195.347 208.934 195.913C208.309 196.411 207.729 196.964 207.202 197.565L206.457 196.935L211.284 186.593L213.098 186.564Z" fill="#3D3A3A"/>
<path d="M174.254 186.605H176.564C176.564 188.447 176.621 190.255 176.564 192.062C176.477 194.21 177.141 195.619 179.549 195.66C181.957 195.7 182.788 194.384 182.8 192.235C182.8 190.428 182.8 188.621 182.8 186.663H185.075C185.075 188.788 185.162 190.896 185.075 193.015C184.908 196.341 183.343 197.484 179.382 197.392C175.674 197.305 174.381 196.127 174.323 192.703C174.254 190.763 174.254 188.852 174.254 186.605Z" fill="#3D3A3A"/>
<path d="M168.82 194.706C164.201 197.998 160.811 197.969 158.49 195.394C157.656 194.509 157.16 193.36 157.086 192.146C157.012 190.933 157.366 189.732 158.086 188.753C159.985 186.079 163.681 185.623 168.549 188.216C167.827 188.395 166.99 188.909 166.406 188.701C164.097 187.881 161.654 187.413 160.187 189.723C159.535 190.757 159.668 193.09 160.424 194.065C162.076 196.185 164.466 195.596 166.776 194.643C167.325 194.389 168.127 194.666 168.82 194.706Z" fill="#3D3A3A"/>
<path d="M52.9922 80.3614C55.1576 76.4521 57.2883 72.5255 59.5288 68.6567C59.7598 68.2467 60.5855 68.1774 61.1341 67.958C61.0994 68.6336 61.3188 69.4824 60.9897 69.9733C58.5529 73.6169 56.0064 77.1913 53.483 80.7829L52.9922 80.3614Z" fill="#3D3A3A"/>
</svg>
