<svg width="548" height="169" viewBox="0 0 548 169" fill="none" xmlns="http://www.w3.org/2000/svg">
<path d="M84.7656 28.1981V140.802C84.7656 144.637 84.0097 148.315 82.4977 151.836C81.0487 155.294 79.0327 158.28 76.4497 160.795C73.8668 163.31 70.8428 165.322 67.3778 166.831C63.9759 168.277 60.3534 169 56.5104 169H28.2552C24.4123 169 20.7583 168.277 17.2933 166.831C13.8914 165.322 10.8989 163.31 8.31592 160.795C5.73294 158.28 3.68546 155.294 2.17348 151.836C0.724493 148.315 0 144.637 0 140.802V28.1981C0 24.3 0.724493 20.6535 2.17348 17.2584C3.68546 13.8633 5.73294 10.8769 8.31592 8.29911C10.8989 5.72135 13.8914 3.70945 17.2933 2.26339C20.7583 0.754464 24.4123 0 28.2552 0H56.5104C60.3534 0 63.9759 0.754464 67.3778 2.26339C70.8428 3.70945 73.8668 5.72135 76.4497 8.29911C79.0327 10.8769 81.0487 13.8633 82.4977 17.2584C84.0097 20.6535 84.7656 24.3 84.7656 28.1981ZM28.2552 139.67H56.5104V27.0664H28.2552V139.67Z" fill="#774F4D"/>
<path d="M122.565 0V112.604H94.3101V0H122.565ZM122.565 169H94.3101V140.802H122.565V169Z" fill="#774F4D"/>
<path d="M208.559 0H236.815C240.658 0 244.28 0.754464 247.682 2.26339C251.147 3.70945 254.171 5.72135 256.754 8.29911C259.337 10.8769 261.353 13.8633 262.802 17.2584C264.314 20.6535 265.07 24.3 265.07 28.1981V56.3962H236.815V28.1981H208.559V140.802H236.815V112.604H265.07V140.802C265.07 144.637 264.314 148.315 262.802 151.836C261.353 155.294 259.337 158.28 256.754 160.795C254.171 163.31 251.147 165.322 247.682 166.831C244.28 168.277 240.658 169 236.815 169H208.559C204.716 169 201.062 168.277 197.598 166.831C194.196 165.322 191.203 163.31 188.62 160.795C186.037 158.28 183.99 155.294 182.478 151.836C181.029 148.315 180.304 144.637 180.304 140.802V28.1981C180.304 24.3 181.029 20.6535 182.478 17.2584C183.99 13.8633 186.037 10.8769 188.62 8.29911C191.203 5.72135 194.196 3.70945 197.598 2.26339C201.062 0.754464 204.716 0 208.559 0Z" fill="#774F4D"/>
<path d="M359.38 0V140.802C359.38 144.637 358.624 148.284 357.112 151.742C355.663 155.137 353.647 158.123 351.064 160.701C348.481 163.279 345.457 165.322 341.992 166.831C338.59 168.277 334.968 169 331.125 169H302.869C299.026 169 295.373 168.277 291.908 166.831C288.506 165.322 285.513 163.279 282.93 160.701C280.347 158.123 278.3 155.137 276.788 151.742C275.339 148.284 274.614 144.637 274.614 140.802V0H302.869V140.802H331.125V0H359.38Z" fill="#774F4D"/>
<path d="M425.435 169H368.924V0H425.435C429.278 0 432.9 0.754464 436.302 2.26339C439.767 3.70945 442.791 5.72135 445.374 8.29911C447.957 10.8769 449.973 13.8633 451.422 17.2584C452.934 20.6535 453.69 24.3 453.69 28.1981V60.5458C452.871 69.6622 448.177 75.7608 439.61 78.8415C448.555 80.8534 453.249 86.9834 453.69 97.2316V140.991C453.69 144.826 452.934 148.472 451.422 151.93C449.973 155.325 447.957 158.28 445.374 160.795C442.791 163.31 439.767 165.322 436.302 166.831C432.9 168.277 429.278 169 425.435 169ZM425.435 92.3276H397.18V139.859H425.435V92.3276ZM425.435 27.0664H397.18V65.2612H425.435V27.0664Z" fill="#774F4D"/>
<path d="M491.49 0H519.745C523.588 0 527.21 0.754464 530.612 2.26339C534.077 3.70945 537.101 5.72135 539.684 8.29911C542.267 10.8769 544.283 13.8633 545.732 17.2584C547.244 20.6535 548 24.3 548 28.1981V169H519.745V107.417H491.49V169H463.234V28.1981C463.234 24.3 463.959 20.6535 465.408 17.2584C466.92 13.8633 468.967 10.8769 471.55 8.29911C474.133 5.72135 477.126 3.70945 480.528 2.26339C483.993 0.754464 487.647 0 491.49 0ZM519.745 28.1981H491.49V79.4074H519.745V28.1981Z" fill="#774F4D"/>
</svg>
