<svg width="1920" height="172" viewBox="0 0 1920 172" fill="none" xmlns="http://www.w3.org/2000/svg">
<path d="M-36 1H1956" stroke="#8D8484"/>
<path d="M-36 171H1956" stroke="#8D8484"/>
<path d="M90.2827 125.448C87.3108 128.703 83.4187 130.978 79.1234 131.969C74.4723 132.811 69.7517 133.211 65.0251 133.163C61.8961 133.37 58.76 132.884 55.8405 131.739C54.987 131.344 54.2363 130.757 53.6469 130.025C53.0574 129.292 52.6451 128.433 52.4422 127.514C51.9265 124.481 51.7112 121.404 51.7993 118.329V64.0454C51.699 61.8299 52.0264 59.6157 52.7637 57.524C53.148 56.708 53.6974 55.9805 54.3772 55.3876C55.057 54.7948 55.8523 54.3494 56.713 54.0796C59.6748 53.1189 62.7887 52.714 65.8976 52.8856V46.4561H18V52.8856C21.1122 52.7202 24.2277 53.1409 27.1846 54.1256C28.048 54.406 28.8422 54.8661 29.515 55.4756C30.1878 56.0851 30.7239 56.8302 31.0881 57.6618C31.7183 59.7285 31.9977 61.8863 31.9147 64.0454V123.473C32.2404 126.571 31.333 129.673 29.3889 132.107C26.0694 134.246 22.0999 135.141 18.1837 134.633V141.062H102.269L102.866 109.466H96.4823C96.1899 115.321 94.0157 120.926 90.2827 125.448Z" fill="#3D3A3A"/>
<path d="M192.596 128.889C191.586 127.052 190.07 123.516 188.004 118.326L159.164 44.6162H152.551L125.273 116.26C123.82 120.243 122.039 124.099 119.946 127.787C118.737 130.065 116.947 131.982 114.757 133.344C112.69 134.37 110.404 134.874 108.098 134.813V141.243H140.795V134.63C138.226 134.679 135.666 134.307 133.218 133.528C132.151 133.141 131.247 132.403 130.655 131.435C130.062 130.467 129.816 129.326 129.957 128.2C130.19 125.666 130.826 123.186 131.84 120.852L134.136 114.698H164.813L169.405 125.858C169.979 127.209 170.276 128.661 170.277 130.129C170.362 130.971 170.145 131.816 169.666 132.514C169.187 133.212 168.476 133.717 167.66 133.941C164.872 134.553 162.014 134.785 159.164 134.63V141.059H203.755V134.63C201.245 134.77 198.743 134.247 196.499 133.114C194.811 132.12 193.453 130.651 192.596 128.889ZM136.845 107.763L149.245 74.9269L162.333 107.901L136.845 107.763Z" fill="#3D3A3A"/>
<path d="M379.589 114.601C376.243 119.974 371.779 124.563 366.501 128.057C361.202 131.633 354.938 133.508 348.545 133.43C345.219 133.38 341.925 132.759 338.809 131.593C334.895 130.074 331.366 127.706 328.477 124.658C324.523 120.318 321.575 115.159 319.843 109.549C317.339 101.433 316.176 92.9638 316.399 84.4737C316.145 75.6722 317.547 66.9012 320.532 58.6177C322.773 52.4395 326.801 47.0679 332.105 43.1868C336.986 39.8146 342.797 38.0487 348.729 38.135C354.286 38.1501 359.745 39.6059 364.572 42.3602C369.83 45.3921 374.311 49.6058 377.66 54.6681C381.414 60.2146 384.007 66.4633 385.283 73.0382H393.044L391.759 32.624H384.457C383.65 36.1047 382.48 39.4911 380.967 42.7276C376.545 38.2867 371.261 34.7978 365.44 32.4758C359.62 30.1537 353.386 29.0476 347.121 29.2255C339.235 29.1754 331.421 30.7383 324.16 33.8181C317.256 36.6556 311.004 40.8753 305.791 46.2179C300.726 51.5096 296.762 57.7535 294.126 64.588C291.396 71.5833 290.009 79.0309 290.039 86.5403C289.891 96.7459 292.492 106.803 297.571 115.657C302.371 124.072 309.351 131.037 317.777 135.818C326.162 140.617 335.67 143.105 345.33 143.028C352.773 143.401 360.182 141.817 366.822 138.436C372.015 135.44 376.76 131.73 380.921 127.414C383.563 131.185 385.464 135.424 386.523 139.905H394.147V98.5727H386.34C385.044 104.269 382.759 109.694 379.589 114.601Z" fill="#3D3A3A"/>
<path d="M504.313 126.913C503.165 124.754 501.374 120.667 498.94 114.605L465.508 29H457.793L426.106 111.987C424.438 116.645 422.363 121.148 419.907 125.443C418.494 128.087 416.401 130.307 413.845 131.873C411.474 133.081 408.835 133.666 406.176 133.572V141.058H444.016V133.572C441.026 133.634 438.047 133.199 435.199 132.286C433.967 131.838 432.924 130.986 432.24 129.868C431.556 128.75 431.271 127.433 431.433 126.132C431.738 123.136 432.513 120.207 433.73 117.452L436.393 110.334H472.029L477.219 123.285C477.874 124.857 478.217 126.541 478.229 128.245C478.386 129.25 478.162 130.278 477.602 131.127C477.041 131.977 476.184 132.586 475.198 132.837C472.073 133.589 468.857 133.898 465.646 133.756V141.058H517.447V133.572C514.526 133.742 511.612 133.14 508.997 131.827C507.009 130.656 505.387 128.955 504.313 126.913ZM439.562 102.48L453.982 64.1329L469.136 102.48H439.562Z" fill="#3D3A3A"/>
<path d="M590.506 83.4173C584.356 79.7782 578.025 76.452 571.54 73.4515C564.835 70.3286 559.967 67.8946 556.982 66.2412C554.184 64.743 551.717 62.697 549.726 60.225C547.891 57.8475 546.919 54.9159 546.971 51.9125C546.937 50.013 547.333 48.1303 548.128 46.4048C548.923 44.6793 550.097 43.1555 551.563 41.9468C554.791 39.378 558.829 38.0429 562.952 38.1809C576.362 38.1809 585.914 46.4934 591.149 63.2102H598.772V32.5321H591.149C590.592 35.7993 589.699 39.0004 588.485 42.0845C585.126 38.2331 581.016 35.1077 576.407 32.8995C571.859 30.6279 566.843 29.4485 561.758 29.4551C555.541 29.3398 549.411 30.928 544.032 34.0476C539.186 36.8679 535.176 40.9253 532.413 45.8045C529.847 50.2308 528.47 55.2464 528.418 60.3628C528.438 63.1365 528.871 65.8918 529.704 68.5375C530.741 71.6241 532.293 74.5124 534.296 77.0796C537.034 80.6059 540.285 83.702 543.94 86.2647C549.068 89.9814 554.561 93.1667 560.334 95.7712C564.651 97.7001 568.509 99.5371 571.861 101.328C574.671 102.715 577.346 104.36 579.852 106.242C581.741 107.637 583.307 109.423 584.444 111.478C585.467 113.529 585.972 115.799 585.914 118.091C585.966 120.247 585.546 122.389 584.681 124.365C583.816 126.34 582.528 128.102 580.908 129.526C577.253 132.7 572.517 134.345 567.682 134.119C561.906 134.306 556.243 132.489 551.655 128.975C547.438 125.681 544.004 121.493 541.598 116.713C539.173 111.853 537.294 106.74 535.995 101.466H528.51V139.217H535.995C536.581 135.378 537.694 131.638 539.302 128.103C543.149 132.928 548.114 136.742 553.767 139.217C559.223 141.688 565.137 142.986 571.126 143.028C576.501 143.138 581.828 142.007 586.694 139.722C590.971 137.708 594.774 134.813 597.854 131.226C600.655 127.987 602.876 124.289 604.42 120.295C605.816 116.849 606.563 113.175 606.625 109.457C606.825 103.935 605.212 98.4993 602.032 93.9801C598.908 89.7479 594.994 86.1609 590.506 83.4173Z" fill="#3D3A3A"/>
<path d="M713.63 126.913C712.481 124.754 710.69 120.667 708.257 114.605L674.825 29H667.11L635.423 111.987C633.754 116.645 631.679 121.148 629.223 125.443C627.812 128.074 625.738 130.29 623.207 131.873C620.818 133.076 618.166 133.66 615.492 133.572V141.058H653.333V133.572C650.357 133.638 647.392 133.203 644.561 132.286C643.316 131.854 642.258 131.006 641.563 129.886C640.869 128.765 640.582 127.439 640.75 126.132C641.054 123.136 641.829 120.207 643.046 117.452L645.709 110.334H681.392L686.535 123.285C687.19 124.857 687.533 126.541 687.545 128.245C687.702 129.25 687.479 130.278 686.918 131.127C686.358 131.977 685.501 132.586 684.514 132.837C681.389 133.589 678.174 133.898 674.962 133.756V141.058H726.763V133.572C723.843 133.742 720.928 133.14 718.314 131.827C716.326 130.656 714.703 128.955 713.63 126.913ZM648.878 102.48L663.298 64.1329L678.453 102.48H648.878Z" fill="#3D3A3A"/>
<path d="M908.634 67.9009C906.247 64.0618 903.289 60.6084 899.863 57.6595C896.46 54.7099 892.597 52.3365 888.428 50.6329C883.645 48.7034 878.651 47.3468 873.549 46.5915C866.991 45.6904 860.376 45.2759 853.756 45.3515H845.123H836.627L816.283 45.7649V52.3322C820.296 51.8156 824.365 52.6909 827.81 54.8122C829.748 57.2672 830.654 60.3804 830.336 63.492V123.195C830.432 125.425 830.104 127.654 829.371 129.762C828.992 130.59 828.438 131.326 827.749 131.92C827.06 132.514 826.25 132.953 825.376 133.207C822.404 134.116 819.296 134.505 816.191 134.355V140.784H859.405C870.503 141.095 881.544 139.093 891.827 134.906C896.243 132.893 900.246 130.074 903.629 126.593C907.555 122.64 910.675 117.961 912.813 112.816C915.179 106.983 916.365 100.74 916.303 94.4457C916.33 89.6601 915.665 84.8959 914.329 80.3007C913.03 75.9177 911.112 71.7424 908.634 67.9009ZM886.545 121.45C881.861 129.349 873.871 133.298 862.574 133.298C859.695 133.451 856.816 132.998 854.124 131.967C853.306 131.601 852.586 131.049 852.02 130.356C851.453 129.662 851.057 128.845 850.863 127.971C850.421 125.208 850.236 122.41 850.312 119.613V53.1588C856.144 53.1588 860.645 53.1588 863.813 53.6181C866.855 53.8858 869.841 54.5975 872.677 55.7307C879.216 58.3943 884.613 63.2707 887.923 69.5082C891.922 77.0964 893.869 85.5978 893.572 94.1701C893.761 103.734 891.331 113.167 886.545 121.45Z" fill="#3D3A3A"/>
<path d="M998.876 125.815C996.709 128.707 993.738 130.895 990.334 132.107C987.338 132.907 984.25 133.309 981.149 133.301H973.572C970.931 133.399 968.289 133.136 965.719 132.52C964.141 132.18 962.729 131.304 961.724 130.04C960.875 128.766 960.369 127.295 960.254 125.769C960.254 124.07 959.979 121.177 959.979 117.594V95.3665H969.715C972.207 95.2644 974.7 95.5431 977.108 96.1931C977.89 96.4672 978.605 96.9034 979.207 97.4733C979.808 98.0431 980.282 98.7337 980.598 99.4998C981.512 101.971 981.994 104.581 982.022 107.215H988.405V75.7564H981.746C981.652 78.3614 981.204 80.9415 980.415 83.4259C980.128 84.2018 979.669 84.9025 979.073 85.4753C978.476 86.048 977.757 86.4779 976.97 86.7325C974.57 87.4237 972.072 87.7184 969.577 87.6051H959.979V54.2174H977.659C981.213 54.1076 984.768 54.3693 988.267 54.9982C990.809 55.6751 993.044 57.1977 994.605 59.3151C997.021 62.8495 998.708 66.8311 999.565 71.0261H1005.99L1004.75 46.4561H926.271V52.8856C929.387 52.7181 932.506 53.1548 935.456 54.1715C936.295 54.466 937.064 54.9327 937.713 55.5416C938.361 56.1506 938.875 56.8884 939.222 57.7077C939.807 59.7674 940.071 61.9052 940.002 64.0454V123.473C940.328 126.571 939.421 129.673 937.477 132.107C934.16 134.253 930.188 135.149 926.271 134.633V141.062H1010.54L1011.32 109.925H1004.75C1004.22 115.645 1002.19 121.125 998.876 125.815Z" fill="#3D3A3A"/>
<path d="M1092.05 125.448C1089.07 128.703 1085.18 130.978 1080.89 131.969C1076.25 132.81 1071.55 133.21 1066.83 133.163C1063.71 133.375 1060.57 132.888 1057.65 131.739C1056.79 131.353 1056.02 130.769 1055.43 130.036C1054.83 129.302 1054.41 128.438 1054.21 127.514C1053.71 124.479 1053.51 121.403 1053.61 118.329V64.0454C1053.5 61.833 1053.81 59.6196 1054.53 57.524C1054.92 56.7065 1055.48 55.9788 1056.17 55.3862C1056.85 54.7936 1057.66 54.3489 1058.52 54.0796C1061.41 53.1407 1064.44 52.736 1067.48 52.8856V46.4561H1019.95V52.8856C1023.06 52.7278 1026.17 53.1482 1029.13 54.1256C1029.99 54.4063 1030.78 54.8671 1031.44 55.4769C1032.11 56.0868 1032.64 56.8317 1032.99 57.6618C1033.62 59.7285 1033.9 61.8863 1033.82 64.0454V123.473C1034.14 126.563 1033.25 129.657 1031.34 132.107C1028 134.245 1024.02 135.14 1020.09 134.633V141.062H1104.22L1104.86 109.466H1098.43C1098.11 115.348 1095.87 120.963 1092.05 125.448Z" fill="#3D3A3A"/>
<path d="M1264.83 38.4467C1268.26 38.2461 1271.69 38.7784 1274.91 40.0096C1275.84 40.3689 1276.7 40.9274 1277.41 41.6483C1278.13 42.3693 1278.68 43.2364 1279.04 44.1926C1279.7 46.553 1279.99 49.0037 1279.9 51.4555V78.5303H1229.97V51.4555C1229.6 47.8801 1230.62 44.301 1232.8 41.4806C1234.69 39.458 1238.92 38.4467 1245.49 38.4467V31H1192.13V38.4467C1195.53 38.2481 1198.94 38.7805 1202.12 40.0096C1203.06 40.3824 1203.92 40.9447 1204.65 41.6632C1205.38 42.3817 1205.95 43.2418 1206.35 44.1926C1207.06 46.5417 1207.38 48.9974 1207.29 51.4555V120.774C1207.36 123.265 1207.03 125.75 1206.3 128.129C1205.88 129.107 1205.26 129.983 1204.49 130.703C1203.71 131.424 1202.8 131.971 1201.81 132.312C1198.65 133.413 1195.33 133.896 1192 133.737V141H1245.49V133.507C1238.83 133.507 1234.6 132.496 1232.76 130.427C1230.65 127.603 1229.66 124.079 1229.97 120.544V87.5399H1280.12V120.774C1280.2 123.247 1279.88 125.716 1279.18 128.083C1278.8 129.054 1278.22 129.932 1277.48 130.66C1276.74 131.389 1275.87 131.951 1274.91 132.312C1271.74 133.42 1268.4 133.903 1265.05 133.737V141H1318V133.507C1314.57 133.711 1311.13 133.163 1307.92 131.898C1306.97 131.522 1306.11 130.947 1305.39 130.211C1304.67 129.475 1304.11 128.594 1303.74 127.623C1303.05 125.407 1302.67 123.101 1302.62 120.774V51.8232C1302.54 49.3689 1302.84 46.9176 1303.52 44.5604C1303.89 43.6069 1304.46 42.7435 1305.18 42.0238C1305.9 41.3041 1306.76 40.7437 1307.7 40.3774C1310.88 39.1483 1314.29 38.6158 1317.69 38.8144V31H1264.83V38.4467Z" fill="#3D3A3A"/>
<path d="M1419.07 126.862C1417.94 124.705 1416.19 120.62 1413.81 114.561L1380.98 29H1373.48L1342.72 111.99C1340.97 116.621 1338.87 121.103 1336.43 125.393C1335.05 128.036 1333 130.255 1330.5 131.82C1328.18 133.018 1325.6 133.602 1323 133.518V141H1360.01V133.518C1357.08 133.58 1354.17 133.145 1351.38 132.233C1350.18 131.785 1349.16 130.933 1348.49 129.816C1347.82 128.698 1347.54 127.382 1347.7 126.082C1348 123.088 1348.76 120.16 1349.95 117.407L1352.55 110.292H1387.63L1392.7 123.236C1393.31 124.815 1393.63 126.496 1393.65 128.193C1393.81 129.193 1393.6 130.221 1393.06 131.071C1392.52 131.922 1391.69 132.533 1390.73 132.784C1387.67 133.535 1384.53 133.844 1381.38 133.702V141H1432V133.518C1429.16 133.688 1426.32 133.087 1423.78 131.774C1421.77 130.652 1420.12 128.942 1419.07 126.862ZM1355.65 102.443L1369.66 64.0229L1384.48 102.351L1355.65 102.443Z" fill="#3D3A3A"/>
<path d="M1520.2 88.1319C1515.11 85.3072 1509.59 83.373 1503.87 82.4103C1511.19 80.7225 1517.98 77.1977 1523.62 72.1571C1525.56 70.2326 1527.1 67.9246 1528.14 65.3745C1529.18 62.8244 1529.69 60.0859 1529.65 57.3266C1529.85 53.9902 1529.28 50.6521 1527.99 47.5772C1526.71 44.5024 1524.73 41.7753 1522.23 39.6124C1517.49 35.6191 1511.84 32.9105 1505.8 31.7394C1500.11 30.6164 1494.32 30.0342 1488.52 30H1485.6H1476.19L1459.09 30.3662L1437.18 30.8239V38.468C1441.56 37.945 1445.98 38.9453 1449.73 41.306C1450.85 42.7129 1451.69 44.3309 1452.19 46.067C1452.69 47.803 1452.85 49.6228 1452.66 51.4219V120.86C1452.73 123.355 1452.4 125.846 1451.67 128.229C1451.23 129.19 1450.61 130.05 1449.83 130.758C1449.06 131.466 1448.15 132.007 1447.17 132.349C1443.9 133.479 1440.45 133.961 1437 133.768V141H1491C1495.35 140.987 1499.69 140.666 1504 140.039C1508.75 139.285 1513.39 137.932 1517.82 136.011C1522.38 134.106 1526.39 131.05 1529.47 127.131C1532.65 122.799 1534.24 117.472 1533.97 112.071C1534.01 107.247 1532.77 102.502 1530.37 98.3394C1527.92 94.0888 1524.41 90.5686 1520.2 88.1319ZM1475.2 39.0631H1483.57C1487.94 38.9248 1492.28 39.7363 1496.31 41.4433C1499.52 42.7601 1502.26 45.0537 1504.14 48.0111C1506.03 50.9686 1506.97 54.4456 1506.84 57.9674C1506.95 60.7498 1506.46 63.5242 1505.4 66.0894C1504.33 68.6545 1502.72 70.9461 1500.67 72.7979C1495.31 76.8112 1488.73 78.7578 1482.09 78.2907H1475.34L1475.2 39.0631ZM1503.28 126.948C1499.09 130.29 1493.9 132.082 1488.57 132.028C1485.46 132.255 1482.35 131.622 1479.57 130.198C1478.64 129.641 1477.85 128.892 1477.23 128.001C1476.61 127.11 1476.18 126.096 1475.97 125.025C1475.44 122.004 1475.2 118.938 1475.25 115.871V87.2165H1488.12C1491.08 87.0103 1494.05 87.4554 1496.83 88.5216C1499.61 89.5879 1502.13 91.2503 1504.23 93.3959C1508.25 98.196 1510.29 104.401 1509.9 110.698C1510.16 113.735 1509.7 116.791 1508.58 119.616C1507.45 122.441 1505.68 124.953 1503.42 126.948H1503.28Z" fill="#3D3A3A"/>
<path d="M1632.25 126.862C1631.18 124.705 1629.44 120.62 1627.08 114.561L1594.59 29H1587.1L1556.34 111.944C1554.72 116.6 1552.71 121.1 1550.33 125.393C1548.98 128.042 1546.97 130.264 1544.49 131.82C1542.17 133.022 1539.59 133.606 1537 133.518V141H1573.73V133.518C1570.84 133.581 1567.96 133.146 1565.21 132.233C1564.01 131.8 1562.99 130.951 1562.32 129.829C1561.65 128.708 1561.39 127.384 1561.56 126.082C1561.83 123.089 1562.57 120.16 1563.74 117.407L1566.37 110.292H1600.96L1606 123.236C1606.6 124.815 1606.92 126.496 1606.93 128.193C1607.09 129.192 1606.88 130.214 1606.34 131.062C1605.81 131.91 1604.99 132.523 1604.04 132.784C1601 133.532 1597.88 133.841 1594.77 133.702V141H1645V133.518C1642.18 133.695 1639.36 133.093 1636.84 131.774C1634.89 130.619 1633.3 128.915 1632.25 126.862ZM1569.4 102.443L1583.4 64.1148L1598.11 102.443H1569.4Z" fill="#3D3A3A"/>
<path d="M1727.21 38.4521C1730.77 38.2187 1734.33 38.8328 1737.62 40.2462C1738.62 40.7329 1739.51 41.4375 1740.22 42.3111C1740.93 43.1848 1741.45 44.2067 1741.74 45.3063C1742.41 48.4168 1742.69 51.5997 1742.6 54.7824V105.015L1681.45 31H1650.04V38.4521C1652.96 38.6675 1655.81 39.399 1658.48 40.6142C1660.37 41.4693 1661.94 42.9197 1662.97 44.7542C1663.92 46.6111 1664.5 48.6444 1664.67 50.7344C1664.89 52.9884 1665.03 56.3925 1665.03 60.9466V117.114C1665.13 120.475 1664.87 123.837 1664.27 127.142C1663.98 128.16 1663.48 129.1 1662.8 129.896C1662.11 130.691 1661.27 131.321 1660.32 131.742C1657.04 133.052 1653.52 133.617 1650 133.398V141.08H1689.88V133.582C1686.15 133.809 1682.41 133.245 1678.89 131.926C1677.86 131.551 1676.92 130.943 1676.14 130.147C1675.36 129.351 1674.77 128.387 1674.4 127.326C1673.76 124.027 1673.48 120.661 1673.6 117.298V56.4385L1743.81 142H1751.12V54.5984C1750.99 51.2215 1751.25 47.8411 1751.88 44.5243C1752.18 43.4864 1752.71 42.5328 1753.43 41.7357C1754.14 40.9387 1755.03 40.3192 1756.01 39.9242C1759.53 38.6392 1763.27 38.0917 1767 38.3141V31H1726.94L1727.21 38.4521Z" fill="#3D3A3A"/>
<path d="M1884.55 49.3258C1879.5 43.0241 1873.06 38.0399 1865.76 34.7832C1856.54 30.6907 1846.55 28.7267 1836.5 29.0306C1825.19 28.7172 1814 31.4634 1804.06 36.9922C1795.45 41.881 1788.4 49.1968 1783.74 58.0698C1779.93 65.3882 1777.68 73.448 1777.13 81.7204C1776.58 89.9927 1777.75 98.2906 1780.55 106.07C1782.99 112.853 1786.66 119.1 1791.38 124.478C1796.62 130.357 1803.09 134.951 1810.3 137.916C1818.86 141.456 1828.04 143.178 1837.27 142.978C1848.53 143.273 1859.67 140.544 1869.58 135.063C1878.18 130.217 1885.26 122.972 1889.99 114.169C1894.63 105.547 1897.05 95.8513 1897 86.0045C1896.93 79.7531 1895.95 73.5476 1894.08 67.5961C1892.02 60.9586 1888.79 54.7652 1884.55 49.3258ZM1870.53 99.3966C1869.89 104.635 1868.51 109.75 1866.44 114.584C1864.16 119.915 1860.55 124.535 1855.97 127.976C1850.48 131.831 1843.92 133.753 1837.27 133.452C1830.58 133.752 1823.98 131.884 1818.39 128.114C1813.74 124.848 1810.07 120.323 1807.79 115.044C1805.65 110.242 1804.22 105.138 1803.56 99.9028C1803 95.1847 1802.71 90.4358 1802.71 85.6824C1802.61 77.9212 1803.53 70.182 1805.45 62.6719C1807.11 55.9438 1810.73 49.8925 1815.83 45.322C1821.83 40.3618 1829.43 37.8828 1837.13 38.3728C1842.92 38.1653 1848.65 39.5141 1853.76 42.2846C1858.17 44.8163 1861.85 48.5005 1864.41 52.9615C1867.05 57.5895 1868.89 62.6494 1869.85 67.9183C1870.9 73.7004 1871.41 79.5713 1871.38 85.4523C1871.38 90.1141 1871.1 94.7715 1870.53 99.3966Z" fill="#3D3A3A"/>
</svg>
