<svg width="144" height="153" viewBox="0 0 144 153" fill="none" xmlns="http://www.w3.org/2000/svg">
<path d="M143.125 120.901C145.201 123.97 147.243 126.967 149.255 129.959C149.743 130.683 150.385 130.87 151.151 130.477C152.524 129.772 153.896 129.053 155.246 128.301C156.196 127.771 157.085 127.129 158.043 126.618C159.248 125.979 159.553 125.048 159.27 123.766C158.496 120.27 161.117 117.478 163.703 116.691C167.183 115.631 170.471 117.127 172.176 120.624C173.666 123.679 171.976 127.211 169.374 128.825C167.507 129.983 165.372 130.711 163.335 131.614C161.76 132.314 160.184 133.022 158.581 133.664C156.978 134.306 155.367 134.894 153.737 135.445C152.276 135.939 152.024 136.494 152.2 137.998C152.48 140.301 152.641 142.617 152.68 144.937C152.705 146.929 152.979 147.462 154.936 147.108C157.406 146.663 159.899 146.139 162.199 145.2C165.388 143.902 168.438 142.241 171.484 140.619C172.582 140.029 173.524 139.096 174.547 138.333C174.792 138.149 175.077 138.017 175.552 137.737C175.621 138.215 175.772 138.561 175.695 138.835C175.267 140.463 174.786 142.077 174.322 143.696C174.273 143.872 174.196 144.039 174.138 144.212C173.192 147.02 173.614 147.607 176.57 147.605C180.644 147.605 184.714 147.605 188.785 147.605C191.153 147.605 191.724 146.971 191.466 144.61C190.917 139.565 188.351 135.736 184.261 132.868C183.395 132.29 182.49 131.772 181.552 131.32C180.685 130.878 180.668 130.288 181.042 129.506C181.821 127.859 182.631 126.242 183.306 124.565C185.686 118.642 183.246 111.335 177.978 107.737C175.154 105.816 172.061 104.992 168.781 104.542C166.549 104.235 166.61 104.032 166.714 101.825C166.975 96.4013 165.171 91.7873 160.777 88.3756C156.449 85.0133 151.538 84.7607 146.452 85.9053C145.055 86.2182 143.729 86.9318 142.437 87.5878C141.339 88.1368 140.576 88.0984 140.049 87.0032C138.44 83.6491 135.855 81.1898 132.66 79.5292C129.314 77.7891 125.759 77.2511 121.955 78.4862C118.151 79.7214 115.313 82.0023 113.037 85.1478C112.639 85.6967 112.351 86.3225 111.989 86.8989C111.27 88.0462 110.691 88.1368 109.497 87.4945C102.566 83.7809 93.0089 84.4753 88.0272 91.7407C85.8703 94.8473 84.9047 98.627 85.3072 102.388C85.4554 103.944 85.2111 104.309 83.5944 104.482C78.7719 104.976 74.4379 106.499 71.1991 110.353C68.2842 113.822 67.2851 117.884 67.4635 122.317C67.5265 124.931 68.335 127.473 69.7938 129.643C70.3427 130.436 70.1781 130.966 69.2448 131.471C65.2375 133.609 62.1606 136.565 61.2219 141.242C60.9113 142.571 60.6694 143.915 60.4973 145.269C60.3546 146.762 60.9419 147.525 62.3967 147.547C67.0609 147.618 71.727 147.613 76.3949 147.531C77.8359 147.503 78.1049 146.743 77.6273 145.365C77.0043 143.567 76.491 141.728 75.9805 139.895C75.8679 139.488 75.964 139.022 75.964 138.223C76.6282 138.638 77.0619 138.816 77.383 139.123C80.0729 141.767 83.2705 143.556 86.7976 144.791C88.6887 145.453 90.5579 146.241 92.5012 146.669C94.3566 147.078 96.2944 147.16 98.202 147.262C99.1929 147.314 99.4207 146.548 99.4646 145.664C99.6019 143.035 99.7638 140.405 99.9806 137.781C100.077 136.595 99.5305 135.816 98.4161 135.407C95.364 134.287 92.3255 133.123 89.3172 131.894C87.1791 131.021 85.0217 130.151 83.0043 129.031C81.7289 128.334 80.7118 127.245 80.1037 125.925C79.4956 124.605 79.3289 123.125 79.6283 121.702C80.018 119.702 81.9832 117.036 84.8845 116.515C87.6896 115.996 90.1818 117.031 92.0208 119.496C92.9046 120.679 92.965 121.925 92.9046 123.253C92.7756 126.047 93.0035 126.303 95.5259 127.497C97.2825 128.32 98.9321 129.393 100.634 130.346C101.767 130.98 102.437 130.494 103.104 129.5C104.548 127.351 106.033 125.218 107.655 123.207C108.838 121.738 108.887 121.269 107.586 119.863C104.452 116.476 101.315 113.092 98.2844 109.615C95.8141 106.771 95.5039 103.142 97.826 100.34C101.073 96.4177 105.489 96.8322 108.531 100.636C110.586 103.206 110.301 105.884 108.369 108.426C107.647 109.378 107.696 110.144 108.413 111.11C109.875 113.087 111.201 115.167 112.604 117.19C113.254 118.126 114.009 118.197 115.091 117.714C116.949 116.891 118.917 116.304 120.827 115.595C121.516 115.382 122.178 115.09 122.801 114.725C123.668 114.141 124.228 114.275 124.313 115.302C124.513 117.668 124.656 120.042 124.7 122.413C124.7 122.776 124.132 123.344 123.717 123.481C121.895 124.082 120.026 124.53 118.192 125.095C117.344 125.369 116.839 125.095 116.339 124.409C113.033 119.825 109.701 115.26 106.343 110.712C105.753 109.916 105.849 109.384 106.434 108.673C107.441 107.443 108.47 106.244 108.393 104.441C108.267 101.553 106.434 100.12 104.054 99.2256C102.289 98.5724 100.823 99.6373 99.5991 100.705C97.8891 102.201 97.17 104.973 98.2103 106.691C99.407 108.67 100.928 110.471 102.434 112.236C106.291 116.748 110.208 121.211 114.13 125.666C114.907 126.55 114.931 127.066 113.891 127.837C111.616 129.52 109.467 131.356 108.127 133.972C107.951 134.317 107.051 134.644 106.705 134.49C104.842 133.667 103.057 132.654 101.216 131.745C99.2395 130.763 97.2331 129.824 95.2542 128.853C94.1035 128.33 92.9877 127.734 91.9138 127.068C91.5268 126.794 91.2578 126.119 91.2413 125.614C91.2111 124.711 91.4444 123.805 91.5158 122.896C91.6915 120.788 89.9403 118.999 88.771 118.546C86.0537 117.5 83.9156 117.972 82.4114 119.784C80.147 122.515 80.5477 125.781 83.5313 127.576C85.2248 128.595 87.0995 129.336 88.9028 130.154C91.4646 131.306 94.0382 132.432 96.6238 133.53C98.2377 134.21 99.8983 134.781 101.523 135.451C102.871 136 104.268 136.494 105.506 137.221C105.797 137.424 106.041 137.686 106.224 137.989C106.406 138.293 106.523 138.632 106.565 138.983C106.84 144.41 110.112 147.896 114.124 150.934C114.459 151.189 114.78 151.461 115.447 151.999C114.566 152.156 114.111 152.306 113.655 152.306C95.6787 152.306 77.7023 152.291 59.726 152.26C57.5686 152.26 57.275 152.04 57.3326 149.938C57.4506 145.546 57.3546 141.155 57.8815 136.804C58.4378 132.098 59.511 127.468 61.0819 122.998C62.592 118.712 64.4385 114.553 66.6044 110.559C69.6236 104.992 73.4663 100.013 77.803 95.4077C81.6002 91.3179 85.9409 87.7688 90.7033 84.8596C94.4105 82.6402 98.2937 80.7289 102.314 79.145C106.108 77.5957 110.048 76.4307 114.075 75.6674C119.921 74.6298 125.877 74.1962 131.834 74.9071C135.542 75.349 139.272 75.8568 142.889 76.7488C146.01 77.5201 149.049 78.7305 152.008 80.0151C154.895 81.2538 157.691 82.6967 160.374 84.3326C163.232 86.1193 165.981 88.0743 168.608 90.1871C174.748 95.0673 179.73 101.026 183.762 107.707C185.982 111.388 187.67 115.392 189.548 119.271C191.425 123.149 192.344 127.247 193.335 131.348C194.872 137.721 194.817 144.212 194.708 150.709C194.683 152.048 193.95 152.252 192.833 152.252C175.772 152.233 158.709 152.233 141.646 152.252C140.458 152.252 139.269 152.326 138.078 152.285C137.732 152.285 137.397 151.977 137.057 151.81C137.274 151.552 137.441 151.214 137.71 151.044C140.872 149.061 143.346 146.152 144.797 142.714C145.362 141.415 145.313 139.862 145.64 138.445C145.769 137.897 146.029 137.103 146.463 136.903C148.684 135.857 150.965 134.94 153.245 134.024C156.32 132.789 159.413 131.597 162.498 130.381C163.98 129.797 165.462 129.218 166.934 128.608C169.072 127.722 171.482 125.482 171.122 122.71C170.762 119.938 168.479 117.854 165.542 118.002C162.605 118.151 160.601 120.248 160.654 123.149C160.658 123.195 160.658 123.24 160.654 123.286C160.511 124.56 161.812 126.031 160.258 127.082C159.16 127.81 157.933 128.301 156.761 128.896C155.713 129.445 154.667 129.978 153.613 130.505C151.143 131.737 148.673 132.948 146.227 134.194C145.088 134.773 144.501 134.548 143.705 133.398C142.45 131.584 140.853 129.97 139.231 128.457C137.609 126.945 137.499 126.934 139.017 125.293C140.194 124.019 141.306 122.685 142.461 121.39C142.665 121.204 142.887 121.04 143.125 120.901Z" fill="#3D3A3A"/>
<path d="M181.102 39.8644C180.117 39.8644 179.134 39.8233 178.152 39.8397C175.053 39.8891 171.946 40.1142 168.861 39.9385C167.716 39.8727 166.577 38.9779 165.518 38.3274C164.774 37.8745 164.867 37.1361 165.474 36.5872C166.182 35.9477 166.887 35.0776 167.735 34.8607C170.167 34.2349 172.423 32.75 175.113 33.2496C176.186 33.4472 177.287 33.4746 178.366 33.653C179.985 33.9275 181.629 34.1224 183.199 34.5753C185.337 35.1929 187.407 36.041 189.512 36.7491C190.133 36.9191 190.764 37.0502 191.401 37.1416C191.472 37.0016 191.543 36.8672 191.617 36.7189C191.343 36.4445 191.112 36.0794 190.794 35.912C187.701 34.3585 184.643 32.7171 181.462 31.3365C178.064 29.857 174.6 29.6896 171.172 31.4929C169.646 32.2889 167.988 32.8379 166.377 33.4664C164.815 34.0757 163.259 34.7262 161.65 35.1956C160.377 35.5412 159.075 35.7681 157.761 35.8736C156.693 35.9751 155.958 35.3493 155.51 34.3886C155.063 33.428 155.431 32.7418 156.01 32.0034C158.872 28.3913 162.688 26.7884 167.203 26.6731C169.031 26.6292 170.864 26.7198 172.692 26.6731C173.115 26.6731 173.516 26.3163 173.944 26.1242C173.643 25.8327 173.326 25.5578 172.994 25.3008C170.798 23.7829 168.284 24.0821 165.954 24.4609C162.858 24.9604 159.959 26.234 157.154 27.7134C153.861 29.4508 150.476 31.0071 147.106 32.5991C146.457 32.9445 145.736 33.1325 145 33.148C144.196 33.1068 143.043 32.9449 142.711 32.4152C142.319 31.7894 142.322 30.535 142.711 29.8653C144.951 25.9513 148.258 23.3904 152.779 22.5779C154.58 22.2568 156.391 22.0043 158.189 21.6722C158.724 21.5312 159.247 21.3476 159.754 21.1232C159.754 20.9558 159.754 20.7884 159.775 20.6209C159.034 20.3986 158.282 20.2092 157.558 19.943C153.413 18.4169 149.678 19.5148 146.354 21.9988C143.581 24.0684 141.114 26.5414 138.416 28.7152C136.984 29.8362 135.455 30.8265 133.846 31.6741C133.099 32.0181 132.271 32.1465 131.455 32.0446C129.789 31.8827 129.064 30.4472 129.748 28.9238C131.428 25.18 134.414 22.8854 138.18 21.5953C140.076 20.9476 142.116 20.717 144.081 20.2559C144.38 20.1873 144.63 19.8963 144.904 19.7069C144.646 19.4983 144.408 19.1415 144.128 19.1058C143.224 19.0051 142.316 18.9565 141.408 18.9604C138.309 18.9164 135.193 19.04 132.111 18.7902C130.884 18.6886 129.641 17.9173 128.559 17.19C127.431 16.4242 127.667 14.4946 128.886 13.7975C132.361 11.8158 136.022 11.7499 139.709 13.0372C142.146 13.888 144.452 15.1067 146.845 16.0427C147.715 16.3803 148.714 16.4132 149.661 16.5011C149.813 16.501 149.962 16.464 150.096 16.3932C150.23 16.3224 150.344 16.22 150.43 16.0948C150.52 15.8835 150.301 15.5322 150.199 15.2467C150.16 15.162 150.095 15.0924 150.012 15.0491C148.308 14.1268 146.636 13.1277 144.88 12.3043C140.323 10.1716 135.627 8.26129 132.775 3.73244C132.602 3.46824 132.446 3.1932 132.309 2.90901C131.485 1.12217 132.309 -0.11022 134.296 0.00780412C136.424 0.121521 138.439 1.00536 139.964 2.49455C143.087 5.50281 146.129 8.5934 149.087 11.7663C151.989 14.8926 155.142 17.5605 159.328 18.7847C159.929 18.9604 160.445 19.3968 161.027 19.652C161.595 19.9308 162.198 20.1312 162.819 20.2477C163.146 20.2943 163.525 19.9732 163.882 19.8277C163.742 19.5203 163.687 19.1003 163.448 18.9247C161.656 17.6044 159.904 16.1991 157.991 15.082C153.493 12.4223 149.977 8.91729 147.979 4.03711C147.567 3.03253 147.57 1.94286 148.527 1.13864C148.976 0.730516 149.554 0.492927 150.16 0.467342C150.766 0.441758 151.362 0.629805 151.843 0.998662C153.655 2.34634 155.59 3.72421 156.896 5.51104C159.15 8.59341 160.994 11.9777 162.948 15.2741C164.87 18.5102 167.615 20.8186 170.823 22.685C172.11 23.4288 173.293 24.3593 174.575 25.1059C174.965 25.3337 175.55 25.2266 176.044 25.2733C175.846 24.8781 175.742 24.373 175.432 24.1068C171.825 21.0244 167.84 18.3071 165.276 14.1982C164.287 12.5796 163.547 10.8217 163.08 8.98316C162.866 8.15973 163.355 6.84774 163.975 6.19998C164.757 5.39027 165.852 6.02157 166.72 6.58973C170.037 8.74808 172.556 11.9333 173.892 15.6584C176.689 23.3437 182.044 28.6741 188.755 32.9092C189.258 33.1808 189.78 33.4165 190.316 33.6146L190.635 33.2853C190.127 32.5936 189.693 31.8278 189.098 31.2212C186.221 28.2898 183.153 25.5258 181.003 21.9659C179.7 19.8085 178.629 17.5496 178.654 14.9448C178.679 12.34 180.413 11.2641 182.79 12.3867C184.805 13.3391 186.065 15.0848 186.979 16.9457C188.39 19.8332 189.518 22.8607 190.687 25.8607C191.538 28.0565 192.095 30.3566 193.075 32.4783C194.804 36.2276 197.678 39.1453 200.563 42.0246C201.471 42.9331 202.426 43.8004 203.359 44.6897L203.804 44.3521C203.41 43.587 202.978 42.8423 202.509 42.1206C200.969 39.977 199.303 37.9211 197.823 35.7363C195.545 32.3712 193.574 28.8415 193.209 24.6777C193.114 23.7716 193.164 22.8561 193.358 21.9659C193.761 20.2806 195.235 19.8991 196.61 20.9393C198.935 22.6987 200.346 25.1223 201.208 27.7738C202.347 31.2761 203.173 34.8854 204.057 38.4783C204.899 41.8955 206.557 44.9367 208.251 47.967C208.797 48.9703 209.421 49.9294 210.117 50.8352C210.551 51.3842 211.215 51.7547 211.764 52.2076L212.258 51.892C212.118 51.2222 212.113 50.4866 211.813 49.8965C210.685 47.676 209.478 45.4912 208.267 43.3091C206.283 39.7409 205.478 35.8983 205.58 31.8635C205.612 31.4983 205.693 31.1391 205.822 30.7958C206.39 28.965 207.655 28.6356 208.973 30.0355C211.465 32.6787 212.483 35.9806 212.843 39.4829C213.084 41.8434 212.889 44.2533 213.205 46.6001C213.529 49.0319 214.303 51.3979 214.756 53.8188C215.403 57.3019 217.251 60.1454 219.375 62.8518C219.694 63.258 220.286 63.4501 220.748 63.7438C220.874 63.2415 220.978 62.7338 221.135 62.2424C221.368 61.5014 221.659 60.7795 221.884 60.0466C222.092 59.3632 222.414 58.6605 222.394 57.9743C222.318 55.0978 222.227 52.2104 221.947 49.3503C221.818 48.0191 221.329 46.6961 220.835 45.4363C220.703 45.1966 220.516 44.992 220.289 44.8397C220.061 44.6873 219.801 44.5917 219.529 44.5607C219.2 44.5607 218.587 45.2744 218.585 45.6723C218.585 48.0301 218.511 50.418 218.859 52.7346C219.134 54.5406 220.059 56.2424 220.605 58.0155C220.786 58.6029 220.695 59.2754 220.728 59.9094L220.352 60.011C220.13 59.8243 219.79 59.6816 219.699 59.4455C218.11 55.2049 215.983 51.0548 216.795 46.3174C217.042 44.8736 217.668 43.471 218.285 42.1261C218.703 41.2149 219.51 41.1078 220.333 41.7748C221.955 43.0645 223.08 44.8763 223.517 46.902C224.582 51.6092 223.931 56.3824 224.066 61.1253C224.2 65.5169 224.489 69.9085 226.177 74.0257C226.355 74.4621 226.929 74.7338 227.318 75.0824C227.475 74.5801 227.804 74.0614 227.763 73.5755C227.393 69.3596 226.495 65.1766 227.107 60.9057C227.294 59.602 227.656 58.4355 228.672 57.5077C229.517 56.7227 230.291 56.7886 230.867 57.6312C231.746 58.8911 232.652 60.1509 232.583 61.8554C232.487 64.2242 232.553 66.5984 232.498 68.9698C232.475 69.6551 232.361 70.3344 232.16 70.99C230.491 76.6113 230.84 82.1776 232.553 87.7138C232.698 88.1859 232.995 88.6141 233.376 89.3606C234.342 87.6809 233.988 86.2124 233.972 84.8098C233.944 82.4384 233.755 80.0669 233.785 77.6982C233.815 75.4255 234.636 73.4164 236.384 71.8848C237.499 70.9131 238.339 71.1684 239.209 72.3404C240.373 73.9104 240.43 75.5518 239.854 77.281C239.154 79.3835 238.369 81.4585 237.603 83.539C237.459 83.7849 237.284 84.011 237.082 84.2115C236.222 83.3688 236.667 82.6058 236.903 81.7796C237.554 79.5125 238.182 77.2371 238.652 74.9177C238.756 74.41 238.174 73.7594 237.908 73.1748C237.389 73.5152 236.675 73.743 236.39 74.2233C235.882 75.0776 235.527 76.0138 235.341 76.99C235.067 78.5134 234.96 80.0724 234.817 81.6204C234.705 82.8309 234.817 83.8849 235.855 84.8483C236.327 85.2874 236.467 86.5363 236.222 87.228C234.883 91.0048 236.195 94.6388 236.596 98.336C236.659 98.9179 237.049 99.4641 237.287 100.03L237.779 100.065C238.064 99.1887 238.348 98.3159 238.63 97.4467C240.12 97.7212 240.716 98.4129 240.131 99.659C238.619 102.887 239.033 106.246 239.094 109.617C239.118 110.948 239.094 112.277 239.094 113.896C239.439 113.622 240.04 113.391 240.167 113.004C240.459 112.145 240.601 111.243 240.587 110.336C240.423 106.494 241.268 102.676 243.038 99.261C243.433 98.4952 244.199 97.8447 244.943 97.3699C245.338 97.1146 246.134 97.1914 246.589 97.4275C246.902 97.5894 247.034 98.2784 247.062 98.7395C247.062 98.9591 246.535 99.4449 246.438 99.401C244.517 98.4925 243.996 100.15 243.567 101.204C242.513 103.795 241.454 106.436 241.575 109.337C241.575 109.565 241.506 109.831 241.597 110.015C241.825 110.427 242.077 110.826 242.352 111.209C242.622 110.902 242.864 110.571 243.076 110.221C243.798 108.763 244.514 107.3 245.162 105.81C245.406 105.245 245.437 104.594 245.59 103.987C245.776 103.035 246.089 102.112 246.521 101.243C247.325 102.807 246.954 104.232 246.364 105.728C245.463 107.932 244.354 110.046 243.051 112.041C241.3 114.813 241.185 118.063 241.405 121.312C241.545 123.492 241.418 125.688 241.481 127.875C241.481 128.355 241.811 128.828 241.986 129.305C242.297 128.935 242.697 128.608 242.892 128.188C243.167 127.57 243.573 126.84 243.466 126.239C243.109 124.208 244.605 123.917 245.895 123.407C246.101 123.324 246.578 123.407 246.609 123.503C246.727 123.833 246.734 124.192 246.631 124.526C246.249 125.402 245.763 126.231 245.341 127.09C243.551 130.721 242.596 134.501 243.029 138.599C243.148 139.724 242.942 140.882 242.975 142.022C242.975 142.367 243.298 142.7 243.471 143.04C243.746 142.793 244.226 142.592 244.295 142.293C244.509 141.522 244.609 140.723 244.591 139.922C244.407 135.849 245.234 132.143 248.36 129.261C248.706 128.94 249.249 128.594 249.655 128.641C250.062 128.688 250.457 129.19 250.852 129.514C250.536 129.788 250.226 130.337 249.902 130.337C248.514 130.37 247.937 131.462 247.558 132.376C246.769 134.408 246.107 136.486 245.574 138.599C245.448 139.054 245.574 139.82 245.895 140.117C246.771 140.94 246.609 141.7 246.095 142.56C244.787 144.716 243.994 147.145 243.779 149.657C243.735 150.168 243.051 150.956 242.593 151.008C242.091 151.063 241.248 150.544 241.007 150.055C240.005 148.019 239.143 145.914 238.319 143.8C238.255 143.572 238.242 143.332 238.281 143.097C238.321 142.863 238.413 142.641 238.55 142.447C239.434 141.407 239.332 140.32 238.846 139.233C238.05 137.452 237.175 135.709 236.319 133.955C236.166 133.573 235.947 133.221 235.674 132.914C235.247 132.567 234.795 132.253 234.32 131.976C234.178 132.525 233.771 133.17 233.939 133.623C234.504 135.147 235.155 136.638 235.89 138.088C236.346 139.022 236.969 139.878 237.452 140.803C237.614 141.108 237.584 141.517 237.639 141.879L237.276 142.052C236.755 141.423 236.129 140.852 235.734 140.152C234.688 138.302 233.719 136.409 232.775 134.504C232.613 134.074 232.548 133.614 232.586 133.156C232.586 131.133 233.637 130.507 235.369 131.438C237.565 132.621 238.481 134.731 239.088 136.927C239.637 138.923 240.565 140.866 240.257 143.062C240.208 143.402 240.847 143.839 241.166 144.231C241.44 143.775 241.932 143.323 241.934 142.859C241.973 137.095 240.502 131.965 235.896 128.037C233.859 126.311 232.053 124.354 230.996 121.752C230.566 120.689 230.014 119.756 230.104 118.57C230.209 117.184 231.104 116.622 232.355 117.28C234.875 118.606 236.513 120.763 237.812 123.22C238.166 123.848 238.482 124.497 238.756 125.163C238.902 125.623 238.974 126.103 238.97 126.585C238.97 126.681 238.49 126.892 238.476 126.873C238.221 126.522 238.02 126.132 237.776 125.775C236.179 123.415 234.595 121.041 232.937 118.724C232.772 118.496 231.93 118.422 231.759 118.606C231.436 118.952 231.106 119.652 231.254 120.009C231.688 121.102 232.272 122.129 232.989 123.061C234.444 124.875 236.036 126.582 237.581 128.325C238.27 129.099 238.794 128.998 239.423 128.139C240.776 126.291 240.521 124.417 239.868 122.421C238.646 118.658 235.443 116.745 232.635 114.445C230.066 112.34 227.329 110.413 225.515 107.509C225.005 106.686 224.667 105.986 225.329 105.157C226.059 104.237 226.926 104.138 228.016 104.591C231.002 105.832 233.146 108.028 235.02 110.55C235.55 111.267 236.019 112.027 236.519 112.765L236.052 113.125C235.686 112.783 235.315 112.44 234.938 112.098C232.888 110.226 230.865 108.319 228.759 106.507C228.4 106.194 227.7 106.277 227.157 106.175C227.266 106.757 227.179 107.523 227.519 107.888C229.067 109.559 230.714 111.143 232.374 112.708C233.272 113.554 234.224 114.34 235.226 115.06C235.629 115.315 236.112 115.412 236.582 115.334C236.755 115.304 236.799 114.601 236.92 114.212C237.005 113.937 237.049 113.493 237.23 113.418C238.278 112.999 238.034 112.235 237.839 111.467C236.955 108.003 234.71 105.719 231.655 104.007C228.6 102.294 225.18 100.987 222.803 98.1768C221.705 96.8813 221.486 95.3058 222.545 94.5318C223.114 94.1173 224.115 93.8675 224.763 94.0652C227.911 95.0286 230.31 97.1009 232.336 99.6425C233.478 101.078 234.639 102.5 235.789 103.927L236.151 103.834C236.176 103.535 236.316 103.183 236.206 102.939C234.082 98.1411 231.093 94.2408 226.081 91.9819C222.888 90.5409 219.622 88.9627 217.443 85.9709C217.019 85.4413 216.695 84.8397 216.485 84.195C216.131 82.8803 216.957 81.8894 218.31 81.7247C220.108 81.5024 221.519 82.4164 222.853 83.3386C226.048 85.5509 228.381 88.6223 230.774 91.6278C231.496 92.5336 232.355 93.3351 233.151 94.1832L233.604 93.8456C233.269 92.841 233.118 91.7129 232.564 90.8511C230.516 87.6726 228.628 84.3405 225.397 82.1227C223.201 80.6159 220.797 79.6964 218.22 78.9525C214.651 77.9178 210.91 76.9241 208.547 73.5701C207.905 72.6588 207.246 71.5993 207.998 70.71C208.693 69.8866 209.919 68.9424 210.869 68.9891C212.633 69.1134 214.354 69.5894 215.93 70.3889C219.932 72.3679 222.949 75.5765 225.853 78.8976C226.16 79.249 226.717 79.3807 227.159 79.614C227.115 79.0651 227.228 78.4612 227.003 78.0166C224.236 72.5271 219.529 69.3953 213.861 67.6304C211.355 66.8509 208.671 66.667 206.118 66.0165C203.747 65.4126 201.29 64.9186 199.366 63.1949C198.499 62.4236 197.771 61.3723 198.304 60.3156C198.743 59.4455 199.709 58.5178 200.623 58.2653C203.703 57.4144 206.521 58.4492 209.236 59.9314C213.628 62.3193 217.196 65.6954 220.791 69.0769C220.912 69.2149 221.062 69.3246 221.231 69.398C221.681 69.5243 222.142 69.6011 222.603 69.6972C222.587 69.2259 222.532 68.7567 222.438 68.2946C222.322 67.9471 222.127 67.6308 221.87 67.3697C219.581 64.946 217.44 62.355 214.937 60.1784C212.156 57.763 208.624 56.7474 205.017 56.2177C202.273 55.8115 199.473 55.6248 196.692 55.4849C193.857 55.3394 191.115 54.8892 188.823 53.1436C188.121 52.5946 187.481 51.5489 187.451 50.6952C187.393 49.5781 188.532 49.0484 189.567 48.9084C192.99 48.4198 196.355 48.5955 199.679 49.7154C203.247 50.9148 206.206 53.1189 209.307 55.1116C209.856 55.4574 210.608 55.4629 211.267 55.6248C211.048 54.9826 210.993 54.2058 210.584 53.7255C208.028 50.7254 204.995 48.5351 201.128 47.2808C197.812 46.2021 194.563 46.4573 191.247 46.4848C187.931 46.5122 184.572 46.5287 181.259 46.2295C180.12 46.1252 178.931 45.214 178.02 44.3878C177.306 43.7428 177.572 42.7409 178.41 42.1371C179.247 41.5332 180.221 40.998 181.13 40.4326C181.121 40.2432 181.11 40.0593 181.102 39.8644ZM162.767 23.0555C161.944 22.9512 161.42 22.7618 160.939 22.8442C157.887 23.3684 154.78 23.7335 151.816 24.5789C148.851 25.4243 146.194 26.9641 144.369 29.5853C144.133 29.9229 144.001 30.6832 144.199 30.8973C144.473 31.2212 145.201 31.4737 145.591 31.3392C147.708 30.6627 149.785 29.8673 151.813 28.9568C155.293 27.3099 158.697 25.5203 162.128 23.7774C162.27 23.7033 162.364 23.5221 162.767 23.0555ZM190.1 29.9696C190.19 29.5085 190.272 29.3602 190.234 29.2559C188.963 25.9128 187.764 22.5395 186.372 19.2513C185.549 17.33 184.451 15.4965 182.508 14.4315C182.074 14.1927 181.39 13.9539 181.045 14.1351C180.699 14.3162 180.496 15.0079 180.433 15.5075C180.158 17.7966 181.256 19.7261 182.442 21.4526C184.089 23.8433 186.054 26.0226 187.948 28.2349C188.499 28.8744 189.284 29.3218 190.1 29.9696ZM211.561 70.172C211.031 70.5453 210.306 70.8774 209.873 71.4374C209.642 71.7311 209.719 72.6423 209.996 72.8894C211.347 74.0806 212.675 75.4228 214.264 76.1831C216.562 77.281 219.068 77.9479 221.502 78.7329C221.909 78.8619 222.419 78.6616 222.875 78.6149C222.759 78.2169 222.746 77.7448 222.515 77.4319C220.64 74.8793 218.014 73.2215 215.338 71.6679C214.256 71.0449 212.991 70.7265 211.561 70.172ZM172.679 29.0611L172.613 28.4874C172.134 28.3498 171.643 28.2579 171.147 28.2129C169.643 28.2129 168.128 28.2843 166.632 28.2816C163.083 28.2816 160.113 29.7033 157.5 31.9705C157.157 32.2697 156.814 33.03 156.951 33.3264C157.154 33.7272 157.895 34.1855 158.302 34.1032C160.481 33.6779 162.636 33.1401 164.76 32.492C166.432 31.9678 168.054 31.2184 169.654 30.524C170.691 30.0766 171.677 29.5496 172.679 29.0611ZM184.481 36.8919C184.443 36.7436 184.401 36.5954 184.36 36.4472C184.138 36.324 183.902 36.2264 183.658 36.1563C181.775 35.8241 179.897 35.3932 177.998 35.2258C174.959 34.9513 171.863 34.0154 168.924 35.7445C168.281 36.1233 167.296 36.1316 167.4 37.202C167.513 38.3521 168.526 38.1984 169.292 38.3768C169.424 38.4152 169.56 38.4364 169.698 38.4399C173.576 38.3301 177.46 38.2944 181.33 38.0501C182.401 37.9843 183.438 37.2953 184.487 36.8919H184.481ZM201.699 38.8653L202.141 38.6705C202.141 38.0501 202.284 37.3887 202.119 36.815C201.219 33.7079 200.39 30.5679 199.234 27.5569C198.647 26.0281 197.45 24.7244 196.459 23.3712C196.325 23.2289 196.159 23.1213 195.975 23.0577C195.79 22.9941 195.593 22.9764 195.4 23.0061C195.226 23.0912 195.076 23.2184 194.964 23.3761C194.852 23.5338 194.781 23.717 194.757 23.9092C194.84 25.2651 194.757 26.75 195.276 27.9385C196.396 30.4554 197.823 32.8433 199.212 35.234C199.967 36.4911 200.87 37.6576 201.704 38.8653H201.699ZM202.736 59.1052L202.605 59.4702C202.38 59.4316 202.151 59.4316 201.927 59.4702C201.342 59.6981 200.782 59.9835 200.211 60.247C200.486 60.8536 200.639 61.6413 201.109 62.0229C201.897 62.6323 202.783 63.1021 203.73 63.4117C205.44 64.0018 207.199 64.4575 208.945 64.946C210.282 65.3193 211.621 65.7036 212.98 65.9808C213.342 66.0577 213.781 65.7667 214.185 65.6432C213.971 65.2754 213.844 64.7813 213.526 64.5618C211.813 63.3705 210.136 62.0915 208.286 61.15C206.554 60.2744 204.6 59.7749 202.742 59.1052H202.736ZM149.801 4.05907C150.334 4.95111 150.855 6.27134 151.753 7.24024C154.097 9.77091 156.594 12.1588 159.073 14.5605C159.279 14.7609 159.803 14.6346 160.171 14.6566C160.171 14.286 160.283 13.8743 160.171 13.5587C159.939 13.0664 159.658 12.5992 159.331 12.1643C157.849 9.92736 156.498 7.58333 154.827 5.50006C153.924 4.37471 152.513 3.61716 151.242 2.84039C150.531 2.40672 149.905 2.70864 149.801 4.05907ZM132.339 30.7848C133.656 30.0574 135.001 29.4947 136.138 28.6521C138.506 26.8927 140.779 24.9961 143.063 23.1214C143.376 22.8661 143.532 22.4215 143.76 22.0647C143.315 21.911 142.799 21.5294 142.434 21.642C140.84 22.1116 139.281 22.6912 137.768 23.3767C135.232 24.5706 132.951 26.1379 131.455 28.6082C131.219 28.9952 130.936 29.5551 131.057 29.9037C131.178 30.2523 131.784 30.428 132.339 30.7848ZM193.745 44.4674C193.799 44.3274 193.852 44.1929 193.904 44.042C193.135 43.5973 192.413 43.0127 191.587 42.7382C190.385 42.3402 189.087 42.2414 187.868 41.8791C185.398 41.1462 183.004 41.1462 180.715 42.3951C180.21 42.6696 179.867 43.2487 179.45 43.6879C180.026 44.1106 180.6 44.8901 181.182 44.8983C185.093 44.9505 189.004 44.8462 192.918 44.7693C193.208 44.7146 193.488 44.6126 193.745 44.4674ZM228.891 74.1108L229.44 74.3029C229.97 73.3724 230.771 72.4969 230.964 71.5005C231.29 69.818 231.274 68.0641 231.32 66.3349C231.367 64.6057 231.353 62.8792 231.279 61.1555C231.243 60.2991 230.892 59.5087 229.882 59.4044C228.872 59.3001 228.537 60.1317 228.449 60.9003C228.259 62.3735 228.179 63.8588 228.208 65.344C228.285 67.4794 228.54 69.6094 228.716 71.7393C228.787 72.5243 228.831 73.3148 228.891 74.0943V74.1108ZM139.217 17.8103C139.231 17.7417 139.245 17.6758 139.256 17.6072C140.532 17.6072 141.811 17.6429 143.098 17.5852C143.507 17.5688 143.905 17.3108 144.312 17.1625C144.037 16.8524 143.831 16.383 143.488 16.254C141.583 15.5267 139.687 14.673 137.705 14.2668C135.948 13.9073 134.071 13.9402 132.27 14.0802C131.658 14.1268 131.112 15.0326 130.536 15.5431C131.01 15.9658 131.436 16.6657 131.974 16.7646C134.367 17.2065 136.796 17.4782 139.217 17.8103ZM182.453 38.8955C182.425 39.0822 182.398 39.2688 182.368 39.4582C183.032 39.5927 183.696 39.7327 184.36 39.8644C187.122 40.4134 189.957 40.7263 192.627 41.5607C195.037 42.31 197.263 43.6385 199.588 44.6732C199.863 44.7913 200.239 44.6485 200.568 44.6266C200.447 44.3164 200.412 43.9047 200.187 43.7098C199.152 42.7541 198.052 41.8727 196.893 41.0721C195.408 40.1169 193.805 39.3484 192.18 38.4591C189.106 39.1398 185.694 37.7702 182.453 38.8955ZM166.275 8.5687C165.089 8.51381 164.628 9.28508 165.1 10.2732C165.77 11.6456 166.492 13.0811 167.486 14.2339C169.407 16.4736 171.542 18.5459 173.617 20.6566C173.812 20.857 174.229 20.8378 174.545 20.9174C174.512 20.5935 174.564 20.2257 174.43 19.9485C174.123 19.3389 173.781 18.7478 173.406 18.1781C171.811 15.631 170.282 13.0372 168.575 10.5696C167.958 9.68033 166.901 9.0957 166.275 8.5687ZM203.302 53.9588L203.359 53.3632C201.428 51.9551 199.216 50.9805 196.874 50.5059C195.013 50.1573 193.058 50.2451 191.148 50.2808C190.574 50.2808 190.009 50.7776 189.438 51.0466C189.889 51.6159 190.376 52.1559 190.896 52.6632C191.134 52.8746 191.584 52.8663 191.944 52.913C195.054 53.3192 198.164 53.7364 201.276 54.0987C201.94 54.1729 202.627 54.0109 203.302 53.9588ZM211.536 42.8425C211.626 39.4125 210.771 36.0238 209.066 33.0465C208.827 32.6265 208.204 32.4234 207.759 32.1187C207.559 32.6238 207.139 33.1535 207.191 33.6311C207.594 37.561 208.695 41.3877 210.441 44.9313C210.548 45.1399 210.806 45.2743 210.99 45.4418C211.168 45.214 211.476 44.9999 211.503 44.7528C211.552 44.1173 211.564 43.4794 211.539 42.8425H211.536ZM144.619 11.1076C144.828 10.9923 145.371 10.8331 145.368 10.6712C145.347 10.284 145.185 9.91792 144.913 9.6419C143.279 8.0472 141.657 6.43603 139.934 4.94288C138.759 3.93341 137.496 3.03135 136.16 2.24753C135.668 1.95658 134.897 2.14323 134.255 2.11029C134.436 2.65924 134.488 3.32347 134.823 3.75714C137.167 6.87519 140.557 8.71692 143.683 10.8743C143.892 11.028 144.207 11.0143 144.622 11.1076H144.619ZM219.348 83.2206C219.002 83.4539 218.434 83.6516 218.423 83.8821C218.395 84.4311 218.442 85.227 218.788 85.4878C221.189 87.3103 223.657 89.056 226.16 90.733C226.457 90.9334 227.074 90.6562 227.533 90.6013C227.431 90.1457 227.483 89.5391 227.203 89.2618C225.685 87.7027 224.091 86.2205 222.425 84.8208C221.585 84.1264 220.451 83.7751 219.35 83.2206H219.348ZM224.302 95.0231C224.14 95.7285 223.805 96.3406 223.94 96.8264C224.074 97.3122 224.607 97.798 225.071 98.1439C226.992 99.5821 228.941 101.004 230.939 102.338C231.276 102.563 231.919 102.338 232.418 102.308C232.311 101.833 232.361 101.193 232.067 100.916C230.486 99.4202 228.861 97.9655 227.165 96.5986C226.443 96.0057 225.518 95.6681 224.305 95.0148L224.302 95.0231Z" fill="#3D3A3A"/>
<path d="M91.958 20.9857C92.7156 21.2849 93.174 21.5484 93.668 21.6444C95.2819 21.9574 96.9013 22.273 98.5345 22.4679C102.424 22.9564 105.427 24.9903 107.924 27.8531C108.585 28.6066 109.094 29.4809 109.423 30.4277C109.621 31.0315 109.56 32.0745 109.168 32.4368C108.619 32.9501 107.502 33.4167 106.873 33.2026C104.116 32.2897 101.422 31.1949 98.809 29.9254C94.7412 27.8915 90.8711 25.3636 86.3176 24.5429C83.8253 24.0955 81.2151 23.7854 78.8573 25.2483C78.5087 25.4652 78.2727 25.8604 77.9845 26.1733C78.4072 26.3407 78.8244 26.6481 79.2471 26.6564C81.3056 26.703 83.3807 26.4999 85.42 26.6975C89.9077 27.1285 93.7668 28.8412 96.3195 32.7937C97.066 33.9519 96.0285 35.6537 94.3762 35.8129C93.3756 35.9344 92.3609 35.8579 91.3899 35.5878C88.6643 34.7122 85.9855 33.6939 83.3038 32.6976C81.259 31.94 79.2635 31.0507 77.1912 30.3673C75.1189 29.6838 72.9231 30.2795 71.0348 31.0562C67.5105 32.5082 64.1509 34.3499 60.7227 36.0489C60.4812 36.1697 60.2533 36.3234 60.02 36.4497L60.2341 36.9767C60.7501 36.9465 61.3046 37.0288 61.7767 36.8669C63.5855 36.2548 65.3229 35.3463 67.1729 34.9455C71.2626 34.0672 75.3715 32.5796 79.5874 33.4195C81.6762 33.8339 83.9543 34.339 85.6698 35.9337C86.9049 37.081 86.9598 37.9922 85.5435 38.92C84.668 39.4909 83.5453 39.9767 82.5243 39.9959C79.3816 40.048 76.2361 39.8394 73.0933 39.7681C72.2699 39.7489 71.4163 39.8559 70.5764 39.9053C70.5764 40.0865 70.5544 40.2676 70.5407 40.4543C70.8152 40.6217 71.1226 40.7782 71.4025 40.9566C72.1573 41.4451 72.9808 41.8596 73.6395 42.4552C74.5453 43.2786 74.3147 43.9017 73.4172 44.6867C71.548 46.3143 69.3248 46.5751 67.0274 46.5586C63.6459 46.5312 60.2671 46.3939 56.8855 46.339C50.2487 46.232 45.009 49.0344 40.9138 54.1314C40.6585 54.447 40.7244 55.0207 40.6393 55.4736C41.1389 55.4352 41.7372 55.5642 42.1242 55.3336C44.5478 53.8789 46.8315 52.1607 49.3402 50.8789C53.3812 48.7767 58.0099 48.0886 62.4876 48.9246C63.5553 49.1167 64.4089 49.7947 64.376 50.7883C64.3485 51.5678 63.7639 52.4873 63.1573 53.0527C61.365 54.7188 58.9908 55.0427 56.6989 55.3364C52.8068 55.8332 48.8571 55.932 44.998 56.5989C40.4335 57.3949 36.5386 59.5468 33.6704 63.3895C32.5532 64.8799 31.0519 66.0793 29.9045 67.5505C29.4105 68.1791 29.3556 69.159 29.1196 69.9796C29.8744 69.5762 30.7143 69.2797 31.3675 68.7472C34.3867 66.3044 37.2029 63.6255 40.3319 61.3611C43.406 59.1351 46.7656 57.3483 50.8608 58.125C52.1536 58.3721 53.1279 59.0061 53.5479 60.1754C53.9678 61.3446 53.3997 62.4096 52.472 63.2165C50.4161 65.0034 47.8333 65.577 45.2972 66.0299C39.9147 66.9933 34.5404 68.0857 30.201 71.5798C28.0875 73.2843 26.5916 75.7683 24.8789 77.9477C24.6264 78.2661 24.7115 78.8534 24.6401 79.32L24.9969 79.5753C25.4196 79.2432 25.8698 78.9413 26.2623 78.5762C28.7078 76.3228 31.0052 73.8717 33.6292 71.8515C35.276 70.5807 37.373 69.793 39.3712 69.0684C40.9659 68.4865 42.6265 68.846 43.6421 70.3639C44.0044 70.9128 44.1526 71.9037 43.9165 72.4856C43.1468 74.2136 41.7986 75.6191 40.1041 76.46C37.6941 77.6943 35.1403 78.6245 32.5011 79.2295C29.3634 79.9594 26.5113 81.5999 24.3025 83.945C21.9274 86.4805 19.9931 89.3953 18.5797 92.569C18.3985 92.967 18.415 93.4501 18.3382 93.8947L18.7938 94.1692C19.6172 93.2634 20.4214 92.3439 21.2641 91.4546C23.7343 88.8279 26.1086 86.1161 28.7133 83.6375C29.8634 82.5396 31.3675 81.546 33.1324 81.7766C33.8899 81.8754 34.8698 82.3255 35.2184 82.9184C35.5368 83.4674 35.427 84.6888 35.0016 85.1609C33.5825 86.7336 32.0866 88.3338 30.3355 89.4976C27.9668 91.0731 25.2275 92.0859 22.8478 93.6449C20.0756 95.4647 17.7892 97.8362 16.6172 101.075C16.2988 101.951 15.9036 102.796 15.544 103.658L16.0929 103.971C16.7874 103.09 17.5394 102.244 18.168 101.319C20.4516 97.9542 23.2513 95.2012 27.2504 94.0539C27.9366 93.8563 29.0729 94.3119 29.6465 94.8444C30.437 95.5772 30.1955 96.741 29.4928 97.4574C28.1205 98.8298 26.6932 100.202 25.1012 101.3C23.0042 102.716 20.7096 103.809 18.5138 105.102C16.2439 106.446 14.8962 108.508 14.1222 110.997C13.974 111.467 13.598 111.862 13.329 112.293C13.0819 111.766 12.6455 111.247 12.6263 110.712C12.5522 108.393 12.8184 106.046 12.5522 103.751C12.1981 100.732 11.0426 97.9487 9.5165 95.2424C8.17706 92.8682 7.04622 90.2387 7.32069 87.3265C7.37541 86.9182 7.46729 86.5158 7.59517 86.1243C7.86965 85.1883 8.36645 84.2441 9.39024 84.3622C10.1286 84.4445 10.963 85.0484 11.457 85.6577C13.2796 87.9029 13.2851 90.5049 12.3491 93.2552C12.1542 92.4317 11.9978 91.5864 11.759 90.7849C11.3692 89.4537 10.9657 88.1225 10.4717 86.8324C10.3701 86.558 9.76078 86.2643 9.511 86.3494C9.34215 86.444 9.19938 86.5791 9.09545 86.7424C8.99151 86.9057 8.92965 87.0923 8.9154 87.2853C8.96594 88.6982 9.11358 90.1059 9.3573 91.4985C9.60323 92.7889 9.98315 94.0501 10.4909 95.2616C10.7654 95.9286 11.5339 96.3815 11.9346 97.0182C12.64 98.1326 13.2356 99.3129 14.0097 100.702C14.8331 99.2525 15.4095 97.8115 15.5659 96.2387C15.8404 93.5242 16.4799 90.8041 15.6346 88.0813C15.0335 86.1462 14.5861 84.1316 13.7379 82.3173C12.5495 79.7702 11.5421 77.256 11.6656 74.3575C11.726 72.9851 12.4891 72.1205 13.5101 71.5222C13.8971 71.2971 14.7645 71.5002 15.1954 71.8104C17.1524 73.2267 17.8359 75.428 17.9923 77.6403C18.1927 80.5003 17.9703 83.3878 17.9347 86.2643C17.8938 86.6745 17.9011 87.0881 17.9566 87.4967C18.0865 87.8483 18.2618 88.1814 18.4781 88.4875C18.7817 88.2571 19.0579 87.9928 19.3016 87.6998C19.4937 87.3869 19.6146 87.0354 19.6556 86.6705C20.1113 83.1956 21.1186 79.7674 20.5532 76.2075C20.1607 73.7372 19.6254 71.2669 19.4113 68.7802C19.2356 66.2334 19.1889 63.6793 19.2714 61.1278C19.2795 60.4129 19.4518 59.7095 19.7749 59.0718C20.0981 58.4341 20.5634 57.8791 21.1351 57.4498C21.5111 57.1589 22.4855 56.9942 22.6666 57.2083C23.4736 58.158 24.588 59.2284 24.6785 60.3263C24.9228 63.4142 24.7444 66.535 24.6621 69.642C24.6429 70.3255 24.3245 70.9979 24.1433 71.6759L23.6959 71.6567C23.5899 71.268 23.5219 70.87 23.4928 70.4682C23.5285 68.5469 23.6575 66.6255 23.6493 64.7042C23.6477 63.2935 23.5468 61.8847 23.3473 60.4883C23.287 60.0738 22.749 59.4727 22.3757 59.4315C22.0024 59.3904 21.2201 59.813 21.1213 60.1726C20.7233 61.6081 20.2759 63.104 20.2979 64.5642C20.3391 66.8835 20.7645 69.1919 20.9868 71.5085C21.0856 72.524 21.2339 73.3914 22.48 73.6439C22.8066 73.7098 23.1113 74.2422 23.2869 74.6238C23.663 75.4335 24.1982 75.5213 24.7883 74.9724C25.2412 74.5524 25.727 74.0446 25.9109 73.4792C27.0552 69.813 27.6391 65.995 27.6429 62.1543C27.7033 57.5404 27.6648 52.9155 27.9942 48.3208C28.1699 45.8642 29.125 43.5092 31.3209 41.9584C32.4489 41.1624 33.2422 41.3463 33.8488 42.5787C35.4956 45.9081 35.4956 49.3583 34.4499 52.8304C33.879 54.7352 33.1516 56.5962 32.4654 58.4654C32.273 58.8511 32.0461 59.2185 31.7875 59.5633C30.964 58.4462 31.4334 57.5953 31.7326 56.717C32.8799 53.3601 34.1342 49.9978 33.5578 46.361C33.448 45.6693 32.7344 45.071 32.3117 44.4397C31.7847 44.9227 31.0876 45.318 30.7746 45.9136C30.3558 46.7278 30.1021 47.6167 30.0281 48.5293C29.7755 51.6721 29.6246 54.8231 29.4489 57.9713C29.3995 58.8771 29.5752 59.6182 30.4947 60.1671C30.8295 60.3647 30.964 61.1607 30.9284 61.663C30.8844 62.3135 30.577 62.9421 30.3547 63.6639C31.5953 63.9823 32.1415 63.255 32.6466 62.599C34.6612 59.9777 36.2148 57.1946 37.0382 53.8899C38.331 48.7489 38.685 43.5339 39.212 38.3079C39.5277 35.1679 40.6283 32.1596 43.0904 29.9007C44.4628 28.6518 45.5606 28.9675 45.8928 30.7817C46.4719 33.9904 46.3182 37.1825 44.9266 40.1688C43.395 43.4625 41.6768 46.6437 40.0904 49.9017C39.7939 50.5083 39.7308 51.2302 39.4975 52.1524C41.6192 51.7435 42.3218 50.1899 42.9888 48.9328C44.7125 45.6803 46.3704 42.3619 47.6549 38.9227C48.6073 36.3838 48.8269 33.5841 49.5762 30.9629C50.6 27.3508 51.8214 23.7716 54.8818 21.2904C55.5076 20.7826 56.6934 20.316 57.2808 20.5822C57.9779 20.8951 58.7163 22.0205 58.7163 22.7945C58.7163 24.4414 58.2991 26.0882 57.9615 27.7104C57.4709 29.9308 56.5302 32.027 55.1975 33.8696C53.1087 36.8532 51.0063 39.8285 48.9202 42.812C48.5717 43.3061 48.2725 43.8331 47.9513 44.3463L48.2533 44.6675C48.6485 44.4644 49.1453 44.3546 49.417 44.0444C52.461 40.5915 56.128 37.6299 58.2771 33.4661C59.4408 31.1601 60.4201 28.7656 61.2058 26.3051C62.5782 22.1522 63.6349 17.8704 66.6075 14.4889C67.4452 13.5357 68.458 12.752 69.591 12.1805C71.3586 11.3104 72.8216 12.3178 73.1208 14.261C73.5133 16.8356 72.4154 19.004 71.2845 21.1229C68.9872 25.4212 65.2213 28.5009 62.0017 32.0334C61.6826 32.445 61.3988 32.883 61.1536 33.3426L61.4281 33.7214C62.3778 33.1971 63.3933 32.7635 64.2662 32.1349C68.4382 29.1404 72.5279 26.0196 75.1244 21.4523C76.291 19.3992 77.1007 17.1458 78.1437 15.0213C79.8619 11.5328 81.9863 8.37629 85.4667 6.36438C87.3606 5.26648 88.6561 5.96639 88.8263 8.15945C88.9855 10.1796 87.9342 11.7551 87.012 13.3745C85.0495 16.8109 82.2251 19.4514 79.0934 21.8036C78.0801 22.5854 77.1081 23.4191 76.1812 24.3014C75.9726 24.4935 75.9698 24.9052 75.871 25.2154C76.2114 25.2566 76.6642 25.4597 76.8783 25.3142C80.7978 22.6106 85.3267 20.6207 88.0715 16.487C89.7183 14.0168 90.9535 11.2912 92.5427 8.78526C94.4969 5.70564 96.4539 2.59034 99.9535 0.932505C101.932 -0.000712961 104.266 0.992889 104.008 2.8703C103.84 4.09447 103.261 5.31863 102.635 6.41379C100.439 10.2894 97.2197 13.089 93.3277 15.2299C91.6643 16.144 90.1794 17.4011 88.678 18.584C88.3267 18.8585 88.2389 19.4651 88.0303 19.9207C88.6232 20.0003 89.2984 20.2995 89.7924 20.1184C91.195 19.5996 92.485 18.7789 93.8876 18.2657C98.0432 16.7368 100.906 13.627 103.807 10.5007C106.277 7.82459 108.833 5.19512 111.509 2.71385C112.933 1.39088 114.643 0.287487 116.691 0.122802C117.498 0.0547596 118.31 0.167272 119.068 0.452172C119.96 0.806246 120.119 1.51165 119.655 2.47506C117.937 6.02403 115.052 8.2665 111.632 9.97923C108.446 11.5739 105.276 13.1988 102.141 14.8841C101.727 15.1092 101.554 15.7816 101.271 16.2565C101.768 16.3553 102.328 16.6545 102.753 16.531C104.782 15.8887 106.892 15.3507 108.756 14.3654C112.112 12.5565 115.97 11.9025 119.735 12.5044C120.992 12.691 122.205 13.4294 123.333 14.1128C124.368 14.7441 124.105 16.6353 123.029 17.4065C120.998 18.8777 118.67 19.2208 116.257 19.1742C114.062 19.133 111.866 18.9546 109.67 18.9271C108.739 18.9134 107.804 19.133 106.87 19.2455C106.835 19.4267 106.796 19.6078 106.761 19.7945C107.224 19.9647 107.683 20.165 108.158 20.2995C109.105 20.574 110.079 20.7579 111.015 21.0379C112.387 21.4496 113.798 21.8448 115.132 22.3636C118.396 23.6234 120.772 25.7781 121.925 29.187C122.474 30.7763 121.711 32.1569 120.029 32.113C119.081 32.0497 118.156 31.7957 117.309 31.3664C113.345 29.4999 110.518 26.1678 107.257 23.4066C102.717 19.5639 98.54 18.101 92.6552 20.4477C92.4095 20.6091 92.1764 20.789 91.958 20.9857ZM71.5672 16.7478C71.5837 14.3077 70.9195 13.5008 69.9204 14.176C68.7401 14.9719 67.4501 15.9024 66.7859 17.0964C65.3696 19.6216 64.3156 22.3471 63.1326 25.004C62.6056 26.2007 62.117 27.4222 61.7026 28.6628C61.5791 29.0306 61.7712 29.5054 61.8206 29.9336C62.1527 29.7689 62.5809 29.6866 62.8005 29.4258C65.2049 26.5685 67.6971 23.7689 69.8984 20.7606C70.8481 19.4733 71.183 17.7194 71.5672 16.7478ZM89.1666 23.0909C89.7156 23.563 89.8748 23.7771 90.0916 23.8869C93.3249 25.5338 96.5335 27.2218 99.819 28.7534C101.93 29.71 104.092 30.5521 106.294 31.2758C106.717 31.4185 107.466 31.1194 107.809 30.7735C107.979 30.6006 107.724 29.6756 107.403 29.4011C105.948 28.1084 104.54 26.6701 102.86 25.7506C99.1987 23.7414 95.0733 23.2995 90.9891 22.8521C90.5335 22.789 90.0504 22.9619 89.1666 23.0909ZM29.7536 78.9111C30.1818 78.7793 30.4892 78.697 30.7856 78.5899C32.8661 77.8406 34.9988 77.2176 37.0053 76.2953C38.5526 75.5624 40.0113 74.6554 41.3529 73.5917C42.0144 73.084 42.6402 72.1974 41.8333 71.2038C41.0263 70.2102 40.1096 70.1059 39.0254 70.6274C37.6063 71.3218 36.0583 71.8433 34.8012 72.7601C32.8277 74.2011 31.0436 75.9028 29.2074 77.5277C29.1017 77.6368 29.0247 77.7703 28.983 77.9163C28.9413 78.0624 28.9364 78.2165 28.9686 78.3649C29.1113 78.6284 29.5175 78.7601 29.7536 78.9111ZM79.2224 28.4075L79.0302 28.8714C79.2419 29.0342 79.4679 29.1775 79.7054 29.2996C82.9772 30.628 86.227 32.0224 89.5454 33.2246C90.9342 33.7269 92.4658 33.8669 93.937 34.048C94.2664 34.0892 94.8318 33.7104 94.9663 33.3893C95.0169 33.1857 95.0185 32.973 94.9707 32.7688C94.923 32.5645 94.8274 32.3745 94.6918 32.2145C92.4109 30.0187 89.6936 28.6106 86.5207 28.317C84.6213 28.1413 82.6945 28.2044 80.7814 28.1962C80.2573 28.2309 79.7364 28.3024 79.2224 28.4103V28.4075ZM67.1454 36.3481C67.4666 36.7598 67.5269 36.8971 67.634 36.9629C67.8533 37.1281 68.102 37.2501 68.3668 37.3225C70.7356 37.7123 73.1015 38.2612 75.4895 38.393C78.0751 38.5357 80.6881 38.3243 83.2846 38.1651C83.6881 38.1404 84.2041 37.6299 84.3825 37.2182C84.495 36.9739 84.1574 36.263 83.861 36.1395C82.2526 35.4561 80.7457 34.4515 78.8161 34.7671C75.9863 35.2392 73.129 35.5741 70.2827 35.9584C69.333 36.0983 68.3641 36.2164 67.1564 36.3509L67.1454 36.3481ZM57.569 25.133L57.2204 24.9958C57.256 24.8626 57.2663 24.7238 57.2506 24.5868C57.0804 24.0516 56.8828 23.5219 56.7016 22.9894C56.1938 23.1952 55.5653 23.2803 55.203 23.6344C54.5297 24.2474 53.9719 24.9762 53.5561 25.7863C52.7656 27.5209 52.0711 29.2976 51.4756 31.1084C50.8031 33.1422 50.2569 35.2255 49.7272 37.2951C49.6394 37.6491 49.9221 38.0965 50.0319 38.5C50.3063 38.2612 50.6769 38.0718 50.8718 37.7754C52.3073 35.5576 53.8334 33.3838 55.0822 31.0672C56.0868 29.187 56.751 27.1175 57.569 25.133ZM39.1379 66.0766C40.1727 65.8845 41.029 65.7747 41.8607 65.5551C42.9967 65.284 44.1127 64.9355 45.2011 64.5121C47.1965 63.6886 49.1755 62.7884 51.0941 61.7948C51.4701 61.5999 51.7665 60.7682 51.676 60.3153C51.6073 59.9695 50.8525 59.5194 50.4299 59.5303C48.9394 59.577 47.2871 59.4425 46.0081 60.0436C43.4746 61.2293 41.1306 62.8323 38.7537 64.3337C38.3255 64.6081 38.1141 65.2202 37.8012 65.6758L39.1379 66.0766ZM109.198 21.5374L108.155 21.9573C108.372 22.3663 108.509 22.8549 108.819 23.1705C109.435 23.779 110.098 24.3387 110.801 24.8448C113.252 26.6372 115.684 28.4679 118.225 30.1257C118.774 30.4908 119.773 30.252 120.553 30.1779C120.682 30.1642 120.934 29.4396 120.811 29.231C120.343 28.4529 119.812 27.7139 119.224 27.0214C116.9 24.2026 113.417 23.2968 110.345 21.7131C110.079 21.5758 109.722 21.6143 109.198 21.5374ZM102.141 3.92155C102.04 2.88403 101.455 2.4284 100.585 2.84286C99.8911 3.18546 99.2344 3.59843 98.6251 4.07525C95.3314 6.54553 93.8355 10.3168 91.6945 13.6215C91.5436 13.8548 91.6726 14.423 91.8729 14.6755C91.9882 14.821 92.6387 14.7771 92.8281 14.5932C95.3341 12.1558 97.8647 9.73769 100.239 7.18232C101.079 6.28204 101.521 5.01945 102.141 3.92155ZM57.6184 44.3189C58.2991 44.5742 58.579 44.7635 58.8617 44.7718C62.7346 44.8486 66.6074 44.9365 70.4776 44.9173C71.0649 44.9173 71.7401 44.4589 72.1903 44.0225C72.3687 43.8468 72.1656 42.8367 71.935 42.7544C70.4968 42.2274 68.9734 41.4369 67.5269 41.5247C64.8288 41.6922 62.15 42.3482 59.4903 42.9191C58.9084 43.0453 58.4391 43.6848 57.6184 44.3189ZM112.514 17.5959V17.5273C113.381 17.5273 114.262 17.6261 115.116 17.5081C116.913 17.3023 118.694 16.9777 120.449 16.5365C121.708 16.1879 121.744 15.1943 120.646 14.4614C120.315 14.2189 119.93 14.0598 119.524 13.9976C115.641 13.6633 111.745 14.4664 108.311 16.3086C108.037 16.4541 107.88 16.8192 107.669 17.0799C108.007 17.2528 108.336 17.5548 108.679 17.5712C109.958 17.6316 111.237 17.5959 112.516 17.5959H112.514ZM87.1575 9.89414C86.9818 8.75507 86.2764 8.24728 85.4283 8.83192C84.3962 9.5483 83.3203 10.3635 82.6341 11.3845C80.8116 14.1073 79.1812 16.9591 77.5096 19.7808C77.3614 20.0305 77.4794 20.4395 77.4767 20.7744C77.7841 20.7085 78.2013 20.7469 78.3852 20.5603C80.452 18.4441 82.5682 16.3663 84.4868 14.1183C85.5628 12.864 86.2846 11.3132 87.1575 9.89414ZM69.1107 39.5101L69.1354 39.027C68.7813 38.8952 68.4272 38.6537 68.0704 38.6455C65.257 38.5933 62.4409 38.5823 59.6248 38.5741C59.4629 38.5741 59.3009 38.7196 59.1417 38.7992C58.4022 39.1256 57.6811 39.4921 56.9816 39.8971C55.2771 40.995 53.5891 42.1423 51.9532 43.3445C51.6513 43.5696 51.6238 44.1679 51.4701 44.5879C51.8952 44.5714 52.3171 44.506 52.7272 44.393C56.2954 42.9493 59.5891 40.8248 63.547 40.4296C64.9524 40.2896 66.3467 40.0398 67.741 39.8202C68.2022 39.7434 68.655 39.6061 69.1107 39.5101ZM50.2707 54.1451L50.3036 54.3647C53.7592 53.8377 57.2149 53.3162 60.6651 52.7645C61.0718 52.7158 61.4545 52.5455 61.763 52.2759C62.0786 51.9438 62.4464 51.3976 62.3668 51.0408C62.2872 50.684 61.6614 50.3574 61.2442 50.3162C60.1161 50.2091 58.9688 50.286 57.8325 50.2476C54.8132 50.146 52.1563 51.3455 49.5707 52.7041C49.2194 52.8935 48.9943 53.3217 48.7089 53.6401C49.1398 53.8075 49.5653 53.9804 49.9989 54.1396C50.0893 54.152 50.1812 54.1492 50.2707 54.1314V54.1451ZM118.066 2.51349C117.457 2.23901 117.089 1.90964 116.751 1.93709C116.25 1.98341 115.774 2.1741 115.379 2.48604C112.574 4.8081 109.785 7.15213 107.043 9.54556C106.722 9.82003 106.7 10.4376 106.538 10.8987C107.087 10.8987 107.782 11.1101 108.155 10.8548C110.658 9.13933 113.142 7.38543 115.522 5.50527C116.466 4.74497 117.116 3.65256 118.08 2.49976L118.066 2.51349ZM40.4664 42.941C40.4333 43.5357 40.4433 44.1319 40.4966 44.7251C40.5323 44.9694 40.8726 45.1643 41.0757 45.3839C41.2678 45.167 41.5396 44.9831 41.6247 44.7334C42.1736 43.2978 42.8406 41.8788 43.1947 40.3911C43.7683 37.9675 44.1608 35.4972 44.5671 33.0352C44.5602 32.8437 44.504 32.6572 44.404 32.4937C44.304 32.3302 44.1635 32.1953 43.9961 32.102C43.7436 32.0279 43.2358 32.3517 43.0464 32.6372C42.6433 33.3001 42.2821 33.9877 41.965 34.6958C40.6585 37.2868 40.557 40.1167 40.4664 42.941ZM24.5468 91.3393C25.9521 90.5379 26.932 90.0822 27.7993 89.4674C29.6411 88.1582 31.4691 86.8187 33.1983 85.3667C33.5414 85.0785 33.4206 84.2386 33.5112 83.6513C32.9293 83.6074 32.3144 83.4235 31.7737 83.5552C31.1553 83.72 30.5845 84.0285 30.1077 84.4555C28.1863 86.1572 26.2815 87.9002 24.4342 89.6925C24.2366 89.8791 24.4699 90.5049 24.5413 91.3393H24.5468ZM16.9548 80.4344C16.8779 78.3758 16.9548 75.966 15.4205 73.9513C15.146 73.578 14.4735 73.062 14.232 73.169C13.9936 73.2929 13.787 73.47 13.628 73.6866C13.469 73.9031 13.362 74.1534 13.3152 74.4179C13.2819 75.4197 13.3994 76.4209 13.6638 77.3877C14.243 79.5286 14.9237 81.6421 15.6044 83.7528C15.7114 84.0877 16.0298 84.3539 16.2521 84.6504C16.4854 84.3045 16.8834 83.9779 16.9219 83.6128C17.0179 82.6549 16.9548 81.6915 16.9548 80.4344ZM27.5962 95.1353C27.072 95.3302 26.8936 95.3769 26.7344 95.4592C24.0946 96.8188 21.7408 98.6731 19.8011 100.921C19.5596 101.196 19.5925 101.725 19.4964 102.134C20.0454 102.134 20.7288 102.351 21.1131 102.102C23.0948 100.811 25.0189 99.4254 26.921 98.0201C27.3821 97.6797 27.8679 97.1802 28.0189 96.6642C28.1452 96.2387 27.7609 95.6788 27.5962 95.1353Z" fill="#3D3A3A"/>
<path d="M138.398 48.5679C137.97 49.1169 137.41 49.5835 137.135 50.1901C135.291 54.2606 133.534 58.375 131.69 62.4454C130.866 64.2899 129.875 66.0685 128.961 67.8773L128.52 67.8965C127.995 66.73 127.46 65.569 126.95 64.3997C125.874 61.9294 124.814 59.4591 123.738 57.0081C122.662 54.557 121.542 52.0126 120.445 49.5176C120.333 49.1693 120.182 48.835 119.994 48.5213C119.525 47.9092 119.053 47.9998 118.778 48.7024C118.663 49.0487 118.617 49.4144 118.644 49.7784C118.817 54.8946 118.979 60.0136 119.193 65.1298C119.262 66.7327 119.852 67.1747 121.477 67.5123C121.957 67.6138 122.341 68.193 122.769 68.5553C122.314 68.978 121.885 69.7273 121.397 69.7657C119.442 69.9066 117.481 69.935 115.523 69.8508C115.04 69.8343 114.571 69.365 114.096 69.1042C114.425 68.6129 114.645 67.8526 115.103 67.6769C116.522 67.128 116.887 66.0877 116.863 64.7483C116.742 58.5268 116.619 52.3109 116.495 46.1004C116.459 44.4234 115.877 43.847 114.165 43.696C113.846 43.6685 113.484 43.7317 113.22 43.5972C112.957 43.4627 112.531 43.0921 112.564 42.889C112.614 42.5706 112.984 42.0656 113.231 42.0656C115.649 42.0052 118.109 41.7911 120.472 42.1617C121.295 42.2879 122.039 43.8085 122.55 44.8351C123.708 47.1516 124.677 49.5643 125.767 51.9165C126.856 54.2688 127.949 56.5277 129.08 58.8114C129.283 59.2258 129.67 59.5497 129.974 59.9093C130.345 59.5415 130.864 59.2423 131.072 58.7977C132.236 56.2697 133.331 53.7116 134.437 51.159C135.535 48.6475 136.556 46.1114 137.693 43.6274C138.434 42.0107 138.969 41.868 140.753 42.1232C142.74 42.3977 144.747 42.5761 146.748 42.7957C147.063 42.8287 147.464 42.7683 147.678 42.9384C148.008 43.2606 148.297 43.622 148.54 44.0144C148.197 44.2504 147.878 44.6484 147.511 44.6951C144.442 45.0986 144.063 45.4526 143.978 48.6366C143.833 54.2112 143.78 59.7913 143.608 65.3659C143.542 67.5232 144.568 68.8737 146.311 69.9084C146.671 70.1225 146.86 70.6138 147.135 70.9789C146.679 71.1902 146.204 71.6102 145.762 71.5745C144.538 71.4433 143.322 71.2436 142.12 70.9761C140.199 70.6029 138.277 70.257 136.386 69.7767C135.865 69.6422 135.456 69.0658 134.994 68.6952C135.445 68.3357 135.843 67.7812 136.35 67.655C138.11 67.2186 138.574 66.8178 138.736 65.0063C138.823 64.0045 138.81 62.9944 138.832 61.9871C138.919 58.3777 139.013 54.7656 139.076 51.1562C139.09 50.3603 138.991 49.5643 138.944 48.7683L138.398 48.5679Z" fill="#3D3A3A"/>
<path d="M51.6097 125.235C51.9034 123.659 51.2337 122.698 49.9244 122.342C48.1623 121.861 46.4002 121.378 44.6325 120.92C42.4752 120.371 41.9454 120.604 41.3141 122.731C40.6279 125.048 40.0735 127.397 39.4752 129.744C39.2007 130.773 39.4587 131.578 40.5895 131.874C42.7853 132.45 44.9811 133.085 47.2099 133.521C48.3462 133.751 49.1312 132.999 49.8009 132.072C50.1276 131.619 50.929 131.064 51.3051 131.188C52.1642 131.462 51.9281 132.286 51.7277 133.049C50.962 135.947 50.2977 138.87 49.5319 141.766C49.4002 142.255 48.9308 142.653 48.6179 143.095C48.2831 142.669 47.7341 142.271 47.6573 141.818C47.4048 140.284 46.6582 139.329 45.1211 138.961C41.8439 138.176 38.5749 137.355 35.3031 136.548C32.9152 135.961 30.508 135.437 28.142 134.767C26.4458 134.287 25.7678 134.402 24.6891 135.752C24.5162 135.967 24.3652 136.249 24.1402 136.348C23.8355 136.48 23.3168 136.623 23.163 136.474C23.0378 136.335 22.9459 136.169 22.894 135.989C22.8422 135.808 22.8319 135.619 22.8639 135.434C23.7312 132.365 24.6535 129.31 25.573 126.258C25.6773 125.865 25.8511 125.493 26.0862 125.16C26.1635 125.024 26.2824 124.916 26.4254 124.852C26.5684 124.788 26.7282 124.771 26.8813 124.804C27.0345 124.837 27.1731 124.919 27.2769 125.036C27.3808 125.153 27.4444 125.301 27.4586 125.457C27.482 125.909 27.447 126.362 27.3543 126.805C27.2308 127.839 27.5876 128.627 28.6004 128.97C29.7642 129.363 30.9472 129.697 32.1302 130.024C33.3571 130.362 34.6005 130.644 35.8329 130.977C36.8759 131.251 37.4797 130.938 37.7322 129.84C38.4212 126.964 39.1732 124.104 39.9033 121.238C40.1064 120.439 39.8704 119.885 39.0278 119.682C36.8978 119.169 34.7679 118.655 32.6352 118.159C31.2793 117.84 30.1979 118.159 29.5529 119.512C29.4266 119.806 29.219 120.058 28.9545 120.239C28.6361 120.368 28.3004 120.45 27.9581 120.481C27.9115 120.143 27.7523 119.775 27.8346 119.476C28.5592 116.89 29.3003 114.308 30.1155 111.747C30.2335 111.376 30.766 111.14 31.1064 110.844C31.3205 111.201 31.691 111.544 31.7212 111.917C31.853 113.512 32.6462 114.363 34.2217 114.708C37.9573 115.532 41.6764 116.427 45.3956 117.327C47.3828 117.81 49.3727 118.299 51.327 118.9C52.5896 119.289 53.3828 118.9 54.1596 117.914C54.5109 117.464 55.2301 117.302 55.7818 117.008C55.8723 117.61 56.1715 118.271 56.0178 118.801C55.37 121.024 54.6454 123.225 53.822 125.388C53.6024 125.978 52.9986 126.431 52.5841 126.947L51.6097 125.235Z" fill="#3D3A3A"/>
<path d="M95.9895 45.8235C101.13 45.7823 103.966 51.8153 101.718 55.7238C100.977 57.0138 99.7114 58.1117 98.4625 58.9763C96.7086 60.1895 94.7763 61.1721 92.8659 62.1273C91.4579 62.8382 91.2191 63.3872 91.8888 64.8034C92.8934 66.895 93.7937 69.0386 94.8559 71.0999C95.7589 72.8593 96.3161 73.0542 98.2841 72.7468C98.5586 72.7029 98.833 72.5492 99.0883 72.6013C99.4755 72.7177 99.8513 72.8693 100.211 73.0542C99.9996 73.3671 99.8596 73.8255 99.5659 73.9709C98.0234 74.7422 96.4451 75.4394 94.8724 76.153C93.253 76.8831 91.6363 77.6242 89.9977 78.3077C89.6354 78.4586 89.1742 78.3845 88.7653 78.4147C88.8147 77.9536 88.6939 77.2509 88.9464 77.0725C91.2465 75.4257 90.1871 73.6169 89.3554 71.7477C87.8074 68.2591 86.3362 64.7321 84.8018 61.2435C83.9363 59.2874 83.0214 57.3542 82.0571 55.4438C81.4478 54.2389 80.0726 53.2919 78.6454 54.1209C78.406 54.2578 78.1278 54.3109 77.8549 54.2718C77.4491 54.1595 77.0534 54.0135 76.6719 53.8354C76.9216 53.4978 77.1028 53.012 77.4377 52.85C79.0214 52.0513 80.6381 51.3102 82.2657 50.5993C85.0571 49.3752 87.8266 48.0796 90.6839 47.0311C92.3719 46.3944 94.2136 46.1967 95.9895 45.8235ZM93.5961 48.4941L93.4643 48.1318C91.2685 48.9552 89.0315 49.7128 86.8522 50.6021C86.0288 50.9342 86.0013 51.7 86.3691 52.4685C87.5411 54.9388 88.768 57.3679 89.8412 59.8794C90.3902 61.1749 91.285 61.2902 92.2429 60.7028C93.9257 59.7059 95.533 58.5867 97.0517 57.3542C98.7809 55.9159 98.9977 53.8189 97.963 51.1977C97.2823 49.4438 95.7315 48.4859 93.5961 48.4804V48.4941Z" fill="#3D3A3A"/>
<path d="M123.387 112.57C123.297 112.062 123.162 111.557 123.113 111.044C122.945 108.993 122.896 106.926 122.616 104.895C122.49 104.057 122.098 103.282 121.499 102.683C117.76 99.2521 118.987 94.081 122.888 91.726C127.082 89.1926 132.533 92.629 132.813 97.2759C132.928 99.1835 132.327 101.119 130.757 102.452C129.766 103.298 129.384 104.305 129.346 105.573C129.283 107.994 129.146 110.412 129.017 112.83C128.921 114.609 129.544 115.196 131.248 115.658C133.209 116.223 135.128 116.927 136.99 117.763C138 118.199 138.761 118.158 139.386 117.28C140.816 115.273 142.148 113.193 143.643 111.241C144.516 110.102 144.36 109.144 143.564 108.162C142.749 107.179 142.292 105.949 142.266 104.673C142.101 100.998 145.224 98.231 148.389 97.6903C151.636 97.1414 155.479 100.539 155.742 103.797C155.973 106.646 154.705 108.738 152.954 110.659C150.291 113.602 147.568 116.495 144.862 119.401C144.722 119.552 144.505 119.637 144.063 119.574C144.196 119.259 144.359 118.958 144.549 118.674C147.047 115.589 149.586 112.537 152.059 109.43C153.212 107.983 154.288 106.581 154.255 104.453C154.197 101.39 151.622 99.3399 149.086 99.2219C146.929 99.1231 145.131 100.484 144.168 102.411C143.344 104.058 143.399 105.848 144.648 107.445C146.536 109.866 146.429 109.819 144.623 112.317C142.008 115.935 139.532 119.654 136.99 123.326C136.628 123.851 136.318 124.457 135.835 124.841C135.631 124.998 135.399 125.113 135.151 125.179C134.904 125.246 134.645 125.262 134.391 125.228C132.437 124.765 130.524 124.131 128.572 123.656C127.524 123.398 127.18 122.832 127.222 121.798C127.455 116.088 127.68 110.382 127.834 104.67C127.869 103.38 128.517 102.562 129.352 101.739C131.314 99.8175 131.731 97.8358 130.62 95.4259C130.25 94.5565 129.636 93.8132 128.852 93.286C128.068 92.7588 127.148 92.4705 126.203 92.4561C124.106 92.3573 122.498 93.3838 121.537 95.2255C120.247 97.6958 120.56 99.7352 122.619 101.646C123.791 102.743 124.318 103.858 124.186 105.488C124.035 107.349 124.186 109.235 124.169 111.109C124.127 111.611 124.042 112.107 123.917 112.594L123.387 112.57Z" fill="#3D3A3A"/>
<path d="M65.6404 94.8087C62.3769 95.0832 60.0329 93.3128 57.859 91.3119C54.73 88.4381 51.697 85.4628 48.6201 82.5286C47.6128 81.568 46.5616 81.4307 45.439 82.3557C45.2276 82.532 44.9725 82.6477 44.7006 82.6906C44.3994 82.6898 44.0996 82.6502 43.8086 82.5726C43.8635 82.2981 43.8086 81.9193 43.987 81.7244C45.0492 80.4728 46.1581 79.2542 47.2478 78.0327C48.4308 76.7015 49.5753 75.3319 50.816 74.0501C51.1289 73.7235 51.7245 73.6658 52.1883 73.4847C52.213 73.954 52.4216 74.5167 52.235 74.8735C51.2688 76.7125 51.8947 78.0904 53.278 79.3749C56.5278 82.3941 59.6898 85.5012 62.9972 88.4491C68.3604 93.225 74.1876 89.2945 75.4996 84.03C75.774 82.8745 75.3761 81.4033 74.893 80.2395C74.4373 79.1416 73.5782 78.1315 72.6972 77.2999C69.3678 74.1709 65.9753 71.1105 62.569 68.0665C61.2515 66.889 60.3348 66.9192 58.8746 67.8469C58.5452 68.0555 58.0676 68.0336 57.6559 68.1214C57.719 67.674 57.623 67.0811 57.8727 66.8012C59.4263 65.0665 61.0484 63.3894 62.6816 61.7261C62.8847 61.5203 63.3019 61.523 63.6203 61.4297C63.7307 61.7536 63.8152 62.0859 63.8728 62.4233C63.8846 62.654 63.8283 62.8831 63.7108 63.082C62.6596 64.8881 63.5324 66.2522 64.7923 67.438C68.0558 70.5039 71.4428 73.4408 74.6185 76.5917C75.7164 77.6896 76.4383 79.1965 77.1547 80.6073C78.3322 82.9266 77.613 85.213 76.5261 87.3073C74.775 90.6751 71.9616 92.9725 68.4648 94.375C67.5974 94.7209 66.5709 94.6797 65.6404 94.8087Z" fill="#3D3A3A"/>
<path d="M21.4117 120.05C21.2223 119.685 21.1071 119.457 20.9863 119.226C20.4373 118.2 19.5892 118.019 18.7905 118.853C16.9081 120.774 15.3838 123.016 14.2891 125.473C14.0585 126.003 13.5508 126.426 13.3641 126.964C13.1994 127.45 13.2982 128.026 13.2818 128.564C13.699 128.402 14.2616 128.358 14.5114 128.056C16.279 125.926 17.9781 123.739 19.71 121.581C19.8909 121.406 20.0928 121.254 20.3111 121.128L20.7036 121.29C20.5252 121.861 20.4977 122.553 20.1546 122.978C18.5654 124.9 16.9652 126.821 15.2141 128.6C12.4007 131.451 10.3394 134.616 10.1472 138.755C10.1198 139.356 9.89473 139.949 9.76024 140.548L9.36225 140.578C9.18903 140.115 9.05049 139.639 8.94779 139.156C8.5745 136.411 8.56627 133.554 7.7895 130.922C6.98254 128.177 5.45097 125.641 4.22132 123.017C3.74373 121.993 2.99166 121.021 2.81326 119.954C2.47973 117.801 2.30907 115.627 2.30273 113.449C2.30273 112.886 2.92579 111.977 3.42534 111.848C3.92489 111.719 4.75929 112.246 5.17924 112.724C7.37504 115.219 8.25336 118.098 7.0841 121.455C6.87824 120.116 6.80962 118.738 6.43359 117.445C6.09025 116.196 5.56494 115.005 4.87457 113.91C4.36679 113.127 3.68334 113.665 3.46651 114.338C3.29166 114.909 3.27083 115.516 3.40612 116.097C3.95508 118.293 4.55618 120.461 5.20668 122.621C5.28175 122.804 5.39741 122.966 5.54486 123.097C5.69231 123.228 5.86766 123.323 6.05756 123.376C7.39426 123.588 7.79225 124.529 8.11888 125.641C8.36937 126.563 8.72293 127.454 9.17286 128.298C9.38146 128.671 9.99629 128.816 10.4272 129.066C10.6331 128.517 11.0393 127.941 10.9954 127.419C10.9377 126.774 10.3229 126.176 10.268 125.534C10.1572 124.311 10.1811 123.079 10.3394 121.861C10.8554 118.098 10.2241 114.678 8.12436 111.417C6.59004 109.032 5.14905 106.504 4.98711 103.507C4.95143 102.846 4.61382 102.198 4.38875 101.553C3.90567 100.18 3.92763 98.8793 4.92124 97.6881C5.52783 96.9608 6.18931 96.8866 6.9798 97.3148C8.45648 98.1163 11.064 102.878 10.139 104.86C10.1033 104.934 10.0073 104.978 9.74926 105.198C9.50498 104.704 9.25246 104.273 9.07131 103.825C8.55804 102.524 8.14633 101.177 7.52876 99.9306C7.33662 99.5463 6.57357 99.2032 6.13167 99.2664C5.80504 99.3103 5.52782 100.024 5.32471 100.48C5.24907 100.751 5.26449 101.041 5.36862 101.303C5.8517 102.903 6.26068 104.536 6.88374 106.082C7.54677 107.625 8.29731 109.13 9.13169 110.588C9.30736 110.915 9.76298 111.094 10.0896 111.341C10.3312 110.934 10.7319 110.545 10.7758 110.119C10.8472 109.403 10.6907 108.662 10.6303 107.923L11.2012 107.868C11.3053 108.522 11.3622 109.183 11.3714 109.845C11.3028 111.184 11.5773 112.353 12.4968 113.391C13.0265 113.989 13.4711 114.214 14.0558 113.564C15.0192 112.485 16.0348 111.439 16.8994 110.284C18.7713 107.786 20.9781 105.752 23.9067 104.553C24.785 104.193 25.4712 104.24 26.1382 104.932C26.8546 105.678 26.9973 106.51 26.3221 107.265C24.5682 109.222 22.8363 111.217 20.9149 113.004C18.9469 114.832 16.7264 116.383 14.6926 118.145C12.4968 120.05 11.569 122.6 11.4702 125.449C11.4702 125.841 11.8518 126.247 12.0604 126.645C12.3348 126.327 12.6862 126.05 12.8426 125.685C14.215 122.509 15.7136 119.421 18.8564 117.637C19.2461 117.457 19.6703 117.363 20.0997 117.363C20.5291 117.363 20.9534 117.457 21.3431 117.637C22.1363 118.062 22.0211 119.075 21.4117 120.05ZM24.8125 107.078C24.6643 105.87 24.0577 105.846 23.4401 106.29C22.1226 107.248 20.764 108.187 19.5974 109.309C18.011 110.86 16.5782 112.573 15.1345 114.25C14.9341 114.486 15.0274 114.972 14.9863 115.348C15.3663 115.377 15.748 115.377 16.1281 115.348C16.3472 115.282 16.5445 115.157 16.699 114.988C19.1281 112.793 21.5709 110.597 23.9671 108.376C24.3871 108.014 24.5984 107.427 24.8125 107.078Z" fill="#3D3A3A"/>
<path d="M122.723 139.507C122.487 138.571 122.215 137.912 122.193 137.245C122.193 136.847 122.561 136.422 122.767 136.032C123.129 136.307 123.656 136.518 123.815 136.886C124.09 137.501 124.125 138.214 124.235 138.89C124.403 139.905 125.059 140.226 125.997 140.207C126.936 140.188 127.603 139.861 127.798 138.879C127.932 138.209 127.957 137.506 128.199 136.869C128.328 136.529 128.805 136.32 129.126 136.046C129.321 136.364 129.675 136.683 129.675 137.004C129.675 137.726 129.401 138.453 129.45 139.169C129.478 139.696 129.725 140.542 130.035 140.643C130.347 140.72 130.672 140.73 130.988 140.675C131.305 140.619 131.606 140.498 131.874 140.32C132.453 139.867 132.716 139.03 133.219 138.45C133.46 138.176 133.949 138.113 134.317 137.954C134.437 138.393 134.742 138.884 134.632 139.252C134.49 139.74 133.856 140.092 133.729 140.58C133.545 141.299 133.307 142.304 133.652 142.795C134.234 143.619 135.11 143.116 135.78 142.543C136.21 142.133 136.669 141.754 137.152 141.409C137.448 141.223 137.86 141.223 138.22 141.135C138.22 141.599 138.395 142.18 138.179 142.507C137.835 143.012 137.248 143.363 136.735 143.74C135.824 144.404 134.907 145.507 133.963 145.54C133.139 145.57 132.316 144.275 131.405 143.748C129.216 142.468 126.637 142.027 124.147 142.504C122.243 142.861 120.423 143.451 119.185 145.126C118.597 145.924 117.983 145.894 117.233 145.244C116.27 144.406 115.153 143.74 114.239 142.858C113.896 142.529 113.934 141.799 113.797 141.253C114.255 141.363 114.766 141.382 115.169 141.604C115.636 141.879 115.949 142.452 116.429 142.633C117.044 142.864 117.76 142.828 118.433 142.908C118.452 142.183 118.617 141.42 118.449 140.742C118.32 140.215 117.656 139.836 117.456 139.307C117.321 138.947 117.579 138.439 117.664 137.997C118.073 138.154 118.6 138.201 118.872 138.489C119.363 139.013 119.597 139.815 120.143 140.243C120.4 140.43 120.691 140.565 121 140.639C121.309 140.714 121.629 140.726 121.943 140.676C122.306 140.597 122.525 139.825 122.723 139.507Z" fill="#3D3A3A"/>
<path d="M7.35553 137.868C7.43533 138.603 7.46193 139.344 7.43512 140.083C7.28965 141.524 8.29424 143.651 9.54036 144.228C9.67936 144.273 9.8274 144.282 9.97114 144.256C10.1149 144.23 10.2498 144.168 10.3638 144.077C11.1076 143.226 11.6373 142.369 11.7362 141.082C11.9942 137.165 13.0838 133.545 16.6081 131.201C16.9699 130.968 17.4065 130.882 17.8295 130.959C16.943 132.192 15.9082 133.342 15.2165 134.673C14.3492 136.356 13.7426 138.178 13.0976 139.965C12.9384 140.41 12.8533 141.137 13.0976 141.425C14.2147 142.734 13.3309 143.799 12.8231 144.927C12.1067 146.547 11.3574 148.155 10.6657 149.786C10.3391 150.551 9.92188 151.375 9.03257 151.032C8.52479 150.837 8.00878 149.989 7.96212 149.399C7.68764 145.962 6.17528 143.113 4.24023 140.36C2.36556 137.69 0.792812 134.818 0.0627069 131.577C-0.198045 130.413 0.378352 129.491 1.34725 128.92C2.31615 128.349 3.10389 128.783 3.72147 129.601C4.45981 130.581 5.2503 131.522 5.91727 132.562C6.58425 133.603 6.72698 134.733 6.10392 136.232C5.72789 135.614 5.45616 135.247 5.26128 134.84C4.67665 133.622 4.22925 132.321 3.49914 131.201C3.19996 130.743 2.31616 130.652 1.69584 130.416C1.63271 131.025 1.33353 131.736 1.54487 132.23C2.66199 134.843 3.89164 137.407 5.11306 139.968C5.25579 140.261 5.74436 140.646 5.95845 140.585C6.13336 140.503 6.28831 140.384 6.41251 140.236C6.5367 140.089 6.62716 139.915 6.67757 139.729C6.78765 139.12 6.84641 138.503 6.85324 137.884L7.35553 137.868Z" fill="#3D3A3A"/>
<path d="M60.1869 106.875C60.1622 108.415 59.1302 109.45 57.6178 109.455C56.2235 109.455 54.873 108.121 54.873 106.763C54.8895 105.577 56.3717 104.122 57.5629 104.125C58.9682 104.125 60.2116 105.434 60.1869 106.875Z" fill="#3D3A3A"/>
<path d="M126.066 145.854C126.643 145.861 127.194 146.096 127.599 146.507C128.004 146.918 128.232 147.472 128.232 148.049C128.218 148.595 127.992 149.115 127.602 149.498C127.213 149.881 126.69 150.098 126.144 150.103C125.597 150.108 125.07 149.901 124.674 149.525C124.277 149.149 124.042 148.634 124.018 148.088C123.988 146.746 124.798 145.867 126.066 145.854Z" fill="#3D3A3A"/>
<path d="M104.693 104.77C104.257 105.072 103.697 105.758 103.046 105.843C102.009 105.983 101.528 105.132 101.547 104.169C101.564 103.302 102.052 102.714 102.999 102.72C104.062 102.725 104.534 103.357 104.693 104.77Z" fill="#3D3A3A"/>
<path d="M125.682 99.0193C125.331 98.6131 124.351 97.9214 124.466 97.5234C124.613 97.1541 124.841 96.8224 125.132 96.5527C125.424 96.2829 125.772 96.0819 126.152 95.9644C126.934 95.7832 127.746 96.3678 127.777 97.3834C127.812 98.506 127.005 98.7969 125.682 99.0193Z" fill="#3D3A3A"/>
<path d="M84.1738 122.84C85.0988 122.047 85.6011 121.279 86.2214 121.163C87.2452 120.971 87.8161 121.85 87.8463 122.783C87.8765 123.667 87.3248 124.52 86.3751 124.38C85.7274 124.284 85.1702 123.571 84.1738 122.84Z" fill="#3D3A3A"/>
<path d="M18.1808 135.354C17.8734 137.627 16.2046 139.197 15.0518 141.047L14.6895 140.866L17.5687 135.047L18.1808 135.354Z" fill="#3D3A3A"/>
<path d="M19.1143 132.113C19.0868 132.723 19.0567 133.329 19.0292 133.939H18.5352V132.141L19.1143 132.113Z" fill="#3D3A3A"/>
</svg>
