<svg width="930" height="61" viewBox="0 0 930 61" fill="none" xmlns="http://www.w3.org/2000/svg">
<path d="M48.2984 46.9926C48.7477 46.9926 48.9973 47.0428 49.0472 47.1432C49.1471 47.1934 49.197 47.4444 49.197 47.8963C49.197 48.1975 49.1471 49.0008 49.0472 50.3062C48.6978 53.2181 48.5231 56.6572 48.5231 60.6235C48.5231 60.8745 48.3733 61 48.0738 61C47.7742 61 47.6245 60.8745 47.6245 60.6235C47.6245 56.356 46.5761 53.1679 44.4795 51.0593C42.3828 48.9506 39.113 47.8963 34.67 47.8963H12.7298C9.08559 47.8963 6.36491 48.8502 4.56776 50.758C2.77061 52.716 1.87203 56.0045 1.87203 60.6235C1.87203 60.8745 1.72227 61 1.42274 61C1.12322 61 0.973456 60.8745 0.973456 60.6235C0.973456 56.858 0.723852 53.3938 0.224644 50.2309C0.174723 49.8292 0.124802 49.4025 0.0748813 48.9506C0.0249604 48.549 0 48.1222 0 47.6704C0 47.2687 0.0249604 47.0177 0.0748813 46.9173C0.174723 46.8169 0.424327 46.7667 0.823694 46.7667C4.6676 46.7667 7.91245 44.4572 10.5583 39.8383C13.254 35.1691 15.2758 29.7469 16.6236 23.5716C17.9715 17.3461 18.6454 12.0745 18.6454 7.75679C18.6454 5.74856 18.0963 4.24239 16.998 3.23827C15.9497 2.23416 13.903 1.7321 10.8578 1.7321C10.7579 1.7321 10.708 1.58148 10.708 1.28025C10.708 0.979015 10.7579 0.828398 10.8578 0.828398H46.9505C47.0504 0.828398 47.1003 0.979015 47.1003 1.28025C47.1003 1.58148 47.0504 1.7321 46.9505 1.7321C45.1035 1.7321 43.7556 1.88272 42.907 2.18395C42.0583 2.43498 41.4593 2.91193 41.1098 3.61482C40.8103 4.3177 40.6605 5.42222 40.6605 6.92839V41.7963C40.6605 43.7543 40.7604 45.0346 40.96 45.637C41.1597 46.2395 41.7089 46.616 42.6074 46.7667C43.5559 46.9173 45.4529 46.9926 48.2984 46.9926ZM34.67 7.07901C34.67 5.42222 34.5702 4.31769 34.3705 3.76543C34.2207 3.21317 33.8463 2.88683 33.2473 2.78642C32.6482 2.6358 31.4002 2.56049 29.5032 2.56049H25.6094C24.1118 2.56049 23.0634 2.76132 22.4644 3.16296C21.9152 3.56461 21.5658 4.21728 21.416 5.12099C21.2663 5.97449 21.0666 7.88231 20.817 10.8444C20.168 16.9193 18.8701 23.5716 16.9232 30.8012C15.0262 38.0309 12.2556 43.1267 8.61134 46.0889H29.1288C31.2255 46.0889 32.5733 46.0387 33.1724 45.9383C33.8214 45.7877 34.2207 45.4613 34.3705 44.9593C34.5702 44.407 34.67 43.3025 34.67 41.6457V7.07901Z" fill="#774F4D"/>
<path d="M78.4919 48.8C73.8493 48.8 69.7059 47.7206 66.0616 45.5617C62.4673 43.3527 59.6718 40.3905 57.6749 36.6753C55.728 32.9099 54.7546 28.8181 54.7546 24.4C54.7546 19.2288 56.0525 14.8107 58.6484 11.1457C61.2443 7.43045 64.564 4.64403 68.6076 2.78642C72.7011 0.928806 76.8695 0 81.1128 0C85.8553 0 90.0236 1.12963 93.6179 3.38889C97.2122 5.59794 99.9579 8.53498 101.855 12.2C103.802 15.865 104.775 19.756 104.775 23.8728C104.775 28.4416 103.577 32.6337 101.181 36.4494C98.7847 40.265 95.5649 43.2774 91.5213 45.4864C87.5276 47.6955 83.1845 48.8 78.4919 48.8ZM81.1128 47.1432C84.3077 47.1432 87.1782 46.3148 89.7241 44.658C92.2701 43.0012 94.2669 40.5914 95.7146 37.4284C97.2122 34.2152 97.9611 30.3996 97.9611 25.9815C97.9611 21.3123 97.1374 17.1453 95.49 13.4802C93.8925 9.81523 91.5712 6.9535 88.526 4.89506C85.5308 2.83662 82.0363 1.80741 78.0426 1.80741C72.8509 1.80741 68.8073 3.58971 65.9119 7.15432C63.0165 10.6687 61.5688 15.5387 61.5688 21.7642C61.5688 26.5337 62.3925 30.8514 64.0398 34.7173C65.6872 38.5831 67.9836 41.6206 70.9289 43.8296C73.9242 46.0387 77.3188 47.1432 81.1128 47.1432Z" fill="#774F4D"/>
<path d="M169.744 46.9926C169.844 46.9926 169.894 47.1432 169.894 47.4444C169.894 47.7457 169.844 47.8963 169.744 47.8963C168.147 47.8963 166.874 47.8712 165.925 47.821L160.609 47.7457L155.592 47.821C154.743 47.8712 153.57 47.8963 152.072 47.8963C151.922 47.8963 151.847 47.7457 151.847 47.4444C151.847 47.1432 151.922 46.9926 152.072 46.9926C154.269 46.9926 155.741 46.7416 156.49 46.2395C157.289 45.7374 157.688 44.6831 157.688 43.0765L157.613 41.7963L156.191 8.66049L139.642 47.3691C139.542 47.57 139.342 47.6704 139.043 47.6704C138.743 47.6704 138.544 47.57 138.444 47.3691L119.798 8.96173L119.199 39.2358C119.149 41.8967 119.624 43.8547 120.622 45.1099C121.62 46.365 123.243 46.9926 125.489 46.9926C125.639 46.9926 125.714 47.1432 125.714 47.4444C125.714 47.7457 125.639 47.8963 125.489 47.8963C124.141 47.8963 123.093 47.8712 122.344 47.821L118.226 47.7457L114.107 47.821C113.408 47.8712 112.385 47.8963 111.037 47.8963C110.937 47.8963 110.887 47.7457 110.887 47.4444C110.887 47.1432 110.937 46.9926 111.037 46.9926C115.181 46.9926 117.277 44.407 117.327 39.2358L118.001 5.49753C116.404 2.98724 114.257 1.7321 111.561 1.7321C111.462 1.7321 111.412 1.58148 111.412 1.28025C111.412 0.979015 111.462 0.828398 111.561 0.828398L114.557 0.903705C115.156 0.953911 115.929 0.979013 116.878 0.979013C117.976 0.979013 118.875 0.953911 119.574 0.903705C120.273 0.8535 120.822 0.828398 121.221 0.828398C121.87 0.828398 122.394 1.05432 122.794 1.50617C123.193 1.95802 123.817 3.03745 124.666 4.74445L141.289 38.7086L156.939 2.71111C157.439 1.45597 158.187 0.828398 159.186 0.828398C159.485 0.828398 159.885 0.8535 160.384 0.903705C160.883 0.953911 161.532 0.979013 162.331 0.979013L166.15 0.903705C166.749 0.8535 167.622 0.828398 168.771 0.828398C168.92 0.828398 168.995 0.979015 168.995 1.28025C168.995 1.58148 168.92 1.7321 168.771 1.7321C166.325 1.7321 164.552 2.13375 163.454 2.93704C162.406 3.74033 161.907 5.14609 161.956 7.15432L163.604 41.7963C163.704 43.3527 163.903 44.4823 164.203 45.1852C164.502 45.8881 165.052 46.365 165.85 46.616C166.649 46.8671 167.947 46.9926 169.744 46.9926Z" fill="#774F4D"/>
<path d="M256.919 46.9926C257.019 46.9926 257.069 47.1432 257.069 47.4444C257.069 47.7457 257.019 47.8963 256.919 47.8963H246.81C246.111 47.8963 245.512 47.7206 245.013 47.3691C244.513 46.9675 243.64 45.9383 242.392 44.2815C241.144 42.6247 238.997 39.6123 235.952 35.2444L235.053 33.9642C232.907 30.9016 231.334 28.7679 230.336 27.563C229.337 26.3078 228.289 25.4292 227.191 24.9272C226.143 24.4251 224.745 24.1741 222.998 24.1741H222.324V41.7963C222.324 43.3025 222.473 44.4321 222.773 45.1852C223.072 45.8881 223.647 46.365 224.495 46.616C225.394 46.8671 226.767 46.9926 228.614 46.9926C228.713 46.9926 228.763 47.1432 228.763 47.4444C228.763 47.7457 228.713 47.8963 228.614 47.8963C226.966 47.8963 225.668 47.8712 224.72 47.821L219.104 47.7457L213.862 47.821C212.963 47.8712 211.69 47.8963 210.043 47.8963C209.943 47.8963 209.893 47.7457 209.893 47.4444C209.893 47.1432 209.943 46.9926 210.043 46.9926C211.89 46.9926 213.238 46.8671 214.087 46.616C214.935 46.365 215.509 45.8881 215.809 45.1852C216.158 44.4321 216.333 43.3025 216.333 41.7963V6.92839C216.333 5.42222 216.183 4.3177 215.884 3.61482C215.584 2.91193 215.01 2.43498 214.162 2.18395C213.313 1.88272 211.965 1.7321 210.118 1.7321C210.018 1.7321 209.968 1.58148 209.968 1.28025C209.968 0.979015 210.018 0.828398 210.118 0.828398L213.937 0.903705C216.034 1.00412 217.756 1.05432 219.104 1.05432C220.601 1.05432 222.498 1.00412 224.795 0.903705L228.614 0.828398C228.713 0.828398 228.763 0.979015 228.763 1.28025C228.763 1.58148 228.713 1.7321 228.614 1.7321C226.816 1.7321 225.469 1.88272 224.57 2.18395C223.721 2.48519 223.122 3.01235 222.773 3.76543C222.473 4.46831 222.324 5.57284 222.324 7.07901V22.9691C225.019 22.8687 226.692 22.8185 227.341 22.8185H228.314L237 10.6938C239.147 7.73169 240.22 5.49753 240.22 3.99136C240.22 2.48519 239.047 1.7321 236.701 1.7321C236.601 1.7321 236.551 1.58148 236.551 1.28025C236.551 0.979015 236.601 0.828398 236.701 0.828398L239.996 0.903705C241.992 1.00412 243.815 1.05432 245.462 1.05432C247.259 1.05432 249.106 1.00412 251.003 0.903705L253.849 0.828398C253.998 0.828398 254.073 0.979015 254.073 1.28025C254.073 1.58148 253.998 1.7321 253.849 1.7321C251.402 1.7321 249.056 2.43498 246.81 3.84074C244.563 5.2465 242.342 7.35514 240.145 10.1667L230.111 22.9691C231.609 23.1198 232.857 23.5465 233.855 24.2494C234.904 24.9021 235.927 25.856 236.925 27.1111C237.924 28.316 239.571 30.5251 241.868 33.7383C244.264 37.1523 246.161 39.7128 247.559 41.4198C248.956 43.1267 250.404 44.4823 251.902 45.4864C253.399 46.4403 255.072 46.9424 256.919 46.9926Z" fill="#774F4D"/>
<path d="M303.581 0.828398C303.731 0.828398 303.806 0.979015 303.806 1.28025C303.806 1.58148 303.731 1.7321 303.581 1.7321C302.234 1.7321 300.911 2.28436 299.613 3.38889C298.315 4.44321 297.242 5.89917 296.393 7.75679L280.518 43.0765C279.619 45.0848 278.596 46.5407 277.448 47.4444C276.35 48.3481 274.927 48.8 273.18 48.8C271.532 48.8 270.159 48.4235 269.061 47.6704C267.963 46.9173 267.414 45.9132 267.414 44.658C267.414 43.7543 267.713 42.9761 268.312 42.3235C268.911 41.6206 269.735 41.2691 270.783 41.2691C271.732 41.2691 272.431 41.5202 272.88 42.0222C273.379 42.5243 273.829 43.2272 274.228 44.1309C274.478 44.7333 274.727 45.2103 274.977 45.5617C275.226 45.863 275.551 46.0136 275.95 46.0136C276.449 46.0136 276.924 45.7625 277.373 45.2605C277.822 44.7584 278.297 43.93 278.796 42.7753L280.892 38.1062L264.493 7.07901C263.395 5.07078 262.397 3.69012 261.498 2.93704C260.65 2.13375 259.501 1.7321 258.054 1.7321C257.954 1.7321 257.904 1.58148 257.904 1.28025C257.904 0.979015 257.954 0.828398 258.054 0.828398L260.749 0.903705C262.247 1.00412 263.77 1.05432 265.317 1.05432C267.663 1.05432 269.935 1.00412 272.131 0.903705C272.88 0.8535 273.804 0.828398 274.902 0.828398C275.052 0.828398 275.127 0.979015 275.127 1.28025C275.127 1.58148 275.052 1.7321 274.902 1.7321C271.657 1.7321 270.035 2.56049 270.035 4.21728C270.035 4.76955 270.259 5.47243 270.709 6.32592L283.888 31.3284L294.521 7.53086C294.92 6.72757 295.12 5.89918 295.12 5.04568C295.12 2.83663 293.248 1.7321 289.504 1.7321C289.354 1.7321 289.279 1.58148 289.279 1.28025C289.279 0.979015 289.354 0.828398 289.504 0.828398L292.649 0.903705C294.446 1.00412 296.043 1.05432 297.441 1.05432C298.34 1.05432 299.438 1.00412 300.736 0.903705L303.581 0.828398Z" fill="#774F4D"/>
<path d="M324.639 21.3123C329.93 21.3123 334.174 22.3165 337.369 24.3247C340.564 26.3329 342.161 29.521 342.161 33.8889C342.161 36.6502 341.487 39.1103 340.139 41.2691C338.841 43.428 336.994 45.135 334.598 46.3901C332.202 47.5951 329.481 48.1975 326.436 48.1975C325.088 48.1975 323.516 48.1222 321.719 47.9716C320.97 47.9214 320.071 47.8712 319.023 47.821C317.974 47.7708 316.826 47.7457 315.578 47.7457L310.337 47.821C309.388 47.8712 308.115 47.8963 306.518 47.8963C306.368 47.8963 306.293 47.7457 306.293 47.4444C306.293 47.1432 306.368 46.9926 306.518 46.9926C308.315 46.9926 309.638 46.8671 310.486 46.616C311.335 46.365 311.909 45.8881 312.209 45.1852C312.508 44.4321 312.658 43.3025 312.658 41.7963V6.92839C312.658 5.42222 312.508 4.3177 312.209 3.61482C311.909 2.91193 311.335 2.43498 310.486 2.18395C309.688 1.88272 308.39 1.7321 306.592 1.7321C306.493 1.7321 306.443 1.58148 306.443 1.28025C306.443 0.979015 306.493 0.828398 306.592 0.828398H336.695C337.144 0.828398 337.419 0.903705 337.518 1.05432C337.668 1.20494 337.743 1.53128 337.743 2.03333L338.642 12.2C338.642 12.3506 338.492 12.451 338.192 12.5012C337.943 12.5012 337.793 12.4259 337.743 12.2753C337.144 9.11235 335.971 6.67737 334.224 4.97037C332.526 3.26337 330.43 2.40988 327.934 2.40988H324.04C322.492 2.40988 321.344 2.56049 320.595 2.86173C319.846 3.11276 319.322 3.58971 319.023 4.29259C318.723 4.99547 318.574 6.02469 318.574 7.38025V21.6889C320.82 21.4379 322.842 21.3123 324.639 21.3123ZM325.013 46.6914C328.757 46.6914 331.478 45.7877 333.175 43.9802C334.923 42.1728 335.796 39.4617 335.796 35.8469C335.796 31.3284 334.648 28.065 332.352 26.0568C330.105 24.0486 326.86 23.0444 322.617 23.0444C321.169 23.0444 319.822 23.1449 318.574 23.3457V41.7963C318.574 43.4531 318.998 44.6831 319.846 45.4864C320.745 46.2897 322.467 46.6914 325.013 46.6914Z" fill="#774F4D"/>
<path d="M399.469 46.9926C399.569 46.9926 399.618 47.1432 399.618 47.4444C399.618 47.7457 399.569 47.8963 399.469 47.8963C397.821 47.8963 396.523 47.8712 395.575 47.821L390.183 47.7457L384.343 47.821C383.444 47.8712 382.246 47.8963 380.748 47.8963C380.599 47.8963 380.524 47.7457 380.524 47.4444C380.524 47.1432 380.599 46.9926 380.748 46.9926C382.645 46.9926 384.043 46.8671 384.942 46.616C385.84 46.365 386.439 45.8881 386.739 45.1852C387.038 44.4321 387.188 43.3025 387.188 41.7963V11.5975L360.83 39.8383V41.7963C360.83 43.3025 360.98 44.4321 361.279 45.1852C361.579 45.8881 362.178 46.365 363.076 46.616C363.975 46.8671 365.373 46.9926 367.27 46.9926C367.37 46.9926 367.419 47.1432 367.419 47.4444C367.419 47.7457 367.37 47.8963 367.27 47.8963C365.672 47.8963 364.399 47.8712 363.451 47.821L357.685 47.7457L352.368 47.821C351.42 47.8712 350.122 47.8963 348.475 47.8963C348.375 47.8963 348.325 47.7457 348.325 47.4444C348.325 47.1432 348.375 46.9926 348.475 46.9926C350.322 46.9926 351.669 46.8671 352.518 46.616C353.417 46.365 354.016 45.8881 354.315 45.1852C354.665 44.4321 354.839 43.3025 354.839 41.7963V6.92839C354.839 5.42222 354.69 4.3177 354.39 3.61482C354.091 2.91193 353.517 2.43498 352.668 2.18395C351.819 1.88272 350.471 1.7321 348.624 1.7321C348.475 1.7321 348.4 1.58148 348.4 1.28025C348.4 0.979015 348.475 0.828398 348.624 0.828398L352.443 0.903705C354.54 1.00412 356.287 1.05432 357.685 1.05432C359.282 1.05432 361.229 1.00412 363.526 0.903705L367.27 0.828398C367.37 0.828398 367.419 0.979015 367.419 1.28025C367.419 1.58148 367.37 1.7321 367.27 1.7321C365.423 1.7321 364.05 1.88272 363.151 2.18395C362.253 2.48519 361.629 3.01235 361.279 3.76543C360.98 4.46831 360.83 5.57284 360.83 7.07901V37.2025L387.188 8.88642V7.07901C387.188 5.57284 387.013 4.46831 386.664 3.76543C386.364 3.01235 385.765 2.48519 384.867 2.18395C384.018 1.88272 382.645 1.7321 380.748 1.7321C380.599 1.7321 380.524 1.58148 380.524 1.28025C380.524 0.979015 380.599 0.828398 380.748 0.828398L384.343 0.903705C386.639 1.00412 388.586 1.05432 390.183 1.05432C391.581 1.05432 393.378 1.00412 395.575 0.903705L399.469 0.828398C399.569 0.828398 399.618 0.979015 399.618 1.28025C399.618 1.58148 399.569 1.7321 399.469 1.7321C397.622 1.7321 396.274 1.88272 395.425 2.18395C394.576 2.43498 393.977 2.91193 393.628 3.61482C393.328 4.3177 393.179 5.42222 393.179 6.92839V41.7963C393.179 43.3025 393.328 44.4321 393.628 45.1852C393.977 45.8881 394.576 46.365 395.425 46.616C396.274 46.8671 397.622 46.9926 399.469 46.9926Z" fill="#774F4D"/>
<path d="M456.38 46.9926C456.53 46.9926 456.605 47.1432 456.605 47.4444C456.605 47.7457 456.53 47.8963 456.38 47.8963C454.783 47.8963 453.51 47.8712 452.561 47.821L447.17 47.7457L441.254 47.821C440.405 47.8712 439.232 47.8963 437.735 47.8963C437.585 47.8963 437.51 47.7457 437.51 47.4444C437.51 47.1432 437.585 46.9926 437.735 46.9926C439.632 46.9926 441.03 46.8671 441.928 46.616C442.827 46.365 443.426 45.8881 443.725 45.1852C444.025 44.4321 444.174 43.3025 444.174 41.7963V24.2494H416.918V41.7963C416.918 43.3025 417.068 44.4321 417.367 45.1852C417.667 45.8881 418.266 46.365 419.164 46.616C420.063 46.8671 421.461 46.9926 423.358 46.9926C423.457 46.9926 423.507 47.1432 423.507 47.4444C423.507 47.7457 423.457 47.8963 423.358 47.8963C421.76 47.8963 420.487 47.8712 419.539 47.821L413.773 47.7457L408.456 47.821C407.508 47.8712 406.21 47.8963 404.562 47.8963C404.462 47.8963 404.413 47.7457 404.413 47.4444C404.413 47.1432 404.462 46.9926 404.562 46.9926C406.409 46.9926 407.757 46.8671 408.606 46.616C409.504 46.365 410.104 45.8881 410.403 45.1852C410.753 44.4321 410.927 43.3025 410.927 41.7963V6.92839C410.927 5.42222 410.777 4.3177 410.478 3.61482C410.178 2.91193 409.604 2.43498 408.756 2.18395C407.907 1.88272 406.559 1.7321 404.712 1.7321C404.562 1.7321 404.487 1.58148 404.487 1.28025C404.487 0.979015 404.562 0.828398 404.712 0.828398L408.531 0.903705C410.628 1.00412 412.375 1.05432 413.773 1.05432C415.37 1.05432 417.317 1.00412 419.613 0.903705L423.358 0.828398C423.457 0.828398 423.507 0.979015 423.507 1.28025C423.507 1.58148 423.457 1.7321 423.358 1.7321C421.51 1.7321 420.138 1.88272 419.239 2.18395C418.34 2.48519 417.716 3.01235 417.367 3.76543C417.068 4.46831 416.918 5.57284 416.918 7.07901V22.5173H444.174V7.07901C444.174 5.57284 444 4.46831 443.65 3.76543C443.351 3.01235 442.752 2.48519 441.853 2.18395C441.005 1.88272 439.632 1.7321 437.735 1.7321C437.585 1.7321 437.51 1.58148 437.51 1.28025C437.51 0.979015 437.585 0.828398 437.735 0.828398L441.254 0.903705C443.55 1.00412 445.522 1.05432 447.17 1.05432C448.568 1.05432 450.365 1.00412 452.561 0.903705L456.38 0.828398C456.53 0.828398 456.605 0.979015 456.605 1.28025C456.605 1.58148 456.53 1.7321 456.38 1.7321C454.533 1.7321 453.185 1.88272 452.337 2.18395C451.488 2.43498 450.889 2.91193 450.539 3.61482C450.24 4.3177 450.09 5.42222 450.09 6.92839V41.7963C450.09 43.3025 450.24 44.4321 450.539 45.1852C450.889 45.8881 451.488 46.365 452.337 46.616C453.185 46.8671 454.533 46.9926 456.38 46.9926Z" fill="#774F4D"/>
<path d="M490.282 0C492.578 0 494.95 0.225926 497.396 0.677778C499.842 1.07942 501.789 1.65679 503.237 2.40988C503.636 2.6107 503.885 2.83663 503.985 3.08765C504.135 3.28848 504.26 3.66502 504.36 4.21728L505.183 13.3296C505.183 13.4802 505.059 13.5807 504.809 13.6309C504.559 13.6309 504.41 13.5556 504.36 13.4049C503.062 9.48889 500.94 6.57696 497.995 4.66914C495.049 2.71111 491.505 1.7321 487.362 1.7321C483.717 1.7321 480.548 2.5856 477.852 4.29259C475.156 5.94938 473.084 8.30905 471.637 11.3716C470.239 14.4342 469.54 17.9737 469.54 21.9901C469.54 26.6593 470.439 30.9518 472.236 34.8679C474.033 38.7839 476.454 41.8967 479.499 44.2062C482.594 46.4654 485.964 47.5951 489.608 47.5951C496.797 47.5951 501.939 43.4531 505.034 35.1691C505.034 35.0185 505.133 34.9432 505.333 34.9432C505.483 34.9432 505.608 34.9683 505.708 35.0185C505.857 35.0687 505.932 35.144 505.932 35.2444L504.884 44.3568C504.784 44.9593 504.659 45.3609 504.509 45.5617C504.41 45.7123 504.135 45.8881 503.686 46.0889C499.093 47.8963 494.401 48.8 489.608 48.8C483.568 48.8 478.526 47.5951 474.482 45.1852C470.439 42.7251 467.468 39.6123 465.571 35.8469C463.674 32.0815 462.726 28.1403 462.726 24.0235C462.726 19.3543 463.999 15.2123 466.545 11.5975C469.141 7.93251 472.535 5.09589 476.729 3.08765C480.972 1.02922 485.49 0 490.282 0Z" fill="#774F4D"/>
<path d="M558.345 46.9926C558.445 46.9926 558.495 47.1432 558.495 47.4444C558.495 47.7457 558.445 47.8963 558.345 47.8963H548.236C547.537 47.8963 546.938 47.7206 546.439 47.3691C545.94 46.9675 545.066 45.9383 543.818 44.2815C542.57 42.6247 540.423 39.6123 537.378 35.2444L536.48 33.9642C534.333 30.9016 532.761 28.7679 531.762 27.563C530.764 26.3078 529.715 25.4292 528.617 24.9272C527.569 24.4251 526.171 24.1741 524.424 24.1741H523.75V41.7963C523.75 43.3025 523.9 44.4321 524.199 45.1852C524.499 45.8881 525.073 46.365 525.921 46.616C526.82 46.8671 528.193 46.9926 530.04 46.9926C530.14 46.9926 530.19 47.1432 530.19 47.4444C530.19 47.7457 530.14 47.8963 530.04 47.8963C528.393 47.8963 527.095 47.8712 526.146 47.821L520.53 47.7457L515.288 47.821C514.39 47.8712 513.117 47.8963 511.469 47.8963C511.37 47.8963 511.32 47.7457 511.32 47.4444C511.32 47.1432 511.37 46.9926 511.469 46.9926C513.316 46.9926 514.664 46.8671 515.513 46.616C516.362 46.365 516.936 45.8881 517.235 45.1852C517.585 44.4321 517.759 43.3025 517.759 41.7963V6.92839C517.759 5.42222 517.61 4.3177 517.31 3.61482C517.011 2.91193 516.437 2.43498 515.588 2.18395C514.739 1.88272 513.391 1.7321 511.544 1.7321C511.444 1.7321 511.394 1.58148 511.394 1.28025C511.394 0.979015 511.444 0.828398 511.544 0.828398L515.363 0.903705C517.46 1.00412 519.182 1.05432 520.53 1.05432C522.028 1.05432 523.925 1.00412 526.221 0.903705L530.04 0.828398C530.14 0.828398 530.19 0.979015 530.19 1.28025C530.19 1.58148 530.14 1.7321 530.04 1.7321C528.243 1.7321 526.895 1.88272 525.996 2.18395C525.148 2.48519 524.549 3.01235 524.199 3.76543C523.9 4.46831 523.75 5.57284 523.75 7.07901V22.9691C526.446 22.8687 528.118 22.8185 528.767 22.8185H529.74L538.427 10.6938C540.573 7.73169 541.646 5.49753 541.646 3.99136C541.646 2.48519 540.473 1.7321 538.127 1.7321C538.027 1.7321 537.977 1.58148 537.977 1.28025C537.977 0.979015 538.027 0.828398 538.127 0.828398L541.422 0.903705C543.419 1.00412 545.241 1.05432 546.888 1.05432C548.685 1.05432 550.532 1.00412 552.429 0.903705L555.275 0.828398C555.425 0.828398 555.5 0.979015 555.5 1.28025C555.5 1.58148 555.425 1.7321 555.275 1.7321C552.829 1.7321 550.482 2.43498 548.236 3.84074C545.99 5.2465 543.768 7.35514 541.572 10.1667L531.538 22.9691C533.035 23.1198 534.283 23.5465 535.282 24.2494C536.33 24.9021 537.353 25.856 538.352 27.1111C539.35 28.316 540.998 30.5251 543.294 33.7383C545.69 37.1523 547.587 39.7128 548.985 41.4198C550.383 43.1267 551.83 44.4823 553.328 45.4864C554.826 46.4403 556.498 46.9424 558.345 46.9926Z" fill="#774F4D"/>
<path d="M612.047 46.9926C612.146 46.9926 612.196 47.1432 612.196 47.4444C612.196 47.7457 612.146 47.8963 612.047 47.8963C610.399 47.8963 609.101 47.8712 608.153 47.821L602.761 47.7457L596.921 47.821C596.022 47.8712 594.824 47.8963 593.326 47.8963C593.177 47.8963 593.102 47.7457 593.102 47.4444C593.102 47.1432 593.177 46.9926 593.326 46.9926C595.223 46.9926 596.621 46.8671 597.52 46.616C598.418 46.365 599.017 45.8881 599.317 45.1852C599.616 44.4321 599.766 43.3025 599.766 41.7963V11.5975L573.408 39.8383V41.7963C573.408 43.3025 573.558 44.4321 573.857 45.1852C574.157 45.8881 574.756 46.365 575.654 46.616C576.553 46.8671 577.951 46.9926 579.848 46.9926C579.948 46.9926 579.997 47.1432 579.997 47.4444C579.997 47.7457 579.948 47.8963 579.848 47.8963C578.25 47.8963 576.977 47.8712 576.029 47.821L570.263 47.7457L564.946 47.821C563.998 47.8712 562.7 47.8963 561.052 47.8963C560.953 47.8963 560.903 47.7457 560.903 47.4444C560.903 47.1432 560.953 46.9926 561.052 46.9926C562.899 46.9926 564.247 46.8671 565.096 46.616C565.995 46.365 566.594 45.8881 566.893 45.1852C567.243 44.4321 567.417 43.3025 567.417 41.7963V6.92839C567.417 5.42222 567.268 4.3177 566.968 3.61482C566.669 2.91193 566.094 2.43498 565.246 2.18395C564.397 1.88272 563.049 1.7321 561.202 1.7321C561.052 1.7321 560.978 1.58148 560.978 1.28025C560.978 0.979015 561.052 0.828398 561.202 0.828398L565.021 0.903705C567.118 1.00412 568.865 1.05432 570.263 1.05432C571.86 1.05432 573.807 1.00412 576.104 0.903705L579.848 0.828398C579.948 0.828398 579.997 0.979015 579.997 1.28025C579.997 1.58148 579.948 1.7321 579.848 1.7321C578.001 1.7321 576.628 1.88272 575.729 2.18395C574.831 2.48519 574.207 3.01235 573.857 3.76543C573.558 4.46831 573.408 5.57284 573.408 7.07901V37.2025L599.766 8.88642V7.07901C599.766 5.57284 599.591 4.46831 599.242 3.76543C598.942 3.01235 598.343 2.48519 597.445 2.18395C596.596 1.88272 595.223 1.7321 593.326 1.7321C593.177 1.7321 593.102 1.58148 593.102 1.28025C593.102 0.979015 593.177 0.828398 593.326 0.828398L596.921 0.903705C599.217 1.00412 601.164 1.05432 602.761 1.05432C604.159 1.05432 605.956 1.00412 608.153 0.903705L612.047 0.828398C612.146 0.828398 612.196 0.979015 612.196 1.28025C612.196 1.58148 612.146 1.7321 612.047 1.7321C610.2 1.7321 608.852 1.88272 608.003 2.18395C607.154 2.43498 606.555 2.91193 606.206 3.61482C605.906 4.3177 605.757 5.42222 605.757 6.92839V41.7963C605.757 43.3025 605.906 44.4321 606.206 45.1852C606.555 45.8881 607.154 46.365 608.003 46.616C608.852 46.8671 610.2 46.9926 612.047 46.9926Z" fill="#774F4D"/>
<path d="M662.443 46.9926C662.543 46.9926 662.593 47.1432 662.593 47.4444C662.593 47.7457 662.543 47.8963 662.443 47.8963C661.096 47.8963 660.022 47.8712 659.224 47.821L655.03 47.7457L649.189 47.821C648.241 47.8712 646.968 47.8963 645.37 47.8963C645.271 47.8963 645.221 47.7457 645.221 47.4444C645.221 47.1432 645.271 46.9926 645.37 46.9926C646.519 46.9926 647.367 46.8922 647.916 46.6914C648.466 46.4905 648.74 46.1642 648.74 45.7123C648.74 45.2605 648.516 44.7082 648.066 44.0556L637.059 27.1111L628.522 39.3111C627.124 41.2189 626.426 42.8506 626.426 44.2062C626.426 46.0638 627.823 46.9926 630.619 46.9926C630.769 46.9926 630.844 47.1432 630.844 47.4444C630.844 47.7457 630.769 47.8963 630.619 47.8963C629.071 47.8963 627.898 47.8712 627.099 47.821L621.858 47.7457L618.488 47.821C617.889 47.8712 616.941 47.8963 615.643 47.8963C615.493 47.8963 615.418 47.7457 615.418 47.4444C615.418 47.1432 615.493 46.9926 615.643 46.9926C617.29 46.9926 619.037 46.3399 620.884 45.0346C622.781 43.679 624.703 41.6959 626.65 39.0852L636.31 25.9062L624.254 7.38025C622.906 5.32181 621.608 3.86584 620.36 3.01235C619.112 2.15885 617.664 1.7321 616.017 1.7321C615.917 1.7321 615.867 1.58148 615.867 1.28025C615.867 0.979015 615.917 0.828398 616.017 0.828398L619.012 0.903705C620.31 1.00412 621.284 1.05432 621.933 1.05432C623.63 1.05432 625.727 1.00412 628.223 0.903705L632.191 0.828398C632.341 0.828398 632.416 0.979015 632.416 1.28025C632.416 1.58148 632.341 1.7321 632.191 1.7321C631.043 1.7321 630.195 1.83251 629.645 2.03333C629.096 2.23416 628.822 2.5856 628.822 3.08765C628.822 3.4893 629.046 4.04156 629.496 4.74445L640.129 21.0864L648.066 9.79012C649.614 7.53087 650.388 5.77366 650.388 4.51852C650.388 2.6609 649.015 1.7321 646.269 1.7321C646.119 1.7321 646.044 1.58148 646.044 1.28025C646.044 0.979015 646.119 0.828398 646.269 0.828398L649.714 0.903705C651.71 1.00412 653.483 1.05432 655.03 1.05432C655.929 1.05432 657.027 1.00412 658.325 0.903705L661.17 0.828398C661.32 0.828398 661.395 0.979015 661.395 1.28025C661.395 1.58148 661.32 1.7321 661.17 1.7321C659.523 1.7321 657.726 2.43498 655.779 3.84074C653.832 5.2465 651.885 7.33004 649.938 10.0914L640.953 22.3667L653.533 41.6457C654.831 43.6037 656.153 44.9844 657.501 45.7877C658.849 46.5909 660.496 46.9926 662.443 46.9926Z" fill="#774F4D"/>
<path d="M730.867 0C733.164 0 735.535 0.225926 737.981 0.677778C740.427 1.07942 742.374 1.65679 743.822 2.40988C744.221 2.6107 744.471 2.83663 744.571 3.08765C744.72 3.28848 744.845 3.66502 744.945 4.21728L745.769 13.3296C745.769 13.4802 745.644 13.5807 745.394 13.6309C745.145 13.6309 744.995 13.5556 744.945 13.4049C743.647 9.48889 741.525 6.57696 738.58 4.66914C735.635 2.71111 732.09 1.7321 727.947 1.7321C724.303 1.7321 721.133 2.5856 718.437 4.29259C715.741 5.94938 713.67 8.30905 712.222 11.3716C710.824 14.4342 710.125 17.9737 710.125 21.9901C710.125 26.6593 711.024 30.9518 712.821 34.8679C714.618 38.7839 717.039 41.8967 720.084 44.2062C723.18 46.4654 726.549 47.5951 730.193 47.5951C737.382 47.5951 742.524 43.4531 745.619 35.1691C745.619 35.0185 745.719 34.9432 745.918 34.9432C746.068 34.9432 746.193 34.9683 746.293 35.0185C746.443 35.0687 746.518 35.144 746.518 35.2444L745.469 44.3568C745.369 44.9593 745.245 45.3609 745.095 45.5617C744.995 45.7123 744.72 45.8881 744.271 46.0889C739.678 47.8963 734.986 48.8 730.193 48.8C724.153 48.8 719.111 47.5951 715.067 45.1852C711.024 42.7251 708.054 39.6123 706.156 35.8469C704.26 32.0815 703.311 28.1403 703.311 24.0235C703.311 19.3543 704.584 15.2123 707.13 11.5975C709.726 7.93251 713.12 5.09589 717.314 3.08765C721.557 1.02922 726.075 0 730.867 0Z" fill="#774F4D"/>
<path d="M803.198 46.9926C803.298 46.9926 803.348 47.1432 803.348 47.4444C803.348 47.7457 803.298 47.8963 803.198 47.8963C801.551 47.8963 800.253 47.8712 799.305 47.821L793.913 47.7457L788.073 47.821C787.174 47.8712 785.976 47.8963 784.478 47.8963C784.328 47.8963 784.254 47.7457 784.254 47.4444C784.254 47.1432 784.328 46.9926 784.478 46.9926C786.375 46.9926 787.773 46.8671 788.672 46.616C789.57 46.365 790.169 45.8881 790.469 45.1852C790.768 44.4321 790.918 43.3025 790.918 41.7963V11.5975L764.56 39.8383V41.7963C764.56 43.3025 764.71 44.4321 765.009 45.1852C765.309 45.8881 765.908 46.365 766.806 46.616C767.705 46.8671 769.103 46.9926 771 46.9926C771.099 46.9926 771.149 47.1432 771.149 47.4444C771.149 47.7457 771.099 47.8963 771 47.8963C769.402 47.8963 768.129 47.8712 767.181 47.821L761.415 47.7457L756.098 47.821C755.15 47.8712 753.852 47.8963 752.204 47.8963C752.105 47.8963 752.055 47.7457 752.055 47.4444C752.055 47.1432 752.105 46.9926 752.204 46.9926C754.051 46.9926 755.399 46.8671 756.248 46.616C757.147 46.365 757.746 45.8881 758.045 45.1852C758.395 44.4321 758.569 43.3025 758.569 41.7963V6.92839C758.569 5.42222 758.42 4.3177 758.12 3.61482C757.82 2.91193 757.246 2.43498 756.398 2.18395C755.549 1.88272 754.201 1.7321 752.354 1.7321C752.204 1.7321 752.13 1.58148 752.13 1.28025C752.13 0.979015 752.204 0.828398 752.354 0.828398L756.173 0.903705C758.27 1.00412 760.017 1.05432 761.415 1.05432C763.012 1.05432 764.959 1.00412 767.255 0.903705L771 0.828398C771.099 0.828398 771.149 0.979015 771.149 1.28025C771.149 1.58148 771.099 1.7321 771 1.7321C769.152 1.7321 767.78 1.88272 766.881 2.18395C765.982 2.48519 765.359 3.01235 765.009 3.76543C764.71 4.46831 764.56 5.57284 764.56 7.07901V37.2025L790.918 8.88642V7.07901C790.918 5.57284 790.743 4.46831 790.394 3.76543C790.094 3.01235 789.495 2.48519 788.597 2.18395C787.748 1.88272 786.375 1.7321 784.478 1.7321C784.328 1.7321 784.254 1.58148 784.254 1.28025C784.254 0.979015 784.328 0.828398 784.478 0.828398L788.073 0.903705C790.369 1.00412 792.316 1.05432 793.913 1.05432C795.311 1.05432 797.108 1.00412 799.305 0.903705L803.198 0.828398C803.298 0.828398 803.348 0.979015 803.348 1.28025C803.348 1.58148 803.298 1.7321 803.198 1.7321C801.351 1.7321 800.004 1.88272 799.155 2.18395C798.306 2.43498 797.707 2.91193 797.358 3.61482C797.058 4.3177 796.909 5.42222 796.909 6.92839V41.7963C796.909 43.3025 797.058 44.4321 797.358 45.1852C797.707 45.8881 798.306 46.365 799.155 46.616C800.004 46.8671 801.351 46.9926 803.198 46.9926Z" fill="#774F4D"/>
<path d="M808.741 47.8963C808.642 47.8963 808.592 47.7457 808.592 47.4444C808.592 47.1432 808.642 46.9926 808.741 46.9926C810.589 46.9926 811.936 46.8671 812.785 46.616C813.684 46.365 814.283 45.8881 814.582 45.1852C814.882 44.4321 815.031 43.3025 815.031 41.7963V6.92839C815.031 5.42222 814.882 4.3177 814.582 3.61482C814.283 2.91193 813.709 2.43498 812.86 2.18395C812.061 1.88272 810.788 1.7321 809.041 1.7321C808.891 1.7321 808.816 1.58148 808.816 1.28025C808.816 0.979015 808.891 0.828398 809.041 0.828398H840.94C841.44 0.828398 841.689 1.05432 841.689 1.50617L841.839 12.2C841.839 12.3506 841.689 12.451 841.39 12.5012C841.14 12.5012 840.99 12.4259 840.94 12.2753C840.591 9.11235 839.568 6.72757 837.87 5.12099C836.223 3.4642 834.026 2.6358 831.281 2.6358H826.563C824.417 2.6358 822.944 2.93704 822.145 3.5395C821.396 4.14198 821.022 5.29671 821.022 7.0037V41.4951C821.022 43.1016 821.222 44.2815 821.621 45.0346C822.07 45.7374 822.894 46.2395 824.092 46.5407C825.29 46.842 827.187 46.9926 829.783 46.9926C829.883 46.9926 829.933 47.1432 829.933 47.4444C829.933 47.7457 829.883 47.8963 829.783 47.8963C827.736 47.8963 826.139 47.8712 824.991 47.821L817.952 47.7457L812.71 47.821C811.762 47.8712 810.439 47.8963 808.741 47.8963Z" fill="#774F4D"/>
<path d="M892.031 46.9926C892.231 46.9926 892.331 47.1432 892.331 47.4444C892.331 47.7457 892.231 47.8963 892.031 47.8963C891.083 47.8963 889.56 47.8461 887.463 47.7457C885.466 47.6453 883.994 47.5951 883.045 47.5951C881.897 47.5951 880.474 47.6453 878.777 47.7457C877.08 47.8461 875.807 47.8963 874.958 47.8963C874.758 47.8963 874.659 47.7457 874.659 47.4444C874.659 47.1432 874.758 46.9926 874.958 46.9926C876.655 46.9926 877.879 46.842 878.627 46.5407C879.376 46.1893 879.751 45.5868 879.751 44.7333C879.751 43.8798 879.376 42.7 878.627 41.1938L870.241 23.7222H856.463L850.322 37.9556C849.623 39.6123 849.274 40.993 849.274 42.0975C849.274 45.3609 851.695 46.9926 856.537 46.9926C856.787 46.9926 856.912 47.1432 856.912 47.4444C856.912 47.7457 856.787 47.8963 856.537 47.8963C855.639 47.8963 854.341 47.8461 852.643 47.7457C850.747 47.6453 849.099 47.5951 847.701 47.5951C846.403 47.5951 844.856 47.6453 843.059 47.7457C841.461 47.8461 840.163 47.8963 839.165 47.8963C838.965 47.8963 838.865 47.7457 838.865 47.4444C838.865 47.1432 838.965 46.9926 839.165 46.9926C840.563 46.9926 841.736 46.7165 842.684 46.1642C843.683 45.6119 844.631 44.658 845.53 43.3025C846.428 41.9469 847.452 39.9387 848.6 37.2778L864.55 0.301235C864.6 0.150617 864.774 0.0753077 865.074 0.0753077C865.373 0.0251026 865.548 0.100412 865.598 0.301235L883.644 37.579C885.342 41.244 886.789 43.7292 887.987 45.0346C889.186 46.3399 890.534 46.9926 892.031 46.9926ZM857.136 21.9901H869.417L862.977 8.43457L857.136 21.9901Z" fill="#774F4D"/>
<path d="M907.086 41.4951C907.086 43.1016 907.286 44.2815 907.685 45.0346C908.085 45.7374 908.833 46.2395 909.932 46.5407C911.08 46.842 912.902 46.9926 915.398 46.9926C915.548 46.9926 915.623 47.1432 915.623 47.4444C915.623 47.7457 915.548 47.8963 915.398 47.8963C913.351 47.8963 911.754 47.8712 910.606 47.821L904.091 47.7457L898.924 47.821C897.976 47.8712 896.678 47.8963 895.03 47.8963C894.931 47.8963 894.881 47.7457 894.881 47.4444C894.881 47.1432 894.931 46.9926 895.03 46.9926C896.828 46.9926 898.126 46.8671 898.924 46.616C899.773 46.365 900.347 45.8881 900.646 45.1852C900.946 44.4321 901.096 43.3025 901.096 41.7963V6.92839C901.096 5.42222 900.946 4.3177 900.646 3.61482C900.347 2.91193 899.773 2.43498 898.924 2.18395C898.126 1.88272 896.828 1.7321 895.03 1.7321C894.931 1.7321 894.881 1.58148 894.881 1.28025C894.881 0.979015 894.931 0.828398 895.03 0.828398L898.924 0.903705C901.021 1.00412 902.718 1.05432 904.016 1.05432C905.214 1.05432 906.637 0.979013 908.284 0.828398C908.883 0.828398 909.807 0.803294 911.055 0.753086C912.353 0.652675 913.476 0.60247 914.425 0.60247C919.117 0.60247 922.886 1.65679 925.732 3.76543C928.577 5.82387 930 8.96173 930 13.179C930 16.4424 929.176 19.2037 927.529 21.463C925.931 23.7222 923.86 25.4041 921.314 26.5086C918.818 27.6132 916.222 28.1654 913.526 28.1654C912.078 28.1654 910.88 28.0399 909.932 27.7889C909.782 27.7889 909.707 27.6634 909.707 27.4123C909.707 27.2617 909.732 27.1111 909.782 26.9605C909.882 26.8099 909.982 26.7597 910.082 26.8099C910.88 27.0107 911.779 27.1111 912.777 27.1111C915.723 27.1111 918.219 26.0317 920.265 23.8728C922.312 21.714 923.336 18.6012 923.336 14.5346C923.336 10.5683 922.337 7.48066 920.34 5.2716C918.343 3.01235 915.698 1.88272 912.403 1.88272C910.905 1.88272 909.782 2.00823 909.033 2.25926C908.334 2.46008 907.835 2.93704 907.536 3.69012C907.236 4.39301 907.086 5.52263 907.086 7.07901V41.4951Z" fill="#774F4D"/>
</svg>
