<svg width="181" height="198" viewBox="0 0 181 198" fill="none" xmlns="http://www.w3.org/2000/svg">
<path d="M-64.863 163.876C-65.2864 162.5 -65.6387 161.524 -65.886 160.516C-66.2692 158.946 -66.7607 157.37 -66.8874 155.772C-67.0635 153.553 -66.943 151.312 -66.9615 149.081C-66.9801 146.917 -65.5028 145.573 -63.942 144.754C-63.1319 144.293 -62.1908 144.117 -61.2692 144.255C-60.3475 144.392 -59.4985 144.834 -58.8578 145.511C-57.6802 146.688 -56.1411 147.538 -55.8598 149.445C-55.5508 151.566 -56.7561 153.374 -58.9072 153.772C-60.6442 154.081 -61.3798 154.777 -61.3798 156.609C-61.3869 158.289 -61.2003 159.964 -60.8235 161.601C-60.374 163.515 -59.7319 165.379 -58.9072 167.164C-58.4065 168.227 -57.5504 169.377 -56.546 169.903C-52.9979 171.757 -49.3261 173.376 -45.6853 175.058C-44.4027 175.651 -43.1077 176.238 -41.7725 176.708C-37.6063 178.179 -33.4277 179.615 -29.2367 181.017C-26.6375 181.885 -24.0289 182.747 -21.3802 183.449C-18.3884 184.24 -15.3441 184.846 -12.3245 185.529C-10.8905 185.838 -9.46875 186.261 -8.01922 186.478C-3.58719 187.145 0.869568 187.64 5.2707 188.385C12.179 189.6 19.1802 190.211 26.1946 190.208C29.3131 190.187 32.4316 190.462 35.5501 190.635C37.2283 190.731 38.9035 191.03 40.5755 191.003C43.9011 190.95 47.2267 190.743 50.5491 190.579C53.8716 190.415 57.2096 190.35 60.5166 190.01C64.417 189.612 68.2897 188.947 72.1777 188.431C73.8467 188.212 75.5558 188.199 77.2032 187.875C80.5844 187.213 83.9346 186.388 87.3066 185.662C90.4374 184.985 93.5992 184.426 96.7054 183.662C98.8163 183.14 100.872 182.364 102.927 181.638C106.571 180.358 110.215 179.082 113.818 177.7C115.515 177.048 117.113 176.155 118.764 175.382C120.371 174.644 122.071 174.072 123.597 173.194C125.606 172.038 127.68 171.154 128.542 168.404C129.21 166.286 129.847 164.169 130.397 162.012C130.82 160.355 130.922 158.887 129.318 157.772C128.858 157.463 128.515 156.965 128.051 156.647C126.997 155.926 126.66 154.774 127.084 153.809C127.94 151.865 128.913 149.927 131.157 149.053C132.622 148.481 133.695 148.889 134.523 150.023C135.83 151.81 136.489 153.692 135.852 156.032C135.172 158.504 134.925 161.116 134.43 163.659C134.307 164.299 133.963 164.896 133.787 165.514C133.589 166.222 133.478 166.948 133.308 167.677L133.701 168.02C134.628 167.56 135.605 167.207 136.427 166.617C139.585 164.349 142.824 162.16 145.788 159.654C151.318 154.981 156.621 150.045 160.704 143.993C162.901 140.742 165.136 137.503 166.984 134.041C168.53 131.161 169.679 128.042 170.724 124.936C171.868 121.536 172.767 118.032 173.62 114.536C173.994 112.792 174.234 111.022 174.337 109.242C174.544 106.853 174.872 104.436 174.733 102.056C174.519 98.4058 174.05 94.7619 173.521 91.1396C172.602 84.8214 170.519 78.7286 167.377 73.1704C164.917 68.8752 162.127 64.778 159.032 60.9159C156.087 57.1759 152.85 53.6756 149.352 50.4478C145.89 47.2798 142.008 44.5755 138.226 41.7599C135.688 39.8777 133.058 38.1067 130.375 36.4315C128.212 35.0871 125.943 33.9312 123.69 32.7505C121.187 31.437 118.674 30.1327 116.118 28.9274C114.381 28.1083 112.554 27.4809 110.777 26.7392C109.142 26.053 107.532 25.3113 105.894 24.6252C104.061 23.8587 102.238 23.0427 100.359 22.4091C98.1518 21.6643 95.8801 21.1111 93.6487 20.4404C90.9227 19.6244 88.2492 18.6045 85.4831 17.9678C81.7743 17.1148 77.9882 16.5338 74.233 15.8569C72.1345 15.4798 70.0297 15.143 67.928 14.7937C67.4264 14.6952 66.9198 14.624 66.4105 14.5804C62.8315 14.395 59.2494 14.2281 55.6704 14.055C55.5159 14.0699 55.36 14.0574 55.2099 14.0179C53.238 13.0907 54.4249 11.2951 54.1776 9.91043C53.9922 8.89669 54.6876 8.36509 55.6828 8.44545C59.1382 8.73597 62.5904 9.06358 66.0427 9.3881C67.6715 9.53955 69.3065 9.66936 70.9291 9.8857C72.8422 10.1422 74.743 10.476 76.6468 10.782C78.3065 11.0478 79.9817 11.2456 81.6167 11.6134C85.0164 12.383 88.4162 13.2236 91.8159 14.0859C94.4708 14.7535 97.1504 15.3624 99.7466 16.2247C103.264 17.3899 106.71 18.7776 110.193 20.0602C112.146 20.7803 114.161 21.3645 116.065 22.2237C118.538 23.3394 120.946 24.6592 123.378 25.8985C124.735 26.5908 126.104 27.2708 127.436 28.0125C129.779 29.3199 132.146 30.5994 134.415 32.0304C136.921 33.6067 139.385 35.2571 141.764 37.0126C144.608 39.105 147.516 41.1541 150.081 43.5617C154.374 47.5796 158.695 51.6439 162.484 56.1315C165.733 59.9763 168.357 64.3806 171.052 68.655C172.666 71.1261 174.034 73.7492 175.138 76.4867C176.522 80.0719 177.372 83.858 178.605 87.5081C180.089 91.8907 179.971 96.4463 180.46 100.953C180.827 104.371 180.151 107.635 179.919 110.957C179.712 113.386 179.338 115.797 178.8 118.174C178.278 120.866 177.582 123.521 176.717 126.123C175.635 129.174 174.281 132.137 172.906 135.086C171.94 137.222 170.812 139.282 169.531 141.246C167.018 144.948 164.546 148.731 161.631 152.131C158.555 155.705 155.213 159.041 151.633 162.111C148.045 165.202 144.119 167.915 140.225 170.626C137.388 172.601 134.415 174.399 131.398 176.087C128.972 177.447 126.385 178.519 123.872 179.728C122.231 180.516 120.612 181.35 118.955 182.108C117.66 182.695 116.35 183.26 115.005 183.718C111.544 184.889 108.061 185.989 104.59 187.118C101.99 187.971 99.4375 188.972 96.7981 189.658C93.3087 190.558 89.7606 191.203 86.2341 191.958C82.0154 192.848 77.8058 193.781 73.5623 194.563C71.6585 194.912 69.6959 194.946 67.758 195.11C62.1608 195.589 56.5667 196.09 50.9664 196.523C48.1106 196.742 45.2424 196.832 42.3805 196.986C40.4983 197.094 38.6006 197.447 36.7338 197.329C32.8674 197.085 29.0071 196.578 25.1654 196.226C23.8333 196.105 22.4796 196.204 21.1475 196.053C18.1156 195.703 15.0991 195.243 12.0702 194.869C11.1028 194.748 10.1107 194.823 9.14951 194.68C6.63988 194.31 4.1426 193.865 1.63915 193.466C0.779938 193.33 -0.091629 193.268 -0.947746 193.123C-4.10642 192.591 -7.28364 192.137 -10.4145 191.466C-13.635 190.777 -16.8122 189.881 -19.9956 189.052C-22.5516 188.391 -25.1045 187.705 -27.6543 187.012C-29.7065 186.456 -31.7958 185.989 -33.7924 185.272C-37.3343 184.005 -40.8237 182.59 -44.3254 181.217C-47.2492 180.074 -50.1977 178.998 -53.0628 177.719C-55.2318 176.715 -57.3486 175.602 -59.4048 174.384C-62.4121 172.656 -65.4008 170.895 -68.3431 169.059C-74.8537 164.957 -80.8419 160.079 -86.1763 154.533C-89.8851 150.725 -92.9758 146.497 -95.9274 142.105C-98.7863 137.834 -100.801 133.173 -102.749 128.506C-103.926 125.669 -104.516 122.563 -105.153 119.543C-105.799 116.605 -106.252 113.627 -106.507 110.629C-106.816 106.445 -107.215 102.201 -106.862 98.0442C-106.507 93.6184 -106.507 89.0967 -104.961 84.7821C-104.034 82.1705 -103.685 79.3456 -102.875 76.6784C-102.246 74.7588 -101.484 72.8855 -100.594 71.0719C-99.4755 68.6673 -98.3103 66.2782 -97.0308 63.9633C-94.558 59.5429 -91.6596 55.3744 -88.3769 51.5171C-84.6692 47.1035 -80.4882 43.1101 -75.9091 39.6088C-71.9468 36.5675 -67.7157 33.8725 -63.5463 31.131C-61.2531 29.6259 -58.8362 28.3 -56.4378 26.9772C-55.1057 26.2447 -53.684 25.6791 -52.2963 25.0455C-50.3213 24.1461 -48.3711 23.1911 -46.356 22.3751C-44.4243 21.6056 -42.4216 21.006 -40.4559 20.3167C-39.1763 19.8686 -37.9123 19.3895 -36.6327 18.9352C-34.5187 18.2058 -32.4201 17.427 -30.2752 16.8057C-27.2556 15.9342 -24.1989 15.1862 -21.1546 14.3857C-20.6632 14.259 -20.1687 14.1385 -19.6742 14.0272C-14.8125 12.9362 -10.0127 11.6412 -5.00888 11.1683C-0.107071 10.7078 4.72984 9.53955 9.63475 9.10376C14.8889 8.63707 20.1894 8.64943 25.4714 8.48563C26.482 8.45163 26.9796 8.99868 26.9518 10.031C26.9333 10.6986 26.9518 11.3692 26.9518 12.0399C26.9518 13.3658 26.244 13.9901 24.9398 14.0427C20.2759 14.225 15.6059 14.3208 10.9545 14.6454C8.06776 14.8493 5.20889 15.418 2.33456 15.8074C1.07047 15.9805 -0.205986 16.0763 -1.47007 16.271C-4.33204 16.7099 -7.19401 17.1612 -10.0467 17.6588C-13.4032 18.2429 -16.7751 18.7807 -20.1007 19.5132C-22.9194 20.1313 -25.6917 20.9936 -28.4641 21.8219C-32.4541 23.0149 -36.4442 24.2048 -40.3879 25.5307C-42.1032 26.1118 -43.6949 27.0575 -45.3515 27.8209C-46.5878 28.3927 -47.8024 29.017 -49.0758 29.493C-54.4567 31.505 -59.3028 34.5493 -64.0841 37.6184C-70.2792 41.5673 -75.9422 46.2944 -80.9345 51.684C-85.1038 56.2181 -88.9703 61.0117 -91.8353 66.4791C-93.8257 70.2992 -95.3803 74.3604 -96.969 78.3751C-97.9765 80.9157 -98.7523 83.5551 -99.5126 86.1853C-99.8495 87.3536 -99.9144 88.6022 -100.066 89.8168C-100.511 93.3526 -101.172 96.8821 -101.302 100.427C-101.416 103.679 -100.993 106.955 -100.684 110.206C-100.449 112.737 -100.134 115.275 -99.6578 117.769C-99.1958 120.16 -98.5931 122.521 -97.8529 124.84C-97.2564 126.713 -96.3076 128.475 -95.6183 130.32C-93.4549 136.022 -90.2189 141.079 -86.3463 145.702C-83.7916 148.796 -81.0272 151.71 -78.0725 154.424C-74.5059 157.639 -70.6147 160.501 -66.8256 163.468C-66.4639 163.755 -65.8211 163.69 -64.863 163.876Z" fill="#3D3A3A"/>
<path d="M36.2644 50.8592C39.9206 50.8592 43.5862 50.7016 47.2301 50.9086C50.4228 51.091 53.5876 51.6968 56.7679 52.0893C57.5839 52.1882 58.4184 52.1264 59.2405 52.2438C61.4998 52.5714 63.7652 52.8959 66.006 53.3255C69.3501 53.9684 72.7066 54.5958 76.0043 55.4272C78.6963 56.1041 81.3141 57.0653 83.9628 57.8997C85.9903 58.5457 88.0394 59.136 90.0391 59.8809C92.0388 60.6257 94.057 61.5066 96.0783 62.3534C97.7163 63.0457 99.3791 63.6886 100.958 64.4983C103.049 65.5446 105.085 66.6958 107.059 67.9475C109.575 69.5825 112.051 71.3009 114.415 73.1492C118.742 76.5335 122.76 80.2763 125.461 85.1472C126.985 87.8948 128.286 90.7691 129.597 93.6249C129.971 94.4408 130.036 95.402 130.215 96.2983C131.043 100.381 130.877 104.603 129.733 108.609C128.516 113.007 126.325 117.074 123.323 120.511C121.181 122.925 118.829 125.147 116.628 127.517C116.461 127.726 116.337 127.967 116.266 128.226C116.194 128.484 116.175 128.754 116.211 129.019C116.251 129.264 116.981 129.486 117.426 129.554C120.949 130.101 124.93 132.416 125.461 135.871C125.604 136.833 125.418 138.177 124.822 138.848C123.643 140.174 122.249 141.292 120.699 142.155C118.427 143.41 115.444 141.864 114.867 139.336C114.805 138.939 114.876 138.533 115.067 138.18C116.112 136.18 115.822 135.003 113.68 134.453C112.025 134.016 110.298 133.92 108.605 134.172C107.059 134.425 105.644 135.34 104.197 136.026C101.28 137.423 98.3932 138.885 95.4725 140.279C94.057 140.956 92.5982 141.549 91.1456 142.161C89.2726 142.952 87.4367 143.839 85.502 144.47C83.1438 145.242 80.7176 145.814 78.31 146.435C75.2656 147.22 72.2244 148.036 69.1554 148.71C67.2206 149.137 65.2395 149.384 63.2831 149.619C58.9809 150.129 54.6477 150.435 50.3671 151.087C43.1751 152.184 35.946 152.042 28.7324 151.816C23.6884 151.655 18.6382 151.149 13.6313 150.49C9.7649 149.98 5.95408 149.022 2.12782 148.212C-1.1483 147.52 -4.43678 146.853 -7.66963 145.99C-9.96292 145.372 -12.1727 144.445 -14.4228 143.682C-15.5694 143.286 -16.75 142.965 -17.8719 142.507C-20.9224 141.271 -24.0008 140.069 -26.9678 138.65C-29.3384 137.513 -31.5637 136.063 -33.8631 134.771C-34.2958 134.527 -34.7749 134.218 -35.2416 134.199C-36.8354 134.112 -38.4331 134.12 -40.0259 134.224C-42.1894 134.4 -43.2032 135.98 -42.6067 137.976C-41.9514 140.164 -44.526 143.286 -46.7173 142.736C-48.9734 142.167 -51.0442 141.058 -52.2805 138.925C-53.5167 136.792 -53.3004 134.926 -51.3873 132.849C-49.5576 130.855 -47.2272 129.811 -44.529 129.548C-44.084 129.505 -43.6637 129.211 -43.2341 129.035C-43.4442 128.546 -43.5431 127.95 -43.8862 127.588C-46.1517 125.215 -48.6088 123.011 -50.7413 120.526C-53.3097 117.531 -54.9848 114.002 -56.4931 110.327C-58.3846 105.725 -57.955 101.024 -57.6335 96.3663C-57.4728 94.036 -56.2087 91.7581 -55.3155 89.5081C-53.7702 85.6139 -51.2296 82.3439 -48.4048 79.3089C-46.5083 77.2623 -44.4751 75.3468 -42.3192 73.5757C-39.8608 71.5736 -37.2881 69.716 -34.6142 68.0124C-32.4507 66.6309 -30.074 65.5399 -27.7745 64.3809C-26.4177 63.6886 -25.0454 63.0179 -23.6453 62.4245C-21.3521 61.452 -19.0423 60.5165 -16.716 59.6182C-14.262 58.6662 -11.8204 57.6432 -9.29841 56.8922C-6.62806 56.0948 -3.87427 55.5725 -1.15138 54.9451C2.10619 54.194 5.36068 53.4214 8.63062 52.7383C9.97507 52.4571 11.3659 52.3891 12.7319 52.2129C16.0606 51.7833 19.3862 51.3259 22.721 50.9272C23.6951 50.84 24.6734 50.81 25.651 50.8375C29.1558 50.8499 32.7101 50.8561 36.2644 50.8592ZM35.0652 146.034C41.8029 145.508 47.4279 144.955 53.0807 144.655C60.7209 144.25 68.12 142.467 75.5654 140.946C77.565 140.493 79.5361 139.922 81.4686 139.237C83.5579 138.545 85.6194 137.763 87.6716 136.965C90.6232 135.819 93.6892 134.87 96.4708 133.393C100.459 131.302 104.315 128.969 108.018 126.408C114.693 121.735 120.012 115.961 122.562 107.898C124.309 102.378 123.752 97.0803 121.697 91.9498C119.991 87.6939 117.126 84.0871 113.785 80.882C109.439 76.6609 104.446 73.1614 98.9959 70.5159C95.1264 68.6615 91.3186 66.5876 87.2884 65.1628C82.0746 63.3044 76.7505 61.7716 71.3466 60.5732C65.3322 59.2627 59.2219 58.1501 53.1116 57.6216C38.4557 56.3513 23.7842 56.5089 9.24567 59.0031C3.70098 59.952 -1.78189 61.4108 -7.18749 62.987C-11.9842 64.3871 -16.7686 65.9788 -21.3119 68.0341C-25.6666 70.0059 -29.7927 72.5403 -33.8508 75.0963C-39.3849 78.514 -44.0078 83.2227 -47.323 88.8189C-49.6379 92.7162 -50.9175 96.9134 -50.8742 101.373C-50.8309 105.883 -49.4711 110.101 -47.116 114.045C-43.6791 119.791 -38.8762 124.124 -33.4057 127.768C-30.4161 129.737 -27.3207 131.542 -24.1337 133.173C-21.4753 134.498 -18.751 135.685 -15.9712 136.731C-13.8788 137.553 -11.7184 138.208 -9.56422 138.869C-6.78261 139.725 -4.00098 140.646 -1.1452 141.292C2.87268 142.22 6.89056 143.147 10.9517 143.62C19.3213 144.606 27.7186 145.31 35.0652 146.034Z" fill="#3D3A3A"/>
<path d="M51.4643 10.7762C51.4829 12.6306 49.0938 14.9362 46.9087 14.8899C45.3912 14.8559 44.637 15.4617 44.2198 16.7999C44.0992 17.2992 43.8678 17.765 43.5429 18.1629C42.4581 19.291 41.4567 20.7375 39.5931 20.3666C37.9148 20.0359 36.0511 17.7766 35.9368 16.0396C35.875 15.0877 35.5412 14.6457 34.5491 14.3614C33.4414 13.983 32.3988 13.4357 31.4584 12.7388C29.2764 11.2583 29.332 8.57872 31.2668 6.8294C32.4598 5.75075 33.6064 5.18207 35.2228 5.25933C35.7173 5.28097 36.3293 4.58866 36.7342 4.10033C37.1391 3.612 37.272 3.02477 37.5254 2.47772C37.8481 1.77581 38.3557 1.17491 38.9938 0.739361C39.6319 0.303814 40.3764 0.0500247 41.1477 0.00517903C42.7208 -0.118448 44.7638 1.99558 45.2304 3.73872C45.3355 4.13433 45.5395 4.53303 45.5395 4.91936C45.4715 6.05364 46.0526 6.22981 47.0385 6.29162C48.9794 6.42143 51.4458 8.99906 51.4643 10.7762Z" fill="#3D3A3A"/>
<path d="M17.2031 178.919C19.481 178.504 19.5459 176.971 19.6571 175.191C19.9013 171.235 20.47 167.298 20.7852 163.345C20.8316 162.742 20.3371 161.997 19.8951 161.49C19.4995 161.033 18.835 160.804 18.288 160.476L18.3158 160.028C18.8566 159.886 19.3975 159.63 19.9415 159.623C22.618 159.593 25.3409 159.314 27.9772 159.716C30.8021 160.143 33.7506 160.832 35.231 163.839C35.9821 165.384 35.3269 167.829 33.9206 168.784C32.4618 169.773 32.4525 170.376 33.8279 171.383C37.172 173.828 36.7517 177.021 33.3952 179.237C30.3045 181.271 26.8677 181.181 23.3628 180.473C21.9751 180.189 20.5163 180.278 19.1008 180.112C18.4827 180.037 17.8954 179.741 17.2927 179.546L17.2031 178.919ZM24.1881 174.694C24.1602 175.037 24.0861 175.649 24.0552 176.264C23.9624 178.096 24.6517 178.9 26.4504 178.702C27.5847 178.582 28.6943 178.121 29.7853 177.729C31.0741 177.268 31.5006 176.257 31.4759 174.929C31.4891 174.335 31.3222 173.752 30.9972 173.255C30.6723 172.759 30.2045 172.372 29.6555 172.147C28.9104 171.804 28.1469 171.503 27.3684 171.244C24.7011 170.317 24.2406 170.666 24.1911 173.507C24.185 173.791 24.1881 174.1 24.1881 174.694ZM27.2262 168.695C30.6259 168.855 32.1558 167.304 31.4264 164.454C31.0648 163.051 28.2276 161.484 26.3639 161.642C25.2111 161.737 24.5991 162.26 24.5929 163.496C24.5929 164.618 24.494 165.746 24.3735 166.862C24.2529 167.978 24.5898 168.661 25.8447 168.627C26.3021 168.602 26.7657 168.658 27.2262 168.682V168.695Z" fill="#3D3A3A"/>
<path d="M65.526 164.804C66.2894 168.413 66.9322 171.476 67.5844 174.536C67.6802 174.978 67.708 175.485 67.946 175.84C68.4341 176.541 68.9811 177.198 69.5809 177.806C69.9315 178.116 70.3114 178.391 70.7152 178.628L70.6503 179.215L63.6376 180.143C63.7365 179.778 63.6994 178.999 64.061 178.702C65.6743 177.386 65.6527 175.902 65.1334 174.045C64.6142 172.187 64.5153 170.141 64.2062 168.172C63.9219 166.432 63.6623 164.68 63.2234 162.977C63.0813 162.414 62.494 161.867 61.9872 161.527C61.4803 161.187 60.7014 161.051 60.0215 160.823C60.5314 159.083 61.9593 159.587 62.9236 159.318C64.4875 158.873 65.8567 159.107 67.2505 160.378C70.6967 163.493 74.3838 166.349 78.0061 169.27C78.1823 169.405 78.3863 169.499 78.6033 169.545C78.8203 169.592 79.0449 169.589 79.261 169.538C79.5175 169.427 79.6751 168.778 79.6473 168.386C79.5492 167.735 79.4046 167.093 79.2146 166.463C78.9055 165.137 78.3894 163.815 78.3585 162.479C78.309 160.316 77.7589 158.647 75.4841 157.976C75.1887 157.854 74.9034 157.708 74.6311 157.54C76.9182 155.76 79.5762 156.901 82.1724 155.751C81.8355 156.576 81.7922 157.043 81.5542 157.256C79.2578 159.182 80.3179 161.54 80.7012 163.781C81.0844 166.021 81.548 168.262 81.99 170.5C82.2311 171.736 82.4907 172.972 82.7503 174.208C82.8121 174.518 82.9821 174.827 82.9419 175.089C82.8647 175.618 82.8183 176.326 82.4752 176.582C82.2063 176.774 81.4275 176.499 81.0257 176.217C80.0985 175.575 79.2795 174.793 78.4079 174.079C74.968 171.254 71.5466 168.407 68.0603 165.644C67.4762 165.239 66.6108 165.171 65.526 164.804Z" fill="#3D3A3A"/>
<path d="M89.0716 47.7436C87.1492 48.1856 85.202 48.8377 83.1993 49.0108C82.0186 49.1159 80.77 48.4607 79.5523 48.1516L72.8238 46.4579C72.8022 46.2632 72.7775 46.0685 72.7559 45.8707C73.0897 45.5616 73.3925 45.0609 73.7603 45.0053C75.1326 44.8075 75.2315 43.7474 75.4695 42.7615C76.2267 39.609 76.8974 36.4348 77.7627 33.3163C78.1707 31.8452 77.1786 31.0262 76.6687 29.9661C76.4635 29.6104 76.2321 29.2705 75.9764 28.9492C78.1738 29.2985 80.3435 29.3201 82.2628 30.0279C84.5499 30.8685 87.0132 31.2641 89.0623 32.8095C91.0156 34.2837 91.4112 38.1409 89.0035 39.1206C87.5046 39.7388 87.5787 40.4527 88.5801 41.7261C89.4826 42.8727 90.7158 44.0194 89.4362 45.744C89.1334 46.189 89.2168 46.9277 89.0716 47.7436ZM86.0087 43.4167C85.9005 43.1911 85.7707 42.3473 85.3133 42.0908C83.8847 41.3339 82.4023 40.6831 80.8782 40.1437C80.634 40.0509 79.9726 40.4095 79.8891 40.6783C79.4255 42.1742 78.9094 43.701 78.8291 45.2402C78.8105 45.5802 80.4733 46.0098 81.3634 46.393C81.5929 46.5061 81.8331 46.5962 82.0805 46.6619C84.0492 47.0668 85.9469 45.7007 86.0087 43.4136V43.4167ZM87.4768 35.7858C87.3253 35.3562 87.2295 35.0688 87.1182 34.7844C86.3177 32.7044 84.1141 33.1278 82.5719 32.4015C82.4699 32.3551 81.5179 33.9808 81.0512 34.874C80.7956 35.3725 80.6532 35.9213 80.634 36.4812C80.6237 36.9358 80.7748 37.3792 81.0605 37.7329C82.0403 38.7899 85.8109 38.4932 86.6546 37.3126C86.963 36.8218 87.2377 36.3107 87.4768 35.7827V35.7858Z" fill="#3D3A3A"/>
<path d="M-14.2812 30.3583C-13.2861 30.0152 -12.5288 29.564 -11.75 29.5176C-9.45979 29.3878 -7.20978 29.4342 -4.95049 28.6924C-3.71422 28.2906 -2.1689 28.8717 -0.756455 29.0509C1.3429 29.3091 3.2776 30.3193 4.68934 31.8944C7.5544 34.9541 7.916 38.7866 5.36001 42.1307C3.44379 44.6341 1.03306 46.4576 -2.36669 46.4391C-3.08206 46.4281 -3.78807 46.6027 -4.41581 46.946C-6.37839 48.1143 -8.51405 47.5888 -10.5755 47.7125C-10.9433 47.7372 -11.3358 47.3879 -12.1209 47.0171C-11.7786 46.7823 -11.4237 46.5667 -11.0577 46.3711C-9.54324 45.7097 -9.31144 45.0483 -9.65142 43.4257C-10.1614 40.9995 -10.6899 38.5548 -10.9093 36.0915C-11.172 33.0719 -11.4842 32.2343 -14.2812 30.3583ZM3.44997 37.8285C3.19963 36.9569 3.02964 35.393 2.30951 34.1475C1.7161 33.1245 0.575636 32.0458 -0.515373 31.7676C-2.36978 31.2979 -4.37872 31.3844 -6.32275 31.3473C-7.29323 31.3288 -7.84337 31.9067 -7.67647 32.9607C-7.09851 36.6138 -6.5422 40.267 -5.92406 43.914C-5.7448 44.9617 -5.23484 45.6262 -3.97694 45.0205C-3.37103 44.7338 -2.71472 44.5689 -2.04526 44.5352C0.652899 44.4271 3.49324 41.0428 3.44997 37.8408V37.8285Z" fill="#3D3A3A"/>
<path d="M26.4235 38.923C26.2792 39.2404 26.1523 39.5654 26.0433 39.8966C25.1409 43.2963 24.7483 43.5343 21.1817 43.6054C18.2147 43.6641 15.2507 43.8743 12.2898 44.0783C11.4306 44.137 10.5869 44.4183 9.55457 44.6315C9.62875 44.1123 9.59166 43.8032 9.69057 43.7507C12.4722 42.2795 11.3348 39.7328 11.2606 37.6002C11.1833 35.378 10.6425 33.1775 10.4787 30.9522C10.3736 29.5954 10.59 28.2231 8.72628 27.914C8.50684 27.8769 8.34302 27.4906 7.92578 26.9868C8.72356 26.7168 9.53557 26.4909 10.3581 26.31C13.2047 25.8556 16.0574 25.4044 18.9193 25.0521C20.0399 24.9398 21.1693 24.9481 22.2882 25.0768C23.271 25.1695 24.0004 25.7227 24.1426 26.789C24.2847 27.8553 24.2013 28.8505 23.0268 29.3574C20.919 26.9528 17.9458 26.3934 15.022 27.9604C14.7812 28.1291 14.5788 28.3469 14.428 28.5994C14.2773 28.8519 14.1816 29.1333 14.1473 29.4254C14.1065 30.2476 14.2036 31.0708 14.4347 31.8608C14.7994 33.3042 15.4547 33.6009 16.9351 33.2362C18.5485 32.8437 20.3812 32.9271 21.2837 31.0727C21.3084 31.0233 22.3067 31.252 22.3345 31.4281C22.5509 32.8344 22.8012 34.2685 22.724 35.6778C22.6683 36.6668 21.9018 36.4381 21.2651 35.9869C20.7397 35.616 20.1402 34.9731 19.6395 35.0288C18.1415 35.2084 16.6678 35.5515 15.2445 36.0518C14.5027 36.3114 14.8025 41.2009 15.5536 41.5996C15.8833 41.739 16.241 41.7993 16.5982 41.7757C17.8345 41.7757 19.0708 41.717 20.307 41.7417C21.9575 41.7726 23.2803 41.3616 24.1704 39.7699C24.5104 39.1517 25.4067 38.8581 26.0248 38.4162L26.4235 38.923Z" fill="#3D3A3A"/>
<path d="M128.295 64.6654C128.131 58.1749 134.968 53.4122 140.444 55.4242C142.067 56.0207 143.51 57.3034 144.821 58.5149C145.77 59.3865 146.391 60.6289 147.099 61.7447C149.38 65.3237 146.481 70.0153 144.132 72.1572C141.254 74.7781 137.969 74.5741 134.767 73.5882C132.532 72.902 130.795 71.2516 129.513 69.0263C128.626 67.481 128.181 66.0902 128.295 64.6654ZM144.796 63.12C144.762 58.7498 140.469 56.2525 136.618 58.314C134.433 59.4885 133.002 61.3645 131.84 63.4075C130.678 65.4504 130.749 67.6973 132.149 69.5363C133.549 71.3752 135.669 72.2344 138.154 71.607C141.242 70.8065 144.821 66.2787 144.796 63.0922V63.12Z" fill="#3D3A3A"/>
<path d="M94.6965 174.412L88.5151 176.06L88.2617 175.751C90.7095 172.567 90.4005 168.815 90.6477 165.171C90.7021 164.824 90.7806 164.481 90.8826 164.145C91.2226 162.566 91.6213 160.999 91.8871 159.407C92.1529 157.816 92.2178 156.258 92.4867 154.7C92.5701 154.209 92.975 153.464 93.3366 153.402C93.6307 153.385 93.9252 153.431 94.1999 153.537C94.4746 153.644 94.723 153.809 94.9283 154.02C98.5228 157.967 102.037 162.003 105.634 165.929C106.648 167.032 107.959 167.857 109.124 168.825C109.39 169.044 109.606 169.325 110.051 169.795C109.44 170.091 108.812 170.353 108.172 170.58C106.815 170.966 105.443 171.322 104.064 171.619C103.638 171.711 103.162 171.578 102.708 171.547C102.8 171.121 102.874 170.688 102.998 170.268C103.078 169.987 103.403 169.597 103.307 169.47C102.525 168.352 101.839 167.06 100.782 166.29C100.241 165.898 98.9802 166.383 98.0808 166.599C96.7085 166.942 95.3888 167.526 94.0073 167.789C92.8514 168.015 92.4403 168.617 92.4619 169.687C92.4921 170.047 92.4671 170.41 92.3878 170.762C91.952 172.132 92.2641 173.071 93.76 173.454C94.0434 173.569 94.3113 173.718 94.5574 173.899C94.5976 174.076 94.6409 174.236 94.6965 174.412ZM95.1941 165.493C95.8431 165.221 96.9218 164.776 97.9943 164.321C99.0018 163.895 98.9895 163.295 98.3033 162.547C97.302 161.45 96.3407 160.316 95.327 159.231C95.0345 158.985 94.7114 158.777 94.3658 158.613C94.1421 158.983 93.9636 159.378 93.8342 159.79C93.6055 160.987 93.5808 162.235 93.2377 163.394C92.7617 164.989 93.0492 165.521 95.1787 165.493H95.1941Z" fill="#3D3A3A"/>
<path d="M14.0295 180.192C11.4086 179.265 8.71663 180.028 6.33681 178.702C8.52501 176.588 8.71354 176.007 7.57308 173.448C7.30728 172.83 6.4728 172.283 5.79285 172.103C4.0705 171.69 2.32682 171.371 0.569611 171.148C0.0761471 171.055 -0.434404 171.127 -0.883012 171.352C-2.99395 172.746 -3.29373 174.505 -1.89984 176.715C-1.82875 176.826 -1.87511 177.024 -1.85966 177.277L-8.04102 175.992C-6.80474 174.972 -5.74464 174.375 -5.06778 173.488C-2.33562 169.912 0.28527 166.253 2.9278 162.612C3.855 161.329 4.71112 159.991 5.65069 158.718C5.90412 158.375 6.42336 157.905 6.69224 157.976C6.92829 158.055 7.14415 158.185 7.32464 158.356C7.50513 158.528 7.64585 158.736 7.7369 158.968C8.28086 160.822 8.6641 162.717 9.17097 164.578C9.89419 167.217 10.6823 169.832 11.455 172.462C11.5384 172.753 11.8104 173.021 11.8135 173.3C11.8135 175.41 12.5305 177.283 13.6463 179.042C13.8145 179.411 13.9429 179.796 14.0295 180.192ZM5.12527 162.949C3.83646 164.754 2.65273 166.253 1.70698 167.872C1.54317 168.147 2.13658 169.26 2.5971 169.445C3.61515 169.796 4.67962 169.994 5.75576 170.033C6.94258 170.125 7.3011 169.538 6.95185 168.392C6.54388 167.032 6.20083 165.653 5.80213 164.287C5.60797 163.826 5.38179 163.379 5.12527 162.949Z" fill="#3D3A3A"/>
<path d="M58.0315 181.514C56.5665 181.514 55.392 181.45 54.2299 181.514C53.0678 181.579 51.9552 181.824 50.4315 182.037C51.5751 180.541 52.1654 179.434 51.504 177.756C50.4068 174.975 49.7825 174.999 46.7567 175.256C46.1736 175.354 45.5796 175.37 44.9919 175.305C43.6197 175.033 41.6262 175.614 41.1317 176.517C40.2848 178.062 40.4455 179.781 41.5242 181.035C41.6849 181.224 41.8518 181.672 41.7714 181.755C41.5441 181.975 41.2463 182.108 40.9308 182.129C39.7748 182.167 38.6128 182.157 37.4568 182.129C37.1406 182.134 36.8333 182.024 36.5915 181.82C36.4678 181.681 36.5327 181.242 36.6625 181.023C37.8246 179.033 39.1196 177.113 40.1766 175.07C40.906 173.652 41.2862 172.057 41.8951 170.57C42.5874 168.886 43.3631 167.232 44.1049 165.567C44.5592 164.55 44.9208 163.474 45.5112 162.541C45.8202 162.043 46.5311 161.53 47.075 161.515C47.4768 161.515 48.0393 162.21 48.3113 162.717C49.0623 164.207 49.6558 165.774 50.3883 167.273C51.6956 169.955 52.9937 172.647 54.4247 175.265C55.3117 176.885 56.4583 178.356 57.4504 179.923C57.6792 180.309 57.7688 180.794 58.0315 181.514ZM46.2591 173.241C46.9267 173.241 47.6499 173.395 48.2464 173.185C48.6389 173.046 49.1983 172.239 49.0902 171.983C48.4165 170.432 47.6603 168.919 46.8247 167.449C46.4291 166.732 45.848 166.682 45.4401 167.477C44.9151 168.411 44.4685 169.386 44.1049 170.394C43.2024 173.235 43.2395 173.247 46.2591 173.241Z" fill="#3D3A3A"/>
<path d="M89.7177 48.8566C91.1826 47.8861 92.3076 47.3113 93.2256 46.4984C96.4862 43.6179 99.648 40.6261 102.915 37.7549C103.465 37.2696 104.352 37.1707 105.078 36.8926C105.282 37.5973 105.619 38.2957 105.662 39.0128C105.87 42.4465 105.737 45.9235 106.244 49.3047C106.58 51.5486 105.848 54.1417 107.919 56.0424C107.387 57.0222 106.726 56.9449 105.863 56.5709C104.799 56.1255 103.706 55.7487 102.593 55.4428C101.521 55.1338 101.317 54.5836 102.053 53.7213C104.015 51.4188 103.069 48.7237 100.115 48.0963C99.4125 47.9794 98.7495 47.6929 98.183 47.2618C97.4598 46.6251 96.6995 46.0255 95.899 46.7086C95.0592 47.4588 94.3582 48.3513 93.8282 49.3449C93.5686 49.8054 93.7819 50.5317 93.7819 51.1468C90.7963 50.9706 89.2695 50.6368 89.7177 48.8566ZM102.328 46.6035V41.4853L101.842 41.1763C100.711 42.2549 99.5368 43.2934 98.4952 44.4524C98.3561 44.6069 98.7764 45.6361 99.138 45.7937C100.047 46.1832 101.07 46.3068 102.328 46.6035Z" fill="#3D3A3A"/>
<path d="M70.3014 45.6416L62.6272 44.5197C62.9147 43.9448 62.9363 43.7346 63.0507 43.6944C64.1231 43.2648 65.0132 42.7672 64.596 41.3363C64.1139 39.6642 63.3597 39.0955 61.6753 39.0182C60.4051 38.9564 59.1379 38.7957 57.8769 38.6072C56.6159 38.4187 55.3889 38.7401 54.9283 39.7569C54.542 40.613 54.9283 41.8215 55.0056 43.2927C54.4338 43.9355 51.7233 43.9108 50.0605 42.7765C50.1904 42.5293 50.2553 42.1584 50.4685 42.0317C53.0801 40.4523 54.2669 37.7727 55.7443 35.3094C56.2604 34.4502 56.8477 33.6343 57.3978 32.7967C58.4486 31.1957 59.4222 29.536 60.5843 28.0185C61.0263 27.4467 61.9009 27.2088 62.5778 26.8193C62.8436 27.3818 63.1619 27.9258 63.369 28.5069C64.083 30.5189 64.7536 32.5464 65.4521 34.5646C66.2804 36.9599 67.0995 39.3644 67.9741 41.7442C68.1997 42.3624 68.6324 42.8847 68.9693 43.4503C69.3062 44.0159 69.6894 44.6217 70.3014 45.6416ZM60.0805 36.9228C60.6448 36.9532 61.2105 36.948 61.7742 36.9073C62.5747 36.8084 62.7725 36.3448 62.4758 35.5845C62.1266 34.6851 61.8237 33.7672 61.5486 32.8369C61.2735 31.9066 60.6956 31.5234 60.0342 32.2837C59.1842 33.2603 58.2416 34.3544 57.9201 35.5567C57.4071 37.5007 59.0266 36.9629 60.0805 36.9228Z" fill="#3D3A3A"/>
<path d="M123.326 62.5265C121.314 63.3641 119.4 63.4352 117.453 62.134C116.217 61.3057 114.622 60.9688 113.435 60.0849C110.963 58.2305 109.201 55.7332 109.331 52.5745C109.473 49.0203 111.164 46.1861 114.492 44.4831C116.01 43.7043 117.543 42.7215 119.243 43.1881C121.208 43.7636 123.11 44.535 124.92 45.4907C126.37 46.2232 127.618 47.3451 129.031 48.158C130.057 48.7514 130.348 49.7589 129.621 50.9396C129.25 51.5577 128.935 52.1944 128.521 52.7693C128.229 53.0963 127.903 53.3906 127.547 53.647C127.279 53.205 126.855 52.7878 126.775 52.3149C126.67 51.6813 126.957 50.9828 126.852 50.3523C126.565 48.6679 124.429 46.6435 122.664 46.4179C121.178 46.2201 119.573 45.7998 118.186 46.1274C114.959 46.8753 113.275 49.9135 112.966 53.1061C112.718 55.6529 113.472 57.9894 115.556 59.306C117.262 60.3816 119.104 61.7168 121.468 61.3397C122.111 61.2377 122.837 61.6704 123.526 61.8558L123.326 62.5265Z" fill="#3D3A3A"/>
<path d="M156.98 83.9196C157.15 83.286 157.196 82.5813 157.514 82.0374C158.309 80.6682 158.751 79.3701 157.626 77.9577C157.342 77.5944 157.145 77.1718 157.048 76.7214C156.788 75.5099 155.858 75.1761 154.958 75.5191C154.217 75.7911 153.225 76.5545 153.141 77.2036C152.897 79.04 152.903 80.9009 153.157 82.7359C153.623 85.8976 151.902 89.1676 148.851 89.7795C147.887 89.9712 146.589 89.3159 145.662 88.7102C144.702 88.0848 143.882 87.2678 143.252 86.3105C142.623 85.3531 142.199 84.2761 142.005 83.1469C141.901 82.5565 141.665 81.9975 141.313 81.512C140.256 80.1644 140.265 80.0377 141.743 79.092C142.67 78.5016 143.545 77.8341 144.833 76.9285C144.725 77.9453 144.719 78.5171 144.598 79.0641C144.262 80.5817 143.671 82.0745 143.563 83.6013C143.433 85.5175 146.963 87.6562 148.545 86.6178C149.182 86.1974 149.673 85.091 149.692 84.2874C149.722 81.986 149.618 79.6847 149.383 77.3952C149.194 75.3492 152.328 72.4501 154.368 72.8797C156.878 73.4144 158.587 74.7032 159.047 77.4014C159.208 78.0502 159.587 78.6242 160.12 79.0271C161.375 79.979 161.322 80.9865 160.33 81.9601C159.462 82.8131 158.423 83.5055 157.459 84.2534L156.98 83.9196Z" fill="#3D3A3A"/>
<path d="M47.9322 42.3562C46.7887 43.1536 40.8237 42.6159 40.1004 41.8494C40.1437 41.7257 40.1561 41.5063 40.2488 41.46C42.3381 40.4369 42.3505 38.6042 42.3041 36.6323C42.2392 33.9094 42.3628 31.1773 42.3906 28.4513C42.4123 26.4547 41.5592 25.784 39.6956 26.5969C38.5582 27.0976 37.6063 28.0186 36.4442 28.8376C35.3841 27.8702 35.826 26.4702 36.0856 25.2586C36.3175 24.1676 37.3683 23.9358 38.4438 24.0223C41.5871 24.3098 44.7303 24.5941 47.8766 24.8259C49.0016 24.9063 50.1637 24.6868 51.2763 24.8723C51.8945 24.9743 52.8 25.5553 52.8928 26.0498C53.0875 27.0728 53.1524 28.3833 52.6579 29.2023C52.1634 30.0213 51.4216 29.2487 51.1651 28.5162C50.856 27.555 50.4017 26.8843 49.2798 26.7916C45.7997 26.5134 46.0191 27.0574 46.0191 29.6041C46.0191 31.953 45.8306 34.3081 45.6266 36.6539C45.4195 38.9163 45.5122 41.0118 47.9322 42.3562Z" fill="#3D3A3A"/>
<path d="M4.89034 111.121H-3.49777C-3.49777 110.725 -3.53795 110.564 -3.49777 110.534C-1.3992 109.133 -1.1334 107.165 -1.27866 104.782C-1.47028 101.617 -1.1674 98.4243 -1.16122 95.2409C-1.22261 94.6503 -1.44496 94.088 -1.80406 93.6152C-2.16258 93.0743 -2.68801 92.6447 -3.4205 91.869C-2.51184 91.5908 -1.87516 91.2508 -1.25703 91.2508C1.83365 91.2199 4.92433 91.189 7.99337 91.3435C10.0981 91.4486 11.6342 92.6385 12.4563 94.598C13.4824 97.0428 12.5274 99.6327 10.197 100.915C8.72278 101.725 8.65169 102.074 9.77361 103.292C11.7022 105.418 13.6339 107.542 15.5223 109.702C15.7757 109.993 16.0044 110.629 15.8592 110.861C15.6799 111.17 15.102 111.371 14.694 111.377C12.8705 111.399 11.2942 110.874 10.1074 109.328C8.5837 107.332 7.01673 105.357 5.35394 103.484C5.08795 103.24 4.77437 103.053 4.43291 102.936C4.09144 102.819 3.72947 102.774 3.36973 102.804C3.07921 102.832 2.87522 103.913 2.67742 104.528C2.62179 104.705 2.73923 104.93 2.7485 105.147C2.83504 107.248 2.18291 109.637 5.26432 110.568L4.89034 111.121ZM4.89034 100.801C5.88554 100.269 6.96418 99.8429 7.86357 99.1784C9.09984 98.2667 9.28529 95.4201 8.33336 94.2673C7.63487 93.4174 4.03113 92.8394 3.28318 93.5874C2.88758 93.983 2.72686 94.7247 2.66505 95.3305C2.57851 96.2886 2.74849 97.2715 2.66505 98.2296C2.50742 100.167 2.8134 100.548 4.88415 100.801H4.89034Z" fill="#3D3A3A"/>
<path d="M76.4246 97.3579C75.1884 96.0907 74.4435 94.9905 73.4081 94.3352C72.246 93.5966 70.8274 92.8177 69.5293 92.8332C65.5114 92.8795 63.212 94.5856 62.3219 98.792C61.7964 101.283 62.0128 103.814 63.5025 106.071C65.3569 108.852 67.95 110.045 71.1334 109.442C72.4655 109.189 73.5286 107.607 73.473 106.241C73.4452 105.52 73.4545 104.8 73.4483 104.077C73.4483 102.785 73.1392 101.648 71.9771 100.863C71.6897 100.674 71.5444 100.226 71.4332 99.8676C71.6087 99.6517 71.8572 99.5077 72.1317 99.4627C74.1901 99.5554 76.2485 99.6976 78.3996 99.8305C78.3996 99.9263 78.4799 100.183 78.3996 100.3C76.9933 102.071 77.086 104.13 77.2158 106.2C77.3642 108.605 76.7832 109.452 74.5022 110.15C72.9569 110.626 71.4115 111.387 69.8415 111.529C65.5547 111.937 62.2261 110.098 59.6732 106.676C57.4448 103.691 57.4541 96.4091 61.9108 92.963C63.9352 91.3991 66.2965 91.0529 68.6021 90.4595C69.316 90.2741 70.1815 90.6604 70.9758 90.8057C72.4376 91.0684 73.8872 91.4053 75.3553 91.5969C76.2608 91.7143 76.5915 92.0852 76.5544 92.9877C76.5174 93.8902 76.7152 94.7277 76.7368 95.5993C76.7368 96.0227 76.5884 96.4493 76.4246 97.3579Z" fill="#3D3A3A"/>
<path d="M56.6502 110.864H48.9915C50.4997 109.529 50.7377 108.247 49.8785 106.643C48.7937 104.621 48.293 104.288 46.0275 104.671C45.1435 104.798 44.2462 104.806 43.3602 104.692C42.226 104.569 41.308 104.643 40.9588 105.963C40.8428 106.299 40.6692 106.613 40.4457 106.89C39.6051 108.052 39.67 109.053 40.8753 109.947C41.1535 110.219 41.4041 110.518 41.6233 110.84C40.9372 111.007 40.4396 111.22 39.9358 111.235C38.8644 111.26 37.7924 111.227 36.7246 111.136C36.2985 111.051 35.8837 110.918 35.4883 110.738C35.6156 110.376 35.7611 110.021 35.9241 109.675C37.4179 106.835 38.9158 103.999 40.4179 101.166C41.2679 99.5619 42.1734 97.9887 42.9801 96.3661C43.6168 95.0897 44.0804 93.7267 44.7356 92.4595C45.0076 91.931 45.567 91.2047 46.0089 91.1954C46.4509 91.1861 47.137 91.8445 47.3812 92.3668C48.8802 95.5625 50.1628 98.8572 51.7484 102.013C53.0928 104.708 54.7154 107.267 56.2082 109.879C56.3318 110.135 56.4338 110.407 56.6502 110.864ZM45.1281 102.575C45.5114 102.606 45.9719 102.668 46.4324 102.671C47.3936 102.671 47.7861 102.127 47.4863 101.271C47.0961 100.161 46.6208 99.0838 46.0646 98.0474C45.948 97.8685 45.7911 97.7193 45.6065 97.612C45.4218 97.5046 45.2146 97.4421 45.0014 97.4293C44.6923 97.454 44.3647 97.9331 44.1576 98.2823C43.7092 99.0037 43.3245 99.7627 43.0079 100.551C42.8225 101.039 42.6988 101.685 42.8812 102.127C43.0017 102.436 43.6786 102.547 44.1175 102.656C44.4564 102.678 44.7969 102.651 45.1281 102.575Z" fill="#3D3A3A"/>
<path d="M106.568 104.912C107.878 106.17 109.195 107.425 110.502 108.686C110.783 108.983 111.122 109.219 111.498 109.38C111.875 109.54 112.28 109.622 112.689 109.619C113.098 109.617 113.502 109.53 113.876 109.365C114.25 109.199 114.586 108.959 114.863 108.658C116.446 107.051 116.56 105.926 114.885 104.488C113.34 103.169 111.569 102.127 109.875 100.99C108.258 99.9019 106.92 98.6749 106.691 96.5516C106.416 93.9956 107.786 91.9156 110.267 91.1985C111.667 90.7967 112.962 89.9623 114.415 91.2263C114.78 91.5354 115.704 91.2789 116.359 91.1831C117.336 91.0378 118.025 91.3747 118.214 92.3359C118.513 93.7292 118.608 95.1588 118.495 96.5794C117.734 96.0169 116.949 95.4977 116.223 94.8826C115.583 94.3356 115.095 93.5969 114.421 93.1024C112.953 92.0299 111.51 92.3699 110.428 93.9245C109.683 95.0001 110.162 96.496 111.621 97.4355C113.299 98.5173 115.076 99.4568 116.69 100.625C118.235 101.738 119.521 103.064 119.722 105.193C120.052 108.716 116.668 111.158 114.159 111.535C112.901 111.724 111.547 111.3 110.236 111.143C109.986 111.115 109.739 111.004 109.489 110.988C107.177 110.865 107.189 110.865 106.735 108.516C106.515 107.397 106.243 106.29 105.996 105.181L106.568 104.912Z" fill="#3D3A3A"/>
<path d="M87.8255 110.924C87.4083 111.053 86.991 111.291 86.5892 111.295C85.353 111.295 84.1445 111.239 82.9268 111.146C82.6177 111.121 82.151 110.97 82.0305 110.738C81.91 110.506 82.2005 110.12 82.3581 109.836C83.9961 106.798 85.6527 103.769 87.3032 100.728C88.1624 99.1234 89.0061 97.5101 89.8221 95.8844C90.4155 94.6945 90.8791 93.4335 91.5559 92.2961C91.8465 91.814 92.5264 91.304 93.0364 91.2979C93.398 91.2979 93.8863 92.0551 94.1212 92.5681C95.3915 95.3095 96.5938 98.0819 97.83 100.845C98.5193 102.39 99.1467 103.963 99.9286 105.459C100.711 106.955 101.65 108.346 102.503 109.786C102.676 110.116 102.83 110.456 102.964 110.803C102.549 110.97 102.138 111.267 101.727 111.285C100.108 111.353 98.4791 111.369 96.8596 111.319C96.4313 111.253 96.0345 111.054 95.7253 110.751C95.6449 110.683 95.852 110.071 96.0745 109.898C97.7404 108.621 96.5814 107.267 96.1611 106C95.7407 104.733 94.5786 104.569 93.3795 104.625C92.1852 104.727 90.9843 104.721 89.7912 104.606C87.8688 104.334 87.5165 105.997 86.8303 107.02C86.274 107.855 86.1658 109.109 87.2599 109.938C87.5041 110.123 87.7699 110.284 88.0264 110.457C87.9213 110.615 87.875 110.769 87.8255 110.924ZM91.7908 103.457L91.8836 103.219C92.3441 103.219 92.8819 103.37 93.2435 103.182C93.7287 102.931 94.4797 102.273 94.4148 102.041C93.8011 100.33 93.0912 98.6555 92.2884 97.0249C92.1679 96.7684 91.4694 96.5242 91.2376 96.6478C90.9286 96.8116 90.7864 97.3309 90.6195 97.7203C90.4217 98.2241 90.4371 98.9349 90.0848 99.2316C88.9258 100.221 88.9134 101.5 89.4666 102.56C89.785 103.114 90.9873 103.175 91.7908 103.457Z" fill="#3D3A3A"/>
<path d="M21.3267 110.747C21.6358 110.413 21.8058 110.02 22.0809 109.94C23.6973 109.467 23.9971 108.191 24.0125 106.794C24.0527 102.884 24.0342 98.9713 24.0558 95.0493C24.0558 93.813 23.4964 93.2598 22.2632 93.2937C20.5788 93.337 19.1726 93.8161 18.1866 95.3305C17.9734 95.6581 17.3892 95.7477 16.9751 95.9486C16.8167 95.5119 16.7129 95.0572 16.666 94.5949C16.7333 94.0336 16.8365 93.4772 16.9751 92.9291C17.1729 91.6928 17.9425 91.2137 19.1386 91.2168C23.6664 91.2323 28.1973 91.189 32.7375 91.2663C33.4608 91.2663 34.6939 91.6742 34.7959 92.1007C35.0804 93.2233 35.0331 94.4042 34.6599 95.5005C34.2705 96.4802 33.504 95.9208 33.1146 95.176C32.3079 93.6615 30.2155 92.8301 28.6548 93.5657C28.2406 93.7604 27.845 94.4929 27.8357 94.9782C27.7832 98.8384 27.8357 102.705 27.8357 106.559C27.8357 108.008 28.2251 109.18 29.6314 109.866C29.7696 109.96 29.8822 110.087 29.9589 110.235C30.0356 110.384 30.0738 110.549 30.0703 110.716C30.0147 110.991 29.619 111.405 29.3687 111.405C26.924 111.405 24.4762 111.328 22.0314 111.241C21.8305 111.226 21.6358 110.966 21.3267 110.747Z" fill="#3D3A3A"/>
<path d="M32.5749 67.224C33.1405 67.224 33.7061 67.224 34.2686 67.224C36.364 67.1839 38.8582 68.5685 39.3744 70.426C39.9616 72.5276 40.1007 74.6602 38.2679 76.4435C36.9853 77.6798 35.7119 78.539 33.7864 78.2547C32.6985 78.094 31.5457 78.4061 30.4207 78.4679C28.5817 78.5668 28.1707 77.9518 28.6126 76.2055C28.829 75.3556 28.7332 74.4191 28.7146 73.5228C28.6775 71.7612 29.2586 69.9686 28.4056 68.2254C28.3314 68.074 29.0731 67.2549 29.5058 67.1839C30.5041 67.0231 31.5488 67.1313 32.5749 67.1313V67.224ZM31.4746 72.5925L31.6446 72.6204C31.6446 73.4919 31.592 74.3666 31.66 75.232C31.7558 76.4961 32.4142 77.0462 33.7308 76.7495C35.8943 76.2612 37.0873 74.6757 37.0255 72.4566C36.9637 70.2374 35.3658 69.3813 33.7277 68.4572C32.8499 67.9658 32.2844 68.1791 32.068 69.0043C31.7713 70.1725 31.6724 71.3934 31.4839 72.5925H31.4746Z" fill="#3D3A3A"/>
<path d="M47.1549 78.1775C46.2494 78.2269 44.9173 78.3537 43.5821 78.3629C42.0368 78.3629 41.7864 77.8592 41.8668 76.3694C41.9981 73.9215 42.0043 71.4684 41.8853 69.0198C41.8266 67.7835 41.9162 67.0418 43.4121 67.1098C45.3623 67.1994 47.3187 67.1438 49.2844 67.2056C49.7789 67.2241 50.431 67.3076 50.7061 67.6228C50.9812 67.9381 50.8916 68.5995 50.9595 69.1064C50.5725 69.1791 50.1786 69.2081 49.7851 69.1929C48.7435 69.0414 47.7051 68.6582 46.6944 68.6984C46.1783 68.72 45.3376 69.4216 45.2727 69.8976C45.18 70.5991 45.4365 71.6036 45.931 72.061C46.5862 72.6637 47.3929 72.2959 48.0512 71.5634C48.3603 71.2111 49.0866 71.2235 49.6244 71.072C49.6862 71.8478 49.8624 72.6483 49.7264 73.39C49.6893 73.594 48.6075 73.8845 48.2058 73.6991C47.1549 73.2108 46.2061 72.7286 45.3685 73.9309C44.4753 75.2074 45.1398 76.6476 46.7006 76.6445C47.7483 76.6445 48.7961 76.2798 49.8469 76.1191C50.3321 76.0449 50.9008 75.9151 51.2933 76.1006C51.5004 76.1995 51.6024 77.0278 51.417 77.3368C51.1821 77.7633 50.6721 78.2424 50.2271 78.3042C49.3493 78.4124 48.4592 78.264 47.1549 78.1775Z" fill="#3D3A3A"/>
</svg>
