<svg width="291" height="162" viewBox="0 0 291 162" fill="none" xmlns="http://www.w3.org/2000/svg">
<path d="M142.431 84.3589C140.101 82.1199 137.93 80.0986 135.834 78.0026C132.314 74.4843 128.822 70.9346 125.36 67.3535C124.129 66.0829 122.709 65.3127 120.944 65.2412C114.62 64.9812 108.296 64.7289 101.973 64.484C101.648 64.484 101.323 64.484 100.777 64.484C100.777 63.0217 100.777 61.6438 100.777 60.2595C100.819 57.0651 100.842 53.8707 100.936 50.6763C100.978 49.1522 100.267 48.2975 98.8335 48.0993C97.5532 47.9206 96.2338 47.8848 94.9567 47.8231C93.2506 47.7418 92.5389 47.0562 93.1271 45.4573C93.8088 43.4719 94.7766 41.5966 95.9998 39.8907C97.7221 37.6159 99.8052 35.6044 101.797 33.5441C102.606 32.7057 102.671 32.111 101.797 31.2499C99.4477 28.8874 99.425 27.932 101.436 25.3062C103.123 23.1062 103.136 23.09 101.19 21.1109C100.419 20.331 100.458 19.5121 101.092 18.8004C101.943 17.8234 102.888 16.932 103.913 16.139C112.43 9.76315 121.675 4.79444 131.925 1.78201C145.128 -2.09807 157.304 0.579641 168.717 7.66388C171.031 9.10023 173.082 11.0045 175.083 12.8633C177.358 15.0048 179.165 14.6311 179.844 11.3912C180.871 6.51675 186.018 3.32885 189.665 3.32235C195.39 3.32235 200.177 8.95724 198.842 14.5271C198.267 16.9504 197.379 19.2882 196.2 21.4814C192.719 27.8377 191.975 34.5742 192.807 41.6292C192.85 42.4953 192.85 43.3629 192.807 44.229C191.933 43.7513 191.247 43.4913 190.698 43.0591C186.655 39.8744 183.467 36.0951 182.203 30.9346C181.787 29.3093 181.234 27.7221 180.549 26.1901C179.932 24.7636 178.967 23.5612 177.212 23.4702C175.506 23.3792 174.726 24.6563 174.047 25.8782C172.747 28.1952 171.619 30.5902 170.362 32.9202C167.645 37.9506 163.716 41.9835 159.544 45.7855C158.37 46.8514 158.296 47.7613 159.105 48.9865C160.447 51.0175 161.649 53.146 163.092 55.099C163.918 56.2137 163.801 57.0066 162.965 57.9295C161.399 59.6486 159.914 61.4456 158.286 63.1062C152.826 68.6696 148.816 75.3216 144.312 81.613C143.792 82.4221 143.237 83.2183 142.431 84.3589Z" fill="#3D3A3A"/>
<path d="M192.268 160.193V123.206C192.814 123.173 193.285 123.118 193.756 123.118C202.582 123.118 211.409 123.118 220.237 123.118C223.299 123.118 226.298 123.534 229.05 124.977C233.541 127.326 235.225 131.902 233.047 135.847C231.946 137.852 230.123 138.996 228.072 139.812C227.637 139.984 227.198 140.137 226.33 140.462C227.955 141.001 229.219 141.352 230.428 141.823C236.278 144.098 238.055 150.529 234.159 155.358C232.525 157.423 230.186 158.811 227.591 159.258C225.2 159.687 222.769 160.119 220.351 160.145C211.041 160.262 201.734 160.193 192.268 160.193ZM206.927 152.287C210.573 152.287 214.076 152.287 217.55 152.268C218.088 152.22 218.612 152.074 219.097 151.835C220.614 151.208 221.618 150.159 221.579 148.417C221.54 146.675 220.445 145.713 218.98 145.287C215.028 144.147 210.989 144.842 206.937 144.66L206.927 152.287ZM207.014 130.644V137.901C210.264 137.748 213.41 137.735 216.51 137.413C218.72 137.186 219.838 135.577 219.597 133.602C219.412 132.042 218.161 130.82 216.023 130.677C213.052 130.518 210.079 130.651 207.014 130.651V130.644Z" fill="#3D3A3A"/>
<path d="M110.41 123.17H124.868C124.897 123.784 124.949 124.356 124.949 124.928C124.949 128.337 124.9 131.752 124.949 135.158C124.949 135.535 125.528 136.221 125.846 136.227C130.925 136.292 136.008 136.273 141.305 136.273V123.193H155.853V160.239H141.412V145.342H124.965V160.193H110.41V123.17Z" fill="#3D3A3A"/>
<path d="M77.7657 161.2C73.2682 160.956 68.8552 160.576 64.6404 158.993C56.825 156.068 52.6947 150.024 52.7012 141.685C52.7077 133.347 56.8185 127.293 64.7639 124.501C73.213 121.531 81.8148 121.596 90.2412 124.54C98.4725 127.413 102.457 133.877 102.011 142.829C101.569 151.841 96.37 157.843 86.9038 159.978C83.9173 160.65 80.8139 160.806 77.7657 161.2ZM87.5635 141.702C87.5017 140.815 87.4822 139.892 87.3685 138.978C86.8583 134.871 84.3918 132.19 80.3395 131.293C75.4812 130.217 70.7432 131.722 68.7415 135.056C68.2508 135.878 67.7503 136.83 67.6918 137.75C67.5261 140.317 67.3051 142.95 67.6301 145.468C68.111 149.195 70.597 151.405 74.2041 152.192C75.7381 152.508 77.3091 152.607 78.8706 152.484C83.8394 152.127 86.5171 149.559 87.2807 144.639C87.4302 143.674 87.4692 142.699 87.5635 141.695V141.702Z" fill="#3D3A3A"/>
<path d="M290.002 160.31C285.166 160.31 280.516 160.339 275.866 160.264C275.404 160.264 274.754 159.706 274.527 159.244C273.877 157.944 273.516 156.495 272.86 155.198C272.613 154.714 271.885 154.178 271.362 154.171C266.435 154.093 261.51 154.093 256.586 154.171C256.079 154.171 255.37 154.753 255.13 155.247C254.48 156.547 254.122 157.993 253.505 159.303C253.365 159.558 253.17 159.778 252.933 159.947C252.696 160.116 252.424 160.229 252.137 160.278C247.649 160.349 243.158 160.32 238.488 160.32C238.593 159.955 238.718 159.595 238.862 159.244C244.36 147.789 249.885 136.347 255.344 124.873C255.949 123.602 256.602 123.033 258.116 123.082C262.389 123.215 266.669 123.157 270.943 123.105C271.895 123.105 272.372 123.404 272.782 124.258C278.415 136.065 284.077 147.863 289.768 159.65C289.839 159.774 289.872 159.93 290.002 160.31ZM269.529 146.265L264.268 132.867L263.803 132.909C262.104 137.293 260.407 141.683 258.63 146.265H269.529Z" fill="#3D3A3A"/>
<path d="M33.837 136.104C30.857 130.664 23.6071 129.137 18.7618 132.763C16.929 134.138 15.7721 135.984 15.6064 138.226C15.4277 140.686 15.3269 143.211 15.6714 145.642C16.2856 149.996 19.1843 152.362 23.7695 152.518C28.8033 152.687 32.0659 151.693 34.4219 145.317L46.9753 148.28C45.9419 151.855 44.1026 154.802 41.1097 156.807C39.2054 158.085 37.0736 159.271 34.8769 159.813C27.4319 161.646 19.9284 161.594 12.6232 159.095C0.105569 154.806 -3.62503 137.144 6.12392 128.279C8.01395 126.576 10.223 125.265 12.6232 124.421C20.2989 121.763 28.1501 121.695 35.933 124.019C40.9407 125.513 44.3821 128.909 46.5431 133.881L33.837 136.104Z" fill="#3D3A3A"/>
<path d="M166.771 160.193V123.212H181.145V160.193H166.771Z" fill="#3D3A3A"/>
</svg>
