<svg width="164" height="45" viewBox="0 0 164 45" fill="none" xmlns="http://www.w3.org/2000/svg">
<path fill-rule="evenodd" clip-rule="evenodd" d="M80.7668 9.42998V14.2573H69.019V9.42998C69.019 6.18591 71.6488 3.55608 74.8929 3.55608C78.1369 3.55608 80.7668 6.18591 80.7668 9.42998ZM66.082 9.42998C66.082 4.56389 70.0268 0.619141 74.8929 0.619141C79.759 0.619141 83.7037 4.56389 83.7037 9.42998V14.2573V16.6229H83.7042V44.6292H80.7672V17.1943H80.7668H69.019L69.019 44.6292H66.082V17.1943V16.6229V14.2573V9.42998Z" fill="white"/>
<path fill-rule="evenodd" clip-rule="evenodd" d="M46.9916 3.55608H49.9286C53.1726 3.55608 55.8025 6.1859 55.8025 9.42996V14.2574H46.9916V3.55608ZM44.0547 0.619141H46.9916H49.9286C54.7947 0.619141 58.7394 4.56388 58.7394 9.42996V14.2574V15.8045C60.5228 17.144 61.6764 19.2767 61.6764 21.6789V29.9444C61.6764 38.0545 55.1018 44.6291 46.9917 44.6291H46.9916H44.0547V41.6921V17.2735V17.1943V14.3365V14.2574V3.55608V0.619141ZM46.9916 17.2735H54.334C56.7671 17.2735 58.7394 19.2458 58.7394 21.6789V29.9444C58.7394 36.4325 53.4798 41.6921 46.9917 41.6921H46.9916V17.2735Z" fill="white"/>
<mask id="path-3-inside-1_458_2019" fill="white">
<path d="M17.6211 0.619141H14.6841C6.57398 0.619141 -0.000577927 7.1937 -0.000577927 15.3038V29.9444C-0.000577927 38.0545 6.57398 44.629 14.6841 44.629H17.6211V0.619141Z"/>
</mask>
<path d="M17.6211 -2.3178H14.6841C4.95196 -2.3178 -2.93752 5.57167 -2.93752 15.3038H2.93636C2.93636 8.81573 8.19601 3.55608 14.6841 3.55608H17.6211V-2.3178ZM-2.93752 29.9444C-2.93752 39.6765 4.95196 47.566 14.6841 47.566H17.6211V41.6921H14.6841C8.19601 41.6921 2.93636 36.4325 2.93636 29.9444H-2.93752ZM17.6211 44.629V0.619141V44.629ZM14.6841 -2.3178C4.95196 -2.3178 -2.93752 5.57167 -2.93752 15.3038V29.9444C-2.93752 39.6765 4.95196 47.566 14.6841 47.566V41.6921C8.19601 41.6921 2.93636 36.4325 2.93636 29.9444V15.3038C2.93636 8.81573 8.19601 3.55608 14.6841 3.55608V-2.3178Z" fill="white" mask="url(#path-3-inside-1_458_2019)"/>
<path fill-rule="evenodd" clip-rule="evenodd" d="M22.0273 0.619141H24.9643L24.9643 41.6918H25.1112C31.5182 41.6918 36.7121 36.4979 36.7121 30.0909V22.9099H36.7108V0.619141H39.6477V22.9096H39.649V30.0909C39.649 38.1199 33.1402 44.6288 25.1112 44.6288H24.9643V44.629H22.0273V44.6288V22.9096V0.619141Z" fill="white"/>
<path d="M102.795 2.08761H104.263C111.562 2.08761 117.479 8.00471 117.479 15.3038V29.9444C117.479 37.2435 111.562 43.1606 104.263 43.1606H102.795V2.08761Z" stroke="white" stroke-width="2.93694"/>
<path fill-rule="evenodd" clip-rule="evenodd" d="M138.036 9.42998V14.2573H126.289V9.42998C126.289 6.18591 128.918 3.55608 132.162 3.55608C135.406 3.55608 138.036 6.18591 138.036 9.42998ZM123.352 9.42998C123.352 4.56389 127.296 0.619141 132.162 0.619141C137.028 0.619141 140.973 4.56389 140.973 9.42998V14.2573V16.6229H140.974V44.6292H138.037V17.1943H138.036H126.289L126.289 44.6292H123.352V17.1943V16.6229V14.2573V9.42998Z" fill="white"/>
<path fill-rule="evenodd" clip-rule="evenodd" d="M160.064 0.619141H163.001V17.1942H159.917C151.888 17.1942 145.379 10.6854 145.379 2.6564V0.619141H148.316V2.6564C148.316 9.06341 153.51 14.2573 159.917 14.2573H160.064V0.619141ZM160.064 17.1943H163.001V29.9443C163.001 38.0544 156.426 44.629 148.316 44.629H145.379V41.692H148.316C154.804 41.692 160.064 36.4324 160.064 29.9443V17.1943Z" fill="white"/>
</svg>
