<svg width="276" height="45" viewBox="0 0 276 45" fill="none" xmlns="http://www.w3.org/2000/svg">
<g clip-path="url(#clip0_490_190)">
<path d="M25.3751 27.3929C25.0378 27.7615 24.5961 28.019 24.1086 28.1312C23.5808 28.2265 23.045 28.2718 22.5086 28.2663C22.1535 28.2898 21.7976 28.2347 21.4663 28.1052C21.3694 28.0604 21.2842 27.994 21.2173 27.9111C21.1504 27.8281 21.1037 27.7308 21.0806 27.6269C21.0221 27.2835 20.9977 26.9353 21.0077 26.5871V20.4423C20.9963 20.1915 21.0334 19.9408 21.1171 19.7041C21.1607 19.6117 21.2231 19.5293 21.3002 19.4622C21.3774 19.3951 21.4676 19.3447 21.5653 19.3142C21.9014 19.2054 22.2548 19.1596 22.6077 19.179V18.4512H17.1719V19.179C17.5251 19.1603 17.8786 19.2079 18.2142 19.3194C18.3122 19.3511 18.4023 19.4032 18.4787 19.4722C18.555 19.5412 18.6159 19.6255 18.6572 19.7197C18.7287 19.9536 18.7604 20.1979 18.751 20.4423V27.1694C18.788 27.5201 18.685 27.8712 18.4644 28.1468C18.0877 28.3889 17.6372 28.4902 17.1927 28.4327V29.1605H26.7353L26.8031 25.5838H26.0786C26.0455 26.2467 25.7987 26.8812 25.3751 27.3929Z" fill="white"/>
<path d="M36.9879 27.7828C36.8733 27.5748 36.7013 27.1745 36.4668 26.5871L33.1938 18.2432H32.4433L29.3476 26.3531C29.1828 26.8041 28.9806 27.2406 28.7431 27.658C28.6059 27.9159 28.4027 28.1329 28.1541 28.2871C27.9196 28.4032 27.6602 28.4603 27.3984 28.4534V29.1812H31.1092V28.4326C30.8176 28.4382 30.5271 28.396 30.2492 28.3079C30.1282 28.2641 30.0256 28.1805 29.9584 28.071C29.8911 27.9614 29.8632 27.8323 29.8792 27.7048C29.9056 27.418 29.9778 27.1372 30.0929 26.873L30.3535 26.1764H33.8349L34.356 27.4397C34.4212 27.5926 34.4549 27.757 34.455 27.9232C34.4646 28.0185 34.44 28.1141 34.3857 28.1931C34.3313 28.2721 34.2506 28.3293 34.158 28.3546C33.8416 28.424 33.5173 28.4502 33.1938 28.4326V29.1604H38.2544V28.4326C37.9695 28.4485 37.6856 28.3893 37.4309 28.2611C37.2393 28.1485 37.0852 27.9822 36.9879 27.7828ZM30.6609 25.3914L32.0681 21.6743L33.5534 25.407L30.6609 25.3914Z" fill="white"/>
<path d="M53.5541 26.1655C53.1743 26.7737 52.6677 27.2932 52.0688 27.6887C51.4674 28.0936 50.7565 28.3058 50.031 28.297C49.6535 28.2913 49.2797 28.221 48.9261 28.089C48.4818 27.9171 48.0813 27.649 47.7535 27.304C47.3047 26.8127 46.9702 26.2287 46.7737 25.5937C46.4895 24.675 46.3575 23.7162 46.3828 22.7552C46.3539 21.7588 46.513 20.766 46.8519 19.8283C47.1062 19.1289 47.5633 18.5209 48.1652 18.0815C48.7191 17.6998 49.3786 17.4999 50.0518 17.5097C50.6825 17.5114 51.302 17.6762 51.8499 17.9879C52.4466 18.3312 52.9551 18.8081 53.3352 19.3812C53.7612 20.0091 54.0555 20.7164 54.2003 21.4607H55.0811L54.9352 16.8858H54.1065C54.015 17.2798 53.8822 17.6632 53.7104 18.0295C53.2086 17.5268 52.609 17.1319 51.9484 16.869C51.2878 16.6062 50.5803 16.481 49.8694 16.5011C48.9744 16.4954 48.0876 16.6724 47.2636 17.021C46.48 17.3422 45.7706 17.8199 45.1789 18.4246C44.6041 19.0237 44.1542 19.7305 43.8551 20.5041C43.5452 21.296 43.3879 22.139 43.3913 22.9891C43.3745 24.1444 43.6697 25.2829 44.246 26.2851C44.7908 27.2377 45.583 28.0261 46.5392 28.5673C47.4908 29.1105 48.5698 29.3922 49.6662 29.3835C50.5108 29.4257 51.3517 29.2464 52.1052 28.8636C52.6945 28.5245 53.2331 28.1045 53.7052 27.616C54.0051 28.0428 54.2209 28.5227 54.341 29.03H55.2062V24.3512H54.3202C54.1731 24.996 53.9138 25.6101 53.5541 26.1655Z" fill="white"/>
<path d="M67.7096 27.5592C67.5793 27.3149 67.3761 26.8522 67.0999 26.166L63.3058 16.4756H62.4302L58.8341 25.8696C58.6447 26.3969 58.4093 26.9066 58.1306 27.3929C57.9702 27.6922 57.7327 27.9434 57.4426 28.1207C57.1736 28.2575 56.8741 28.3237 56.5723 28.313V29.1604H60.8667V28.313C60.5274 28.32 60.1892 28.2708 59.866 28.1675C59.7262 28.1168 59.6078 28.0203 59.5302 27.8937C59.4526 27.7672 59.4203 27.6181 59.4387 27.4709C59.4733 27.1317 59.5612 26.8001 59.6993 26.4883L60.0015 25.6825H64.0458L64.6347 27.1485C64.7091 27.3265 64.748 27.5172 64.7494 27.71C64.7672 27.8238 64.7419 27.9402 64.6782 28.0363C64.6146 28.1325 64.5173 28.2015 64.4054 28.2299C64.0507 28.3149 63.6858 28.3499 63.3214 28.3338V29.1604H69.2002V28.313C68.8687 28.3323 68.5379 28.2641 68.2412 28.1155C68.0156 27.983 67.8315 27.7904 67.7096 27.5592ZM60.3612 24.7935L61.9976 20.4526L63.7175 24.7935H60.3612Z" fill="white"/>
<path d="M77.4915 22.6365C76.7935 22.2245 76.0751 21.848 75.3391 21.5084C74.5782 21.1549 74.0257 20.8793 73.687 20.6922C73.3695 20.5226 73.0894 20.291 72.8635 20.0111C72.6552 19.742 72.5449 19.4101 72.5508 19.0702C72.547 18.8551 72.5919 18.642 72.6822 18.4467C72.7724 18.2514 72.9057 18.0789 73.072 17.9421C73.4384 17.6513 73.8966 17.5001 74.3645 17.5158C75.8863 17.5158 76.9703 18.4567 77.5645 20.3491H78.4296V16.8763H77.5645C77.5012 17.2462 77.3999 17.6085 77.2622 17.9577C76.881 17.5217 76.4145 17.1679 75.8915 16.9179C75.3753 16.6608 74.806 16.5273 74.229 16.528C73.5234 16.515 72.8277 16.6947 72.2173 17.0479C71.6673 17.3671 71.2123 17.8264 70.8987 18.3787C70.6074 18.8798 70.4512 19.4476 70.4453 20.0267C70.4475 20.3407 70.4967 20.6526 70.5912 20.9521C70.7089 21.3015 70.8851 21.6285 71.1124 21.9191C71.4231 22.3182 71.792 22.6687 72.2069 22.9588C72.7889 23.3795 73.4123 23.7401 74.0674 24.0349C74.5573 24.2533 74.9951 24.4612 75.3756 24.664C75.6945 24.8209 75.9981 25.0072 76.2824 25.2202C76.4968 25.3782 76.6745 25.5803 76.8036 25.8129C76.9197 26.0451 76.977 26.3021 76.9703 26.5615C76.9763 26.8056 76.9286 27.048 76.8304 27.2717C76.7323 27.4954 76.5861 27.6948 76.4023 27.856C75.9875 28.2153 75.45 28.4015 74.9013 28.3759C74.2458 28.3971 73.6031 28.1913 73.0824 27.7936C72.6039 27.4207 72.2141 26.9466 71.9411 26.4055C71.6658 25.8554 71.4526 25.2766 71.3052 24.6796H70.4557V28.9529H71.3052C71.3718 28.5183 71.498 28.095 71.6805 27.6948C72.1171 28.241 72.6806 28.6728 73.3222 28.9529C73.9413 29.2327 74.6125 29.3797 75.2922 29.3844C75.9021 29.3968 76.5067 29.2688 77.0589 29.0101C77.5443 28.7822 77.9759 28.4544 78.3254 28.0483C78.6433 27.6817 78.8954 27.2631 79.0706 26.811C79.229 26.4209 79.3138 26.005 79.3208 25.5842C79.3435 24.9591 79.1605 24.3438 78.7996 23.8322C78.4451 23.3531 78.0009 22.9471 77.4915 22.6365Z" fill="white"/>
<path d="M91.4635 27.5592C91.3332 27.3149 91.13 26.8522 90.8538 26.166L87.0597 16.4756H86.1841L82.588 25.8696C82.3986 26.3969 82.1632 26.9066 81.8845 27.3929C81.7243 27.6907 81.489 27.9416 81.2017 28.1207C80.9306 28.2569 80.6296 28.323 80.3262 28.313V29.1604H84.6206V28.313C84.2829 28.3205 83.9464 28.2713 83.6252 28.1675C83.4838 28.1186 83.3637 28.0226 83.2849 27.8957C83.2062 27.7689 83.1736 27.6189 83.1926 27.4709C83.2272 27.1317 83.3151 26.8001 83.4532 26.4883L83.7555 25.6825H87.8049L88.3886 27.1485C88.463 27.3265 88.5019 27.5172 88.5033 27.71C88.5211 27.8238 88.4958 27.9402 88.4321 28.0363C88.3685 28.1325 88.2712 28.2015 88.1593 28.2299C87.8046 28.3149 87.4397 28.3499 87.0753 28.3338V29.1604H92.9541V28.313C92.6226 28.3323 92.2918 28.2641 91.9951 28.1155C91.7695 27.983 91.5854 27.7904 91.4635 27.5592ZM84.1151 24.7935L85.7515 20.4526L87.4714 24.7935H84.1151Z" fill="white"/>
<path d="M108.716 20.8788C108.445 20.4442 108.109 20.0533 107.72 19.7194C107.334 19.3856 106.896 19.1169 106.423 18.924C105.88 18.7056 105.313 18.552 104.734 18.4666C103.99 18.3645 103.239 18.3176 102.488 18.3262H101.508H100.544L98.235 18.373V19.1164C98.6904 19.0579 99.1522 19.157 99.5432 19.3971C99.7631 19.675 99.8659 20.0274 99.8298 20.3797V27.138C99.8407 27.3905 99.8036 27.6427 99.7204 27.8814C99.6773 27.9751 99.6145 28.0584 99.5363 28.1257C99.458 28.1929 99.3662 28.2426 99.2669 28.2713C98.9296 28.3743 98.577 28.4182 98.2246 28.4013V29.1291H103.129C104.388 29.1642 105.641 28.9376 106.808 28.4637C107.309 28.2358 107.764 27.9167 108.148 27.5227C108.593 27.0752 108.947 26.5455 109.19 25.9631C109.458 25.3028 109.593 24.5961 109.586 23.8836C109.589 23.3419 109.514 22.8026 109.362 22.2824C109.215 21.7863 108.997 21.3136 108.716 20.8788ZM106.209 26.9404C105.677 27.8346 104.77 28.2817 103.488 28.2817C103.162 28.299 102.835 28.2477 102.529 28.1309C102.437 28.0896 102.355 28.0271 102.291 27.9486C102.226 27.8701 102.181 27.7776 102.159 27.6787C102.109 27.3659 102.088 27.0491 102.097 26.7325V19.21C102.759 19.21 103.27 19.21 103.629 19.262C103.974 19.2923 104.313 19.3728 104.635 19.5011C105.377 19.8026 105.99 20.3546 106.365 21.0607C106.819 21.9197 107.04 22.882 107.006 23.8524C107.028 24.935 106.752 26.0029 106.209 26.9404Z" fill="white"/>
<path d="M118.956 27.4345C118.711 27.7619 118.373 28.0096 117.987 28.1468C117.647 28.2374 117.297 28.2828 116.945 28.2819H116.085C115.785 28.293 115.485 28.2633 115.194 28.1935C115.014 28.1551 114.854 28.0559 114.74 27.9128C114.644 27.7686 114.586 27.6021 114.573 27.4293C114.573 27.237 114.542 26.9095 114.542 26.504V23.9878H115.647C115.93 23.9762 116.213 24.0078 116.486 24.0814C116.575 24.1124 116.656 24.1618 116.724 24.2263C116.793 24.2908 116.846 24.369 116.882 24.4557C116.986 24.7354 117.041 25.0308 117.044 25.3291H117.768V21.7679H117.013C117.002 22.0628 116.951 22.3549 116.861 22.6361C116.829 22.724 116.777 22.8033 116.709 22.8681C116.641 22.933 116.56 22.9816 116.47 23.0104C116.198 23.0887 115.915 23.122 115.631 23.1092H114.542V19.3298H116.549C116.952 19.3173 117.355 19.3469 117.753 19.4181C118.041 19.4948 118.295 19.6671 118.472 19.9068C118.746 20.3069 118.937 20.7576 119.035 21.2325H119.764L119.624 18.4512H110.717V19.179C111.07 19.16 111.424 19.2095 111.759 19.3246C111.854 19.3579 111.942 19.4107 112.015 19.4797C112.089 19.5486 112.147 19.6321 112.186 19.7249C112.253 19.958 112.283 20.2 112.275 20.4423V27.1694C112.312 27.5201 112.209 27.8712 111.988 28.1468C111.612 28.3898 111.161 28.4911 110.717 28.4327V29.1605H120.28L120.369 25.6358H119.624C119.563 26.2833 119.333 26.9036 118.956 27.4345Z" fill="white"/>
<path d="M129.532 27.3929C129.195 27.7615 128.753 28.019 128.266 28.1312C127.739 28.2263 127.205 28.2716 126.671 28.2663C126.316 28.2903 125.96 28.2352 125.628 28.1052C125.53 28.0614 125.444 27.9954 125.376 27.9123C125.308 27.8293 125.261 27.7315 125.238 27.6269C125.181 27.2833 125.159 26.9351 125.17 26.5871V20.4423C125.157 20.1918 125.192 19.9413 125.274 19.7041C125.319 19.6115 125.382 19.5291 125.46 19.4621C125.538 19.395 125.629 19.3446 125.727 19.3142C126.055 19.2079 126.4 19.1621 126.744 19.179V18.4512H121.35V19.179C121.703 19.1611 122.056 19.2087 122.392 19.3194C122.489 19.3511 122.579 19.4033 122.654 19.4723C122.73 19.5414 122.79 19.6257 122.83 19.7197C122.901 19.9536 122.933 20.1979 122.924 20.4423V27.1694C122.96 27.5192 122.859 27.8694 122.642 28.1468C122.263 28.3889 121.811 28.4901 121.365 28.4327V29.1605H130.913L130.986 25.5838H130.256C130.22 26.2497 129.965 26.8852 129.532 27.3929Z" fill="white"/>
<path d="M145.035 17.5619C145.433 17.5392 145.83 17.5994 146.203 17.7387C146.312 17.7793 146.411 17.8425 146.493 17.924C146.576 18.0055 146.64 18.1036 146.682 18.2118C146.758 18.4787 146.792 18.7559 146.781 19.0331V22.0952H140.996V19.0331C140.954 18.6288 141.072 18.224 141.325 17.905C141.544 17.6763 142.033 17.5619 142.794 17.5619V16.7197H136.613V17.5619C137.007 17.5395 137.401 17.5997 137.77 17.7387C137.88 17.7808 137.979 17.8444 138.063 17.9257C138.147 18.0069 138.214 18.1042 138.26 18.2118C138.343 18.4774 138.38 18.7552 138.37 19.0331V26.8728C138.378 27.1545 138.339 27.4355 138.255 27.7046C138.206 27.8152 138.134 27.9143 138.044 27.9957C137.954 28.0772 137.849 28.1391 137.734 28.1777C137.369 28.3022 136.983 28.3568 136.598 28.3388V29.1602H142.794V28.3128C142.023 28.3128 141.533 28.1985 141.319 27.9645C141.076 27.6451 140.961 27.2465 140.996 26.8468V23.1141H146.807V26.8728C146.816 27.1524 146.779 27.4317 146.698 27.6994C146.653 27.8092 146.586 27.9085 146.501 27.9909C146.416 28.0733 146.314 28.1369 146.203 28.1777C145.836 28.3029 145.449 28.3576 145.061 28.3388V29.1602H151.196V28.3128C150.798 28.3359 150.4 28.2739 150.028 28.1309C149.918 28.0883 149.818 28.0233 149.735 27.9401C149.651 27.8568 149.586 27.7572 149.543 27.6474C149.463 27.3968 149.419 27.1359 149.413 26.8728V19.0747C149.404 18.7972 149.439 18.5199 149.517 18.2533C149.561 18.1455 149.627 18.0479 149.71 17.9665C149.794 17.8851 149.893 17.8217 150.002 17.7803C150.371 17.6413 150.765 17.581 151.159 17.6035V16.7197H145.035V17.5619Z" fill="white"/>
<path d="M162.964 27.5592C162.834 27.3149 162.631 26.8522 162.354 26.166L158.545 16.4756H157.674L154.104 25.8748C153.902 26.3993 153.658 26.9069 153.375 27.3929C153.214 27.6922 152.977 27.9434 152.687 28.1207C152.417 28.2565 152.118 28.3226 151.816 28.313V29.1604H156.111V28.313C155.772 28.32 155.433 28.2708 155.11 28.1675C154.97 28.1168 154.852 28.0203 154.774 27.8937C154.697 27.7672 154.664 27.6181 154.683 27.4709C154.717 27.1317 154.805 26.8001 154.943 26.4883L155.246 25.6825H159.316L159.905 27.1485C159.976 27.3274 160.013 27.5177 160.014 27.71C160.034 27.8232 160.01 27.9396 159.947 28.0359C159.884 28.1322 159.787 28.2015 159.676 28.2299C159.321 28.3149 158.956 28.3499 158.592 28.3338V29.1604H164.465V28.313C164.135 28.3323 163.806 28.2642 163.511 28.1155C163.278 27.9884 163.087 27.7948 162.964 27.5592ZM155.605 24.7935L157.231 20.4422L158.951 24.7831L155.605 24.7935Z" fill="white"/>
<path d="M174.675 23.1561C174.086 22.8352 173.446 22.6156 172.784 22.5062C173.632 22.3145 174.418 21.9142 175.072 21.3417C175.297 21.1231 175.475 20.861 175.595 20.5714C175.715 20.2818 175.775 19.9707 175.77 19.6573C175.793 19.2784 175.727 18.8993 175.578 18.5501C175.429 18.2008 175.2 17.8911 174.91 17.6454C174.362 17.1919 173.707 16.8843 173.008 16.7513C172.348 16.6237 171.678 16.5576 171.006 16.5537H170.668H169.578L167.598 16.5953L165.06 16.6473V17.5155C165.567 17.4561 166.08 17.5697 166.514 17.8378C166.644 17.9976 166.74 18.1814 166.798 18.3785C166.856 18.5757 166.875 18.7824 166.853 18.9867V26.8731C166.861 27.1566 166.823 27.4394 166.738 27.7101C166.687 27.8192 166.615 27.9169 166.526 27.9973C166.436 28.0778 166.331 28.1392 166.217 28.178C165.838 28.3064 165.438 28.3611 165.039 28.3392V29.1606H171.293C171.797 29.1591 172.3 29.1226 172.799 29.0514C173.35 28.9658 173.887 28.8121 174.399 28.5939C174.928 28.3776 175.392 28.0305 175.749 27.5854C176.118 27.0934 176.302 26.4883 176.27 25.875C176.275 25.3271 176.131 24.7881 175.853 24.3154C175.569 23.8326 175.163 23.4328 174.675 23.1561ZM169.464 17.5831H170.433C170.938 17.5673 171.441 17.6595 171.908 17.8534C172.28 18.0029 172.597 18.2634 172.815 18.5993C173.034 18.9352 173.143 19.3301 173.128 19.7301C173.141 20.0461 173.084 20.3612 172.961 20.6526C172.837 20.9439 172.65 21.2042 172.414 21.4145C171.793 21.8703 171.03 22.0914 170.261 22.0383H169.479L169.464 17.5831ZM172.716 27.5646C172.23 27.9442 171.629 28.1477 171.012 28.1416C170.652 28.1673 170.292 28.0955 169.969 27.9337C169.862 27.8704 169.77 27.7854 169.698 27.6842C169.626 27.583 169.577 27.4678 169.552 27.3462C169.492 27.0031 169.464 26.6549 169.469 26.3065V23.0521H170.96C171.303 23.0287 171.647 23.0792 171.969 23.2003C172.291 23.3214 172.583 23.5102 172.825 23.7539C173.292 24.2991 173.527 25.0038 173.482 25.719C173.512 26.0639 173.46 26.4111 173.329 26.7319C173.199 27.0527 172.994 27.3381 172.731 27.5646H172.716Z" fill="white"/>
<path d="M187.735 27.5592C187.61 27.3149 187.407 26.8522 187.13 26.166L183.331 16.4756H182.456L178.86 25.8696C178.67 26.3969 178.435 26.9066 178.156 27.3929C177.999 27.6929 177.763 27.9445 177.473 28.1207C177.202 28.2569 176.901 28.323 176.598 28.313V29.1604H180.892V28.313C180.554 28.3201 180.218 28.2709 179.897 28.1675C179.756 28.1184 179.636 28.0223 179.558 27.8953C179.48 27.7683 179.449 27.6183 179.469 27.4709C179.501 27.1318 179.588 26.8001 179.725 26.4883L180.032 25.6825H184.076L184.665 27.1485C184.736 27.3274 184.773 27.5177 184.775 27.71C184.793 27.8231 184.768 27.9389 184.706 28.0349C184.643 28.1309 184.547 28.2004 184.436 28.2299C184.081 28.3146 183.716 28.3496 183.352 28.3338V29.1604H189.226V28.313C188.896 28.3331 188.566 28.2649 188.272 28.1155C188.044 27.9847 187.857 27.7917 187.735 27.5592ZM180.387 24.7935L182.023 20.4526L183.743 24.7935H180.387Z" fill="white"/>
<path d="M198.753 17.5619C199.166 17.5355 199.58 17.6049 199.962 17.7647C200.078 17.8197 200.182 17.8993 200.264 17.998C200.347 18.0968 200.407 18.2123 200.441 18.3365C200.518 18.6881 200.552 19.0478 200.54 19.4075V25.0844L193.437 16.7197H189.788V17.5619C190.127 17.5863 190.458 17.6689 190.768 17.8063C190.987 17.9029 191.17 18.0668 191.289 18.2741C191.4 18.484 191.467 18.7138 191.487 18.95C191.513 19.2047 191.529 19.5894 191.529 20.1041V26.4517C191.541 26.8316 191.511 27.2115 191.441 27.585C191.407 27.7001 191.349 27.8064 191.27 27.8962C191.19 27.9861 191.092 28.0574 190.982 28.1049C190.601 28.253 190.192 28.3168 189.783 28.292V29.1602H194.416V28.3128C193.982 28.3385 193.548 28.2748 193.14 28.1257C193.019 28.0833 192.91 28.0146 192.82 27.9247C192.73 27.8347 192.661 27.7258 192.618 27.6058C192.543 27.233 192.511 26.8526 192.525 26.4725V19.5946L200.681 29.2642H201.53V19.3867C201.516 19.005 201.546 18.623 201.619 18.2481C201.654 18.1309 201.715 18.0231 201.799 17.933C201.882 17.8429 201.984 17.7729 202.098 17.7283C202.508 17.5831 202.942 17.5212 203.375 17.5463V16.7197H198.721L198.753 17.5619Z" fill="white"/>
<path d="M217.055 18.7941C216.47 18.0823 215.723 17.5192 214.877 17.1513C213.807 16.689 212.649 16.4672 211.484 16.5015C210.172 16.4661 208.874 16.7763 207.721 17.4009C206.724 17.9531 205.906 18.7796 205.366 19.7819C204.924 20.6086 204.663 21.5191 204.599 22.4535C204.536 23.388 204.671 24.3254 204.996 25.2041C205.278 25.9704 205.705 26.6761 206.252 27.2836C206.859 27.9478 207.609 28.4667 208.446 28.8016C209.438 29.2015 210.502 29.396 211.573 29.3735C212.879 29.4068 214.17 29.0985 215.32 28.4793C216.317 27.9319 217.137 27.1134 217.686 26.1191C218.224 25.145 218.504 24.0498 218.499 22.9375C218.491 22.2313 218.377 21.5303 218.16 20.858C217.922 20.1082 217.548 19.4086 217.055 18.7941ZM215.429 24.4503C215.355 25.042 215.195 25.6199 214.955 26.1659C214.691 26.7682 214.272 27.2901 213.741 27.6787C213.105 28.1142 212.344 28.3314 211.573 28.2974C210.798 28.3312 210.032 28.1202 209.384 27.6943C208.845 27.3254 208.419 26.8142 208.154 26.2179C207.906 25.6754 207.741 25.0989 207.664 24.5075C207.598 23.9745 207.565 23.4381 207.565 22.9011C207.554 22.0244 207.661 21.1501 207.883 20.3018C208.075 19.5417 208.495 18.8581 209.087 18.3418C209.783 17.7815 210.664 17.5015 211.557 17.5568C212.228 17.5334 212.892 17.6858 213.485 17.9987C213.997 18.2847 214.423 18.7009 214.721 19.2048C215.027 19.7276 215.24 20.2992 215.351 20.8944C215.473 21.5476 215.532 22.2108 215.528 22.8751C215.529 23.4017 215.496 23.9278 215.429 24.4503Z" fill="white"/>
<path d="M275.995 23.026C275.989 16.922 273.556 11.0695 269.23 6.75278C264.903 2.43608 259.037 0.00785886 252.917 0.000976562H22.0402C16.1974 0.00372897 10.5946 2.31949 6.46215 6.43969C2.32971 10.5599 0.00552312 16.1477 0 21.9759V23.0156C0.00551946 28.8421 2.32828 34.4283 6.45846 38.5482C10.5886 42.6681 16.1888 44.9851 22.0298 44.9906H253.949C259.791 44.9892 265.394 42.6755 269.527 38.5574C273.66 34.4393 275.986 28.8534 275.995 23.026ZM253.97 41.7414H22.0506C17.0771 41.7331 12.3097 39.7587 8.79297 36.2507C5.2762 32.7427 3.29684 27.9871 3.28857 23.026V21.9863C3.29684 17.0252 5.2762 12.2697 8.79297 8.76167C12.3097 5.25365 17.0771 3.27921 22.0506 3.27096H252.928C258.177 3.28195 263.208 5.36681 266.92 9.06923C270.631 12.7716 272.721 17.79 272.732 23.026C272.727 27.9889 270.749 32.7471 267.232 36.2574C263.714 39.7677 258.945 41.7435 253.97 41.7518V41.7414Z" fill="white"/>
<path d="M239.799 36.23L226.952 22.7134L240.221 8.75488H22.2481C18.7059 8.76039 15.3108 10.1686 12.8091 12.67C10.3073 15.1714 8.90349 18.5614 8.90625 22.0948V22.9006C8.90625 26.4322 10.3112 29.8194 12.8127 32.3186C15.3142 34.8177 18.7077 36.2245 22.2481 36.23H239.799ZM234.447 34.7848H22.2481C19.0911 34.7807 16.0648 33.5268 13.8339 31.2985C11.6029 29.0702 10.3499 26.0498 10.3499 22.9006V22.0948C10.3471 18.9438 11.599 15.9207 13.8302 13.6901C16.0614 11.4596 19.0893 10.2043 22.2481 10.2001H234.885L222.971 22.7134L234.447 34.7848Z" fill="white"/>
<path d="M247.194 35.7103L234.822 22.672L247.476 9.35288C246.326 9.10171 245.161 8.92803 243.989 8.83301L230.84 22.6668L243.671 36.1834C244.855 36.1062 246.032 35.9481 247.194 35.7103Z" fill="white"/>
<path d="M242.703 22.6248L253.371 11.406C252.444 10.9627 251.492 10.5722 250.521 10.2363L238.711 22.6248L250.317 34.8522C251.294 34.5142 252.251 34.122 253.184 33.6773L242.703 22.6248Z" fill="white"/>
<path d="M250.562 22.5834L258.306 14.4371C257.549 13.8721 256.741 13.3228 255.883 12.7891L246.58 22.5834L255.779 32.2738C256.639 31.7539 257.452 31.1977 258.207 30.6362L250.562 22.5834Z" fill="white"/>
<path d="M254.449 22.5368L260.422 28.8324C261.193 28.141 261.881 27.46 262.506 26.8101L258.452 22.5368L262.506 18.2271C261.902 17.5824 261.214 16.9014 260.422 16.21L254.449 22.5368Z" fill="white"/>
<path d="M262.32 22.4954L264.342 24.6269C265.187 23.5092 265.635 22.7138 265.635 22.5006C265.635 22.2875 265.192 21.4609 264.342 20.3691L262.32 22.4954Z" fill="white"/>
</g>
<defs>
<clipPath id="clip0_490_190">
<rect width="276" height="45" fill="white"/>
</clipPath>
</defs>
</svg>
