<svg width="226" height="37" viewBox="0 0 226 37" fill="none" xmlns="http://www.w3.org/2000/svg">
<g clip-path="url(#clip0_875_27)">
<path d="M20.7796 22.524C20.5034 22.827 20.1417 23.0387 19.7426 23.131C19.3104 23.2094 18.8717 23.2466 18.4325 23.2421C18.1417 23.2614 17.8502 23.2161 17.5789 23.1096C17.4996 23.0728 17.4299 23.0182 17.3751 22.95C17.3203 22.8818 17.282 22.8018 17.2631 22.7164C17.2152 22.434 17.1952 22.1477 17.2034 21.8615V16.809C17.1941 16.6028 17.2245 16.3967 17.293 16.202C17.3287 16.1261 17.3798 16.0584 17.443 16.0032C17.5061 15.948 17.58 15.9065 17.66 15.8814C17.9353 15.792 18.2246 15.7543 18.5135 15.7703V15.1719H14.0625V15.7703C14.3517 15.7549 14.6412 15.7941 14.916 15.8857C14.9962 15.9118 15.07 15.9546 15.1326 16.0114C15.1951 16.0681 15.2449 16.1374 15.2787 16.2148C15.3373 16.4072 15.3633 16.608 15.3556 16.809V22.3402C15.3858 22.6286 15.3015 22.9173 15.1208 23.1438C14.8124 23.3429 14.4435 23.4262 14.0796 23.3789V23.9773H21.8934L21.9489 21.0365H21.3557C21.3285 21.5815 21.1265 22.1032 20.7796 22.524Z" fill="#0F0E0D"/>
<path d="M30.2819 22.8437C30.1881 22.6727 30.0472 22.3436 29.8552 21.8606L27.1752 15H26.5607L24.0257 21.6682C23.8908 22.039 23.7252 22.3979 23.5307 22.7411C23.4184 22.9531 23.252 23.1316 23.0485 23.2583C22.8564 23.3538 22.644 23.4007 22.4297 23.3951V23.9935H25.4682V23.378C25.2294 23.3826 24.9916 23.3479 24.764 23.2754C24.6649 23.2394 24.5809 23.1707 24.5259 23.0806C24.4708 22.9905 24.4479 22.8844 24.461 22.7796C24.4827 22.5437 24.5417 22.3129 24.636 22.0957L24.8494 21.5229H27.7001L28.1268 22.5616C28.1802 22.6873 28.2078 22.8225 28.2079 22.9591C28.2158 23.0375 28.1956 23.1161 28.1511 23.1811C28.1066 23.246 28.0405 23.2931 27.9647 23.3139C27.7056 23.3709 27.44 23.3924 27.1752 23.378V23.9764H31.319V23.378C31.0857 23.391 30.8532 23.3424 30.6447 23.2369C30.4878 23.1444 30.3616 23.0076 30.2819 22.8437ZM25.1012 20.8774L26.2534 17.8212L27.4696 20.8902L25.1012 20.8774Z" fill="#0F0E0D"/>
<path d="M43.8535 21.5105C43.5425 22.0106 43.1277 22.4377 42.6373 22.7629C42.1448 23.0958 41.5627 23.2703 40.9686 23.263C40.6595 23.2584 40.3535 23.2006 40.0639 23.0921C39.7001 22.9507 39.3722 22.7303 39.1037 22.4466C38.7363 22.0427 38.4623 21.5625 38.3014 21.0403C38.0687 20.285 37.9606 19.4967 37.9814 18.7064C37.9577 17.8872 38.088 17.0709 38.3655 16.2999C38.5737 15.7249 38.948 15.2249 39.4409 14.8637C39.8945 14.5498 40.4345 14.3854 40.9857 14.3935C41.5022 14.3949 42.0094 14.5304 42.458 14.7867C42.9467 15.0689 43.363 15.4611 43.6743 15.9323C44.0231 16.4485 44.2641 17.0301 44.3827 17.6421H45.1039L44.9844 13.8805H44.3059C44.2309 14.2045 44.1222 14.5197 43.9815 14.8209C43.5706 14.4076 43.0796 14.0829 42.5387 13.8667C41.9978 13.6506 41.4185 13.5477 40.8364 13.5642C40.1034 13.5596 39.3773 13.705 38.7026 13.9917C38.061 14.2558 37.4801 14.6485 36.9956 15.1458C36.5249 15.6383 36.1565 16.2195 35.9116 16.8556C35.6579 17.5067 35.529 18.1999 35.5318 18.8988C35.518 19.8487 35.7598 20.7848 36.2317 21.6088C36.6777 22.3921 37.3264 23.0403 38.1094 23.4853C38.8886 23.932 39.7722 24.1635 40.6699 24.1564C41.3615 24.1911 42.0501 24.0437 42.6671 23.729C43.1496 23.4501 43.5907 23.1048 43.9773 22.7031C44.2228 23.0541 44.3995 23.4486 44.4979 23.8657H45.2063V20.0187H44.4808C44.3604 20.5489 44.1481 21.0538 43.8535 21.5105Z" fill="#0F0E0D"/>
<path d="M55.44 22.6601C55.3333 22.4592 55.1669 22.0788 54.9407 21.5145L51.834 13.5469H51.117L48.1724 21.2709C48.0173 21.7044 47.8246 22.1235 47.5963 22.5233C47.465 22.7694 47.2706 22.976 47.033 23.1217C46.8127 23.2342 46.5674 23.2887 46.3203 23.2799V23.9766H49.8368V23.2799C49.5589 23.2856 49.282 23.2452 49.0174 23.1602C48.9029 23.1185 48.806 23.0392 48.7424 22.9351C48.6788 22.8311 48.6524 22.7085 48.6675 22.5874C48.6958 22.3086 48.7678 22.0359 48.8808 21.7795L49.1284 21.117H52.44L52.9222 22.3224C52.9831 22.4687 53.015 22.6255 53.0161 22.7841C53.0307 22.8776 53.0099 22.9733 52.9578 23.0524C52.9057 23.1314 52.8261 23.1882 52.7344 23.2115C52.444 23.2815 52.1452 23.3102 51.8468 23.297V23.9766H56.6605V23.2799C56.3891 23.2957 56.1183 23.2397 55.8753 23.1175C55.6906 23.0085 55.5398 22.8501 55.44 22.6601ZM49.4228 20.3861L50.7628 16.8169L52.1711 20.3861H49.4228Z" fill="#0F0E0D"/>
<path d="M63.4494 18.609C62.8779 18.2703 62.2896 17.9607 61.6869 17.6814C61.0638 17.3908 60.6115 17.1642 60.3341 17.0104C60.0741 16.8709 59.8448 16.6805 59.6598 16.4504C59.4892 16.2291 59.3989 15.9562 59.4038 15.6767C59.4007 15.4999 59.4374 15.3247 59.5113 15.1641C59.5852 15.0035 59.6943 14.8616 59.8305 14.7491C60.1305 14.5101 60.5057 14.3858 60.8889 14.3986C62.135 14.3986 63.0226 15.1723 63.5091 16.7282H64.2176V13.8729H63.5091C63.4574 14.177 63.3744 14.4749 63.2616 14.762C62.9495 14.4035 62.5675 14.1126 62.1393 13.9071C61.7165 13.6956 61.2504 13.5859 60.7779 13.5865C60.2002 13.5758 59.6305 13.7236 59.1307 14.0139C58.6803 14.2764 58.3077 14.6541 58.051 15.1082C57.8124 15.5202 57.6845 15.987 57.6797 16.4632C57.6815 16.7214 57.7218 16.9778 57.7992 17.2241C57.8955 17.5114 58.0398 17.7802 58.2259 18.0191C58.4803 18.3473 58.7824 18.6355 59.1221 18.874C59.5987 19.22 60.1091 19.5164 60.6456 19.7589C61.0468 19.9384 61.4052 20.1094 61.7168 20.2761C61.9779 20.4051 62.2265 20.5582 62.4593 20.7334C62.6349 20.8633 62.7804 21.0295 62.8861 21.2207C62.9812 21.4116 63.0281 21.623 63.0226 21.8363C63.0276 22.0369 62.9885 22.2363 62.9081 22.4202C62.8277 22.6041 62.708 22.7681 62.5575 22.9006C62.2179 23.196 61.7777 23.3491 61.3284 23.3281C60.7917 23.3455 60.2654 23.1763 59.8391 22.8493C59.4472 22.5427 59.128 22.1529 58.9045 21.708C58.6791 21.2557 58.5045 20.7797 58.3838 20.2889H57.6882V23.8025H58.3838C58.4383 23.4452 58.5417 23.0971 58.6911 22.7681C59.0486 23.2172 59.51 23.5722 60.0354 23.8025C60.5424 24.0325 61.0919 24.1534 61.6485 24.1573C62.1479 24.1675 62.643 24.0622 63.0952 23.8495C63.4927 23.6621 63.8461 23.3926 64.1322 23.0588C64.3925 22.7573 64.5989 22.4132 64.7425 22.0414C64.8721 21.7207 64.9416 21.3787 64.9473 21.0326C64.9659 20.5187 64.816 20.0128 64.5205 19.5921C64.2302 19.1982 63.8665 18.8644 63.4494 18.609Z" fill="#0F0E0D"/>
<path d="M74.901 22.6601C74.7943 22.4592 74.6278 22.0788 74.4017 21.5145L71.2949 13.5469H70.578L67.6334 21.2709C67.4783 21.7044 67.2855 22.1235 67.0572 22.5233C66.9261 22.7682 66.7334 22.9745 66.4982 23.1217C66.2762 23.2337 66.0297 23.2881 65.7812 23.2799V23.9766H69.2977V23.2799C69.0212 23.286 68.7457 23.2456 68.4826 23.1602C68.3669 23.12 68.2685 23.0411 68.204 22.9368C68.1395 22.8325 68.1128 22.7091 68.1284 22.5874C68.1567 22.3086 68.2287 22.0359 68.3418 21.7795L68.5893 21.117H71.9052L72.3831 22.3224C72.444 22.4687 72.4759 22.6255 72.477 22.7841C72.4916 22.8776 72.4708 22.9733 72.4187 23.0524C72.3667 23.1314 72.287 23.1882 72.1954 23.2115C71.9049 23.2815 71.6061 23.3102 71.3077 23.297V23.9766H76.1215V23.2799C75.85 23.2957 75.5792 23.2397 75.3363 23.1175C75.1515 23.0085 75.0008 22.8501 74.901 22.6601ZM68.8837 20.3861L70.2238 16.8169L71.632 20.3861H68.8837Z" fill="#0F0E0D"/>
<path d="M89.0202 17.1699C88.7984 16.8126 88.5235 16.4912 88.2051 16.2167C87.8889 15.9422 87.5299 15.7213 87.1425 15.5627C86.6981 15.3831 86.2339 15.2568 85.7598 15.1865C85.1504 15.1027 84.5356 15.0641 83.9205 15.0711H83.1182H82.3287L80.4382 15.1096V15.7209C80.8111 15.6728 81.1892 15.7542 81.5094 15.9517C81.6895 16.1802 81.7737 16.4699 81.7441 16.7596V22.3164C81.753 22.524 81.7226 22.7314 81.6545 22.9276C81.6192 23.0047 81.5678 23.0731 81.5037 23.1285C81.4396 23.1838 81.3644 23.2246 81.2832 23.2482C81.007 23.3329 80.7182 23.369 80.4297 23.3551V23.9535H84.4454C85.4767 23.9824 86.5028 23.7961 87.4583 23.4064C87.8687 23.219 88.2407 22.9567 88.5551 22.6327C88.9199 22.2648 89.2098 21.8292 89.4086 21.3504C89.6284 20.8075 89.7387 20.2264 89.7329 19.6406C89.7354 19.1951 89.6736 18.7517 89.5494 18.324C89.4287 17.9161 89.2505 17.5275 89.0202 17.1699ZM86.9676 22.154C86.5323 22.8892 85.7897 23.2568 84.7399 23.2568C84.4724 23.271 84.2048 23.2288 83.9547 23.1328C83.8787 23.0988 83.8117 23.0474 83.7591 22.9829C83.7065 22.9183 83.6697 22.8423 83.6517 22.7609C83.6105 22.5038 83.5934 22.2433 83.6005 21.983V15.7978C84.1424 15.7978 84.5607 15.7978 84.8551 15.8405C85.1378 15.8655 85.4153 15.9317 85.6788 16.0372C86.2865 16.2851 86.7879 16.739 87.0956 17.3195C87.4672 18.0258 87.6481 18.817 87.6205 19.6149C87.6381 20.5051 87.4123 21.3831 86.9676 22.154Z" fill="#0F0E0D"/>
<path d="M97.4032 22.5582C97.2019 22.8273 96.9258 23.031 96.6095 23.1438C96.3311 23.2183 96.0441 23.2557 95.7559 23.2549H95.0518C94.8064 23.2641 94.5609 23.2396 94.3221 23.1823C94.1754 23.1507 94.0442 23.0691 93.9508 22.9514C93.8719 22.8329 93.8249 22.696 93.8142 22.5539C93.8142 22.3958 93.7886 22.1265 93.7886 21.7931V19.7242H94.6933C94.9249 19.7147 95.1566 19.7406 95.3804 19.8011C95.4531 19.8267 95.5195 19.8673 95.5754 19.9203C95.6313 19.9733 95.6754 20.0376 95.7047 20.1089C95.7896 20.3389 95.8344 20.5818 95.837 20.827H96.4302V17.899H95.8114C95.8026 18.1415 95.761 18.3816 95.6877 18.6128C95.661 18.6851 95.6184 18.7503 95.563 18.8036C95.5075 18.8569 95.4407 18.8969 95.3676 18.9206C95.1445 18.9849 94.9124 19.0124 94.6805 19.0018H93.7886V15.8943H95.4316C95.7618 15.884 96.0922 15.9084 96.4174 15.9669C96.6536 16.0299 96.8613 16.1717 97.0063 16.3687C97.2309 16.6977 97.3876 17.0683 97.4672 17.4587H98.0647L97.9495 15.1719H90.6562V15.7703C90.9458 15.7547 91.2356 15.7954 91.5098 15.89C91.5878 15.9174 91.6592 15.9608 91.7194 16.0175C91.7797 16.0742 91.8275 16.1429 91.8597 16.2191C91.9141 16.4108 91.9386 16.6098 91.9322 16.809V22.3402C91.9625 22.6286 91.8782 22.9173 91.6975 23.1438C91.3893 23.3436 91.0202 23.4269 90.6562 23.3789V23.9773H98.4872L98.5597 21.0792H97.9495C97.8999 21.6116 97.7115 22.1216 97.4032 22.5582Z" fill="#0F0E0D"/>
<path d="M106.067 22.524C105.791 22.827 105.429 23.0387 105.03 23.131C104.599 23.2092 104.162 23.2464 103.724 23.2421C103.434 23.2618 103.142 23.2166 102.871 23.1096C102.791 23.0736 102.72 23.0193 102.664 22.951C102.609 22.8828 102.57 22.8024 102.551 22.7164C102.505 22.4338 102.486 22.1475 102.495 21.8615V16.809C102.485 16.6031 102.514 16.3971 102.581 16.202C102.617 16.1259 102.669 16.0582 102.733 16.003C102.797 15.9479 102.871 15.9065 102.952 15.8814C103.22 15.794 103.502 15.7564 103.784 15.7703V15.1719H99.3672V15.7703C99.6564 15.7556 99.9458 15.7947 100.221 15.8857C100.3 15.9118 100.374 15.9547 100.435 16.0115C100.497 16.0683 100.546 16.1376 100.579 16.2148C100.638 16.4072 100.664 16.608 100.656 16.809V22.3402C100.686 22.6278 100.603 22.9158 100.426 23.1438C100.115 23.3429 99.7453 23.4261 99.38 23.3789V23.9773H107.198L107.258 21.0365H106.66C106.631 21.584 106.422 22.1066 106.067 22.524Z" fill="#0F0E0D"/>
<path d="M118.769 14.4425C119.094 14.4238 119.419 14.4733 119.724 14.5878C119.814 14.6212 119.895 14.6731 119.962 14.7402C120.03 14.8072 120.083 14.8879 120.117 14.9768C120.179 15.1963 120.207 15.4242 120.198 15.6521V18.1698H115.461V15.6521C115.427 15.3197 115.523 14.9869 115.73 14.7246C115.909 14.5365 116.31 14.4425 116.933 14.4425V13.75H111.872V14.4425C112.195 14.424 112.517 14.4735 112.82 14.5878C112.909 14.6225 112.991 14.6748 113.06 14.7416C113.128 14.8084 113.183 14.8884 113.221 14.9768C113.288 15.1952 113.319 15.4236 113.31 15.6521V22.0981C113.317 22.3297 113.285 22.5608 113.216 22.782C113.176 22.8729 113.117 22.9544 113.044 23.0214C112.97 23.0883 112.884 23.1393 112.79 23.171C112.491 23.2733 112.175 23.3183 111.859 23.3035V23.9789H116.933V23.2821C116.302 23.2821 115.901 23.1881 115.726 22.9957C115.526 22.7331 115.432 22.4054 115.461 22.0767V19.0076H120.219V22.0981C120.227 22.328 120.197 22.5576 120.13 22.7777C120.093 22.868 120.039 22.9497 119.969 23.0174C119.899 23.0851 119.816 23.1374 119.724 23.171C119.424 23.274 119.107 23.3189 118.79 23.3035V23.9789H123.813V23.2821C123.487 23.3011 123.161 23.2501 122.857 23.1325C122.767 23.0975 122.685 23.0441 122.617 22.9756C122.548 22.9072 122.495 22.8252 122.46 22.735C122.394 22.5289 122.358 22.3144 122.353 22.0981V15.6863C122.346 15.4581 122.375 15.2302 122.439 15.011C122.475 14.9223 122.528 14.842 122.597 14.7751C122.665 14.7082 122.746 14.6561 122.835 14.622C123.138 14.5077 123.46 14.4582 123.783 14.4767V13.75H118.769V14.4425Z" fill="#0F0E0D"/>
<path d="M133.441 22.6601C133.334 22.4592 133.168 22.0788 132.941 21.5145L129.822 13.5469H129.109L126.186 21.2752C126.02 21.7064 125.82 22.1238 125.589 22.5233C125.457 22.7694 125.263 22.976 125.025 23.1217C124.805 23.2334 124.56 23.2877 124.312 23.2799V23.9766H127.829V23.2799C127.551 23.2856 127.274 23.2452 127.01 23.1602C126.895 23.1185 126.798 23.0392 126.735 22.9351C126.671 22.8311 126.645 22.7085 126.66 22.5874C126.688 22.3086 126.76 22.0359 126.873 21.7795L127.121 21.117H130.453L130.936 22.3224C130.994 22.4694 131.024 22.626 131.025 22.7841C131.041 22.8772 131.021 22.9728 130.97 23.052C130.919 23.1312 130.839 23.1881 130.748 23.2115C130.458 23.2815 130.159 23.3102 129.86 23.297V23.9766H134.67V23.2799C134.4 23.2958 134.13 23.2397 133.889 23.1175C133.697 23.013 133.541 22.8538 133.441 22.6601ZM127.415 20.3861L128.746 16.8083L130.155 20.3775L127.415 20.3861Z" fill="#0F0E0D"/>
<path d="M143.031 19.038C142.548 18.7742 142.025 18.5936 141.482 18.5037C142.177 18.3461 142.821 18.0169 143.356 17.5462C143.54 17.3665 143.686 17.1509 143.784 16.9128C143.882 16.6747 143.931 16.4189 143.927 16.1612C143.946 15.8497 143.893 15.538 143.771 15.2508C143.648 14.9637 143.461 14.709 143.223 14.507C142.774 14.1341 142.239 13.8812 141.666 13.7718C141.126 13.6669 140.577 13.6126 140.027 13.6094H139.75H138.858L137.236 13.6436L135.158 13.6863V14.4002C135.573 14.3513 135.993 14.4447 136.348 14.6652C136.454 14.7966 136.534 14.9477 136.581 15.1098C136.629 15.2719 136.644 15.4418 136.626 15.6098V22.0942C136.633 22.3273 136.601 22.5599 136.532 22.7824C136.49 22.8721 136.431 22.9525 136.358 23.0186C136.284 23.0847 136.198 23.1352 136.105 23.1671C135.795 23.2727 135.468 23.3177 135.141 23.2996V23.975H140.262C140.674 23.9738 141.086 23.9438 141.495 23.8853C141.946 23.8148 142.386 23.6885 142.805 23.5091C143.238 23.3312 143.618 23.0458 143.91 22.6798C144.212 22.2753 144.363 21.7778 144.337 21.2735C144.341 20.823 144.223 20.3799 143.996 19.9912C143.763 19.5943 143.431 19.2655 143.031 19.038ZM138.764 14.4557H139.558C139.971 14.4428 140.383 14.5186 140.765 14.678C141.07 14.801 141.329 15.0152 141.508 15.2913C141.687 15.5675 141.776 15.8922 141.764 16.2211C141.775 16.4809 141.728 16.74 141.627 16.9796C141.526 17.2191 141.373 17.4331 141.179 17.606C140.671 17.9808 140.046 18.1626 139.417 18.119H138.777L138.764 14.4557ZM141.427 22.6627C141.029 22.9749 140.537 23.1422 140.031 23.1372C139.737 23.1583 139.442 23.0993 139.178 22.9662C139.09 22.9142 139.015 22.8443 138.956 22.7611C138.897 22.6779 138.856 22.5832 138.836 22.4832C138.787 22.2011 138.764 21.9148 138.768 21.6283V18.9525H139.989C140.27 18.9332 140.552 18.9748 140.815 19.0744C141.079 19.1739 141.318 19.3292 141.516 19.5295C141.898 19.9778 142.091 20.5572 142.054 21.1453C142.079 21.4289 142.036 21.7143 141.929 21.9781C141.822 22.2419 141.654 22.4765 141.439 22.6627H141.427Z" fill="#0F0E0D"/>
<path d="M153.721 22.6601C153.619 22.4592 153.452 22.0788 153.226 21.5145L150.115 13.5469H149.398L146.454 21.2709C146.299 21.7044 146.106 22.1235 145.878 22.5233C145.749 22.77 145.556 22.9769 145.319 23.1217C145.097 23.2337 144.85 23.2881 144.602 23.2799V23.9766H148.118V23.2799C147.842 23.2857 147.566 23.2453 147.303 23.1602C147.188 23.1199 147.09 23.0408 147.026 22.9364C146.962 22.832 146.936 22.7087 146.953 22.5874C146.979 22.3087 147.05 22.0359 147.162 21.7795L147.414 21.117H150.725L151.208 22.3224C151.266 22.4694 151.296 22.626 151.297 22.7841C151.312 22.8771 151.292 22.9722 151.241 23.0512C151.189 23.1302 151.111 23.1873 151.02 23.2115C150.729 23.2812 150.431 23.31 150.132 23.297V23.9766H154.942V23.2799C154.672 23.2964 154.402 23.2403 154.161 23.1175C153.974 23.0099 153.821 22.8513 153.721 22.6601ZM147.704 20.3861L149.044 16.8169L150.452 20.3861H147.704Z" fill="#0F0E0D"/>
<path d="M162.743 14.4425C163.081 14.4208 163.42 14.4778 163.733 14.6092C163.828 14.6544 163.913 14.7199 163.981 14.8011C164.049 14.8822 164.098 14.9772 164.126 15.0794C164.189 15.3684 164.216 15.6642 164.207 15.9599V20.6277L158.39 13.75H155.403V14.4425C155.68 14.4625 155.951 14.5305 156.205 14.6434C156.385 14.7228 156.534 14.8576 156.632 15.0281C156.722 15.2006 156.777 15.3896 156.794 15.5838C156.815 15.7932 156.828 16.1095 156.828 16.5327V21.7518C156.838 22.0642 156.813 22.3766 156.756 22.6837C156.728 22.7783 156.681 22.8657 156.616 22.9396C156.551 23.0135 156.47 23.0721 156.38 23.1111C156.068 23.2329 155.733 23.2854 155.398 23.265V23.9789H159.192V23.2821C158.837 23.3032 158.481 23.2508 158.147 23.1282C158.048 23.0934 157.959 23.0369 157.885 22.963C157.811 22.889 157.755 22.7994 157.72 22.7008C157.658 22.3942 157.632 22.0815 157.643 21.7689V16.1138L164.322 24.0643H165.017V15.9428C165.006 15.629 165.03 15.3149 165.09 15.0067C165.119 14.9103 165.169 14.8216 165.237 14.7476C165.305 14.6735 165.389 14.616 165.483 14.5793C165.818 14.4599 166.173 14.409 166.528 14.4296V13.75H162.717L162.743 14.4425Z" fill="#0F0E0D"/>
<path d="M177.728 15.4504C177.248 14.8651 176.637 14.4021 175.944 14.0997C175.068 13.7195 174.12 13.5371 173.166 13.5653C172.092 13.5362 171.029 13.7913 170.085 14.3048C169.268 14.7589 168.598 15.4384 168.156 16.2625C167.794 16.9423 167.58 17.6909 167.528 18.4592C167.476 19.2276 167.587 19.9983 167.853 20.7208C168.084 21.3509 168.433 21.9312 168.881 22.4306C169.379 22.9767 169.993 23.4034 170.678 23.6788C171.491 24.0076 172.362 24.1675 173.238 24.149C174.308 24.1763 175.365 23.9229 176.307 23.4138C177.123 22.9637 177.795 22.2907 178.244 21.4732C178.685 20.6723 178.914 19.7717 178.91 18.8572C178.903 18.2765 178.81 17.7001 178.632 17.1474C178.437 16.5309 178.131 15.9556 177.728 15.4504ZM176.396 20.101C176.336 20.5876 176.205 21.0627 176.008 21.5116C175.792 22.0068 175.449 22.4359 175.014 22.7555C174.493 23.1136 173.869 23.2921 173.238 23.2642C172.604 23.292 171.976 23.1185 171.446 22.7683C171.004 22.465 170.656 22.0447 170.439 21.5544C170.236 21.1083 170.1 20.6343 170.038 20.1481C169.984 19.7098 169.957 19.2687 169.957 18.8272C169.948 18.1064 170.035 17.3875 170.217 16.69C170.375 16.0651 170.718 15.503 171.203 15.0785C171.773 14.6178 172.494 14.3875 173.225 14.4331C173.774 14.4138 174.319 14.5391 174.804 14.7964C175.223 15.0315 175.572 15.3737 175.816 15.7881C176.067 16.2179 176.241 16.6879 176.332 17.1773C176.432 17.7143 176.48 18.2596 176.477 18.8059C176.478 19.2389 176.45 19.6714 176.396 20.101Z" fill="#0F0E0D"/>
<path d="M225.996 18.9317C225.991 13.9128 223.999 9.10077 220.456 5.55148C216.914 2.0022 212.11 0.00565877 207.099 0H18.0474C13.2631 0.00226309 8.67528 1.90633 5.29147 5.29406C1.90766 8.68178 0.00452255 13.2762 0 18.0683V18.9232C0.00451955 23.7138 1.90649 28.3069 5.28845 31.6944C8.67041 35.0819 13.256 36.9869 18.0389 36.9915H207.944C212.728 36.9903 217.315 35.0879 220.7 31.7019C224.084 28.3159 225.989 23.7231 225.996 18.9317ZM207.961 34.3199H18.0559C13.9835 34.3131 10.0797 32.6897 7.20004 29.8053C4.32037 26.9209 2.69958 23.0108 2.69281 18.9317V18.0768C2.69958 13.9977 4.32037 10.0876 7.20004 7.20324C10.0797 4.31886 13.9835 2.69544 18.0559 2.68865H207.108C211.406 2.69769 215.525 4.41191 218.565 7.45612C221.604 10.5003 223.315 14.6266 223.324 18.9317C223.32 23.0123 221.7 26.9246 218.82 29.8108C215.94 32.6971 212.035 34.3217 207.961 34.3284V34.3199Z" fill="#0F0E0D"/>
<path d="M196.361 29.786L185.842 18.6723L196.707 7.19531H18.2218C15.3213 7.19984 12.5412 8.35771 10.4926 10.4144C8.44408 12.4711 7.29461 15.2584 7.29688 18.1637V18.8262C7.29687 21.73 8.44734 24.515 10.4957 26.5699C12.544 28.6248 15.3227 29.7815 18.2218 29.786H196.361ZM191.979 28.5977H18.2218C15.6366 28.5943 13.1586 27.5633 11.3318 25.7312C9.50504 23.899 8.47898 21.4155 8.47898 18.8262V18.1637C8.47672 15.5728 9.50178 13.0872 11.3288 11.2532C13.1558 9.41919 15.6352 8.38702 18.2218 8.38362H192.337L182.581 18.6723L191.979 28.5977Z" fill="#0F0E0D"/>
<path d="M202.415 29.3647L192.284 18.6443L202.645 7.69307C201.704 7.48656 200.751 7.34375 199.79 7.26562L189.023 18.64L199.53 29.7537C200.499 29.6902 201.463 29.5603 202.415 29.3647Z" fill="#0F0E0D"/>
<path d="M198.73 18.6002L207.466 9.37582C206.706 9.01129 205.927 8.69018 205.131 8.41406L195.461 18.6002L204.965 28.6538C205.764 28.3759 206.548 28.0534 207.312 27.6877L198.73 18.6002Z" fill="#0F0E0D"/>
<path d="M205.174 18.5688L211.516 11.8706C210.896 11.4061 210.234 10.9545 209.532 10.5156L201.914 18.5688L209.446 26.5364C210.15 26.109 210.816 25.6516 211.435 25.19L205.174 18.5688Z" fill="#0F0E0D"/>
<path d="M208.352 18.5302L213.242 23.7066C213.874 23.1381 214.437 22.5781 214.949 22.0438L211.629 18.5302L214.949 14.9866C214.454 14.4566 213.891 13.8966 213.242 13.3281L208.352 18.5302Z" fill="#0F0E0D"/>
<path d="M214.805 18.4983L216.46 20.2508C217.152 19.3318 217.519 18.6778 217.519 18.5025C217.519 18.3273 217.156 17.6476 216.46 16.75L214.805 18.4983Z" fill="#0F0E0D"/>
</g>
<defs>
<clipPath id="clip0_875_27">
<rect width="226" height="37" fill="white"/>
</clipPath>
</defs>
</svg>
