<svg width="109" height="168" viewBox="0 0 109 168" fill="none" xmlns="http://www.w3.org/2000/svg">
<path d="M106.072 40.9619L85.9163 42.5331C84.1147 34.6025 81.5623 28.8417 78.2593 25.2505C72.7793 19.4896 66.0231 16.6092 57.9907 16.6092C51.5348 16.6092 45.8671 18.4048 40.9876 21.996C34.6067 26.6346 29.5771 33.4055 25.8988 42.3086C22.2204 51.2118 20.3061 63.8931 20.156 80.3527C25.0355 72.9459 31.0034 67.4469 38.0599 63.8557C45.1164 60.2645 52.5107 58.4689 60.2428 58.4689C73.7552 58.4689 85.2407 63.4442 94.6994 73.3948C104.233 83.2705 109 96.0641 109 111.776C109 122.1 106.748 131.714 102.244 140.617C97.8147 149.446 91.6966 156.216 83.8895 160.93C76.0823 165.643 67.2242 168 57.3151 168C40.4246 168 26.6494 161.828 15.9897 149.483C5.32989 137.063 0 116.639 0 88.2084C0 56.4115 5.89291 33.2933 17.6787 18.8537C27.9632 6.28457 41.8134 0 59.2293 0C72.2163 0 82.8385 3.62859 91.0961 10.8858C99.4287 18.143 104.421 28.1683 106.072 40.9619ZM23.3089 111.888C23.3089 118.846 24.7727 125.504 27.7004 131.864C30.7032 138.223 34.8695 143.086 40.1994 146.453C45.5293 149.745 51.1219 151.391 56.9773 151.391C65.5351 151.391 72.8919 147.949 79.0475 141.066C85.2032 134.183 88.281 124.831 88.281 113.01C88.281 101.638 85.2407 92.6974 79.1601 86.1884C73.0795 79.6045 65.4225 76.3126 56.189 76.3126C47.0306 76.3126 39.261 79.6045 32.8802 86.1884C26.4993 92.6974 23.3089 101.264 23.3089 111.888Z" fill="white"/>
</svg>
