<svg width="106" height="168" viewBox="0 0 106 168" fill="none" xmlns="http://www.w3.org/2000/svg">
<path d="M0 84.0561C0 64.6039 1.95886 48.9673 5.87657 37.1463C9.8682 25.2505 15.7448 16.0855 23.5063 9.6513C31.3417 3.2171 41.1729 0 53 0C61.7225 0 69.3731 1.79559 75.9519 5.38677C82.5307 8.90314 87.9637 14.0281 92.251 20.7615C96.5384 27.4202 99.9017 35.5751 102.341 45.2265C104.78 54.8029 106 67.7462 106 84.0561C106 103.359 104.041 118.958 100.123 130.854C96.2057 142.675 90.3291 151.84 82.4937 158.349C74.7322 164.783 64.901 168 53 168C37.3292 168 25.0216 162.314 16.0774 150.942C5.35914 137.251 0 114.955 0 84.0561ZM20.5126 84.0561C20.5126 111.065 23.6172 129.058 29.8264 138.036C36.1095 146.939 43.834 151.391 53 151.391C62.166 151.391 69.8536 146.902 76.0628 137.924C82.3459 128.946 85.4874 110.99 85.4874 84.0561C85.4874 56.9726 82.3459 38.9793 76.0628 30.0762C69.8536 21.173 62.092 16.7214 52.7782 16.7214C43.6123 16.7214 36.2943 20.6493 30.8243 28.505C23.9498 38.5304 20.5126 57.0474 20.5126 84.0561Z" fill="white"/>
</svg>
