<svg width="108" height="168" viewBox="0 0 108 168" fill="none" xmlns="http://www.w3.org/2000/svg">
<path d="M31.1925 75.976C22.8447 72.9085 16.6584 68.5317 12.6335 62.8457C8.6087 57.1597 6.59627 50.3514 6.59627 42.4208C6.59627 30.4502 10.882 20.3874 19.4534 12.2325C28.0248 4.07749 39.4286 0 53.6646 0C67.9752 0 79.4907 4.18971 88.2112 12.5691C96.9317 20.8737 101.292 31.0114 101.292 42.982C101.292 50.6132 99.2795 57.2719 95.2547 62.9579C91.3043 68.5691 85.2671 72.9085 77.1429 75.976C87.205 79.2679 94.8447 84.5798 100.062 91.9118C105.354 99.2438 108 107.997 108 118.172C108 132.238 103.043 144.059 93.1304 153.635C83.2174 163.212 70.1739 168 54 168C37.8261 168 24.7826 163.212 14.8696 153.635C4.95652 143.984 0 131.976 0 117.611C0 106.912 2.68323 97.9719 8.04969 90.7896C13.4907 83.5324 21.205 78.5945 31.1925 75.976ZM27.1677 41.7475C27.1677 49.5284 29.6646 55.8878 34.6584 60.8256C39.6522 65.7635 46.1366 68.2325 54.1118 68.2325C61.8634 68.2325 68.1988 65.8009 73.118 60.9379C78.1118 56 80.6087 49.9773 80.6087 42.8697C80.6087 35.4629 78.0373 29.2532 72.8944 24.2405C67.8261 19.153 61.4907 16.6092 53.8882 16.6092C46.2112 16.6092 39.8385 19.0782 34.7702 24.016C29.7019 28.9539 27.1677 34.8644 27.1677 41.7475ZM20.6832 117.723C20.6832 123.484 22.0248 129.058 24.7081 134.445C27.4658 139.832 31.528 144.021 36.8944 147.014C42.2609 149.932 48.0373 151.391 54.2236 151.391C63.8385 151.391 71.7764 148.286 78.0373 142.076C84.2981 135.866 87.4286 127.973 87.4286 118.397C87.4286 108.671 84.1863 100.628 77.7019 94.2685C71.2919 87.9091 63.2422 84.7295 53.5528 84.7295C44.087 84.7295 36.2236 87.8717 29.9627 94.1563C23.7764 100.441 20.6832 108.297 20.6832 117.723Z" fill="white"/>
</svg>
