<svg width="110" height="168" viewBox="0 0 110 168" fill="none" xmlns="http://www.w3.org/2000/svg">
<path d="M0 121.682L20.625 118.991C22.9931 130.43 27.0035 138.692 32.6562 143.776C38.3854 148.785 45.3368 151.29 53.5104 151.29C63.2118 151.29 71.3854 148 78.0312 141.421C84.7535 134.841 88.1146 126.692 88.1146 116.972C88.1146 107.701 85.0208 100.075 78.8333 94.0935C72.6458 88.0374 64.7778 85.0093 55.2292 85.0093C51.3333 85.0093 46.4826 85.757 40.6771 87.2523L42.9688 69.5327C44.3438 69.6822 45.4514 69.757 46.2917 69.757C55.0764 69.757 62.9826 67.514 70.0104 63.028C77.0382 58.5421 80.5521 51.6262 80.5521 42.2804C80.5521 34.8785 77.9931 28.7477 72.875 23.8879C67.7569 19.028 61.1493 16.5981 53.0521 16.5981C45.0312 16.5981 38.3472 19.0654 33 24C27.6528 28.9346 24.2153 36.3364 22.6875 46.2056L2.0625 42.6168C4.58333 29.0841 10.3125 18.6168 19.25 11.215C28.1875 3.73832 39.3021 0 52.5938 0C61.7604 0 70.2014 1.94393 77.9167 5.83178C85.632 9.64486 91.5139 14.8785 95.5625 21.5327C99.6875 28.1869 101.75 35.2523 101.75 42.729C101.75 49.8318 99.8021 56.2991 95.9062 62.1308C92.0104 67.9626 86.2431 72.5981 78.6042 76.0374C88.5347 78.2804 96.25 82.9533 101.75 90.0561C107.25 97.0841 110 105.907 110 116.523C110 130.879 104.653 143.065 93.9583 153.084C83.2639 163.028 69.7431 168 53.3958 168C38.6528 168 26.3924 163.701 16.6146 155.103C6.9132 146.505 1.375 135.364 0 121.682Z" fill="white"/>
</svg>
