<svg width="108" height="168" viewBox="0 0 108 168" fill="none" xmlns="http://www.w3.org/2000/svg">
<path d="M3.0249 127.15L22.4066 125.355C24.0498 134.482 27.1867 141.104 31.8174 145.218C36.4481 149.333 42.3859 151.391 49.6307 151.391C55.8299 151.391 61.2448 149.969 65.8755 147.126C70.5809 144.283 74.4274 140.505 77.4149 135.792C80.4025 131.003 82.9046 124.569 84.9212 116.489C86.9378 108.409 87.9461 100.179 87.9461 91.7996C87.9461 90.9018 87.9087 89.5551 87.834 87.7595C83.8008 94.1937 78.2739 99.4309 71.2531 103.471C64.3071 107.436 56.7635 109.419 48.6224 109.419C35.029 109.419 23.527 104.481 14.1162 94.6052C4.70539 84.7295 0 71.7114 0 55.5511C0 38.8671 4.89212 25.4375 14.6763 15.2625C24.5353 5.08751 36.8589 0 51.6473 0C62.3278 0 72.0747 2.88043 80.888 8.64128C89.7759 14.4021 96.4979 22.6319 101.054 33.3307C105.685 43.9546 108 59.3667 108 79.5671C108 100.591 105.722 117.349 101.166 129.844C96.61 142.263 89.8133 151.727 80.7759 158.236C71.8133 164.745 61.2822 168 49.1826 168C36.3361 168 25.8423 164.446 17.7012 157.339C9.56017 150.156 4.66805 140.094 3.0249 127.15ZM85.5934 54.5411C85.5934 42.9446 82.4938 33.7421 76.2946 26.9339C70.1701 20.1256 62.7759 16.7214 54.112 16.7214C45.1494 16.7214 37.3444 20.3874 30.6971 27.7194C24.0498 35.0514 20.7261 44.5531 20.7261 56.2244C20.7261 66.6987 23.8631 75.2278 30.1369 81.8116C36.4855 88.3206 44.2905 91.5751 53.5519 91.5751C62.888 91.5751 70.5436 88.3206 76.5187 81.8116C82.5685 75.2278 85.5934 66.1376 85.5934 54.5411Z" fill="white"/>
</svg>
