<svg width="110" height="168" viewBox="0 0 110 168" fill="none" xmlns="http://www.w3.org/2000/svg">
<path d="M110 148.255V168H0.0181601C-0.133174 163.054 0.661329 158.299 2.40167 153.734C5.20134 146.201 9.66569 138.783 15.7947 131.478C21.9994 124.174 30.9281 115.728 42.5808 106.141C60.6652 91.2283 72.8854 79.4348 79.2414 70.7609C85.5974 62.0109 88.7754 53.7554 88.7754 45.9946C88.7754 37.8533 85.8623 31.0054 80.0359 25.4511C74.2852 19.8207 66.7564 17.0054 57.4493 17.0054C47.6126 17.0054 39.7433 19.9728 33.8413 25.9076C27.9392 31.8424 24.9504 40.0598 24.8747 50.5598L3.87717 48.3913C5.31484 32.6413 10.725 20.6576 20.1077 12.4402C29.4904 4.14674 42.089 0 57.9033 0C73.869 0 86.5054 4.45109 95.8125 13.3533C105.119 22.2554 109.773 33.288 109.773 46.4511C109.773 53.1467 108.411 59.7283 105.687 66.1956C102.963 72.663 98.423 79.4728 92.0669 86.625C85.7866 93.7772 75.3067 103.592 60.6273 116.071C48.3693 126.418 40.4999 133.457 37.0193 137.185C33.5386 140.837 30.6633 144.527 28.3932 148.255H110Z" fill="white"/>
</svg>
