<svg width="111" height="168" viewBox="0 0 111 168" fill="none" xmlns="http://www.w3.org/2000/svg">
<path d="M0 121.289L21.5833 119.462C23.1821 129.969 26.8745 137.887 32.6605 143.217C38.5226 148.47 45.5648 151.097 53.787 151.097C63.6842 151.097 72.0586 147.366 78.9105 139.905C85.7623 132.443 89.1883 122.545 89.1883 110.211C89.1883 98.4854 85.8765 89.2345 79.2531 82.4582C72.7058 75.6819 64.1029 72.2937 53.4444 72.2937C46.821 72.2937 40.8447 73.8165 35.5154 76.862C30.1862 79.8314 25.999 83.7145 22.9537 88.5112L3.65432 85.9986L19.8704 0H103.12V19.6438H36.3148L27.2932 64.6417C37.3426 57.637 47.8868 54.1346 58.9259 54.1346C73.5432 54.1346 85.8765 59.1978 95.9259 69.3243C105.975 79.4507 111 92.4704 111 108.383C111 123.535 106.584 136.631 97.7531 147.671C87.0185 161.224 72.3632 168 53.787 168C38.5607 168 26.1132 163.736 16.4444 155.209C6.85185 146.681 1.37037 135.375 0 121.289Z" fill="white"/>
</svg>
