<svg width="23" height="23" viewBox="0 0 23 23" fill="none" xmlns="http://www.w3.org/2000/svg">
<path d="M11.6845 0.75C12.1591 0.75 12.5515 1.10251 12.6136 1.5601L12.6222 1.68731L12.6237 10.75H21.6901C22.2079 10.75 22.6276 11.1698 22.6276 11.6875C22.6276 12.1621 22.2749 12.5544 21.8174 12.6165L21.6901 12.625H12.6237L12.6262 21.6864C12.6264 22.2041 12.2067 22.6241 11.689 22.6241C11.2144 22.6241 10.822 22.2716 10.7599 21.814L10.7512 21.6867L10.7487 12.625H1.6875C1.16973 12.625 0.75 12.2052 0.75 11.6875C0.75 11.2129 1.10269 10.8206 1.56029 10.7585L1.6875 10.75H10.7487L10.7472 1.68769C10.7471 1.16992 11.1667 0.75 11.6845 0.75Z" fill="white"/>
</svg>
