<svg width="29" height="29" viewBox="0 0 29 29" fill="none" xmlns="http://www.w3.org/2000/svg">
<g id="Add / undefined / Glyph: undefined">
<path id="Vector" d="M24.7734 14.1931C24.7734 14.6519 24.4327 15.0312 23.9903 15.0912L23.8674 15.0996L15.1068 15.101L15.1068 23.8652C15.1068 24.3657 14.701 24.7714 14.2005 24.7714C13.7417 24.7714 13.3625 24.4304 13.3025 23.9882L13.2943 23.8652L13.2943 15.101L4.53494 15.1034C4.03445 15.1035 3.62845 14.6979 3.62845 14.1974C3.62845 13.7386 3.9692 13.3593 4.41157 13.2993L4.53458 13.2909L13.2943 13.2885L13.2943 4.5293C13.2943 4.02878 13.7 3.62305 14.2005 3.62305C14.6593 3.62305 15.0385 3.96398 15.0986 4.40632L15.1068 4.5293L15.1068 13.2885L23.867 13.2871C24.3675 13.2869 24.7734 13.6926 24.7734 14.1931Z" fill="white"/>
</g>
</svg>
