<svg width="22" height="17" viewBox="0 0 22 17" fill="none" xmlns="http://www.w3.org/2000/svg">
<path d="M10.5216 16.7059L2.56168 8.60179L10.7027 0.323132C9.96336 0.167018 9.21395 0.0590624 8.45956 0L0 8.59856L8.25502 17C9.01665 16.952 9.77396 16.8538 10.5216 16.7059Z" fill="white"/>
<path d="M7.34841 8.55154L14.2713 1.33804C13.6696 1.05297 13.0519 0.801866 12.4214 0.585938L4.75781 8.55154L12.2895 16.4135C12.9233 16.1962 13.5443 15.944 14.1496 15.6581L7.34841 8.55154Z" fill="white"/>
<path d="M12.5321 8.53177L17.2445 3.38494C16.7836 3.02802 16.2921 2.68096 15.7699 2.34375L10.1094 8.53177L15.7065 14.6541C16.2297 14.3256 16.7244 13.9742 17.1843 13.6195L12.5321 8.53177Z" fill="white"/>
<path d="M14.8672 8.50922L18.834 12.3101C19.3463 11.8927 19.8032 11.4815 20.2185 11.0892L17.5255 8.50922L20.2185 5.90726C19.817 5.51806 19.3601 5.1069 18.834 4.68945L14.8672 8.50922Z" fill="white"/>
<path d="M19.625 8.49889L21.076 9.96619C21.6818 9.19675 22.0034 8.64919 22.0034 8.50246C22.0034 8.35573 21.6855 7.7867 21.076 7.03516L19.625 8.49889Z" fill="white"/>
</svg>
