<svg width="16" height="41" viewBox="0 0 16 41" fill="none" xmlns="http://www.w3.org/2000/svg">
<path fill-rule="evenodd" clip-rule="evenodd" d="M11 6C12.6569 6 14 4.65685 14 3C14 1.34315 12.6569 0 11 0C9.34315 0 8 1.34315 8 3C8 4.65685 9.34315 6 11 6ZM0 40.712C0 40.904 0.048 41 0.144 41C1.04 41 1.744 40.984 2.256 40.952L5.136 40.904L8.208 40.952C8.72 40.984 9.392 41 10.224 41C10.288 41 10.32 40.904 10.32 40.712C10.32 40.52 10.288 40.424 10.224 40.424C9.104 40.424 8.32 40.312 7.872 40.088C7.456 39.832 7.248 39.352 7.248 38.648C7.248 38.456 7.312 37.944 7.44 37.112L11.376 14.984C11.568 14.024 11.776 13.32 12 12.872C12.256 12.392 12.624 12.056 13.104 11.864C13.584 11.672 14.304 11.576 15.264 11.576C15.36 11.576 15.408 11.48 15.408 11.288C15.408 11.096 15.36 11 15.264 11L13.344 11.048C12.128 11.112 11.056 11.144 10.128 11.144C9.424 11.144 8.464 11.112 7.248 11.048L5.184 11C5.088 11 5.04 11.096 5.04 11.288C5.04 11.48 5.088 11.576 5.184 11.576C6.272 11.576 7.024 11.704 7.44 11.96C7.888 12.184 8.112 12.648 8.112 13.352C8.112 13.544 8.048 14.056 7.92 14.888L3.984 37.112C3.824 38.104 3.616 38.824 3.36 39.272C3.136 39.72 2.784 40.024 2.304 40.184C1.856 40.344 1.136 40.424 0.144 40.424C0.048 40.424 0 40.52 0 40.712Z" fill="white"/>
</svg>
